G04 #@! TF.GenerationSoftware,KiCad,Pcbnew,7.0.5*
G04 #@! TF.CreationDate,2024-02-25T22:15:05+02:00*
G04 #@! TF.ProjectId,WTP_receiver,5754505f-7265-4636-9569-7665722e6b69,rev?*
G04 #@! TF.SameCoordinates,Original*
G04 #@! TF.FileFunction,Copper,L1,Top*
G04 #@! TF.FilePolarity,Positive*
%FSLAX46Y46*%
G04 Gerber Fmt 4.6, Leading zero omitted, Abs format (unit mm)*
G04 Created by KiCad (PCBNEW 7.0.5) date 2024-02-25 22:15:05*
%MOMM*%
%LPD*%
G01*
G04 APERTURE LIST*
G04 Aperture macros list*
%AMRoundRect*
0 Rectangle with rounded corners*
0 $1 Rounding radius*
0 $2 $3 $4 $5 $6 $7 $8 $9 X,Y pos of 4 corners*
0 Add a 4 corners polygon primitive as box body*
4,1,4,$2,$3,$4,$5,$6,$7,$8,$9,$2,$3,0*
0 Add four circle primitives for the rounded corners*
1,1,$1+$1,$2,$3*
1,1,$1+$1,$4,$5*
1,1,$1+$1,$6,$7*
1,1,$1+$1,$8,$9*
0 Add four rect primitives between the rounded corners*
20,1,$1+$1,$2,$3,$4,$5,0*
20,1,$1+$1,$4,$5,$6,$7,0*
20,1,$1+$1,$6,$7,$8,$9,0*
20,1,$1+$1,$8,$9,$2,$3,0*%
G04 Aperture macros list end*
G04 #@! TA.AperFunction,ComponentPad*
%ADD10O,0.950000X1.750000*%
G04 #@! TD*
G04 #@! TA.AperFunction,ComponentPad*
%ADD11O,0.950000X2.050000*%
G04 #@! TD*
G04 #@! TA.AperFunction,SMDPad,CuDef*
%ADD12R,0.600000X1.140000*%
G04 #@! TD*
G04 #@! TA.AperFunction,SMDPad,CuDef*
%ADD13R,0.300000X1.140000*%
G04 #@! TD*
G04 #@! TA.AperFunction,ComponentPad*
%ADD14R,1.508000X1.508000*%
G04 #@! TD*
G04 #@! TA.AperFunction,ComponentPad*
%ADD15C,1.508000*%
G04 #@! TD*
G04 #@! TA.AperFunction,SMDPad,CuDef*
%ADD16R,1.440000X1.600000*%
G04 #@! TD*
G04 #@! TA.AperFunction,SMDPad,CuDef*
%ADD17R,4.960000X3.800000*%
G04 #@! TD*
G04 #@! TA.AperFunction,SMDPad,CuDef*
%ADD18R,3.180000X1.070000*%
G04 #@! TD*
G04 #@! TA.AperFunction,SMDPad,CuDef*
%ADD19RoundRect,0.250000X1.100000X-0.325000X1.100000X0.325000X-1.100000X0.325000X-1.100000X-0.325000X0*%
G04 #@! TD*
G04 #@! TA.AperFunction,SMDPad,CuDef*
%ADD20RoundRect,0.250000X-0.650000X1.000000X-0.650000X-1.000000X0.650000X-1.000000X0.650000X1.000000X0*%
G04 #@! TD*
G04 #@! TA.AperFunction,SMDPad,CuDef*
%ADD21RoundRect,0.250000X0.475000X-0.250000X0.475000X0.250000X-0.475000X0.250000X-0.475000X-0.250000X0*%
G04 #@! TD*
G04 #@! TA.AperFunction,SMDPad,CuDef*
%ADD22RoundRect,0.225000X0.250000X-0.225000X0.250000X0.225000X-0.250000X0.225000X-0.250000X-0.225000X0*%
G04 #@! TD*
G04 #@! TA.AperFunction,ViaPad*
%ADD23C,0.685800*%
G04 #@! TD*
G04 #@! TA.AperFunction,Conductor*
%ADD24C,0.250000*%
G04 #@! TD*
G04 APERTURE END LIST*
D10*
X77594250Y-18525000D03*
X86244250Y-18525000D03*
D11*
X77594250Y-22725000D03*
X86244250Y-22725000D03*
D12*
X78719250Y-23275000D03*
X79519250Y-23275000D03*
D13*
X80169250Y-23275000D03*
X80669250Y-23275000D03*
X81169250Y-23275000D03*
X81669250Y-23275000D03*
X83669250Y-23275000D03*
X83169250Y-23275000D03*
X82669250Y-23275000D03*
X82169250Y-23275000D03*
D12*
X84319250Y-23275000D03*
X85119250Y-23275000D03*
D14*
X66040000Y-33622000D03*
D15*
X63500000Y-33622000D03*
X60960000Y-33622000D03*
D16*
X84862000Y-36207000D03*
X84862000Y-34077000D03*
D17*
X81062000Y-35142000D03*
D18*
X90250000Y-52754000D03*
X90250000Y-49750000D03*
X82250000Y-52754000D03*
X82250000Y-49750000D03*
D19*
X79678000Y-31461000D03*
X79678000Y-28511000D03*
D18*
X90250000Y-57752000D03*
X90250000Y-54748000D03*
D20*
X71300000Y-28750000D03*
X71300000Y-32750000D03*
D18*
X86250000Y-52754000D03*
X86250000Y-49750000D03*
D19*
X67200000Y-31475000D03*
X67200000Y-28525000D03*
D18*
X94250000Y-52754000D03*
X94250000Y-49750000D03*
X94250000Y-57752000D03*
X94250000Y-54748000D03*
X86250000Y-57754000D03*
X86250000Y-54750000D03*
D21*
X74344000Y-31190000D03*
X74344000Y-29290000D03*
X82726000Y-31190000D03*
X82726000Y-29290000D03*
X76630000Y-31190000D03*
X76630000Y-29290000D03*
D18*
X82250000Y-57752000D03*
X82250000Y-54748000D03*
D16*
X96546000Y-36207000D03*
X96546000Y-34077000D03*
D17*
X92746000Y-35142000D03*
D22*
X61000000Y-31603000D03*
X61000000Y-30053000D03*
D16*
X84862000Y-44335000D03*
X84862000Y-42205000D03*
D17*
X81062000Y-43270000D03*
D16*
X96546000Y-44335000D03*
X96546000Y-42205000D03*
D17*
X92746000Y-43270000D03*
D23*
X96384000Y-31144000D03*
X97654000Y-27334000D03*
X97654000Y-29874000D03*
X96384000Y-28604000D03*
X100448000Y-31144000D03*
X93590000Y-31144000D03*
X97654000Y-28604000D03*
X96384000Y-23524000D03*
X92320000Y-31144000D03*
X97654000Y-23524000D03*
X96384000Y-29874000D03*
X94860000Y-31144000D03*
X94860000Y-29874000D03*
X100448000Y-29874000D03*
X97654000Y-24794000D03*
X99178000Y-29874000D03*
X97654000Y-26064000D03*
X92320000Y-29874000D03*
X93590000Y-29874000D03*
X96384000Y-27334000D03*
X99178000Y-31144000D03*
X97654000Y-31144000D03*
X96384000Y-26064000D03*
X96384000Y-24794000D03*
X71440000Y-46500000D03*
X87748000Y-36224000D03*
X73980000Y-49040000D03*
X71440000Y-49040000D03*
X87748000Y-33684000D03*
X86478000Y-34954000D03*
X89018000Y-38764000D03*
X87748000Y-34954000D03*
X73980000Y-47770000D03*
X72710000Y-47770000D03*
X71440000Y-50310000D03*
X72710000Y-49040000D03*
X86478000Y-37494000D03*
X89018000Y-36224000D03*
X72710000Y-50310000D03*
X86478000Y-36224000D03*
X89018000Y-33684000D03*
X71440000Y-47770000D03*
X89018000Y-37494000D03*
X86478000Y-38764000D03*
X72710000Y-46500000D03*
X75250000Y-49040000D03*
X89018000Y-34954000D03*
X87748000Y-37494000D03*
X75250000Y-46500000D03*
X73980000Y-46500000D03*
X87748000Y-38764000D03*
X75250000Y-50310000D03*
X75250000Y-47770000D03*
X86478000Y-33684000D03*
X73980000Y-50310000D03*
D24*
X78719250Y-23275000D02*
X78144250Y-23275000D01*
X78144250Y-23275000D02*
X77594250Y-22725000D01*
X85694250Y-23275000D02*
X86244250Y-22725000D01*
X85119250Y-23275000D02*
X85694250Y-23275000D01*
X79519250Y-24095000D02*
X79519250Y-23275000D01*
X80524250Y-25100000D02*
X79519250Y-24095000D01*
X83314250Y-25100000D02*
X80524250Y-25100000D01*
X84319250Y-24095000D02*
X83314250Y-25100000D01*
X84319250Y-23275000D02*
X84319250Y-24095000D01*
X63500000Y-32553000D02*
X63500000Y-33622000D01*
X61000000Y-30053000D02*
X63500000Y-32553000D01*
G04 #@! TA.AperFunction,Conductor*
G36*
X94757677Y-40019685D02*
G01*
X94778319Y-40036319D01*
X95200181Y-40458181D01*
X95233666Y-40519504D01*
X95236500Y-40545862D01*
X95236500Y-44717330D01*
X95246365Y-44817503D01*
X95246367Y-44817514D01*
X95247617Y-44823797D01*
X95250000Y-44847988D01*
X95250000Y-45750000D01*
X95609209Y-46109209D01*
X95609210Y-46109210D01*
X97373348Y-47873348D01*
X97400228Y-47913576D01*
X97740561Y-48735212D01*
X97750000Y-48782665D01*
X97750000Y-58440638D01*
X97730315Y-58507677D01*
X97713681Y-58528319D01*
X97278319Y-58963681D01*
X97216996Y-58997166D01*
X97190638Y-59000000D01*
X80809362Y-59000000D01*
X80742323Y-58980315D01*
X80721681Y-58963681D01*
X80286319Y-58528319D01*
X80252834Y-58466996D01*
X80250000Y-58440638D01*
X80250000Y-57309362D01*
X80269685Y-57242323D01*
X80286319Y-57221681D01*
X80721681Y-56786319D01*
X80783004Y-56752834D01*
X80809362Y-56750000D01*
X95646445Y-56750000D01*
X95646447Y-56750000D01*
X96000000Y-56750000D01*
X96500000Y-56250000D01*
X96500000Y-51250000D01*
X96000000Y-50750000D01*
X95646448Y-50750000D01*
X80809362Y-50750000D01*
X80742323Y-50730315D01*
X80721681Y-50713681D01*
X80286319Y-50278319D01*
X80252834Y-50216996D01*
X80250000Y-50190638D01*
X80250000Y-48789095D01*
X80264672Y-48730585D01*
X80658011Y-47995624D01*
X80698551Y-47950965D01*
X83577318Y-46031788D01*
X83577318Y-46031787D01*
X84000000Y-45750000D01*
X84000000Y-45515176D01*
X84013320Y-45498649D01*
X84045482Y-45454049D01*
X84106198Y-45321100D01*
X84126200Y-45252979D01*
X84147000Y-45108310D01*
X84147000Y-43558271D01*
X84154819Y-43514936D01*
X84166024Y-43484896D01*
X84171813Y-43467502D01*
X84179461Y-43441459D01*
X84188528Y-43405934D01*
X84198955Y-43260149D01*
X84193890Y-43189334D01*
X84162821Y-43046517D01*
X84154816Y-43025056D01*
X84147000Y-42981727D01*
X84147000Y-41436881D01*
X84158206Y-41385369D01*
X84163291Y-41374233D01*
X84214698Y-41261669D01*
X84234700Y-41193548D01*
X84255500Y-41048879D01*
X84255500Y-40303860D01*
X84275185Y-40236822D01*
X84291814Y-40216185D01*
X84471681Y-40036318D01*
X84533004Y-40002834D01*
X84559362Y-40000000D01*
X94690638Y-40000000D01*
X94757677Y-40019685D01*
G37*
G04 #@! TD.AperFunction*
G04 #@! TA.AperFunction,Conductor*
G36*
X86257677Y-16519685D02*
G01*
X86278319Y-16536319D01*
X86713681Y-16971681D01*
X86747166Y-17033004D01*
X86750000Y-17059362D01*
X86750000Y-17079960D01*
X86730315Y-17146999D01*
X86677511Y-17192754D01*
X86608353Y-17202698D01*
X86593811Y-17199006D01*
X86593673Y-17199541D01*
X86587590Y-17197966D01*
X86587586Y-17197964D01*
X86393947Y-17147828D01*
X86393949Y-17147828D01*
X86260769Y-17141074D01*
X86194180Y-17137697D01*
X86194179Y-17137697D01*
X86194177Y-17137697D01*
X85996469Y-17167984D01*
X85996457Y-17167987D01*
X85808893Y-17237454D01*
X85808884Y-17237458D01*
X85639142Y-17343258D01*
X85639136Y-17343262D01*
X85494165Y-17481067D01*
X85494164Y-17481069D01*
X85379894Y-17645244D01*
X85301015Y-17829057D01*
X85260750Y-18024987D01*
X85260750Y-18974878D01*
X85275913Y-19123999D01*
X85335790Y-19314840D01*
X85335797Y-19314855D01*
X85432864Y-19489737D01*
X85432867Y-19489742D01*
X85563155Y-19641508D01*
X85563156Y-19641510D01*
X85647428Y-19706741D01*
X85721331Y-19763946D01*
X85900914Y-19852036D01*
X86094553Y-19902172D01*
X86294320Y-19912303D01*
X86492038Y-19882014D01*
X86582935Y-19848348D01*
X86652636Y-19843525D01*
X86713882Y-19877150D01*
X86747226Y-19938550D01*
X86750000Y-19964630D01*
X86750000Y-21129960D01*
X86730315Y-21196999D01*
X86677511Y-21242754D01*
X86608353Y-21252698D01*
X86593811Y-21249006D01*
X86593673Y-21249541D01*
X86587590Y-21247966D01*
X86587586Y-21247964D01*
X86393947Y-21197828D01*
X86393949Y-21197828D01*
X86260769Y-21191074D01*
X86194180Y-21187697D01*
X86194179Y-21187697D01*
X86194177Y-21187697D01*
X85996469Y-21217984D01*
X85996457Y-21217987D01*
X85808893Y-21287454D01*
X85808884Y-21287458D01*
X85639142Y-21393258D01*
X85639136Y-21393262D01*
X85494165Y-21531067D01*
X85494164Y-21531069D01*
X85379895Y-21695244D01*
X85371051Y-21715852D01*
X85326523Y-21769694D01*
X85259954Y-21790916D01*
X85192479Y-21772779D01*
X85181614Y-21765324D01*
X85099484Y-21702302D01*
X85099480Y-21702300D01*
X85008981Y-21664814D01*
X84959486Y-21644313D01*
X84945421Y-21642461D01*
X84846977Y-21629500D01*
X84846970Y-21629500D01*
X84771530Y-21629500D01*
X84771522Y-21629500D01*
X84659014Y-21644313D01*
X84659013Y-21644313D01*
X84519020Y-21702300D01*
X84519017Y-21702301D01*
X84519017Y-21702302D01*
X84398799Y-21794549D01*
X84333954Y-21879057D01*
X84306550Y-21914770D01*
X84248563Y-22054763D01*
X84248563Y-22054764D01*
X84235307Y-22155451D01*
X84207040Y-22219347D01*
X84148716Y-22257818D01*
X84078851Y-22258649D01*
X84069033Y-22255446D01*
X83928453Y-22203011D01*
X83867904Y-22196500D01*
X83867888Y-22196500D01*
X83470612Y-22196500D01*
X83470605Y-22196500D01*
X83432502Y-22200596D01*
X83405998Y-22200596D01*
X83367894Y-22196500D01*
X83367888Y-22196500D01*
X82970612Y-22196500D01*
X82970605Y-22196500D01*
X82932502Y-22200596D01*
X82905998Y-22200596D01*
X82867894Y-22196500D01*
X82867888Y-22196500D01*
X82470612Y-22196500D01*
X82470605Y-22196500D01*
X82432502Y-22200596D01*
X82405998Y-22200596D01*
X82367894Y-22196500D01*
X82367888Y-22196500D01*
X81970612Y-22196500D01*
X81970605Y-22196500D01*
X81932502Y-22200596D01*
X81905998Y-22200596D01*
X81867894Y-22196500D01*
X81867888Y-22196500D01*
X81470612Y-22196500D01*
X81470605Y-22196500D01*
X81432502Y-22200596D01*
X81405998Y-22200596D01*
X81367894Y-22196500D01*
X81367888Y-22196500D01*
X80970612Y-22196500D01*
X80970605Y-22196500D01*
X80932502Y-22200596D01*
X80905998Y-22200596D01*
X80867894Y-22196500D01*
X80867888Y-22196500D01*
X80470612Y-22196500D01*
X80470605Y-22196500D01*
X80432502Y-22200596D01*
X80405998Y-22200596D01*
X80367894Y-22196500D01*
X80367888Y-22196500D01*
X79970612Y-22196500D01*
X79970595Y-22196500D01*
X79910047Y-22203011D01*
X79910042Y-22203012D01*
X79769465Y-22255446D01*
X79699774Y-22260431D01*
X79638450Y-22226947D01*
X79604965Y-22165624D01*
X79603194Y-22155464D01*
X79589937Y-22054764D01*
X79531948Y-21914767D01*
X79439701Y-21794549D01*
X79319483Y-21702302D01*
X79319479Y-21702300D01*
X79256051Y-21676027D01*
X79179486Y-21644313D01*
X79165421Y-21642461D01*
X79066977Y-21629500D01*
X79066970Y-21629500D01*
X78991530Y-21629500D01*
X78991522Y-21629500D01*
X78879014Y-21644313D01*
X78879013Y-21644313D01*
X78739019Y-21702300D01*
X78739016Y-21702302D01*
X78655145Y-21766659D01*
X78589976Y-21791853D01*
X78521531Y-21777815D01*
X78471542Y-21729001D01*
X78471240Y-21728460D01*
X78405635Y-21610262D01*
X78405632Y-21610257D01*
X78275344Y-21458491D01*
X78275343Y-21458489D01*
X78117171Y-21336055D01*
X78117167Y-21336053D01*
X77937586Y-21247964D01*
X77743947Y-21197828D01*
X77743949Y-21197828D01*
X77610768Y-21191074D01*
X77544180Y-21187697D01*
X77544179Y-21187697D01*
X77544177Y-21187697D01*
X77346469Y-21217984D01*
X77346457Y-21217987D01*
X77158893Y-21287454D01*
X77158884Y-21287458D01*
X76989142Y-21393258D01*
X76989136Y-21393262D01*
X76844165Y-21531067D01*
X76844164Y-21531069D01*
X76729894Y-21695244D01*
X76651015Y-21879057D01*
X76610750Y-22074987D01*
X76610750Y-23324878D01*
X76625913Y-23473999D01*
X76685790Y-23664840D01*
X76685797Y-23664855D01*
X76782864Y-23839737D01*
X76782867Y-23839742D01*
X76913155Y-23991508D01*
X76913156Y-23991510D01*
X77071328Y-24113944D01*
X77071331Y-24113946D01*
X77250914Y-24202036D01*
X77444553Y-24252172D01*
X77644320Y-24262303D01*
X77842038Y-24232014D01*
X77943080Y-24194590D01*
X78012782Y-24189767D01*
X78060454Y-24211603D01*
X78173046Y-24295889D01*
X78310049Y-24346989D01*
X78337300Y-24349918D01*
X78370595Y-24353499D01*
X78370612Y-24353500D01*
X79067888Y-24353500D01*
X79067904Y-24353499D01*
X79094942Y-24350591D01*
X79128451Y-24346989D01*
X79265454Y-24295889D01*
X79382511Y-24208261D01*
X79419983Y-24158203D01*
X79475916Y-24116332D01*
X79545608Y-24111348D01*
X79606931Y-24144833D01*
X79618517Y-24158204D01*
X79655987Y-24208259D01*
X79655988Y-24208259D01*
X79655989Y-24208261D01*
X79773046Y-24295889D01*
X79910049Y-24346989D01*
X79937300Y-24349918D01*
X79970595Y-24353499D01*
X79970612Y-24353500D01*
X80367888Y-24353500D01*
X80367904Y-24353499D01*
X80405993Y-24349404D01*
X80432504Y-24349403D01*
X80434295Y-24349595D01*
X80470612Y-24353500D01*
X80867888Y-24353500D01*
X80867904Y-24353499D01*
X80905993Y-24349404D01*
X80932504Y-24349403D01*
X80934295Y-24349595D01*
X80970612Y-24353500D01*
X81367888Y-24353500D01*
X81367904Y-24353499D01*
X81405993Y-24349404D01*
X81432504Y-24349403D01*
X81434295Y-24349595D01*
X81470612Y-24353500D01*
X81867888Y-24353500D01*
X81867904Y-24353499D01*
X81905993Y-24349404D01*
X81932504Y-24349403D01*
X81934295Y-24349595D01*
X81970612Y-24353500D01*
X82367888Y-24353500D01*
X82367904Y-24353499D01*
X82405993Y-24349404D01*
X82432504Y-24349403D01*
X82434295Y-24349595D01*
X82470612Y-24353500D01*
X82867888Y-24353500D01*
X82867904Y-24353499D01*
X82905993Y-24349404D01*
X82932504Y-24349403D01*
X82934295Y-24349595D01*
X82970612Y-24353500D01*
X83367888Y-24353500D01*
X83367904Y-24353499D01*
X83405993Y-24349404D01*
X83432504Y-24349403D01*
X83434295Y-24349595D01*
X83470612Y-24353500D01*
X83867888Y-24353500D01*
X83867904Y-24353499D01*
X83894942Y-24350591D01*
X83928451Y-24346989D01*
X84065454Y-24295889D01*
X84182511Y-24208261D01*
X84219983Y-24158203D01*
X84275916Y-24116332D01*
X84345608Y-24111348D01*
X84406931Y-24144833D01*
X84418517Y-24158204D01*
X84455987Y-24208259D01*
X84455988Y-24208259D01*
X84455989Y-24208261D01*
X84573046Y-24295889D01*
X84710049Y-24346989D01*
X84737300Y-24349918D01*
X84770595Y-24353499D01*
X84770612Y-24353500D01*
X85467888Y-24353500D01*
X85467904Y-24353499D01*
X85494942Y-24350591D01*
X85528451Y-24346989D01*
X85665454Y-24295889D01*
X85773640Y-24214901D01*
X85839100Y-24190485D01*
X85894490Y-24201273D01*
X85895017Y-24199852D01*
X85900907Y-24202033D01*
X85900908Y-24202033D01*
X85900914Y-24202036D01*
X86094553Y-24252172D01*
X86294320Y-24262303D01*
X86492038Y-24232014D01*
X86582935Y-24198348D01*
X86652636Y-24193525D01*
X86713882Y-24227150D01*
X86747226Y-24288550D01*
X86750000Y-24314630D01*
X86750000Y-24717334D01*
X86740561Y-24764787D01*
X86400228Y-25586423D01*
X86373348Y-25626651D01*
X85876651Y-26123348D01*
X85836423Y-26150228D01*
X85014788Y-26490561D01*
X84967335Y-26500000D01*
X63250000Y-26500000D01*
X62932656Y-26896679D01*
X62932655Y-26896680D01*
X62567345Y-27353318D01*
X62567344Y-27353319D01*
X62250000Y-27750000D01*
X62250000Y-28257997D01*
X62249999Y-28258000D01*
X62250000Y-30107733D01*
X62230315Y-30174772D01*
X62177511Y-30220527D01*
X62108353Y-30230471D01*
X62044797Y-30201446D01*
X62038319Y-30195414D01*
X62019819Y-30176914D01*
X61986334Y-30115591D01*
X61983500Y-30089233D01*
X61983500Y-29779133D01*
X61983499Y-29779120D01*
X61974846Y-29694426D01*
X61973236Y-29678664D01*
X61919302Y-29515899D01*
X61919298Y-29515893D01*
X61919297Y-29515890D01*
X61829287Y-29369963D01*
X61829284Y-29369959D01*
X61708040Y-29248715D01*
X61708036Y-29248712D01*
X61562109Y-29158702D01*
X61562103Y-29158699D01*
X61562101Y-29158698D01*
X61399336Y-29104764D01*
X61298879Y-29094500D01*
X61298872Y-29094500D01*
X60701128Y-29094500D01*
X60701120Y-29094500D01*
X60600663Y-29104764D01*
X60437901Y-29158697D01*
X60437890Y-29158702D01*
X60291963Y-29248712D01*
X60291959Y-29248715D01*
X60170715Y-29369959D01*
X60170712Y-29369963D01*
X60080702Y-29515890D01*
X60080697Y-29515901D01*
X60026764Y-29678663D01*
X60016500Y-29779120D01*
X60016500Y-30326879D01*
X60026764Y-30427336D01*
X60080697Y-30590098D01*
X60080702Y-30590109D01*
X60170712Y-30736036D01*
X60170715Y-30736040D01*
X60291959Y-30857284D01*
X60291963Y-30857287D01*
X60437890Y-30947297D01*
X60437893Y-30947298D01*
X60437899Y-30947302D01*
X60600664Y-31001236D01*
X60701128Y-31011500D01*
X61011234Y-31011500D01*
X61078273Y-31031185D01*
X61098914Y-31047818D01*
X62213681Y-32162586D01*
X62247166Y-32223908D01*
X62250000Y-32250266D01*
X62250000Y-33421286D01*
X62249764Y-33426692D01*
X62232677Y-33621997D01*
X62232677Y-33622001D01*
X62249764Y-33817306D01*
X62250000Y-33822712D01*
X62250000Y-34440638D01*
X62230315Y-34507677D01*
X62213681Y-34528319D01*
X61778319Y-34963681D01*
X61716996Y-34997166D01*
X61690638Y-35000000D01*
X57559362Y-35000000D01*
X57492323Y-34980315D01*
X57471681Y-34963681D01*
X57036819Y-34528819D01*
X57003334Y-34467496D01*
X57000500Y-34441138D01*
X57000500Y-19817763D01*
X58395787Y-19817763D01*
X58425413Y-20087013D01*
X58425415Y-20087024D01*
X58493926Y-20349082D01*
X58493928Y-20349088D01*
X58599870Y-20598390D01*
X58671998Y-20716575D01*
X58740979Y-20829605D01*
X58740986Y-20829615D01*
X58914253Y-21037819D01*
X58914259Y-21037824D01*
X59019240Y-21131887D01*
X59115998Y-21218582D01*
X59341910Y-21368044D01*
X59587176Y-21483020D01*
X59587183Y-21483022D01*
X59587185Y-21483023D01*
X59846557Y-21561057D01*
X59846564Y-21561058D01*
X59846569Y-21561060D01*
X60114561Y-21600500D01*
X60114566Y-21600500D01*
X60317629Y-21600500D01*
X60317631Y-21600500D01*
X60317636Y-21600499D01*
X60317648Y-21600499D01*
X60355191Y-21597750D01*
X60520156Y-21585677D01*
X60632758Y-21560593D01*
X60784546Y-21526782D01*
X60784548Y-21526781D01*
X60784553Y-21526780D01*
X61037558Y-21430014D01*
X61273777Y-21297441D01*
X61488177Y-21131888D01*
X61676186Y-20936881D01*
X61833799Y-20716579D01*
X61907787Y-20572669D01*
X61957649Y-20475690D01*
X61957651Y-20475684D01*
X61957656Y-20475675D01*
X62045118Y-20219305D01*
X62094319Y-19952933D01*
X62104212Y-19682235D01*
X62074586Y-19412982D01*
X62006072Y-19150912D01*
X61931266Y-18974878D01*
X76610750Y-18974878D01*
X76625913Y-19123999D01*
X76685790Y-19314840D01*
X76685797Y-19314855D01*
X76782864Y-19489737D01*
X76782867Y-19489742D01*
X76913155Y-19641508D01*
X76913156Y-19641510D01*
X76997428Y-19706741D01*
X77071331Y-19763946D01*
X77250914Y-19852036D01*
X77444553Y-19902172D01*
X77644320Y-19912303D01*
X77842038Y-19882014D01*
X78029611Y-19812544D01*
X78199361Y-19706739D01*
X78344337Y-19568929D01*
X78458605Y-19404756D01*
X78537485Y-19220942D01*
X78577750Y-19025012D01*
X78577750Y-18075123D01*
X78571838Y-18016980D01*
X78562586Y-17926000D01*
X78502709Y-17735159D01*
X78502707Y-17735155D01*
X78502706Y-17735151D01*
X78405634Y-17560260D01*
X78405633Y-17560259D01*
X78405632Y-17560257D01*
X78275344Y-17408491D01*
X78275343Y-17408489D01*
X78117171Y-17286055D01*
X78117167Y-17286053D01*
X77937586Y-17197964D01*
X77743947Y-17147828D01*
X77743949Y-17147828D01*
X77610768Y-17141074D01*
X77544180Y-17137697D01*
X77544179Y-17137697D01*
X77544177Y-17137697D01*
X77346469Y-17167984D01*
X77346457Y-17167987D01*
X77158893Y-17237454D01*
X77158884Y-17237458D01*
X76989142Y-17343258D01*
X76989136Y-17343262D01*
X76844165Y-17481067D01*
X76844164Y-17481069D01*
X76729894Y-17645244D01*
X76651015Y-17829057D01*
X76610750Y-18024987D01*
X76610750Y-18974878D01*
X61931266Y-18974878D01*
X61900130Y-18901610D01*
X61759018Y-18670390D01*
X61669747Y-18563119D01*
X61585746Y-18462180D01*
X61585740Y-18462175D01*
X61384002Y-18281418D01*
X61158092Y-18131957D01*
X61158090Y-18131956D01*
X60912824Y-18016980D01*
X60912819Y-18016978D01*
X60912814Y-18016976D01*
X60653442Y-17938942D01*
X60653428Y-17938939D01*
X60537791Y-17921921D01*
X60385439Y-17899500D01*
X60182369Y-17899500D01*
X60182351Y-17899500D01*
X59979844Y-17914323D01*
X59979831Y-17914325D01*
X59715453Y-17973217D01*
X59715446Y-17973220D01*
X59462439Y-18069987D01*
X59226226Y-18202557D01*
X59011822Y-18368112D01*
X58823822Y-18563109D01*
X58823816Y-18563116D01*
X58666202Y-18783419D01*
X58666199Y-18783424D01*
X58542350Y-19024309D01*
X58542343Y-19024327D01*
X58454884Y-19280685D01*
X58454881Y-19280699D01*
X58405681Y-19547068D01*
X58405680Y-19547075D01*
X58395787Y-19817763D01*
X57000500Y-19817763D01*
X57000500Y-17058861D01*
X57020185Y-16991822D01*
X57036814Y-16971185D01*
X57471680Y-16536319D01*
X57533004Y-16502834D01*
X57559362Y-16500000D01*
X86190638Y-16500000D01*
X86257677Y-16519685D01*
G37*
G04 #@! TD.AperFunction*
G04 #@! TA.AperFunction,Conductor*
G36*
X104507677Y-16519685D02*
G01*
X104528319Y-16536319D01*
X104963182Y-16971182D01*
X104996666Y-17032503D01*
X104999500Y-17058861D01*
X104999500Y-45691137D01*
X104979815Y-45758176D01*
X104963181Y-45778818D01*
X104528319Y-46213681D01*
X104466996Y-46247166D01*
X104440638Y-46250000D01*
X97282665Y-46250000D01*
X97235212Y-46240561D01*
X96413576Y-45900228D01*
X96373348Y-45873348D01*
X96126651Y-45626651D01*
X96099771Y-45586423D01*
X95759439Y-44764787D01*
X95750000Y-44717334D01*
X95750000Y-33258001D01*
X95750000Y-33258000D01*
X95750000Y-33257999D01*
X95750000Y-32750000D01*
X95000000Y-32000000D01*
X94492001Y-32000000D01*
X86532665Y-32000000D01*
X86485212Y-31990561D01*
X85663576Y-31650228D01*
X85623348Y-31623348D01*
X84359210Y-30359210D01*
X84000000Y-30000000D01*
X83492001Y-30000000D01*
X65559362Y-30000000D01*
X65492323Y-29980315D01*
X65471681Y-29963681D01*
X65036319Y-29528319D01*
X65002834Y-29466996D01*
X65000000Y-29440638D01*
X65000000Y-28059361D01*
X65019685Y-27992322D01*
X65036314Y-27971685D01*
X65471680Y-27536319D01*
X65533004Y-27502834D01*
X65559362Y-27500000D01*
X85241998Y-27500000D01*
X85242000Y-27500000D01*
X85750000Y-27500000D01*
X87750000Y-25500000D01*
X87750000Y-19817763D01*
X99895787Y-19817763D01*
X99925413Y-20087013D01*
X99925415Y-20087024D01*
X99993926Y-20349082D01*
X99993928Y-20349088D01*
X100099870Y-20598390D01*
X100171998Y-20716575D01*
X100240979Y-20829605D01*
X100240986Y-20829615D01*
X100414253Y-21037819D01*
X100414259Y-21037824D01*
X100615998Y-21218582D01*
X100841910Y-21368044D01*
X101087176Y-21483020D01*
X101087183Y-21483022D01*
X101087185Y-21483023D01*
X101346557Y-21561057D01*
X101346564Y-21561058D01*
X101346569Y-21561060D01*
X101614561Y-21600500D01*
X101614566Y-21600500D01*
X101817629Y-21600500D01*
X101817631Y-21600500D01*
X101817636Y-21600499D01*
X101817648Y-21600499D01*
X101855191Y-21597750D01*
X102020156Y-21585677D01*
X102132758Y-21560593D01*
X102284546Y-21526782D01*
X102284548Y-21526781D01*
X102284553Y-21526780D01*
X102537558Y-21430014D01*
X102773777Y-21297441D01*
X102988177Y-21131888D01*
X103176186Y-20936881D01*
X103333799Y-20716579D01*
X103407787Y-20572669D01*
X103457649Y-20475690D01*
X103457651Y-20475684D01*
X103457656Y-20475675D01*
X103545118Y-20219305D01*
X103594319Y-19952933D01*
X103604212Y-19682235D01*
X103574586Y-19412982D01*
X103506072Y-19150912D01*
X103400130Y-18901610D01*
X103259018Y-18670390D01*
X103169747Y-18563119D01*
X103085746Y-18462180D01*
X103085740Y-18462175D01*
X102884002Y-18281418D01*
X102658092Y-18131957D01*
X102658090Y-18131956D01*
X102412824Y-18016980D01*
X102412819Y-18016978D01*
X102412814Y-18016976D01*
X102153442Y-17938942D01*
X102153428Y-17938939D01*
X102037791Y-17921921D01*
X101885439Y-17899500D01*
X101682369Y-17899500D01*
X101682351Y-17899500D01*
X101479844Y-17914323D01*
X101479831Y-17914325D01*
X101215453Y-17973217D01*
X101215446Y-17973220D01*
X100962439Y-18069987D01*
X100726226Y-18202557D01*
X100511822Y-18368112D01*
X100323822Y-18563109D01*
X100323816Y-18563116D01*
X100166202Y-18783419D01*
X100166199Y-18783424D01*
X100042350Y-19024309D01*
X100042343Y-19024327D01*
X99954884Y-19280685D01*
X99954881Y-19280699D01*
X99905681Y-19547068D01*
X99905680Y-19547075D01*
X99895787Y-19817763D01*
X87750000Y-19817763D01*
X87750000Y-17059362D01*
X87769685Y-16992323D01*
X87786319Y-16971681D01*
X88221681Y-16536319D01*
X88283004Y-16502834D01*
X88309362Y-16500000D01*
X104440638Y-16500000D01*
X104507677Y-16519685D01*
G37*
G04 #@! TD.AperFunction*
G04 #@! TA.AperFunction,Conductor*
G36*
X95507677Y-51769685D02*
G01*
X95528319Y-51786319D01*
X95950181Y-52208181D01*
X95983666Y-52269504D01*
X95986500Y-52295862D01*
X95986500Y-55204137D01*
X95966815Y-55271176D01*
X95950181Y-55291818D01*
X95528319Y-55713681D01*
X95466996Y-55747166D01*
X95440638Y-55750000D01*
X79500000Y-55750000D01*
X79140790Y-56109209D01*
X79140789Y-56109210D01*
X79109210Y-56140789D01*
X79109209Y-56140790D01*
X78750000Y-56500000D01*
X78750000Y-57007998D01*
X78750000Y-58690638D01*
X78730315Y-58757677D01*
X78713681Y-58778319D01*
X78278319Y-59213681D01*
X78216996Y-59247166D01*
X78190638Y-59250000D01*
X75559362Y-59250000D01*
X75492323Y-59230315D01*
X75471681Y-59213681D01*
X75049213Y-58791213D01*
X75015728Y-58729890D01*
X75013211Y-58694678D01*
X75013500Y-58690638D01*
X75013500Y-52295862D01*
X75033185Y-52228823D01*
X75049819Y-52208181D01*
X75471681Y-51786319D01*
X75533004Y-51752834D01*
X75559362Y-51750000D01*
X95440638Y-51750000D01*
X95507677Y-51769685D01*
G37*
G04 #@! TD.AperFunction*
G04 #@! TA.AperFunction,Conductor*
G36*
X76081177Y-46093185D02*
G01*
X76101819Y-46109819D01*
X76213681Y-46221681D01*
X76247166Y-46283004D01*
X76250000Y-46309362D01*
X76250000Y-50121781D01*
X76240561Y-50169234D01*
X76019655Y-50702547D01*
X75975814Y-50756950D01*
X75952547Y-50769655D01*
X75419235Y-50990561D01*
X75371782Y-51000000D01*
X75000000Y-51000000D01*
X74500000Y-51500000D01*
X74500000Y-51853551D01*
X74500000Y-58690638D01*
X74480315Y-58757677D01*
X74463681Y-58778319D01*
X74028319Y-59213681D01*
X73966996Y-59247166D01*
X73940638Y-59250000D01*
X71309362Y-59250000D01*
X71242323Y-59230315D01*
X71221681Y-59213681D01*
X70786319Y-58778319D01*
X70752834Y-58716996D01*
X70750000Y-58690638D01*
X70750000Y-46309362D01*
X70769685Y-46242323D01*
X70786319Y-46221681D01*
X70898181Y-46109819D01*
X70959504Y-46076334D01*
X70985862Y-46073500D01*
X76014138Y-46073500D01*
X76081177Y-46093185D01*
G37*
G04 #@! TD.AperFunction*
G04 #@! TA.AperFunction,Conductor*
G36*
X94875931Y-32942002D02*
G01*
X94896905Y-32958905D01*
X95199595Y-33261595D01*
X95233621Y-33323907D01*
X95236500Y-33350690D01*
X95236500Y-38843309D01*
X95216498Y-38911430D01*
X95199596Y-38932404D01*
X94896903Y-39235096D01*
X94834593Y-39269120D01*
X94807810Y-39272000D01*
X84498190Y-39272000D01*
X84430069Y-39251998D01*
X84409099Y-39235099D01*
X84292403Y-39118403D01*
X84258379Y-39056092D01*
X84255500Y-39029309D01*
X84255500Y-37358544D01*
X84255500Y-37358538D01*
X84255336Y-37349374D01*
X84254852Y-37335805D01*
X84253871Y-37317496D01*
X84222802Y-37174679D01*
X84222802Y-37174677D01*
X84197994Y-37108167D01*
X84197989Y-37108155D01*
X84162413Y-37043003D01*
X84147000Y-36982617D01*
X84147000Y-35430633D01*
X84154944Y-35386600D01*
X84166024Y-35356894D01*
X84171813Y-35339501D01*
X84179461Y-35313458D01*
X84188528Y-35277933D01*
X84198955Y-35132148D01*
X84193890Y-35061332D01*
X84162821Y-34918515D01*
X84154942Y-34897392D01*
X84147000Y-34853369D01*
X84147000Y-33309315D01*
X84158386Y-33256975D01*
X84163683Y-33245375D01*
X84188753Y-33190479D01*
X84214265Y-33153734D01*
X84409095Y-32958904D01*
X84471408Y-32924879D01*
X84498191Y-32922000D01*
X94807810Y-32922000D01*
X94875931Y-32942002D01*
G37*
G04 #@! TD.AperFunction*
G04 #@! TA.AperFunction,Conductor*
G36*
X83249931Y-30594002D02*
G01*
X83270899Y-30610899D01*
X83705097Y-31045097D01*
X83739120Y-31107406D01*
X83742000Y-31134189D01*
X83742000Y-32920879D01*
X83721998Y-32989000D01*
X83716868Y-32996388D01*
X83691112Y-33030792D01*
X83691110Y-33030797D01*
X83640011Y-33167795D01*
X83640009Y-33167803D01*
X83633500Y-33228350D01*
X83633500Y-34925649D01*
X83640009Y-34986196D01*
X83640010Y-34986197D01*
X83681698Y-35097966D01*
X83686763Y-35168782D01*
X83681698Y-35186031D01*
X83640010Y-35297799D01*
X83640009Y-35297803D01*
X83633500Y-35358350D01*
X83633500Y-37055649D01*
X83640009Y-37116196D01*
X83640011Y-37116204D01*
X83691109Y-37253201D01*
X83691110Y-37253202D01*
X83691111Y-37253204D01*
X83716868Y-37287611D01*
X83741679Y-37354131D01*
X83742000Y-37363120D01*
X83742000Y-41048879D01*
X83721998Y-41117000D01*
X83716868Y-41124388D01*
X83691112Y-41158792D01*
X83691110Y-41158797D01*
X83640011Y-41295795D01*
X83640009Y-41295803D01*
X83633500Y-41356350D01*
X83633500Y-43053649D01*
X83640009Y-43114196D01*
X83640010Y-43114199D01*
X83681698Y-43225968D01*
X83686763Y-43296783D01*
X83681698Y-43314032D01*
X83640010Y-43425800D01*
X83640009Y-43425803D01*
X83633500Y-43486350D01*
X83633500Y-45108310D01*
X83613498Y-45176431D01*
X83596595Y-45197405D01*
X83270905Y-45523095D01*
X83208593Y-45557121D01*
X83181810Y-45560000D01*
X65538190Y-45560000D01*
X65470069Y-45539998D01*
X65449095Y-45523095D01*
X65014905Y-45088905D01*
X64980879Y-45026593D01*
X64978000Y-44999810D01*
X64978000Y-31134190D01*
X64998002Y-31066069D01*
X65014905Y-31045095D01*
X65449095Y-30610905D01*
X65511407Y-30576879D01*
X65538190Y-30574000D01*
X83181810Y-30574000D01*
X83249931Y-30594002D01*
G37*
G04 #@! TD.AperFunction*
M02*
