G04 #@! TF.GenerationSoftware,KiCad,Pcbnew,7.0.5*
G04 #@! TF.CreationDate,2024-02-25T22:15:05+02:00*
G04 #@! TF.ProjectId,WTP_receiver,5754505f-7265-4636-9569-7665722e6b69,rev?*
G04 #@! TF.SameCoordinates,Original*
G04 #@! TF.FileFunction,Copper,L2,Bot*
G04 #@! TF.FilePolarity,Positive*
%FSLAX46Y46*%
G04 Gerber Fmt 4.6, Leading zero omitted, Abs format (unit mm)*
G04 Created by KiCad (PCBNEW 7.0.5) date 2024-02-25 22:15:05*
%MOMM*%
%LPD*%
G01*
G04 APERTURE LIST*
G04 #@! TA.AperFunction,ComponentPad*
%ADD10O,0.950000X1.750000*%
G04 #@! TD*
G04 #@! TA.AperFunction,ComponentPad*
%ADD11O,0.950000X2.050000*%
G04 #@! TD*
G04 #@! TA.AperFunction,ComponentPad*
%ADD12R,1.508000X1.508000*%
G04 #@! TD*
G04 #@! TA.AperFunction,ComponentPad*
%ADD13C,1.508000*%
G04 #@! TD*
G04 #@! TA.AperFunction,ViaPad*
%ADD14C,0.685800*%
G04 #@! TD*
G04 APERTURE END LIST*
D10*
X77594250Y-18525000D03*
X86244250Y-18525000D03*
D11*
X77594250Y-22725000D03*
X86244250Y-22725000D03*
D12*
X66040000Y-33622000D03*
D13*
X63500000Y-33622000D03*
X60960000Y-33622000D03*
D14*
X96384000Y-31144000D03*
X97654000Y-27334000D03*
X97654000Y-29874000D03*
X96384000Y-28604000D03*
X100448000Y-31144000D03*
X93590000Y-31144000D03*
X97654000Y-28604000D03*
X96384000Y-23524000D03*
X92320000Y-31144000D03*
X97654000Y-23524000D03*
X96384000Y-29874000D03*
X94860000Y-31144000D03*
X94860000Y-29874000D03*
X100448000Y-29874000D03*
X97654000Y-24794000D03*
X99178000Y-29874000D03*
X97654000Y-26064000D03*
X92320000Y-29874000D03*
X93590000Y-29874000D03*
X96384000Y-27334000D03*
X99178000Y-31144000D03*
X97654000Y-31144000D03*
X96384000Y-26064000D03*
X96384000Y-24794000D03*
X71440000Y-46500000D03*
X87748000Y-36224000D03*
X73980000Y-49040000D03*
X71440000Y-49040000D03*
X87748000Y-33684000D03*
X86478000Y-34954000D03*
X89018000Y-38764000D03*
X87748000Y-34954000D03*
X73980000Y-47770000D03*
X72710000Y-47770000D03*
X71440000Y-50310000D03*
X72710000Y-49040000D03*
X86478000Y-37494000D03*
X89018000Y-36224000D03*
X72710000Y-50310000D03*
X86478000Y-36224000D03*
X89018000Y-33684000D03*
X71440000Y-47770000D03*
X89018000Y-37494000D03*
X86478000Y-38764000D03*
X72710000Y-46500000D03*
X75250000Y-49040000D03*
X89018000Y-34954000D03*
X87748000Y-37494000D03*
X75250000Y-46500000D03*
X73980000Y-46500000D03*
X87748000Y-38764000D03*
X75250000Y-50310000D03*
X75250000Y-47770000D03*
X86478000Y-33684000D03*
X73980000Y-50310000D03*
G04 #@! TA.AperFunction,Conductor*
G36*
X92843931Y-32942002D02*
G01*
X92864899Y-32958899D01*
X93299097Y-33393097D01*
X93333120Y-33455406D01*
X93336000Y-33482189D01*
X93336000Y-43567263D01*
X93328054Y-43611300D01*
X93011239Y-44460590D01*
X92988404Y-44499070D01*
X90034000Y-47908000D01*
X90034000Y-48416000D01*
X90034000Y-48416001D01*
X90034000Y-50931810D01*
X90013998Y-50999931D01*
X89997095Y-51020905D01*
X89562905Y-51455095D01*
X89500593Y-51489121D01*
X89473810Y-51492000D01*
X71310190Y-51492000D01*
X71242069Y-51471998D01*
X71221095Y-51455095D01*
X70786905Y-51020905D01*
X70752879Y-50958593D01*
X70750000Y-50931810D01*
X70750000Y-46440189D01*
X70770002Y-46372068D01*
X70786896Y-46351103D01*
X71221097Y-45916902D01*
X71283407Y-45882879D01*
X71310190Y-45880000D01*
X80890000Y-45880000D01*
X81398000Y-45880000D01*
X84192000Y-43336000D01*
X84192000Y-33482188D01*
X84212002Y-33414068D01*
X84228896Y-33393103D01*
X84663097Y-32958902D01*
X84725407Y-32924879D01*
X84752190Y-32922000D01*
X92775810Y-32922000D01*
X92843931Y-32942002D01*
G37*
G04 #@! TD.AperFunction*
G04 #@! TA.AperFunction,Conductor*
G36*
X104507677Y-16519685D02*
G01*
X104528319Y-16536319D01*
X104963182Y-16971182D01*
X104996666Y-17032503D01*
X104999500Y-17058861D01*
X104999500Y-31441137D01*
X104979815Y-31508176D01*
X104963181Y-31528818D01*
X104528319Y-31963681D01*
X104466996Y-31997166D01*
X104440638Y-32000000D01*
X72750000Y-32000000D01*
X72419398Y-32385701D01*
X72419397Y-32385702D01*
X70098270Y-35093684D01*
X70055936Y-35125642D01*
X69266664Y-35488656D01*
X69214850Y-35500000D01*
X57559362Y-35500000D01*
X57492323Y-35480315D01*
X57471681Y-35463681D01*
X57036819Y-35028819D01*
X57003334Y-34967496D01*
X57000500Y-34941138D01*
X57000500Y-33622002D01*
X59692677Y-33622002D01*
X59711929Y-33842062D01*
X59711930Y-33842070D01*
X59769104Y-34055445D01*
X59769105Y-34055447D01*
X59769106Y-34055450D01*
X59860366Y-34251158D01*
X59862466Y-34255662D01*
X59862468Y-34255666D01*
X59989170Y-34436615D01*
X59989175Y-34436621D01*
X60145378Y-34592824D01*
X60145384Y-34592829D01*
X60326333Y-34719531D01*
X60326335Y-34719532D01*
X60326338Y-34719534D01*
X60526550Y-34812894D01*
X60739932Y-34870070D01*
X60897123Y-34883822D01*
X60959998Y-34889323D01*
X60960000Y-34889323D01*
X60960002Y-34889323D01*
X61015140Y-34884499D01*
X61180068Y-34870070D01*
X61393450Y-34812894D01*
X61593662Y-34719534D01*
X61774620Y-34592826D01*
X61930826Y-34436620D01*
X61939205Y-34424654D01*
X64777500Y-34424654D01*
X64784011Y-34485202D01*
X64784011Y-34485204D01*
X64828991Y-34605797D01*
X64835111Y-34622204D01*
X64922739Y-34739261D01*
X65039796Y-34826889D01*
X65176799Y-34877989D01*
X65204050Y-34880918D01*
X65237345Y-34884499D01*
X65237362Y-34884500D01*
X66842638Y-34884500D01*
X66842654Y-34884499D01*
X66869692Y-34881591D01*
X66903201Y-34877989D01*
X67040204Y-34826889D01*
X67157261Y-34739261D01*
X67244889Y-34622204D01*
X67295989Y-34485201D01*
X67301212Y-34436620D01*
X67302499Y-34424654D01*
X67302500Y-34424637D01*
X67302500Y-32819362D01*
X67302499Y-32819345D01*
X67299157Y-32788270D01*
X67295989Y-32758799D01*
X67244889Y-32621796D01*
X67157261Y-32504739D01*
X67040204Y-32417111D01*
X66903203Y-32366011D01*
X66842654Y-32359500D01*
X66842638Y-32359500D01*
X65237362Y-32359500D01*
X65237345Y-32359500D01*
X65176797Y-32366011D01*
X65176795Y-32366011D01*
X65039795Y-32417111D01*
X64922739Y-32504739D01*
X64835111Y-32621795D01*
X64784011Y-32758795D01*
X64784011Y-32758797D01*
X64777500Y-32819345D01*
X64777500Y-34424654D01*
X61939205Y-34424654D01*
X62057534Y-34255662D01*
X62150894Y-34055450D01*
X62208070Y-33842068D01*
X62227323Y-33622000D01*
X62208070Y-33401932D01*
X62150894Y-33188550D01*
X62057534Y-32988339D01*
X61930826Y-32807380D01*
X61774620Y-32651174D01*
X61774616Y-32651171D01*
X61774615Y-32651170D01*
X61593666Y-32524468D01*
X61593662Y-32524466D01*
X61551357Y-32504739D01*
X61393450Y-32431106D01*
X61393447Y-32431105D01*
X61393445Y-32431104D01*
X61180070Y-32373930D01*
X61180062Y-32373929D01*
X60960002Y-32354677D01*
X60959998Y-32354677D01*
X60739937Y-32373929D01*
X60739929Y-32373930D01*
X60526554Y-32431104D01*
X60526548Y-32431107D01*
X60326340Y-32524465D01*
X60326338Y-32524466D01*
X60145377Y-32651175D01*
X59989175Y-32807377D01*
X59862466Y-32988338D01*
X59862465Y-32988340D01*
X59834738Y-33047801D01*
X59772719Y-33180803D01*
X59769107Y-33188548D01*
X59769104Y-33188554D01*
X59711930Y-33401929D01*
X59711929Y-33401937D01*
X59692677Y-33621997D01*
X59692677Y-33622002D01*
X57000500Y-33622002D01*
X57000500Y-22205000D01*
X78448784Y-22205000D01*
X78468562Y-22355234D01*
X78468563Y-22355236D01*
X78526552Y-22495233D01*
X78618799Y-22615451D01*
X78739017Y-22707698D01*
X78879014Y-22765687D01*
X78991530Y-22780500D01*
X78991537Y-22780500D01*
X79066963Y-22780500D01*
X79066970Y-22780500D01*
X79179486Y-22765687D01*
X79319483Y-22707698D01*
X79439701Y-22615451D01*
X79531948Y-22495233D01*
X79589937Y-22355236D01*
X79609716Y-22205000D01*
X84228784Y-22205000D01*
X84248562Y-22355234D01*
X84248563Y-22355236D01*
X84306552Y-22495233D01*
X84398799Y-22615451D01*
X84519017Y-22707698D01*
X84659014Y-22765687D01*
X84771530Y-22780500D01*
X84771537Y-22780500D01*
X84846963Y-22780500D01*
X84846970Y-22780500D01*
X84959486Y-22765687D01*
X85099483Y-22707698D01*
X85219701Y-22615451D01*
X85311948Y-22495233D01*
X85369937Y-22355236D01*
X85389716Y-22205000D01*
X85369937Y-22054764D01*
X85311948Y-21914767D01*
X85219701Y-21794549D01*
X85099483Y-21702302D01*
X85099479Y-21702300D01*
X85036051Y-21676027D01*
X84959486Y-21644313D01*
X84945421Y-21642461D01*
X84846977Y-21629500D01*
X84846970Y-21629500D01*
X84771530Y-21629500D01*
X84771522Y-21629500D01*
X84659014Y-21644313D01*
X84659013Y-21644313D01*
X84519020Y-21702300D01*
X84398799Y-21794549D01*
X84306550Y-21914770D01*
X84248563Y-22054763D01*
X84248562Y-22054765D01*
X84228784Y-22204999D01*
X84228784Y-22205000D01*
X79609716Y-22205000D01*
X79589937Y-22054764D01*
X79531948Y-21914767D01*
X79439701Y-21794549D01*
X79319483Y-21702302D01*
X79319479Y-21702300D01*
X79256051Y-21676027D01*
X79179486Y-21644313D01*
X79165421Y-21642461D01*
X79066977Y-21629500D01*
X79066970Y-21629500D01*
X78991530Y-21629500D01*
X78991522Y-21629500D01*
X78879014Y-21644313D01*
X78879013Y-21644313D01*
X78739020Y-21702300D01*
X78618799Y-21794549D01*
X78526550Y-21914770D01*
X78468563Y-22054763D01*
X78468562Y-22054765D01*
X78448784Y-22204999D01*
X78448784Y-22205000D01*
X57000500Y-22205000D01*
X57000500Y-19817763D01*
X58395787Y-19817763D01*
X58425413Y-20087013D01*
X58425415Y-20087024D01*
X58493926Y-20349082D01*
X58493928Y-20349088D01*
X58599870Y-20598390D01*
X58671998Y-20716575D01*
X58740979Y-20829605D01*
X58740986Y-20829615D01*
X58914253Y-21037819D01*
X58914259Y-21037824D01*
X59115998Y-21218582D01*
X59341910Y-21368044D01*
X59587176Y-21483020D01*
X59587183Y-21483022D01*
X59587185Y-21483023D01*
X59846557Y-21561057D01*
X59846564Y-21561058D01*
X59846569Y-21561060D01*
X60114561Y-21600500D01*
X60114566Y-21600500D01*
X60317629Y-21600500D01*
X60317631Y-21600500D01*
X60317636Y-21600499D01*
X60317648Y-21600499D01*
X60355191Y-21597750D01*
X60520156Y-21585677D01*
X60632758Y-21560593D01*
X60784546Y-21526782D01*
X60784548Y-21526781D01*
X60784553Y-21526780D01*
X61037558Y-21430014D01*
X61273777Y-21297441D01*
X61488177Y-21131888D01*
X61676186Y-20936881D01*
X61833799Y-20716579D01*
X61907787Y-20572669D01*
X61957649Y-20475690D01*
X61957651Y-20475684D01*
X61957656Y-20475675D01*
X62045118Y-20219305D01*
X62094319Y-19952933D01*
X62099259Y-19817763D01*
X99895787Y-19817763D01*
X99925413Y-20087013D01*
X99925415Y-20087024D01*
X99993926Y-20349082D01*
X99993928Y-20349088D01*
X100099870Y-20598390D01*
X100171998Y-20716575D01*
X100240979Y-20829605D01*
X100240986Y-20829615D01*
X100414253Y-21037819D01*
X100414259Y-21037824D01*
X100615998Y-21218582D01*
X100841910Y-21368044D01*
X101087176Y-21483020D01*
X101087183Y-21483022D01*
X101087185Y-21483023D01*
X101346557Y-21561057D01*
X101346564Y-21561058D01*
X101346569Y-21561060D01*
X101614561Y-21600500D01*
X101614566Y-21600500D01*
X101817629Y-21600500D01*
X101817631Y-21600500D01*
X101817636Y-21600499D01*
X101817648Y-21600499D01*
X101855191Y-21597750D01*
X102020156Y-21585677D01*
X102132758Y-21560593D01*
X102284546Y-21526782D01*
X102284548Y-21526781D01*
X102284553Y-21526780D01*
X102537558Y-21430014D01*
X102773777Y-21297441D01*
X102988177Y-21131888D01*
X103176186Y-20936881D01*
X103333799Y-20716579D01*
X103407787Y-20572669D01*
X103457649Y-20475690D01*
X103457651Y-20475684D01*
X103457656Y-20475675D01*
X103545118Y-20219305D01*
X103594319Y-19952933D01*
X103604212Y-19682235D01*
X103574586Y-19412982D01*
X103506072Y-19150912D01*
X103400130Y-18901610D01*
X103259018Y-18670390D01*
X103169747Y-18563119D01*
X103085746Y-18462180D01*
X103085740Y-18462175D01*
X102884002Y-18281418D01*
X102658092Y-18131957D01*
X102658090Y-18131956D01*
X102412824Y-18016980D01*
X102412819Y-18016978D01*
X102412814Y-18016976D01*
X102153442Y-17938942D01*
X102153428Y-17938939D01*
X102037791Y-17921921D01*
X101885439Y-17899500D01*
X101682369Y-17899500D01*
X101682351Y-17899500D01*
X101479844Y-17914323D01*
X101479831Y-17914325D01*
X101215453Y-17973217D01*
X101215446Y-17973220D01*
X100962439Y-18069987D01*
X100726226Y-18202557D01*
X100511822Y-18368112D01*
X100323822Y-18563109D01*
X100323816Y-18563116D01*
X100166202Y-18783419D01*
X100166199Y-18783424D01*
X100042350Y-19024309D01*
X100042343Y-19024327D01*
X99954884Y-19280685D01*
X99954881Y-19280699D01*
X99905681Y-19547068D01*
X99905680Y-19547075D01*
X99895787Y-19817763D01*
X62099259Y-19817763D01*
X62104212Y-19682235D01*
X62074586Y-19412982D01*
X62006072Y-19150912D01*
X61900130Y-18901610D01*
X61759018Y-18670390D01*
X61669747Y-18563119D01*
X61585746Y-18462180D01*
X61585740Y-18462175D01*
X61384002Y-18281418D01*
X61158092Y-18131957D01*
X61158090Y-18131956D01*
X60912824Y-18016980D01*
X60912819Y-18016978D01*
X60912814Y-18016976D01*
X60653442Y-17938942D01*
X60653428Y-17938939D01*
X60537791Y-17921921D01*
X60385439Y-17899500D01*
X60182369Y-17899500D01*
X60182351Y-17899500D01*
X59979844Y-17914323D01*
X59979831Y-17914325D01*
X59715453Y-17973217D01*
X59715446Y-17973220D01*
X59462439Y-18069987D01*
X59226226Y-18202557D01*
X59011822Y-18368112D01*
X58823822Y-18563109D01*
X58823816Y-18563116D01*
X58666202Y-18783419D01*
X58666199Y-18783424D01*
X58542350Y-19024309D01*
X58542343Y-19024327D01*
X58454884Y-19280685D01*
X58454881Y-19280699D01*
X58405681Y-19547068D01*
X58405680Y-19547075D01*
X58395787Y-19817763D01*
X57000500Y-19817763D01*
X57000500Y-17058861D01*
X57020185Y-16991822D01*
X57036814Y-16971185D01*
X57471680Y-16536319D01*
X57533004Y-16502834D01*
X57559362Y-16500000D01*
X104440638Y-16500000D01*
X104507677Y-16519685D01*
G37*
G04 #@! TD.AperFunction*
M02*
