G04 #@! TF.GenerationSoftware,KiCad,Pcbnew,7.0.5*
G04 #@! TF.CreationDate,2024-02-26T21:12:57+02:00*
G04 #@! TF.ProjectId,WTP_receiver,5754505f-7265-4636-9569-7665722e6b69,rev?*
G04 #@! TF.SameCoordinates,Original*
G04 #@! TF.FileFunction,Copper,L2,Bot*
G04 #@! TF.FilePolarity,Positive*
%FSLAX46Y46*%
G04 Gerber Fmt 4.6, Leading zero omitted, Abs format (unit mm)*
G04 Created by KiCad (PCBNEW 7.0.5) date 2024-02-26 21:12:57*
%MOMM*%
%LPD*%
G01*
G04 APERTURE LIST*
G04 #@! TA.AperFunction,ComponentPad*
%ADD10O,0.950000X1.750000*%
G04 #@! TD*
G04 #@! TA.AperFunction,ComponentPad*
%ADD11O,0.950000X2.050000*%
G04 #@! TD*
G04 #@! TA.AperFunction,ComponentPad*
%ADD12R,1.508000X1.508000*%
G04 #@! TD*
G04 #@! TA.AperFunction,ComponentPad*
%ADD13C,1.508000*%
G04 #@! TD*
G04 #@! TA.AperFunction,ViaPad*
%ADD14C,0.685800*%
G04 #@! TD*
G04 APERTURE END LIST*
D10*
X77600000Y-18500000D03*
X86250000Y-18500000D03*
D11*
X77600000Y-22700000D03*
X86250000Y-22700000D03*
D12*
X66000000Y-34873000D03*
D13*
X63460000Y-34873000D03*
X60920000Y-34873000D03*
D14*
X96384000Y-31144000D03*
X97654000Y-27334000D03*
X97654000Y-29874000D03*
X96384000Y-28604000D03*
X100448000Y-31144000D03*
X93590000Y-31144000D03*
X97654000Y-28604000D03*
X96384000Y-23524000D03*
X92320000Y-31144000D03*
X97654000Y-23524000D03*
X96384000Y-29874000D03*
X94860000Y-31144000D03*
X94860000Y-29874000D03*
X100448000Y-29874000D03*
X97654000Y-24794000D03*
X99178000Y-29874000D03*
X97654000Y-26064000D03*
X92320000Y-29874000D03*
X93590000Y-29874000D03*
X96384000Y-27334000D03*
X99178000Y-31144000D03*
X97654000Y-31144000D03*
X96384000Y-26064000D03*
X96384000Y-24794000D03*
X71440000Y-46500000D03*
X87748000Y-36224000D03*
X73980000Y-49040000D03*
X71440000Y-49040000D03*
X87748000Y-33684000D03*
X86478000Y-34954000D03*
X89018000Y-38764000D03*
X87748000Y-34954000D03*
X73980000Y-47770000D03*
X72710000Y-47770000D03*
X71440000Y-50310000D03*
X72710000Y-49040000D03*
X86478000Y-37494000D03*
X89018000Y-36224000D03*
X72710000Y-50310000D03*
X86478000Y-36224000D03*
X89018000Y-33684000D03*
X71440000Y-47770000D03*
X89018000Y-37494000D03*
X86478000Y-38764000D03*
X72710000Y-46500000D03*
X75250000Y-49040000D03*
X89018000Y-34954000D03*
X87748000Y-37494000D03*
X75250000Y-46500000D03*
X73980000Y-46500000D03*
X87748000Y-38764000D03*
X75250000Y-50310000D03*
X75250000Y-47770000D03*
X86478000Y-33684000D03*
X73980000Y-50310000D03*
G04 #@! TA.AperFunction,Conductor*
G36*
X92843931Y-32942002D02*
G01*
X92864899Y-32958899D01*
X93299097Y-33393097D01*
X93333120Y-33455406D01*
X93336000Y-33482189D01*
X93336000Y-43567263D01*
X93328054Y-43611300D01*
X93011239Y-44460590D01*
X92988404Y-44499070D01*
X90034000Y-47908000D01*
X90034000Y-48416000D01*
X90034000Y-48416001D01*
X90034000Y-50931810D01*
X90013998Y-50999931D01*
X89997095Y-51020905D01*
X89562905Y-51455095D01*
X89500593Y-51489121D01*
X89473810Y-51492000D01*
X71310190Y-51492000D01*
X71242069Y-51471998D01*
X71221095Y-51455095D01*
X70786905Y-51020905D01*
X70752879Y-50958593D01*
X70750000Y-50931810D01*
X70750000Y-46440189D01*
X70770002Y-46372068D01*
X70786896Y-46351103D01*
X71221097Y-45916902D01*
X71283407Y-45882879D01*
X71310190Y-45880000D01*
X80890000Y-45880000D01*
X81398000Y-45880000D01*
X84192000Y-43336000D01*
X84192000Y-33482188D01*
X84212002Y-33414068D01*
X84228896Y-33393103D01*
X84663097Y-32958902D01*
X84725407Y-32924879D01*
X84752190Y-32922000D01*
X92775810Y-32922000D01*
X92843931Y-32942002D01*
G37*
G04 #@! TD.AperFunction*
G04 #@! TA.AperFunction,Conductor*
G36*
X104507677Y-16519685D02*
G01*
X104528319Y-16536319D01*
X104963181Y-16971181D01*
X104996666Y-17032504D01*
X104999500Y-17058862D01*
X104999500Y-31441254D01*
X104979815Y-31508293D01*
X104963321Y-31528795D01*
X104528181Y-31965328D01*
X104466912Y-31998911D01*
X104440758Y-32001785D01*
X89349999Y-32049999D01*
X87451839Y-32056063D01*
X74207999Y-32098376D01*
X74207997Y-32098377D01*
X74207996Y-32098377D01*
X73700000Y-32100000D01*
X73369751Y-32486004D01*
X73369751Y-32486005D01*
X70197917Y-36193343D01*
X70155561Y-36225363D01*
X69366687Y-36588632D01*
X69314821Y-36600000D01*
X57659182Y-36600000D01*
X57592143Y-36580315D01*
X57571719Y-36563899D01*
X57133753Y-36128106D01*
X57100116Y-36066866D01*
X57097218Y-36040824D01*
X57091408Y-34873002D01*
X59652677Y-34873002D01*
X59671929Y-35093062D01*
X59671930Y-35093070D01*
X59729104Y-35306445D01*
X59729105Y-35306447D01*
X59729106Y-35306450D01*
X59799400Y-35457197D01*
X59822466Y-35506662D01*
X59822468Y-35506666D01*
X59949170Y-35687615D01*
X59949175Y-35687621D01*
X60105378Y-35843824D01*
X60105384Y-35843829D01*
X60286333Y-35970531D01*
X60286335Y-35970532D01*
X60286338Y-35970534D01*
X60486550Y-36063894D01*
X60699932Y-36121070D01*
X60857123Y-36134822D01*
X60919998Y-36140323D01*
X60920000Y-36140323D01*
X60920002Y-36140323D01*
X60975140Y-36135499D01*
X61140068Y-36121070D01*
X61353450Y-36063894D01*
X61553662Y-35970534D01*
X61734620Y-35843826D01*
X61890826Y-35687620D01*
X61899205Y-35675654D01*
X64737500Y-35675654D01*
X64744011Y-35736202D01*
X64744011Y-35736204D01*
X64795110Y-35873203D01*
X64795111Y-35873204D01*
X64882739Y-35990261D01*
X64999796Y-36077889D01*
X65114949Y-36120839D01*
X65134431Y-36128106D01*
X65136799Y-36128989D01*
X65164050Y-36131918D01*
X65197345Y-36135499D01*
X65197362Y-36135500D01*
X66802638Y-36135500D01*
X66802654Y-36135499D01*
X66829692Y-36132591D01*
X66863201Y-36128989D01*
X66865569Y-36128106D01*
X66884435Y-36121069D01*
X67000204Y-36077889D01*
X67117261Y-35990261D01*
X67204889Y-35873204D01*
X67255989Y-35736201D01*
X67261212Y-35687620D01*
X67262499Y-35675654D01*
X67262500Y-35675637D01*
X67262500Y-34070362D01*
X67262499Y-34070345D01*
X67259157Y-34039270D01*
X67255989Y-34009799D01*
X67204889Y-33872796D01*
X67117261Y-33755739D01*
X67000204Y-33668111D01*
X66863203Y-33617011D01*
X66802654Y-33610500D01*
X66802638Y-33610500D01*
X65197362Y-33610500D01*
X65197345Y-33610500D01*
X65136797Y-33617011D01*
X65136795Y-33617011D01*
X64999795Y-33668111D01*
X64882739Y-33755739D01*
X64795111Y-33872795D01*
X64744011Y-34009795D01*
X64744011Y-34009797D01*
X64737500Y-34070345D01*
X64737500Y-35675654D01*
X61899205Y-35675654D01*
X62017534Y-35506662D01*
X62110894Y-35306450D01*
X62168070Y-35093068D01*
X62187323Y-34873000D01*
X62168070Y-34652932D01*
X62110894Y-34439550D01*
X62017534Y-34239339D01*
X61890826Y-34058380D01*
X61734620Y-33902174D01*
X61734616Y-33902171D01*
X61734615Y-33902170D01*
X61553666Y-33775468D01*
X61553662Y-33775466D01*
X61511357Y-33755739D01*
X61353450Y-33682106D01*
X61353447Y-33682105D01*
X61353445Y-33682104D01*
X61140070Y-33624930D01*
X61140062Y-33624929D01*
X60920002Y-33605677D01*
X60919998Y-33605677D01*
X60699937Y-33624929D01*
X60699929Y-33624930D01*
X60486554Y-33682104D01*
X60486548Y-33682107D01*
X60286340Y-33775465D01*
X60286338Y-33775466D01*
X60105377Y-33902175D01*
X59949175Y-34058377D01*
X59822466Y-34239338D01*
X59822465Y-34239340D01*
X59729107Y-34439548D01*
X59729104Y-34439554D01*
X59671930Y-34652929D01*
X59671929Y-34652937D01*
X59652677Y-34872997D01*
X59652677Y-34873002D01*
X57091408Y-34873002D01*
X57028258Y-22180000D01*
X78454534Y-22180000D01*
X78474312Y-22330234D01*
X78474313Y-22330236D01*
X78532302Y-22470233D01*
X78624549Y-22590451D01*
X78744767Y-22682698D01*
X78884764Y-22740687D01*
X78997280Y-22755500D01*
X78997287Y-22755500D01*
X79072713Y-22755500D01*
X79072720Y-22755500D01*
X79185236Y-22740687D01*
X79325233Y-22682698D01*
X79445451Y-22590451D01*
X79537698Y-22470233D01*
X79595687Y-22330236D01*
X79615466Y-22180000D01*
X84234534Y-22180000D01*
X84254312Y-22330234D01*
X84254313Y-22330236D01*
X84312302Y-22470233D01*
X84404549Y-22590451D01*
X84524767Y-22682698D01*
X84664764Y-22740687D01*
X84777280Y-22755500D01*
X84777287Y-22755500D01*
X84852713Y-22755500D01*
X84852720Y-22755500D01*
X84965236Y-22740687D01*
X85105233Y-22682698D01*
X85225451Y-22590451D01*
X85317698Y-22470233D01*
X85375687Y-22330236D01*
X85395466Y-22180000D01*
X85375687Y-22029764D01*
X85317698Y-21889767D01*
X85225451Y-21769549D01*
X85105233Y-21677302D01*
X85105229Y-21677300D01*
X85041801Y-21651027D01*
X84965236Y-21619313D01*
X84951171Y-21617461D01*
X84852727Y-21604500D01*
X84852720Y-21604500D01*
X84777280Y-21604500D01*
X84777272Y-21604500D01*
X84664764Y-21619313D01*
X84664763Y-21619313D01*
X84524770Y-21677300D01*
X84404549Y-21769549D01*
X84312300Y-21889770D01*
X84254313Y-22029763D01*
X84254312Y-22029765D01*
X84234534Y-22179999D01*
X84234534Y-22180000D01*
X79615466Y-22180000D01*
X79595687Y-22029764D01*
X79537698Y-21889767D01*
X79445451Y-21769549D01*
X79325233Y-21677302D01*
X79325229Y-21677300D01*
X79261801Y-21651027D01*
X79185236Y-21619313D01*
X79171171Y-21617461D01*
X79072727Y-21604500D01*
X79072720Y-21604500D01*
X78997280Y-21604500D01*
X78997272Y-21604500D01*
X78884764Y-21619313D01*
X78884763Y-21619313D01*
X78744770Y-21677300D01*
X78624549Y-21769549D01*
X78532300Y-21889770D01*
X78474313Y-22029763D01*
X78474312Y-22029765D01*
X78454534Y-22179999D01*
X78454534Y-22180000D01*
X57028258Y-22180000D01*
X57016506Y-19817763D01*
X58545787Y-19817763D01*
X58575413Y-20087013D01*
X58575415Y-20087024D01*
X58643926Y-20349082D01*
X58643928Y-20349088D01*
X58749870Y-20598390D01*
X58821998Y-20716575D01*
X58890979Y-20829605D01*
X58890986Y-20829615D01*
X59064253Y-21037819D01*
X59064259Y-21037824D01*
X59265998Y-21218582D01*
X59491910Y-21368044D01*
X59737176Y-21483020D01*
X59737183Y-21483022D01*
X59737185Y-21483023D01*
X59996557Y-21561057D01*
X59996564Y-21561058D01*
X59996569Y-21561060D01*
X60264561Y-21600500D01*
X60264566Y-21600500D01*
X60467629Y-21600500D01*
X60467631Y-21600500D01*
X60467636Y-21600499D01*
X60467648Y-21600499D01*
X60505191Y-21597750D01*
X60670156Y-21585677D01*
X60782758Y-21560593D01*
X60934546Y-21526782D01*
X60934548Y-21526781D01*
X60934553Y-21526780D01*
X61187558Y-21430014D01*
X61423777Y-21297441D01*
X61638177Y-21131888D01*
X61826186Y-20936881D01*
X61983799Y-20716579D01*
X62057787Y-20572669D01*
X62107649Y-20475690D01*
X62107651Y-20475684D01*
X62107656Y-20475675D01*
X62195118Y-20219305D01*
X62244319Y-19952933D01*
X62249259Y-19817763D01*
X99645787Y-19817763D01*
X99675413Y-20087013D01*
X99675415Y-20087024D01*
X99743926Y-20349082D01*
X99743928Y-20349088D01*
X99849870Y-20598390D01*
X99921998Y-20716575D01*
X99990979Y-20829605D01*
X99990986Y-20829615D01*
X100164253Y-21037819D01*
X100164259Y-21037824D01*
X100365998Y-21218582D01*
X100591910Y-21368044D01*
X100837176Y-21483020D01*
X100837183Y-21483022D01*
X100837185Y-21483023D01*
X101096557Y-21561057D01*
X101096564Y-21561058D01*
X101096569Y-21561060D01*
X101364561Y-21600500D01*
X101364566Y-21600500D01*
X101567629Y-21600500D01*
X101567631Y-21600500D01*
X101567636Y-21600499D01*
X101567648Y-21600499D01*
X101605191Y-21597750D01*
X101770156Y-21585677D01*
X101882758Y-21560593D01*
X102034546Y-21526782D01*
X102034548Y-21526781D01*
X102034553Y-21526780D01*
X102287558Y-21430014D01*
X102523777Y-21297441D01*
X102738177Y-21131888D01*
X102926186Y-20936881D01*
X103083799Y-20716579D01*
X103157787Y-20572669D01*
X103207649Y-20475690D01*
X103207651Y-20475684D01*
X103207656Y-20475675D01*
X103295118Y-20219305D01*
X103344319Y-19952933D01*
X103354212Y-19682235D01*
X103324586Y-19412982D01*
X103256072Y-19150912D01*
X103150130Y-18901610D01*
X103009018Y-18670390D01*
X102919747Y-18563119D01*
X102835746Y-18462180D01*
X102835740Y-18462175D01*
X102634002Y-18281418D01*
X102408092Y-18131957D01*
X102408090Y-18131956D01*
X102162824Y-18016980D01*
X102162819Y-18016978D01*
X102162814Y-18016976D01*
X101903442Y-17938942D01*
X101903428Y-17938939D01*
X101787791Y-17921921D01*
X101635439Y-17899500D01*
X101432369Y-17899500D01*
X101432351Y-17899500D01*
X101229844Y-17914323D01*
X101229831Y-17914325D01*
X100965453Y-17973217D01*
X100965446Y-17973220D01*
X100712439Y-18069987D01*
X100476226Y-18202557D01*
X100261822Y-18368112D01*
X100073822Y-18563109D01*
X100073816Y-18563116D01*
X99916202Y-18783419D01*
X99916199Y-18783424D01*
X99792350Y-19024309D01*
X99792343Y-19024327D01*
X99704884Y-19280685D01*
X99704881Y-19280699D01*
X99655681Y-19547068D01*
X99655680Y-19547075D01*
X99645787Y-19817763D01*
X62249259Y-19817763D01*
X62254212Y-19682235D01*
X62224586Y-19412982D01*
X62156072Y-19150912D01*
X62050130Y-18901610D01*
X61909018Y-18670390D01*
X61819747Y-18563119D01*
X61735746Y-18462180D01*
X61735740Y-18462175D01*
X61534002Y-18281418D01*
X61308092Y-18131957D01*
X61308090Y-18131956D01*
X61062824Y-18016980D01*
X61062819Y-18016978D01*
X61062814Y-18016976D01*
X60803442Y-17938942D01*
X60803428Y-17938939D01*
X60687791Y-17921921D01*
X60535439Y-17899500D01*
X60332369Y-17899500D01*
X60332351Y-17899500D01*
X60129844Y-17914323D01*
X60129831Y-17914325D01*
X59865453Y-17973217D01*
X59865446Y-17973220D01*
X59612439Y-18069987D01*
X59376226Y-18202557D01*
X59161822Y-18368112D01*
X58973822Y-18563109D01*
X58973816Y-18563116D01*
X58816202Y-18783419D01*
X58816199Y-18783424D01*
X58692350Y-19024309D01*
X58692343Y-19024327D01*
X58604884Y-19280685D01*
X58604881Y-19280699D01*
X58555681Y-19547068D01*
X58555680Y-19547075D01*
X58545787Y-19817763D01*
X57016506Y-19817763D01*
X57002783Y-17059535D01*
X57022133Y-16992400D01*
X57038879Y-16971460D01*
X57471644Y-16536536D01*
X57532884Y-16502900D01*
X57559543Y-16500000D01*
X104440638Y-16500000D01*
X104507677Y-16519685D01*
G37*
G04 #@! TD.AperFunction*
M02*
