G04 #@! TF.GenerationSoftware,KiCad,Pcbnew,7.0.5*
G04 #@! TF.CreationDate,2024-02-26T21:12:57+02:00*
G04 #@! TF.ProjectId,WTP_receiver,5754505f-7265-4636-9569-7665722e6b69,rev?*
G04 #@! TF.SameCoordinates,Original*
G04 #@! TF.FileFunction,Paste,Top*
G04 #@! TF.FilePolarity,Positive*
%FSLAX46Y46*%
G04 Gerber Fmt 4.6, Leading zero omitted, Abs format (unit mm)*
G04 Created by KiCad (PCBNEW 7.0.5) date 2024-02-26 21:12:57*
%MOMM*%
%LPD*%
G01*
G04 APERTURE LIST*
G04 Aperture macros list*
%AMRoundRect*
0 Rectangle with rounded corners*
0 $1 Rounding radius*
0 $2 $3 $4 $5 $6 $7 $8 $9 X,Y pos of 4 corners*
0 Add a 4 corners polygon primitive as box body*
4,1,4,$2,$3,$4,$5,$6,$7,$8,$9,$2,$3,0*
0 Add four circle primitives for the rounded corners*
1,1,$1+$1,$2,$3*
1,1,$1+$1,$4,$5*
1,1,$1+$1,$6,$7*
1,1,$1+$1,$8,$9*
0 Add four rect primitives between the rounded corners*
20,1,$1+$1,$2,$3,$4,$5,0*
20,1,$1+$1,$4,$5,$6,$7,0*
20,1,$1+$1,$6,$7,$8,$9,0*
20,1,$1+$1,$8,$9,$2,$3,0*%
G04 Aperture macros list end*
%ADD10RoundRect,0.250000X0.475000X-0.250000X0.475000X0.250000X-0.475000X0.250000X-0.475000X-0.250000X0*%
%ADD11RoundRect,0.250000X2.450000X-0.650000X2.450000X0.650000X-2.450000X0.650000X-2.450000X-0.650000X0*%
%ADD12R,0.600000X1.140000*%
%ADD13R,0.300000X1.140000*%
%ADD14R,0.600000X2.400000*%
%ADD15R,1.900000X1.700000*%
%ADD16R,1.440000X1.600000*%
%ADD17RoundRect,0.250000X1.100000X-0.325000X1.100000X0.325000X-1.100000X0.325000X-1.100000X-0.325000X0*%
%ADD18RoundRect,0.250000X-0.650000X1.000000X-0.650000X-1.000000X0.650000X-1.000000X0.650000X1.000000X0*%
G04 APERTURE END LIST*
D10*
X60800000Y-32950000D03*
X60800000Y-31050000D03*
D11*
X66600000Y-32550000D03*
X66600000Y-27450000D03*
D12*
X78725000Y-23250000D03*
X79525000Y-23250000D03*
D13*
X80175000Y-23250000D03*
X80675000Y-23250000D03*
X81175000Y-23250000D03*
X81675000Y-23250000D03*
X83675000Y-23250000D03*
X83175000Y-23250000D03*
X82675000Y-23250000D03*
X82175000Y-23250000D03*
D12*
X84325000Y-23250000D03*
X85125000Y-23250000D03*
D14*
X78932000Y-35142000D03*
D15*
X80382000Y-34192000D03*
X80382000Y-36092000D03*
X82482000Y-34192000D03*
X82482000Y-36092000D03*
D16*
X84862000Y-36207000D03*
X84862000Y-34077000D03*
D17*
X79678000Y-31461000D03*
X79678000Y-28511000D03*
D18*
X71300000Y-27900000D03*
X71300000Y-31900000D03*
D10*
X74200000Y-30750000D03*
X74200000Y-28850000D03*
X82600000Y-30850000D03*
X82600000Y-28950000D03*
X76630000Y-30750000D03*
X76630000Y-28850000D03*
D14*
X90616000Y-35142000D03*
D15*
X92066000Y-34192000D03*
X92066000Y-36092000D03*
X94166000Y-34192000D03*
X94166000Y-36092000D03*
D16*
X96546000Y-36207000D03*
X96546000Y-34077000D03*
D14*
X78932000Y-43270000D03*
D15*
X80382000Y-42320000D03*
X80382000Y-44220000D03*
X82482000Y-42320000D03*
X82482000Y-44220000D03*
D16*
X84862000Y-44335000D03*
X84862000Y-42205000D03*
D14*
X90616000Y-43270000D03*
D15*
X92066000Y-42320000D03*
X92066000Y-44220000D03*
X94166000Y-42320000D03*
X94166000Y-44220000D03*
D16*
X96546000Y-44335000D03*
X96546000Y-42205000D03*
M02*
