%TF.GenerationSoftware,KiCad,Pcbnew,7.0.5*%
%TF.CreationDate,2024-02-25T22:18:29+02:00*%
%TF.ProjectId,WTP_receiver,5754505f-7265-4636-9569-7665722e6b69,rev?*%
%TF.SameCoordinates,Original*%
%TF.FileFunction,Drillmap*%
%TF.FilePolarity,Positive*%
%FSLAX45Y45*%
G04 Gerber Fmt 4.5, Leading zero omitted, Abs format (unit mm)*
G04 Created by KiCad (PCBNEW 7.0.5) date 2024-02-25 22:18:29*
%MOMM*%
%LPD*%
G01*
G04 APERTURE LIST*
%ADD10C,0.100000*%
%ADD11C,0.200000*%
%ADD12C,0.065000*%
%ADD13C,0.320000*%
G04 APERTURE END LIST*
D10*
X5700000Y-1642800D02*
X10500000Y-1642800D01*
X10500000Y-6004600D01*
X5700000Y-6004600D01*
X5700000Y-1642800D01*
D11*
D12*
X7870425Y-2188000D02*
X7935425Y-2253000D01*
X7935425Y-2188000D02*
X7870425Y-2253000D01*
X8448425Y-2188000D02*
X8513425Y-2253000D01*
X8513425Y-2188000D02*
X8448425Y-2253000D01*
D13*
X6185000Y-1975000D02*
G75*
G03*
X6185000Y-1975000I-160000J0D01*
G01*
X6185000Y-5675000D02*
G75*
G03*
X6185000Y-5675000I-160000J0D01*
G01*
X10335000Y-1975000D02*
G75*
G03*
X10335000Y-1975000I-160000J0D01*
G01*
X10335000Y-5675000D02*
G75*
G03*
X10335000Y-5675000I-160000J0D01*
G01*
D11*
X5955777Y-6321084D02*
X5955777Y-6121084D01*
X5955777Y-6121084D02*
X6003396Y-6121084D01*
X6003396Y-6121084D02*
X6031967Y-6130608D01*
X6031967Y-6130608D02*
X6051015Y-6149655D01*
X6051015Y-6149655D02*
X6060539Y-6168703D01*
X6060539Y-6168703D02*
X6070062Y-6206798D01*
X6070062Y-6206798D02*
X6070062Y-6235369D01*
X6070062Y-6235369D02*
X6060539Y-6273465D01*
X6060539Y-6273465D02*
X6051015Y-6292512D01*
X6051015Y-6292512D02*
X6031967Y-6311560D01*
X6031967Y-6311560D02*
X6003396Y-6321084D01*
X6003396Y-6321084D02*
X5955777Y-6321084D01*
X6155777Y-6321084D02*
X6155777Y-6187750D01*
X6155777Y-6225846D02*
X6165301Y-6206798D01*
X6165301Y-6206798D02*
X6174824Y-6197274D01*
X6174824Y-6197274D02*
X6193872Y-6187750D01*
X6193872Y-6187750D02*
X6212920Y-6187750D01*
X6279586Y-6321084D02*
X6279586Y-6187750D01*
X6279586Y-6121084D02*
X6270062Y-6130608D01*
X6270062Y-6130608D02*
X6279586Y-6140131D01*
X6279586Y-6140131D02*
X6289110Y-6130608D01*
X6289110Y-6130608D02*
X6279586Y-6121084D01*
X6279586Y-6121084D02*
X6279586Y-6140131D01*
X6403396Y-6321084D02*
X6384348Y-6311560D01*
X6384348Y-6311560D02*
X6374824Y-6292512D01*
X6374824Y-6292512D02*
X6374824Y-6121084D01*
X6508158Y-6321084D02*
X6489110Y-6311560D01*
X6489110Y-6311560D02*
X6479586Y-6292512D01*
X6479586Y-6292512D02*
X6479586Y-6121084D01*
X6736729Y-6321084D02*
X6736729Y-6121084D01*
X6736729Y-6121084D02*
X6803396Y-6263941D01*
X6803396Y-6263941D02*
X6870062Y-6121084D01*
X6870062Y-6121084D02*
X6870062Y-6321084D01*
X7051015Y-6321084D02*
X7051015Y-6216322D01*
X7051015Y-6216322D02*
X7041491Y-6197274D01*
X7041491Y-6197274D02*
X7022443Y-6187750D01*
X7022443Y-6187750D02*
X6984348Y-6187750D01*
X6984348Y-6187750D02*
X6965301Y-6197274D01*
X7051015Y-6311560D02*
X7031967Y-6321084D01*
X7031967Y-6321084D02*
X6984348Y-6321084D01*
X6984348Y-6321084D02*
X6965301Y-6311560D01*
X6965301Y-6311560D02*
X6955777Y-6292512D01*
X6955777Y-6292512D02*
X6955777Y-6273465D01*
X6955777Y-6273465D02*
X6965301Y-6254417D01*
X6965301Y-6254417D02*
X6984348Y-6244893D01*
X6984348Y-6244893D02*
X7031967Y-6244893D01*
X7031967Y-6244893D02*
X7051015Y-6235369D01*
X7146253Y-6187750D02*
X7146253Y-6387750D01*
X7146253Y-6197274D02*
X7165301Y-6187750D01*
X7165301Y-6187750D02*
X7203396Y-6187750D01*
X7203396Y-6187750D02*
X7222443Y-6197274D01*
X7222443Y-6197274D02*
X7231967Y-6206798D01*
X7231967Y-6206798D02*
X7241491Y-6225846D01*
X7241491Y-6225846D02*
X7241491Y-6282988D01*
X7241491Y-6282988D02*
X7231967Y-6302036D01*
X7231967Y-6302036D02*
X7222443Y-6311560D01*
X7222443Y-6311560D02*
X7203396Y-6321084D01*
X7203396Y-6321084D02*
X7165301Y-6321084D01*
X7165301Y-6321084D02*
X7146253Y-6311560D01*
X7327205Y-6302036D02*
X7336729Y-6311560D01*
X7336729Y-6311560D02*
X7327205Y-6321084D01*
X7327205Y-6321084D02*
X7317682Y-6311560D01*
X7317682Y-6311560D02*
X7327205Y-6302036D01*
X7327205Y-6302036D02*
X7327205Y-6321084D01*
X7327205Y-6197274D02*
X7336729Y-6206798D01*
X7336729Y-6206798D02*
X7327205Y-6216322D01*
X7327205Y-6216322D02*
X7317682Y-6206798D01*
X7317682Y-6206798D02*
X7327205Y-6197274D01*
X7327205Y-6197274D02*
X7327205Y-6216322D01*
D12*
X5630000Y-6617100D02*
X5695000Y-6682100D01*
X5695000Y-6617100D02*
X5630000Y-6682100D01*
D11*
X5993872Y-6541084D02*
X6012920Y-6541084D01*
X6012920Y-6541084D02*
X6031967Y-6550608D01*
X6031967Y-6550608D02*
X6041491Y-6560131D01*
X6041491Y-6560131D02*
X6051015Y-6579179D01*
X6051015Y-6579179D02*
X6060539Y-6617274D01*
X6060539Y-6617274D02*
X6060539Y-6664893D01*
X6060539Y-6664893D02*
X6051015Y-6702988D01*
X6051015Y-6702988D02*
X6041491Y-6722036D01*
X6041491Y-6722036D02*
X6031967Y-6731560D01*
X6031967Y-6731560D02*
X6012920Y-6741084D01*
X6012920Y-6741084D02*
X5993872Y-6741084D01*
X5993872Y-6741084D02*
X5974824Y-6731560D01*
X5974824Y-6731560D02*
X5965301Y-6722036D01*
X5965301Y-6722036D02*
X5955777Y-6702988D01*
X5955777Y-6702988D02*
X5946253Y-6664893D01*
X5946253Y-6664893D02*
X5946253Y-6617274D01*
X5946253Y-6617274D02*
X5955777Y-6579179D01*
X5955777Y-6579179D02*
X5965301Y-6560131D01*
X5965301Y-6560131D02*
X5974824Y-6550608D01*
X5974824Y-6550608D02*
X5993872Y-6541084D01*
X6146253Y-6722036D02*
X6155777Y-6731560D01*
X6155777Y-6731560D02*
X6146253Y-6741084D01*
X6146253Y-6741084D02*
X6136729Y-6731560D01*
X6136729Y-6731560D02*
X6146253Y-6722036D01*
X6146253Y-6722036D02*
X6146253Y-6741084D01*
X6327205Y-6541084D02*
X6289110Y-6541084D01*
X6289110Y-6541084D02*
X6270062Y-6550608D01*
X6270062Y-6550608D02*
X6260539Y-6560131D01*
X6260539Y-6560131D02*
X6241491Y-6588703D01*
X6241491Y-6588703D02*
X6231967Y-6626798D01*
X6231967Y-6626798D02*
X6231967Y-6702988D01*
X6231967Y-6702988D02*
X6241491Y-6722036D01*
X6241491Y-6722036D02*
X6251015Y-6731560D01*
X6251015Y-6731560D02*
X6270062Y-6741084D01*
X6270062Y-6741084D02*
X6308158Y-6741084D01*
X6308158Y-6741084D02*
X6327205Y-6731560D01*
X6327205Y-6731560D02*
X6336729Y-6722036D01*
X6336729Y-6722036D02*
X6346253Y-6702988D01*
X6346253Y-6702988D02*
X6346253Y-6655369D01*
X6346253Y-6655369D02*
X6336729Y-6636322D01*
X6336729Y-6636322D02*
X6327205Y-6626798D01*
X6327205Y-6626798D02*
X6308158Y-6617274D01*
X6308158Y-6617274D02*
X6270062Y-6617274D01*
X6270062Y-6617274D02*
X6251015Y-6626798D01*
X6251015Y-6626798D02*
X6241491Y-6636322D01*
X6241491Y-6636322D02*
X6231967Y-6655369D01*
X6527205Y-6541084D02*
X6431967Y-6541084D01*
X6431967Y-6541084D02*
X6422443Y-6636322D01*
X6422443Y-6636322D02*
X6431967Y-6626798D01*
X6431967Y-6626798D02*
X6451015Y-6617274D01*
X6451015Y-6617274D02*
X6498634Y-6617274D01*
X6498634Y-6617274D02*
X6517682Y-6626798D01*
X6517682Y-6626798D02*
X6527205Y-6636322D01*
X6527205Y-6636322D02*
X6536729Y-6655369D01*
X6536729Y-6655369D02*
X6536729Y-6702988D01*
X6536729Y-6702988D02*
X6527205Y-6722036D01*
X6527205Y-6722036D02*
X6517682Y-6731560D01*
X6517682Y-6731560D02*
X6498634Y-6741084D01*
X6498634Y-6741084D02*
X6451015Y-6741084D01*
X6451015Y-6741084D02*
X6431967Y-6731560D01*
X6431967Y-6731560D02*
X6422443Y-6722036D01*
X6660539Y-6541084D02*
X6679586Y-6541084D01*
X6679586Y-6541084D02*
X6698634Y-6550608D01*
X6698634Y-6550608D02*
X6708158Y-6560131D01*
X6708158Y-6560131D02*
X6717682Y-6579179D01*
X6717682Y-6579179D02*
X6727205Y-6617274D01*
X6727205Y-6617274D02*
X6727205Y-6664893D01*
X6727205Y-6664893D02*
X6717682Y-6702988D01*
X6717682Y-6702988D02*
X6708158Y-6722036D01*
X6708158Y-6722036D02*
X6698634Y-6731560D01*
X6698634Y-6731560D02*
X6679586Y-6741084D01*
X6679586Y-6741084D02*
X6660539Y-6741084D01*
X6660539Y-6741084D02*
X6641491Y-6731560D01*
X6641491Y-6731560D02*
X6631967Y-6722036D01*
X6631967Y-6722036D02*
X6622443Y-6702988D01*
X6622443Y-6702988D02*
X6612920Y-6664893D01*
X6612920Y-6664893D02*
X6612920Y-6617274D01*
X6612920Y-6617274D02*
X6622443Y-6579179D01*
X6622443Y-6579179D02*
X6631967Y-6560131D01*
X6631967Y-6560131D02*
X6641491Y-6550608D01*
X6641491Y-6550608D02*
X6660539Y-6541084D01*
X6812920Y-6741084D02*
X6812920Y-6607750D01*
X6812920Y-6626798D02*
X6822443Y-6617274D01*
X6822443Y-6617274D02*
X6841491Y-6607750D01*
X6841491Y-6607750D02*
X6870063Y-6607750D01*
X6870063Y-6607750D02*
X6889110Y-6617274D01*
X6889110Y-6617274D02*
X6898634Y-6636322D01*
X6898634Y-6636322D02*
X6898634Y-6741084D01*
X6898634Y-6636322D02*
X6908158Y-6617274D01*
X6908158Y-6617274D02*
X6927205Y-6607750D01*
X6927205Y-6607750D02*
X6955777Y-6607750D01*
X6955777Y-6607750D02*
X6974824Y-6617274D01*
X6974824Y-6617274D02*
X6984348Y-6636322D01*
X6984348Y-6636322D02*
X6984348Y-6741084D01*
X7079586Y-6741084D02*
X7079586Y-6607750D01*
X7079586Y-6626798D02*
X7089110Y-6617274D01*
X7089110Y-6617274D02*
X7108158Y-6607750D01*
X7108158Y-6607750D02*
X7136729Y-6607750D01*
X7136729Y-6607750D02*
X7155777Y-6617274D01*
X7155777Y-6617274D02*
X7165301Y-6636322D01*
X7165301Y-6636322D02*
X7165301Y-6741084D01*
X7165301Y-6636322D02*
X7174824Y-6617274D01*
X7174824Y-6617274D02*
X7193872Y-6607750D01*
X7193872Y-6607750D02*
X7222443Y-6607750D01*
X7222443Y-6607750D02*
X7241491Y-6617274D01*
X7241491Y-6617274D02*
X7251015Y-6636322D01*
X7251015Y-6636322D02*
X7251015Y-6741084D01*
X7641491Y-6531560D02*
X7470063Y-6788703D01*
X7898634Y-6541084D02*
X7917682Y-6541084D01*
X7917682Y-6541084D02*
X7936729Y-6550608D01*
X7936729Y-6550608D02*
X7946253Y-6560131D01*
X7946253Y-6560131D02*
X7955777Y-6579179D01*
X7955777Y-6579179D02*
X7965301Y-6617274D01*
X7965301Y-6617274D02*
X7965301Y-6664893D01*
X7965301Y-6664893D02*
X7955777Y-6702988D01*
X7955777Y-6702988D02*
X7946253Y-6722036D01*
X7946253Y-6722036D02*
X7936729Y-6731560D01*
X7936729Y-6731560D02*
X7917682Y-6741084D01*
X7917682Y-6741084D02*
X7898634Y-6741084D01*
X7898634Y-6741084D02*
X7879586Y-6731560D01*
X7879586Y-6731560D02*
X7870063Y-6722036D01*
X7870063Y-6722036D02*
X7860539Y-6702988D01*
X7860539Y-6702988D02*
X7851015Y-6664893D01*
X7851015Y-6664893D02*
X7851015Y-6617274D01*
X7851015Y-6617274D02*
X7860539Y-6579179D01*
X7860539Y-6579179D02*
X7870063Y-6560131D01*
X7870063Y-6560131D02*
X7879586Y-6550608D01*
X7879586Y-6550608D02*
X7898634Y-6541084D01*
X8051015Y-6722036D02*
X8060539Y-6731560D01*
X8060539Y-6731560D02*
X8051015Y-6741084D01*
X8051015Y-6741084D02*
X8041491Y-6731560D01*
X8041491Y-6731560D02*
X8051015Y-6722036D01*
X8051015Y-6722036D02*
X8051015Y-6741084D01*
X8184348Y-6541084D02*
X8203396Y-6541084D01*
X8203396Y-6541084D02*
X8222444Y-6550608D01*
X8222444Y-6550608D02*
X8231967Y-6560131D01*
X8231967Y-6560131D02*
X8241491Y-6579179D01*
X8241491Y-6579179D02*
X8251015Y-6617274D01*
X8251015Y-6617274D02*
X8251015Y-6664893D01*
X8251015Y-6664893D02*
X8241491Y-6702988D01*
X8241491Y-6702988D02*
X8231967Y-6722036D01*
X8231967Y-6722036D02*
X8222444Y-6731560D01*
X8222444Y-6731560D02*
X8203396Y-6741084D01*
X8203396Y-6741084D02*
X8184348Y-6741084D01*
X8184348Y-6741084D02*
X8165301Y-6731560D01*
X8165301Y-6731560D02*
X8155777Y-6722036D01*
X8155777Y-6722036D02*
X8146253Y-6702988D01*
X8146253Y-6702988D02*
X8136729Y-6664893D01*
X8136729Y-6664893D02*
X8136729Y-6617274D01*
X8136729Y-6617274D02*
X8146253Y-6579179D01*
X8146253Y-6579179D02*
X8155777Y-6560131D01*
X8155777Y-6560131D02*
X8165301Y-6550608D01*
X8165301Y-6550608D02*
X8184348Y-6541084D01*
X8327206Y-6560131D02*
X8336729Y-6550608D01*
X8336729Y-6550608D02*
X8355777Y-6541084D01*
X8355777Y-6541084D02*
X8403396Y-6541084D01*
X8403396Y-6541084D02*
X8422444Y-6550608D01*
X8422444Y-6550608D02*
X8431968Y-6560131D01*
X8431968Y-6560131D02*
X8441491Y-6579179D01*
X8441491Y-6579179D02*
X8441491Y-6598227D01*
X8441491Y-6598227D02*
X8431968Y-6626798D01*
X8431968Y-6626798D02*
X8317682Y-6741084D01*
X8317682Y-6741084D02*
X8441491Y-6741084D01*
X8622444Y-6541084D02*
X8527206Y-6541084D01*
X8527206Y-6541084D02*
X8517682Y-6636322D01*
X8517682Y-6636322D02*
X8527206Y-6626798D01*
X8527206Y-6626798D02*
X8546253Y-6617274D01*
X8546253Y-6617274D02*
X8593872Y-6617274D01*
X8593872Y-6617274D02*
X8612920Y-6626798D01*
X8612920Y-6626798D02*
X8622444Y-6636322D01*
X8622444Y-6636322D02*
X8631968Y-6655369D01*
X8631968Y-6655369D02*
X8631968Y-6702988D01*
X8631968Y-6702988D02*
X8622444Y-6722036D01*
X8622444Y-6722036D02*
X8612920Y-6731560D01*
X8612920Y-6731560D02*
X8593872Y-6741084D01*
X8593872Y-6741084D02*
X8546253Y-6741084D01*
X8546253Y-6741084D02*
X8527206Y-6731560D01*
X8527206Y-6731560D02*
X8517682Y-6722036D01*
X8803396Y-6541084D02*
X8765301Y-6541084D01*
X8765301Y-6541084D02*
X8746253Y-6550608D01*
X8746253Y-6550608D02*
X8736729Y-6560131D01*
X8736729Y-6560131D02*
X8717682Y-6588703D01*
X8717682Y-6588703D02*
X8708158Y-6626798D01*
X8708158Y-6626798D02*
X8708158Y-6702988D01*
X8708158Y-6702988D02*
X8717682Y-6722036D01*
X8717682Y-6722036D02*
X8727206Y-6731560D01*
X8727206Y-6731560D02*
X8746253Y-6741084D01*
X8746253Y-6741084D02*
X8784349Y-6741084D01*
X8784349Y-6741084D02*
X8803396Y-6731560D01*
X8803396Y-6731560D02*
X8812920Y-6722036D01*
X8812920Y-6722036D02*
X8822444Y-6702988D01*
X8822444Y-6702988D02*
X8822444Y-6655369D01*
X8822444Y-6655369D02*
X8812920Y-6636322D01*
X8812920Y-6636322D02*
X8803396Y-6626798D01*
X8803396Y-6626798D02*
X8784349Y-6617274D01*
X8784349Y-6617274D02*
X8746253Y-6617274D01*
X8746253Y-6617274D02*
X8727206Y-6626798D01*
X8727206Y-6626798D02*
X8717682Y-6636322D01*
X8717682Y-6636322D02*
X8708158Y-6655369D01*
X8898634Y-6541084D02*
X8898634Y-6579179D01*
X8974825Y-6541084D02*
X8974825Y-6579179D01*
X9270063Y-6817274D02*
X9260539Y-6807750D01*
X9260539Y-6807750D02*
X9241491Y-6779179D01*
X9241491Y-6779179D02*
X9231968Y-6760131D01*
X9231968Y-6760131D02*
X9222444Y-6731560D01*
X9222444Y-6731560D02*
X9212920Y-6683941D01*
X9212920Y-6683941D02*
X9212920Y-6645846D01*
X9212920Y-6645846D02*
X9222444Y-6598227D01*
X9222444Y-6598227D02*
X9231968Y-6569655D01*
X9231968Y-6569655D02*
X9241491Y-6550608D01*
X9241491Y-6550608D02*
X9260539Y-6522036D01*
X9260539Y-6522036D02*
X9270063Y-6512512D01*
X9336730Y-6560131D02*
X9346253Y-6550608D01*
X9346253Y-6550608D02*
X9365301Y-6541084D01*
X9365301Y-6541084D02*
X9412920Y-6541084D01*
X9412920Y-6541084D02*
X9431968Y-6550608D01*
X9431968Y-6550608D02*
X9441491Y-6560131D01*
X9441491Y-6560131D02*
X9451015Y-6579179D01*
X9451015Y-6579179D02*
X9451015Y-6598227D01*
X9451015Y-6598227D02*
X9441491Y-6626798D01*
X9441491Y-6626798D02*
X9327206Y-6741084D01*
X9327206Y-6741084D02*
X9451015Y-6741084D01*
X9689111Y-6741084D02*
X9689111Y-6541084D01*
X9774825Y-6741084D02*
X9774825Y-6636322D01*
X9774825Y-6636322D02*
X9765301Y-6617274D01*
X9765301Y-6617274D02*
X9746253Y-6607750D01*
X9746253Y-6607750D02*
X9717682Y-6607750D01*
X9717682Y-6607750D02*
X9698634Y-6617274D01*
X9698634Y-6617274D02*
X9689111Y-6626798D01*
X9898634Y-6741084D02*
X9879587Y-6731560D01*
X9879587Y-6731560D02*
X9870063Y-6722036D01*
X9870063Y-6722036D02*
X9860539Y-6702988D01*
X9860539Y-6702988D02*
X9860539Y-6645846D01*
X9860539Y-6645846D02*
X9870063Y-6626798D01*
X9870063Y-6626798D02*
X9879587Y-6617274D01*
X9879587Y-6617274D02*
X9898634Y-6607750D01*
X9898634Y-6607750D02*
X9927206Y-6607750D01*
X9927206Y-6607750D02*
X9946253Y-6617274D01*
X9946253Y-6617274D02*
X9955777Y-6626798D01*
X9955777Y-6626798D02*
X9965301Y-6645846D01*
X9965301Y-6645846D02*
X9965301Y-6702988D01*
X9965301Y-6702988D02*
X9955777Y-6722036D01*
X9955777Y-6722036D02*
X9946253Y-6731560D01*
X9946253Y-6731560D02*
X9927206Y-6741084D01*
X9927206Y-6741084D02*
X9898634Y-6741084D01*
X10079587Y-6741084D02*
X10060539Y-6731560D01*
X10060539Y-6731560D02*
X10051015Y-6712512D01*
X10051015Y-6712512D02*
X10051015Y-6541084D01*
X10231968Y-6731560D02*
X10212920Y-6741084D01*
X10212920Y-6741084D02*
X10174825Y-6741084D01*
X10174825Y-6741084D02*
X10155777Y-6731560D01*
X10155777Y-6731560D02*
X10146253Y-6712512D01*
X10146253Y-6712512D02*
X10146253Y-6636322D01*
X10146253Y-6636322D02*
X10155777Y-6617274D01*
X10155777Y-6617274D02*
X10174825Y-6607750D01*
X10174825Y-6607750D02*
X10212920Y-6607750D01*
X10212920Y-6607750D02*
X10231968Y-6617274D01*
X10231968Y-6617274D02*
X10241492Y-6636322D01*
X10241492Y-6636322D02*
X10241492Y-6655369D01*
X10241492Y-6655369D02*
X10146253Y-6674417D01*
X10317682Y-6731560D02*
X10336730Y-6741084D01*
X10336730Y-6741084D02*
X10374825Y-6741084D01*
X10374825Y-6741084D02*
X10393873Y-6731560D01*
X10393873Y-6731560D02*
X10403396Y-6712512D01*
X10403396Y-6712512D02*
X10403396Y-6702988D01*
X10403396Y-6702988D02*
X10393873Y-6683941D01*
X10393873Y-6683941D02*
X10374825Y-6674417D01*
X10374825Y-6674417D02*
X10346253Y-6674417D01*
X10346253Y-6674417D02*
X10327206Y-6664893D01*
X10327206Y-6664893D02*
X10317682Y-6645846D01*
X10317682Y-6645846D02*
X10317682Y-6636322D01*
X10317682Y-6636322D02*
X10327206Y-6617274D01*
X10327206Y-6617274D02*
X10346253Y-6607750D01*
X10346253Y-6607750D02*
X10374825Y-6607750D01*
X10374825Y-6607750D02*
X10393873Y-6617274D01*
X10470063Y-6817274D02*
X10479587Y-6807750D01*
X10479587Y-6807750D02*
X10498634Y-6779179D01*
X10498634Y-6779179D02*
X10508158Y-6760131D01*
X10508158Y-6760131D02*
X10517682Y-6731560D01*
X10517682Y-6731560D02*
X10527206Y-6683941D01*
X10527206Y-6683941D02*
X10527206Y-6645846D01*
X10527206Y-6645846D02*
X10517682Y-6598227D01*
X10517682Y-6598227D02*
X10508158Y-6569655D01*
X10508158Y-6569655D02*
X10498634Y-6550608D01*
X10498634Y-6550608D02*
X10479587Y-6522036D01*
X10479587Y-6522036D02*
X10470063Y-6512512D01*
X10831968Y-6817274D02*
X10822444Y-6807750D01*
X10822444Y-6807750D02*
X10803396Y-6779179D01*
X10803396Y-6779179D02*
X10793873Y-6760131D01*
X10793873Y-6760131D02*
X10784349Y-6731560D01*
X10784349Y-6731560D02*
X10774825Y-6683941D01*
X10774825Y-6683941D02*
X10774825Y-6645846D01*
X10774825Y-6645846D02*
X10784349Y-6598227D01*
X10784349Y-6598227D02*
X10793873Y-6569655D01*
X10793873Y-6569655D02*
X10803396Y-6550608D01*
X10803396Y-6550608D02*
X10822444Y-6522036D01*
X10822444Y-6522036D02*
X10831968Y-6512512D01*
X10908158Y-6607750D02*
X10908158Y-6741084D01*
X10908158Y-6626798D02*
X10917682Y-6617274D01*
X10917682Y-6617274D02*
X10936730Y-6607750D01*
X10936730Y-6607750D02*
X10965301Y-6607750D01*
X10965301Y-6607750D02*
X10984349Y-6617274D01*
X10984349Y-6617274D02*
X10993873Y-6636322D01*
X10993873Y-6636322D02*
X10993873Y-6741084D01*
X11117682Y-6741084D02*
X11098634Y-6731560D01*
X11098634Y-6731560D02*
X11089111Y-6722036D01*
X11089111Y-6722036D02*
X11079587Y-6702988D01*
X11079587Y-6702988D02*
X11079587Y-6645846D01*
X11079587Y-6645846D02*
X11089111Y-6626798D01*
X11089111Y-6626798D02*
X11098634Y-6617274D01*
X11098634Y-6617274D02*
X11117682Y-6607750D01*
X11117682Y-6607750D02*
X11146254Y-6607750D01*
X11146254Y-6607750D02*
X11165301Y-6617274D01*
X11165301Y-6617274D02*
X11174825Y-6626798D01*
X11174825Y-6626798D02*
X11184349Y-6645846D01*
X11184349Y-6645846D02*
X11184349Y-6702988D01*
X11184349Y-6702988D02*
X11174825Y-6722036D01*
X11174825Y-6722036D02*
X11165301Y-6731560D01*
X11165301Y-6731560D02*
X11146254Y-6741084D01*
X11146254Y-6741084D02*
X11117682Y-6741084D01*
X11241492Y-6607750D02*
X11317682Y-6607750D01*
X11270063Y-6541084D02*
X11270063Y-6712512D01*
X11270063Y-6712512D02*
X11279587Y-6731560D01*
X11279587Y-6731560D02*
X11298634Y-6741084D01*
X11298634Y-6741084D02*
X11317682Y-6741084D01*
X11536730Y-6607750D02*
X11536730Y-6807750D01*
X11536730Y-6617274D02*
X11555777Y-6607750D01*
X11555777Y-6607750D02*
X11593873Y-6607750D01*
X11593873Y-6607750D02*
X11612920Y-6617274D01*
X11612920Y-6617274D02*
X11622444Y-6626798D01*
X11622444Y-6626798D02*
X11631968Y-6645846D01*
X11631968Y-6645846D02*
X11631968Y-6702988D01*
X11631968Y-6702988D02*
X11622444Y-6722036D01*
X11622444Y-6722036D02*
X11612920Y-6731560D01*
X11612920Y-6731560D02*
X11593873Y-6741084D01*
X11593873Y-6741084D02*
X11555777Y-6741084D01*
X11555777Y-6741084D02*
X11536730Y-6731560D01*
X11746253Y-6741084D02*
X11727206Y-6731560D01*
X11727206Y-6731560D02*
X11717682Y-6712512D01*
X11717682Y-6712512D02*
X11717682Y-6541084D01*
X11908158Y-6741084D02*
X11908158Y-6636322D01*
X11908158Y-6636322D02*
X11898634Y-6617274D01*
X11898634Y-6617274D02*
X11879587Y-6607750D01*
X11879587Y-6607750D02*
X11841492Y-6607750D01*
X11841492Y-6607750D02*
X11822444Y-6617274D01*
X11908158Y-6731560D02*
X11889111Y-6741084D01*
X11889111Y-6741084D02*
X11841492Y-6741084D01*
X11841492Y-6741084D02*
X11822444Y-6731560D01*
X11822444Y-6731560D02*
X11812920Y-6712512D01*
X11812920Y-6712512D02*
X11812920Y-6693465D01*
X11812920Y-6693465D02*
X11822444Y-6674417D01*
X11822444Y-6674417D02*
X11841492Y-6664893D01*
X11841492Y-6664893D02*
X11889111Y-6664893D01*
X11889111Y-6664893D02*
X11908158Y-6655369D01*
X11974825Y-6607750D02*
X12051015Y-6607750D01*
X12003396Y-6541084D02*
X12003396Y-6712512D01*
X12003396Y-6712512D02*
X12012920Y-6731560D01*
X12012920Y-6731560D02*
X12031968Y-6741084D01*
X12031968Y-6741084D02*
X12051015Y-6741084D01*
X12193873Y-6731560D02*
X12174825Y-6741084D01*
X12174825Y-6741084D02*
X12136730Y-6741084D01*
X12136730Y-6741084D02*
X12117682Y-6731560D01*
X12117682Y-6731560D02*
X12108158Y-6712512D01*
X12108158Y-6712512D02*
X12108158Y-6636322D01*
X12108158Y-6636322D02*
X12117682Y-6617274D01*
X12117682Y-6617274D02*
X12136730Y-6607750D01*
X12136730Y-6607750D02*
X12174825Y-6607750D01*
X12174825Y-6607750D02*
X12193873Y-6617274D01*
X12193873Y-6617274D02*
X12203396Y-6636322D01*
X12203396Y-6636322D02*
X12203396Y-6655369D01*
X12203396Y-6655369D02*
X12108158Y-6674417D01*
X12374825Y-6741084D02*
X12374825Y-6541084D01*
X12374825Y-6731560D02*
X12355777Y-6741084D01*
X12355777Y-6741084D02*
X12317682Y-6741084D01*
X12317682Y-6741084D02*
X12298634Y-6731560D01*
X12298634Y-6731560D02*
X12289111Y-6722036D01*
X12289111Y-6722036D02*
X12279587Y-6702988D01*
X12279587Y-6702988D02*
X12279587Y-6645846D01*
X12279587Y-6645846D02*
X12289111Y-6626798D01*
X12289111Y-6626798D02*
X12298634Y-6617274D01*
X12298634Y-6617274D02*
X12317682Y-6607750D01*
X12317682Y-6607750D02*
X12355777Y-6607750D01*
X12355777Y-6607750D02*
X12374825Y-6617274D01*
X12451015Y-6817274D02*
X12460539Y-6807750D01*
X12460539Y-6807750D02*
X12479587Y-6779179D01*
X12479587Y-6779179D02*
X12489111Y-6760131D01*
X12489111Y-6760131D02*
X12498634Y-6731560D01*
X12498634Y-6731560D02*
X12508158Y-6683941D01*
X12508158Y-6683941D02*
X12508158Y-6645846D01*
X12508158Y-6645846D02*
X12498634Y-6598227D01*
X12498634Y-6598227D02*
X12489111Y-6569655D01*
X12489111Y-6569655D02*
X12479587Y-6550608D01*
X12479587Y-6550608D02*
X12460539Y-6522036D01*
X12460539Y-6522036D02*
X12451015Y-6512512D01*
X5695000Y-6913600D02*
G75*
G03*
X5695000Y-6913600I-100000J0D01*
G01*
X5936729Y-6805084D02*
X6060539Y-6805084D01*
X6060539Y-6805084D02*
X5993872Y-6881274D01*
X5993872Y-6881274D02*
X6022443Y-6881274D01*
X6022443Y-6881274D02*
X6041491Y-6890798D01*
X6041491Y-6890798D02*
X6051015Y-6900322D01*
X6051015Y-6900322D02*
X6060539Y-6919369D01*
X6060539Y-6919369D02*
X6060539Y-6966988D01*
X6060539Y-6966988D02*
X6051015Y-6986036D01*
X6051015Y-6986036D02*
X6041491Y-6995560D01*
X6041491Y-6995560D02*
X6022443Y-7005084D01*
X6022443Y-7005084D02*
X5965301Y-7005084D01*
X5965301Y-7005084D02*
X5946253Y-6995560D01*
X5946253Y-6995560D02*
X5936729Y-6986036D01*
X6146253Y-6986036D02*
X6155777Y-6995560D01*
X6155777Y-6995560D02*
X6146253Y-7005084D01*
X6146253Y-7005084D02*
X6136729Y-6995560D01*
X6136729Y-6995560D02*
X6146253Y-6986036D01*
X6146253Y-6986036D02*
X6146253Y-7005084D01*
X6231967Y-6824131D02*
X6241491Y-6814608D01*
X6241491Y-6814608D02*
X6260539Y-6805084D01*
X6260539Y-6805084D02*
X6308158Y-6805084D01*
X6308158Y-6805084D02*
X6327205Y-6814608D01*
X6327205Y-6814608D02*
X6336729Y-6824131D01*
X6336729Y-6824131D02*
X6346253Y-6843179D01*
X6346253Y-6843179D02*
X6346253Y-6862227D01*
X6346253Y-6862227D02*
X6336729Y-6890798D01*
X6336729Y-6890798D02*
X6222443Y-7005084D01*
X6222443Y-7005084D02*
X6346253Y-7005084D01*
X6470062Y-6805084D02*
X6489110Y-6805084D01*
X6489110Y-6805084D02*
X6508158Y-6814608D01*
X6508158Y-6814608D02*
X6517682Y-6824131D01*
X6517682Y-6824131D02*
X6527205Y-6843179D01*
X6527205Y-6843179D02*
X6536729Y-6881274D01*
X6536729Y-6881274D02*
X6536729Y-6928893D01*
X6536729Y-6928893D02*
X6527205Y-6966988D01*
X6527205Y-6966988D02*
X6517682Y-6986036D01*
X6517682Y-6986036D02*
X6508158Y-6995560D01*
X6508158Y-6995560D02*
X6489110Y-7005084D01*
X6489110Y-7005084D02*
X6470062Y-7005084D01*
X6470062Y-7005084D02*
X6451015Y-6995560D01*
X6451015Y-6995560D02*
X6441491Y-6986036D01*
X6441491Y-6986036D02*
X6431967Y-6966988D01*
X6431967Y-6966988D02*
X6422443Y-6928893D01*
X6422443Y-6928893D02*
X6422443Y-6881274D01*
X6422443Y-6881274D02*
X6431967Y-6843179D01*
X6431967Y-6843179D02*
X6441491Y-6824131D01*
X6441491Y-6824131D02*
X6451015Y-6814608D01*
X6451015Y-6814608D02*
X6470062Y-6805084D01*
X6660539Y-6805084D02*
X6679586Y-6805084D01*
X6679586Y-6805084D02*
X6698634Y-6814608D01*
X6698634Y-6814608D02*
X6708158Y-6824131D01*
X6708158Y-6824131D02*
X6717682Y-6843179D01*
X6717682Y-6843179D02*
X6727205Y-6881274D01*
X6727205Y-6881274D02*
X6727205Y-6928893D01*
X6727205Y-6928893D02*
X6717682Y-6966988D01*
X6717682Y-6966988D02*
X6708158Y-6986036D01*
X6708158Y-6986036D02*
X6698634Y-6995560D01*
X6698634Y-6995560D02*
X6679586Y-7005084D01*
X6679586Y-7005084D02*
X6660539Y-7005084D01*
X6660539Y-7005084D02*
X6641491Y-6995560D01*
X6641491Y-6995560D02*
X6631967Y-6986036D01*
X6631967Y-6986036D02*
X6622443Y-6966988D01*
X6622443Y-6966988D02*
X6612920Y-6928893D01*
X6612920Y-6928893D02*
X6612920Y-6881274D01*
X6612920Y-6881274D02*
X6622443Y-6843179D01*
X6622443Y-6843179D02*
X6631967Y-6824131D01*
X6631967Y-6824131D02*
X6641491Y-6814608D01*
X6641491Y-6814608D02*
X6660539Y-6805084D01*
X6812920Y-7005084D02*
X6812920Y-6871750D01*
X6812920Y-6890798D02*
X6822443Y-6881274D01*
X6822443Y-6881274D02*
X6841491Y-6871750D01*
X6841491Y-6871750D02*
X6870063Y-6871750D01*
X6870063Y-6871750D02*
X6889110Y-6881274D01*
X6889110Y-6881274D02*
X6898634Y-6900322D01*
X6898634Y-6900322D02*
X6898634Y-7005084D01*
X6898634Y-6900322D02*
X6908158Y-6881274D01*
X6908158Y-6881274D02*
X6927205Y-6871750D01*
X6927205Y-6871750D02*
X6955777Y-6871750D01*
X6955777Y-6871750D02*
X6974824Y-6881274D01*
X6974824Y-6881274D02*
X6984348Y-6900322D01*
X6984348Y-6900322D02*
X6984348Y-7005084D01*
X7079586Y-7005084D02*
X7079586Y-6871750D01*
X7079586Y-6890798D02*
X7089110Y-6881274D01*
X7089110Y-6881274D02*
X7108158Y-6871750D01*
X7108158Y-6871750D02*
X7136729Y-6871750D01*
X7136729Y-6871750D02*
X7155777Y-6881274D01*
X7155777Y-6881274D02*
X7165301Y-6900322D01*
X7165301Y-6900322D02*
X7165301Y-7005084D01*
X7165301Y-6900322D02*
X7174824Y-6881274D01*
X7174824Y-6881274D02*
X7193872Y-6871750D01*
X7193872Y-6871750D02*
X7222443Y-6871750D01*
X7222443Y-6871750D02*
X7241491Y-6881274D01*
X7241491Y-6881274D02*
X7251015Y-6900322D01*
X7251015Y-6900322D02*
X7251015Y-7005084D01*
X7641491Y-6795560D02*
X7470063Y-7052703D01*
X7898634Y-6805084D02*
X7917682Y-6805084D01*
X7917682Y-6805084D02*
X7936729Y-6814608D01*
X7936729Y-6814608D02*
X7946253Y-6824131D01*
X7946253Y-6824131D02*
X7955777Y-6843179D01*
X7955777Y-6843179D02*
X7965301Y-6881274D01*
X7965301Y-6881274D02*
X7965301Y-6928893D01*
X7965301Y-6928893D02*
X7955777Y-6966988D01*
X7955777Y-6966988D02*
X7946253Y-6986036D01*
X7946253Y-6986036D02*
X7936729Y-6995560D01*
X7936729Y-6995560D02*
X7917682Y-7005084D01*
X7917682Y-7005084D02*
X7898634Y-7005084D01*
X7898634Y-7005084D02*
X7879586Y-6995560D01*
X7879586Y-6995560D02*
X7870063Y-6986036D01*
X7870063Y-6986036D02*
X7860539Y-6966988D01*
X7860539Y-6966988D02*
X7851015Y-6928893D01*
X7851015Y-6928893D02*
X7851015Y-6881274D01*
X7851015Y-6881274D02*
X7860539Y-6843179D01*
X7860539Y-6843179D02*
X7870063Y-6824131D01*
X7870063Y-6824131D02*
X7879586Y-6814608D01*
X7879586Y-6814608D02*
X7898634Y-6805084D01*
X8051015Y-6986036D02*
X8060539Y-6995560D01*
X8060539Y-6995560D02*
X8051015Y-7005084D01*
X8051015Y-7005084D02*
X8041491Y-6995560D01*
X8041491Y-6995560D02*
X8051015Y-6986036D01*
X8051015Y-6986036D02*
X8051015Y-7005084D01*
X8251015Y-7005084D02*
X8136729Y-7005084D01*
X8193872Y-7005084D02*
X8193872Y-6805084D01*
X8193872Y-6805084D02*
X8174825Y-6833655D01*
X8174825Y-6833655D02*
X8155777Y-6852703D01*
X8155777Y-6852703D02*
X8136729Y-6862227D01*
X8327206Y-6824131D02*
X8336729Y-6814608D01*
X8336729Y-6814608D02*
X8355777Y-6805084D01*
X8355777Y-6805084D02*
X8403396Y-6805084D01*
X8403396Y-6805084D02*
X8422444Y-6814608D01*
X8422444Y-6814608D02*
X8431968Y-6824131D01*
X8431968Y-6824131D02*
X8441491Y-6843179D01*
X8441491Y-6843179D02*
X8441491Y-6862227D01*
X8441491Y-6862227D02*
X8431968Y-6890798D01*
X8431968Y-6890798D02*
X8317682Y-7005084D01*
X8317682Y-7005084D02*
X8441491Y-7005084D01*
X8612920Y-6805084D02*
X8574825Y-6805084D01*
X8574825Y-6805084D02*
X8555777Y-6814608D01*
X8555777Y-6814608D02*
X8546253Y-6824131D01*
X8546253Y-6824131D02*
X8527206Y-6852703D01*
X8527206Y-6852703D02*
X8517682Y-6890798D01*
X8517682Y-6890798D02*
X8517682Y-6966988D01*
X8517682Y-6966988D02*
X8527206Y-6986036D01*
X8527206Y-6986036D02*
X8536729Y-6995560D01*
X8536729Y-6995560D02*
X8555777Y-7005084D01*
X8555777Y-7005084D02*
X8593872Y-7005084D01*
X8593872Y-7005084D02*
X8612920Y-6995560D01*
X8612920Y-6995560D02*
X8622444Y-6986036D01*
X8622444Y-6986036D02*
X8631968Y-6966988D01*
X8631968Y-6966988D02*
X8631968Y-6919369D01*
X8631968Y-6919369D02*
X8622444Y-6900322D01*
X8622444Y-6900322D02*
X8612920Y-6890798D01*
X8612920Y-6890798D02*
X8593872Y-6881274D01*
X8593872Y-6881274D02*
X8555777Y-6881274D01*
X8555777Y-6881274D02*
X8536729Y-6890798D01*
X8536729Y-6890798D02*
X8527206Y-6900322D01*
X8527206Y-6900322D02*
X8517682Y-6919369D01*
X8755777Y-6805084D02*
X8774825Y-6805084D01*
X8774825Y-6805084D02*
X8793872Y-6814608D01*
X8793872Y-6814608D02*
X8803396Y-6824131D01*
X8803396Y-6824131D02*
X8812920Y-6843179D01*
X8812920Y-6843179D02*
X8822444Y-6881274D01*
X8822444Y-6881274D02*
X8822444Y-6928893D01*
X8822444Y-6928893D02*
X8812920Y-6966988D01*
X8812920Y-6966988D02*
X8803396Y-6986036D01*
X8803396Y-6986036D02*
X8793872Y-6995560D01*
X8793872Y-6995560D02*
X8774825Y-7005084D01*
X8774825Y-7005084D02*
X8755777Y-7005084D01*
X8755777Y-7005084D02*
X8736729Y-6995560D01*
X8736729Y-6995560D02*
X8727206Y-6986036D01*
X8727206Y-6986036D02*
X8717682Y-6966988D01*
X8717682Y-6966988D02*
X8708158Y-6928893D01*
X8708158Y-6928893D02*
X8708158Y-6881274D01*
X8708158Y-6881274D02*
X8717682Y-6843179D01*
X8717682Y-6843179D02*
X8727206Y-6824131D01*
X8727206Y-6824131D02*
X8736729Y-6814608D01*
X8736729Y-6814608D02*
X8755777Y-6805084D01*
X8898634Y-6805084D02*
X8898634Y-6843179D01*
X8974825Y-6805084D02*
X8974825Y-6843179D01*
X9270063Y-7081274D02*
X9260539Y-7071750D01*
X9260539Y-7071750D02*
X9241491Y-7043179D01*
X9241491Y-7043179D02*
X9231968Y-7024131D01*
X9231968Y-7024131D02*
X9222444Y-6995560D01*
X9222444Y-6995560D02*
X9212920Y-6947941D01*
X9212920Y-6947941D02*
X9212920Y-6909846D01*
X9212920Y-6909846D02*
X9222444Y-6862227D01*
X9222444Y-6862227D02*
X9231968Y-6833655D01*
X9231968Y-6833655D02*
X9241491Y-6814608D01*
X9241491Y-6814608D02*
X9260539Y-6786036D01*
X9260539Y-6786036D02*
X9270063Y-6776512D01*
X9431968Y-6871750D02*
X9431968Y-7005084D01*
X9384349Y-6795560D02*
X9336730Y-6938417D01*
X9336730Y-6938417D02*
X9460539Y-6938417D01*
X9689111Y-7005084D02*
X9689111Y-6805084D01*
X9774825Y-7005084D02*
X9774825Y-6900322D01*
X9774825Y-6900322D02*
X9765301Y-6881274D01*
X9765301Y-6881274D02*
X9746253Y-6871750D01*
X9746253Y-6871750D02*
X9717682Y-6871750D01*
X9717682Y-6871750D02*
X9698634Y-6881274D01*
X9698634Y-6881274D02*
X9689111Y-6890798D01*
X9898634Y-7005084D02*
X9879587Y-6995560D01*
X9879587Y-6995560D02*
X9870063Y-6986036D01*
X9870063Y-6986036D02*
X9860539Y-6966988D01*
X9860539Y-6966988D02*
X9860539Y-6909846D01*
X9860539Y-6909846D02*
X9870063Y-6890798D01*
X9870063Y-6890798D02*
X9879587Y-6881274D01*
X9879587Y-6881274D02*
X9898634Y-6871750D01*
X9898634Y-6871750D02*
X9927206Y-6871750D01*
X9927206Y-6871750D02*
X9946253Y-6881274D01*
X9946253Y-6881274D02*
X9955777Y-6890798D01*
X9955777Y-6890798D02*
X9965301Y-6909846D01*
X9965301Y-6909846D02*
X9965301Y-6966988D01*
X9965301Y-6966988D02*
X9955777Y-6986036D01*
X9955777Y-6986036D02*
X9946253Y-6995560D01*
X9946253Y-6995560D02*
X9927206Y-7005084D01*
X9927206Y-7005084D02*
X9898634Y-7005084D01*
X10079587Y-7005084D02*
X10060539Y-6995560D01*
X10060539Y-6995560D02*
X10051015Y-6976512D01*
X10051015Y-6976512D02*
X10051015Y-6805084D01*
X10231968Y-6995560D02*
X10212920Y-7005084D01*
X10212920Y-7005084D02*
X10174825Y-7005084D01*
X10174825Y-7005084D02*
X10155777Y-6995560D01*
X10155777Y-6995560D02*
X10146253Y-6976512D01*
X10146253Y-6976512D02*
X10146253Y-6900322D01*
X10146253Y-6900322D02*
X10155777Y-6881274D01*
X10155777Y-6881274D02*
X10174825Y-6871750D01*
X10174825Y-6871750D02*
X10212920Y-6871750D01*
X10212920Y-6871750D02*
X10231968Y-6881274D01*
X10231968Y-6881274D02*
X10241492Y-6900322D01*
X10241492Y-6900322D02*
X10241492Y-6919369D01*
X10241492Y-6919369D02*
X10146253Y-6938417D01*
X10317682Y-6995560D02*
X10336730Y-7005084D01*
X10336730Y-7005084D02*
X10374825Y-7005084D01*
X10374825Y-7005084D02*
X10393873Y-6995560D01*
X10393873Y-6995560D02*
X10403396Y-6976512D01*
X10403396Y-6976512D02*
X10403396Y-6966988D01*
X10403396Y-6966988D02*
X10393873Y-6947941D01*
X10393873Y-6947941D02*
X10374825Y-6938417D01*
X10374825Y-6938417D02*
X10346253Y-6938417D01*
X10346253Y-6938417D02*
X10327206Y-6928893D01*
X10327206Y-6928893D02*
X10317682Y-6909846D01*
X10317682Y-6909846D02*
X10317682Y-6900322D01*
X10317682Y-6900322D02*
X10327206Y-6881274D01*
X10327206Y-6881274D02*
X10346253Y-6871750D01*
X10346253Y-6871750D02*
X10374825Y-6871750D01*
X10374825Y-6871750D02*
X10393873Y-6881274D01*
X10470063Y-7081274D02*
X10479587Y-7071750D01*
X10479587Y-7071750D02*
X10498634Y-7043179D01*
X10498634Y-7043179D02*
X10508158Y-7024131D01*
X10508158Y-7024131D02*
X10517682Y-6995560D01*
X10517682Y-6995560D02*
X10527206Y-6947941D01*
X10527206Y-6947941D02*
X10527206Y-6909846D01*
X10527206Y-6909846D02*
X10517682Y-6862227D01*
X10517682Y-6862227D02*
X10508158Y-6833655D01*
X10508158Y-6833655D02*
X10498634Y-6814608D01*
X10498634Y-6814608D02*
X10479587Y-6786036D01*
X10479587Y-6786036D02*
X10470063Y-6776512D01*
X10831968Y-7081274D02*
X10822444Y-7071750D01*
X10822444Y-7071750D02*
X10803396Y-7043179D01*
X10803396Y-7043179D02*
X10793873Y-7024131D01*
X10793873Y-7024131D02*
X10784349Y-6995560D01*
X10784349Y-6995560D02*
X10774825Y-6947941D01*
X10774825Y-6947941D02*
X10774825Y-6909846D01*
X10774825Y-6909846D02*
X10784349Y-6862227D01*
X10784349Y-6862227D02*
X10793873Y-6833655D01*
X10793873Y-6833655D02*
X10803396Y-6814608D01*
X10803396Y-6814608D02*
X10822444Y-6786036D01*
X10822444Y-6786036D02*
X10831968Y-6776512D01*
X10908158Y-6871750D02*
X10908158Y-7005084D01*
X10908158Y-6890798D02*
X10917682Y-6881274D01*
X10917682Y-6881274D02*
X10936730Y-6871750D01*
X10936730Y-6871750D02*
X10965301Y-6871750D01*
X10965301Y-6871750D02*
X10984349Y-6881274D01*
X10984349Y-6881274D02*
X10993873Y-6900322D01*
X10993873Y-6900322D02*
X10993873Y-7005084D01*
X11117682Y-7005084D02*
X11098634Y-6995560D01*
X11098634Y-6995560D02*
X11089111Y-6986036D01*
X11089111Y-6986036D02*
X11079587Y-6966988D01*
X11079587Y-6966988D02*
X11079587Y-6909846D01*
X11079587Y-6909846D02*
X11089111Y-6890798D01*
X11089111Y-6890798D02*
X11098634Y-6881274D01*
X11098634Y-6881274D02*
X11117682Y-6871750D01*
X11117682Y-6871750D02*
X11146254Y-6871750D01*
X11146254Y-6871750D02*
X11165301Y-6881274D01*
X11165301Y-6881274D02*
X11174825Y-6890798D01*
X11174825Y-6890798D02*
X11184349Y-6909846D01*
X11184349Y-6909846D02*
X11184349Y-6966988D01*
X11184349Y-6966988D02*
X11174825Y-6986036D01*
X11174825Y-6986036D02*
X11165301Y-6995560D01*
X11165301Y-6995560D02*
X11146254Y-7005084D01*
X11146254Y-7005084D02*
X11117682Y-7005084D01*
X11241492Y-6871750D02*
X11317682Y-6871750D01*
X11270063Y-6805084D02*
X11270063Y-6976512D01*
X11270063Y-6976512D02*
X11279587Y-6995560D01*
X11279587Y-6995560D02*
X11298634Y-7005084D01*
X11298634Y-7005084D02*
X11317682Y-7005084D01*
X11536730Y-6871750D02*
X11536730Y-7071750D01*
X11536730Y-6881274D02*
X11555777Y-6871750D01*
X11555777Y-6871750D02*
X11593873Y-6871750D01*
X11593873Y-6871750D02*
X11612920Y-6881274D01*
X11612920Y-6881274D02*
X11622444Y-6890798D01*
X11622444Y-6890798D02*
X11631968Y-6909846D01*
X11631968Y-6909846D02*
X11631968Y-6966988D01*
X11631968Y-6966988D02*
X11622444Y-6986036D01*
X11622444Y-6986036D02*
X11612920Y-6995560D01*
X11612920Y-6995560D02*
X11593873Y-7005084D01*
X11593873Y-7005084D02*
X11555777Y-7005084D01*
X11555777Y-7005084D02*
X11536730Y-6995560D01*
X11746253Y-7005084D02*
X11727206Y-6995560D01*
X11727206Y-6995560D02*
X11717682Y-6976512D01*
X11717682Y-6976512D02*
X11717682Y-6805084D01*
X11908158Y-7005084D02*
X11908158Y-6900322D01*
X11908158Y-6900322D02*
X11898634Y-6881274D01*
X11898634Y-6881274D02*
X11879587Y-6871750D01*
X11879587Y-6871750D02*
X11841492Y-6871750D01*
X11841492Y-6871750D02*
X11822444Y-6881274D01*
X11908158Y-6995560D02*
X11889111Y-7005084D01*
X11889111Y-7005084D02*
X11841492Y-7005084D01*
X11841492Y-7005084D02*
X11822444Y-6995560D01*
X11822444Y-6995560D02*
X11812920Y-6976512D01*
X11812920Y-6976512D02*
X11812920Y-6957465D01*
X11812920Y-6957465D02*
X11822444Y-6938417D01*
X11822444Y-6938417D02*
X11841492Y-6928893D01*
X11841492Y-6928893D02*
X11889111Y-6928893D01*
X11889111Y-6928893D02*
X11908158Y-6919369D01*
X11974825Y-6871750D02*
X12051015Y-6871750D01*
X12003396Y-6805084D02*
X12003396Y-6976512D01*
X12003396Y-6976512D02*
X12012920Y-6995560D01*
X12012920Y-6995560D02*
X12031968Y-7005084D01*
X12031968Y-7005084D02*
X12051015Y-7005084D01*
X12193873Y-6995560D02*
X12174825Y-7005084D01*
X12174825Y-7005084D02*
X12136730Y-7005084D01*
X12136730Y-7005084D02*
X12117682Y-6995560D01*
X12117682Y-6995560D02*
X12108158Y-6976512D01*
X12108158Y-6976512D02*
X12108158Y-6900322D01*
X12108158Y-6900322D02*
X12117682Y-6881274D01*
X12117682Y-6881274D02*
X12136730Y-6871750D01*
X12136730Y-6871750D02*
X12174825Y-6871750D01*
X12174825Y-6871750D02*
X12193873Y-6881274D01*
X12193873Y-6881274D02*
X12203396Y-6900322D01*
X12203396Y-6900322D02*
X12203396Y-6919369D01*
X12203396Y-6919369D02*
X12108158Y-6938417D01*
X12374825Y-7005084D02*
X12374825Y-6805084D01*
X12374825Y-6995560D02*
X12355777Y-7005084D01*
X12355777Y-7005084D02*
X12317682Y-7005084D01*
X12317682Y-7005084D02*
X12298634Y-6995560D01*
X12298634Y-6995560D02*
X12289111Y-6986036D01*
X12289111Y-6986036D02*
X12279587Y-6966988D01*
X12279587Y-6966988D02*
X12279587Y-6909846D01*
X12279587Y-6909846D02*
X12289111Y-6890798D01*
X12289111Y-6890798D02*
X12298634Y-6881274D01*
X12298634Y-6881274D02*
X12317682Y-6871750D01*
X12317682Y-6871750D02*
X12355777Y-6871750D01*
X12355777Y-6871750D02*
X12374825Y-6881274D01*
X12451015Y-7081274D02*
X12460539Y-7071750D01*
X12460539Y-7071750D02*
X12479587Y-7043179D01*
X12479587Y-7043179D02*
X12489111Y-7024131D01*
X12489111Y-7024131D02*
X12498634Y-6995560D01*
X12498634Y-6995560D02*
X12508158Y-6947941D01*
X12508158Y-6947941D02*
X12508158Y-6909846D01*
X12508158Y-6909846D02*
X12498634Y-6862227D01*
X12498634Y-6862227D02*
X12489111Y-6833655D01*
X12489111Y-6833655D02*
X12479587Y-6814608D01*
X12479587Y-6814608D02*
X12460539Y-6786036D01*
X12460539Y-6786036D02*
X12451015Y-6776512D01*
M02*
