G04 #@! TF.GenerationSoftware,KiCad,Pcbnew,7.0.5*
G04 #@! TF.CreationDate,2024-02-25T22:15:05+02:00*
G04 #@! TF.ProjectId,WTP_receiver,5754505f-7265-4636-9569-7665722e6b69,rev?*
G04 #@! TF.SameCoordinates,Original*
G04 #@! TF.FileFunction,Legend,Top*
G04 #@! TF.FilePolarity,Positive*
%FSLAX46Y46*%
G04 Gerber Fmt 4.6, Leading zero omitted, Abs format (unit mm)*
G04 Created by KiCad (PCBNEW 7.0.5) date 2024-02-25 22:15:05*
%MOMM*%
%LPD*%
G01*
G04 APERTURE LIST*
G04 Aperture macros list*
%AMRoundRect*
0 Rectangle with rounded corners*
0 $1 Rounding radius*
0 $2 $3 $4 $5 $6 $7 $8 $9 X,Y pos of 4 corners*
0 Add a 4 corners polygon primitive as box body*
4,1,4,$2,$3,$4,$5,$6,$7,$8,$9,$2,$3,0*
0 Add four circle primitives for the rounded corners*
1,1,$1+$1,$2,$3*
1,1,$1+$1,$4,$5*
1,1,$1+$1,$6,$7*
1,1,$1+$1,$8,$9*
0 Add four rect primitives between the rounded corners*
20,1,$1+$1,$2,$3,$4,$5,0*
20,1,$1+$1,$4,$5,$6,$7,0*
20,1,$1+$1,$6,$7,$8,$9,0*
20,1,$1+$1,$8,$9,$2,$3,0*%
G04 Aperture macros list end*
%ADD10C,0.150000*%
%ADD11C,0.200000*%
%ADD12C,0.101600*%
%ADD13C,0.098425*%
%ADD14C,0.127000*%
%ADD15C,0.120000*%
%ADD16C,0.010000*%
%ADD17O,1.154000X1.954000*%
%ADD18O,1.154000X2.254000*%
%ADD19C,0.650000*%
%ADD20RoundRect,0.102000X-0.754000X0.754000X-0.754000X-0.754000X0.754000X-0.754000X0.754000X0.754000X0*%
%ADD21C,1.712000*%
%ADD22R,1.440000X1.600000*%
%ADD23R,4.960000X3.800000*%
%ADD24RoundRect,0.102000X1.590000X-0.535000X1.590000X0.535000X-1.590000X0.535000X-1.590000X-0.535000X0*%
%ADD25RoundRect,0.250000X1.100000X-0.325000X1.100000X0.325000X-1.100000X0.325000X-1.100000X-0.325000X0*%
%ADD26C,3.200000*%
%ADD27RoundRect,0.250000X-0.650000X1.000000X-0.650000X-1.000000X0.650000X-1.000000X0.650000X1.000000X0*%
%ADD28RoundRect,0.250000X0.475000X-0.250000X0.475000X0.250000X-0.475000X0.250000X-0.475000X-0.250000X0*%
%ADD29RoundRect,0.225000X0.250000X-0.225000X0.250000X0.225000X-0.250000X0.225000X-0.250000X-0.225000X0*%
G04 APERTURE END LIST*
D10*
X80000000Y-48000000D02*
X98000000Y-48000000D01*
X98000000Y-59500000D01*
X80000000Y-59500000D01*
X80000000Y-48000000D01*
X74750000Y-51500000D02*
X74750000Y-59500000D01*
X70375000Y-51500000D02*
X79125000Y-51500000D01*
X79125000Y-59500000D01*
X70375000Y-59500000D01*
X70375000Y-51500000D01*
X76996303Y-50818104D02*
X76958207Y-50856200D01*
X76958207Y-50856200D02*
X76843922Y-50894295D01*
X76843922Y-50894295D02*
X76767731Y-50894295D01*
X76767731Y-50894295D02*
X76653445Y-50856200D01*
X76653445Y-50856200D02*
X76577255Y-50780009D01*
X76577255Y-50780009D02*
X76539160Y-50703819D01*
X76539160Y-50703819D02*
X76501064Y-50551438D01*
X76501064Y-50551438D02*
X76501064Y-50437152D01*
X76501064Y-50437152D02*
X76539160Y-50284771D01*
X76539160Y-50284771D02*
X76577255Y-50208580D01*
X76577255Y-50208580D02*
X76653445Y-50132390D01*
X76653445Y-50132390D02*
X76767731Y-50094295D01*
X76767731Y-50094295D02*
X76843922Y-50094295D01*
X76843922Y-50094295D02*
X76958207Y-50132390D01*
X76958207Y-50132390D02*
X76996303Y-50170485D01*
X77453445Y-50894295D02*
X77377255Y-50856200D01*
X77377255Y-50856200D02*
X77339160Y-50818104D01*
X77339160Y-50818104D02*
X77301064Y-50741914D01*
X77301064Y-50741914D02*
X77301064Y-50513342D01*
X77301064Y-50513342D02*
X77339160Y-50437152D01*
X77339160Y-50437152D02*
X77377255Y-50399057D01*
X77377255Y-50399057D02*
X77453445Y-50360961D01*
X77453445Y-50360961D02*
X77567731Y-50360961D01*
X77567731Y-50360961D02*
X77643922Y-50399057D01*
X77643922Y-50399057D02*
X77682017Y-50437152D01*
X77682017Y-50437152D02*
X77720112Y-50513342D01*
X77720112Y-50513342D02*
X77720112Y-50741914D01*
X77720112Y-50741914D02*
X77682017Y-50818104D01*
X77682017Y-50818104D02*
X77643922Y-50856200D01*
X77643922Y-50856200D02*
X77567731Y-50894295D01*
X77567731Y-50894295D02*
X77453445Y-50894295D01*
X78062970Y-50894295D02*
X78062970Y-50360961D01*
X78062970Y-50094295D02*
X78024874Y-50132390D01*
X78024874Y-50132390D02*
X78062970Y-50170485D01*
X78062970Y-50170485D02*
X78101065Y-50132390D01*
X78101065Y-50132390D02*
X78062970Y-50094295D01*
X78062970Y-50094295D02*
X78062970Y-50170485D01*
X78558207Y-50894295D02*
X78482017Y-50856200D01*
X78482017Y-50856200D02*
X78443922Y-50780009D01*
X78443922Y-50780009D02*
X78443922Y-50094295D01*
D11*
G36*
X102970265Y-48483321D02*
G01*
X102981016Y-48480131D01*
X102992020Y-48476881D01*
X103003278Y-48473571D01*
X103014789Y-48470201D01*
X103026554Y-48466770D01*
X103038572Y-48463280D01*
X103050843Y-48459729D01*
X103063367Y-48456119D01*
X103076145Y-48452448D01*
X103089176Y-48448717D01*
X103098004Y-48446196D01*
X103111373Y-48442326D01*
X103124828Y-48438408D01*
X103138370Y-48434443D01*
X103151997Y-48430431D01*
X103165710Y-48426372D01*
X103179508Y-48422265D01*
X103193393Y-48418111D01*
X103207363Y-48413910D01*
X103216725Y-48411084D01*
X103226124Y-48408236D01*
X103235562Y-48405367D01*
X103245038Y-48402477D01*
X103254503Y-48399574D01*
X103263971Y-48396665D01*
X103273440Y-48393750D01*
X103282911Y-48390829D01*
X103292384Y-48387903D01*
X103301859Y-48384971D01*
X103311336Y-48382034D01*
X103320814Y-48379091D01*
X103330295Y-48376142D01*
X103339777Y-48373187D01*
X103349262Y-48370226D01*
X103358748Y-48367260D01*
X103368236Y-48364288D01*
X103377727Y-48361310D01*
X103387219Y-48358327D01*
X103396713Y-48355338D01*
X103406135Y-48352352D01*
X103415474Y-48349377D01*
X103429324Y-48344936D01*
X103442985Y-48340521D01*
X103456458Y-48336132D01*
X103469741Y-48331769D01*
X103482836Y-48327431D01*
X103495742Y-48323119D01*
X103508459Y-48318833D01*
X103520987Y-48314572D01*
X103533326Y-48310338D01*
X103537397Y-48308932D01*
X103523958Y-48305491D01*
X103510297Y-48302037D01*
X103496412Y-48298570D01*
X103482305Y-48295090D01*
X103472775Y-48292763D01*
X103463147Y-48290430D01*
X103453419Y-48288092D01*
X103443592Y-48285748D01*
X103433666Y-48283398D01*
X103423640Y-48281042D01*
X103413516Y-48278681D01*
X103403292Y-48276314D01*
X103392969Y-48273941D01*
X103382547Y-48271563D01*
X103372054Y-48269190D01*
X103361519Y-48266834D01*
X103350942Y-48264496D01*
X103340323Y-48262175D01*
X103329662Y-48259870D01*
X103318960Y-48257584D01*
X103308215Y-48255314D01*
X103297428Y-48253061D01*
X103286599Y-48250826D01*
X103275729Y-48248608D01*
X103264816Y-48246407D01*
X103253861Y-48244223D01*
X103242865Y-48242056D01*
X103231826Y-48239906D01*
X103220745Y-48237774D01*
X103209623Y-48235659D01*
X103198452Y-48233555D01*
X103187290Y-48231457D01*
X103176135Y-48229365D01*
X103164987Y-48227278D01*
X103153848Y-48225198D01*
X103142715Y-48223122D01*
X103131591Y-48221053D01*
X103120474Y-48218989D01*
X103109365Y-48216931D01*
X103098263Y-48214879D01*
X103087169Y-48212833D01*
X103076083Y-48210792D01*
X103065004Y-48208757D01*
X103053933Y-48206728D01*
X103042870Y-48204704D01*
X103031814Y-48202686D01*
X103020756Y-48200679D01*
X103009748Y-48198687D01*
X102998790Y-48196710D01*
X102987881Y-48194748D01*
X102977021Y-48192802D01*
X102966212Y-48190871D01*
X102955452Y-48188955D01*
X102944741Y-48187055D01*
X102934080Y-48185169D01*
X102923469Y-48183299D01*
X102912908Y-48181445D01*
X102902396Y-48179605D01*
X102891933Y-48177781D01*
X102881521Y-48175972D01*
X102871157Y-48174178D01*
X102860844Y-48172400D01*
X102860844Y-47944521D01*
X102876055Y-47947619D01*
X102891280Y-47950746D01*
X102906518Y-47953901D01*
X102921771Y-47957085D01*
X102937037Y-47960297D01*
X102952318Y-47963538D01*
X102967612Y-47966808D01*
X102982920Y-47970106D01*
X102998241Y-47973433D01*
X103013577Y-47976788D01*
X103028926Y-47980172D01*
X103044289Y-47983585D01*
X103059666Y-47987026D01*
X103075057Y-47990496D01*
X103090462Y-47993995D01*
X103105881Y-47997522D01*
X103121313Y-48001078D01*
X103136759Y-48004662D01*
X103152219Y-48008276D01*
X103167693Y-48011917D01*
X103183181Y-48015588D01*
X103198682Y-48019287D01*
X103214198Y-48023014D01*
X103229727Y-48026770D01*
X103245270Y-48030555D01*
X103260827Y-48034369D01*
X103276398Y-48038211D01*
X103291982Y-48042081D01*
X103307581Y-48045981D01*
X103323193Y-48049908D01*
X103338819Y-48053865D01*
X103354459Y-48057850D01*
X103370081Y-48061860D01*
X103385654Y-48065890D01*
X103401178Y-48069941D01*
X103416653Y-48074012D01*
X103432079Y-48078104D01*
X103447455Y-48082216D01*
X103462783Y-48086349D01*
X103478061Y-48090502D01*
X103493290Y-48094676D01*
X103508470Y-48098871D01*
X103523601Y-48103085D01*
X103538683Y-48107321D01*
X103553715Y-48111577D01*
X103568699Y-48115853D01*
X103583633Y-48120150D01*
X103598518Y-48124467D01*
X103613354Y-48128805D01*
X103628141Y-48133164D01*
X103642879Y-48137543D01*
X103657568Y-48141942D01*
X103672207Y-48146362D01*
X103686798Y-48150803D01*
X103701339Y-48155264D01*
X103715831Y-48159745D01*
X103730274Y-48164247D01*
X103744668Y-48168770D01*
X103759013Y-48173313D01*
X103773308Y-48177876D01*
X103787555Y-48182461D01*
X103801752Y-48187065D01*
X103815900Y-48191690D01*
X103830000Y-48196336D01*
X103830000Y-48397348D01*
X103813371Y-48403503D01*
X103796641Y-48409636D01*
X103779810Y-48415746D01*
X103762879Y-48421833D01*
X103745845Y-48427897D01*
X103728711Y-48433938D01*
X103711476Y-48439957D01*
X103694139Y-48445952D01*
X103676702Y-48451925D01*
X103659163Y-48457874D01*
X103641523Y-48463801D01*
X103623782Y-48469705D01*
X103605940Y-48475586D01*
X103587997Y-48481444D01*
X103569952Y-48487279D01*
X103551807Y-48493091D01*
X103533608Y-48498887D01*
X103515403Y-48504673D01*
X103497193Y-48510450D01*
X103478977Y-48516218D01*
X103460755Y-48521975D01*
X103442527Y-48527724D01*
X103424294Y-48533463D01*
X103406055Y-48539192D01*
X103387810Y-48544911D01*
X103369560Y-48550622D01*
X103351304Y-48556322D01*
X103333042Y-48562013D01*
X103314774Y-48567695D01*
X103296501Y-48573367D01*
X103278222Y-48579029D01*
X103259937Y-48584682D01*
X103278222Y-48590301D01*
X103296501Y-48595921D01*
X103314774Y-48601543D01*
X103333042Y-48607168D01*
X103351304Y-48612794D01*
X103369560Y-48618422D01*
X103387810Y-48624052D01*
X103406055Y-48629684D01*
X103424294Y-48635318D01*
X103442527Y-48640953D01*
X103460755Y-48646591D01*
X103478977Y-48652230D01*
X103497193Y-48657872D01*
X103515403Y-48663515D01*
X103533608Y-48669160D01*
X103551807Y-48674808D01*
X103569952Y-48680441D01*
X103587997Y-48686108D01*
X103605940Y-48691806D01*
X103623782Y-48697537D01*
X103641523Y-48703301D01*
X103659163Y-48709097D01*
X103676702Y-48714925D01*
X103694139Y-48720786D01*
X103711476Y-48726680D01*
X103728711Y-48732605D01*
X103745845Y-48738564D01*
X103762879Y-48744554D01*
X103779810Y-48750577D01*
X103796641Y-48756633D01*
X103813371Y-48762721D01*
X103830000Y-48768841D01*
X103830000Y-48970097D01*
X103815900Y-48974743D01*
X103801752Y-48979368D01*
X103787555Y-48983973D01*
X103773308Y-48988557D01*
X103759013Y-48993120D01*
X103744668Y-48997663D01*
X103730274Y-49002186D01*
X103715831Y-49006688D01*
X103701339Y-49011169D01*
X103686798Y-49015630D01*
X103672207Y-49020071D01*
X103657568Y-49024491D01*
X103642879Y-49028890D01*
X103628141Y-49033269D01*
X103613354Y-49037628D01*
X103598518Y-49041966D01*
X103583633Y-49046283D01*
X103568699Y-49050580D01*
X103553715Y-49054856D01*
X103538683Y-49059112D01*
X103523601Y-49063348D01*
X103508470Y-49067562D01*
X103493290Y-49071757D01*
X103478061Y-49075931D01*
X103462783Y-49080084D01*
X103447455Y-49084217D01*
X103432079Y-49088329D01*
X103416653Y-49092421D01*
X103401178Y-49096492D01*
X103385654Y-49100543D01*
X103370081Y-49104573D01*
X103354459Y-49108583D01*
X103338819Y-49112568D01*
X103323193Y-49116525D01*
X103307581Y-49120453D01*
X103291982Y-49124352D01*
X103276398Y-49128222D01*
X103260827Y-49132065D01*
X103245270Y-49135878D01*
X103229727Y-49139663D01*
X103214198Y-49143419D01*
X103198682Y-49147147D01*
X103183181Y-49150845D01*
X103167693Y-49154516D01*
X103152219Y-49158158D01*
X103136759Y-49161771D01*
X103121313Y-49165355D01*
X103105881Y-49168911D01*
X103090462Y-49172438D01*
X103075057Y-49175937D01*
X103059666Y-49179407D01*
X103044289Y-49182848D01*
X103028926Y-49186261D01*
X103013577Y-49189645D01*
X102998241Y-49193000D01*
X102982920Y-49196327D01*
X102967612Y-49199625D01*
X102952318Y-49202895D01*
X102937037Y-49206136D01*
X102921771Y-49209348D01*
X102906518Y-49212532D01*
X102891280Y-49215687D01*
X102876055Y-49218814D01*
X102860844Y-49221912D01*
X102860844Y-48984019D01*
X102871157Y-48982238D01*
X102881521Y-48980436D01*
X102891933Y-48978612D01*
X102902396Y-48976768D01*
X102912908Y-48974903D01*
X102923469Y-48973017D01*
X102934080Y-48971109D01*
X102944741Y-48969181D01*
X102955452Y-48967232D01*
X102966212Y-48965262D01*
X102977021Y-48963271D01*
X102987881Y-48961259D01*
X102998790Y-48959226D01*
X103009748Y-48957171D01*
X103020756Y-48955096D01*
X103031814Y-48953000D01*
X103042870Y-48950889D01*
X103053933Y-48948768D01*
X103065004Y-48946637D01*
X103076083Y-48944497D01*
X103087169Y-48942348D01*
X103098263Y-48940189D01*
X103109365Y-48938020D01*
X103120474Y-48935842D01*
X103131591Y-48933654D01*
X103142715Y-48931457D01*
X103153848Y-48929250D01*
X103164987Y-48927034D01*
X103176135Y-48924808D01*
X103187290Y-48922573D01*
X103198452Y-48920328D01*
X103209623Y-48918073D01*
X103220745Y-48915782D01*
X103231826Y-48913486D01*
X103242865Y-48911187D01*
X103253861Y-48908884D01*
X103264816Y-48906577D01*
X103275729Y-48904266D01*
X103286599Y-48901952D01*
X103297428Y-48899633D01*
X103308215Y-48897311D01*
X103318960Y-48894985D01*
X103329662Y-48892655D01*
X103340323Y-48890321D01*
X103350942Y-48887984D01*
X103361519Y-48885643D01*
X103372054Y-48883297D01*
X103382547Y-48880949D01*
X103392969Y-48878564D01*
X103403292Y-48876174D01*
X103413516Y-48873779D01*
X103423640Y-48871377D01*
X103433666Y-48868970D01*
X103443592Y-48866557D01*
X103453419Y-48864139D01*
X103463147Y-48861714D01*
X103472775Y-48859284D01*
X103482305Y-48856849D01*
X103496412Y-48853184D01*
X103510297Y-48849507D01*
X103523958Y-48845817D01*
X103537397Y-48842114D01*
X103524640Y-48837364D01*
X103511742Y-48832640D01*
X103498703Y-48827942D01*
X103485522Y-48823269D01*
X103472199Y-48818622D01*
X103458734Y-48814001D01*
X103445128Y-48809406D01*
X103431380Y-48804836D01*
X103417490Y-48800293D01*
X103408152Y-48797278D01*
X103398750Y-48794274D01*
X103394026Y-48792777D01*
X103384531Y-48789791D01*
X103375036Y-48786816D01*
X103365541Y-48783852D01*
X103356046Y-48780901D01*
X103346551Y-48777960D01*
X103337056Y-48775031D01*
X103327561Y-48772114D01*
X103318066Y-48769207D01*
X103308572Y-48766313D01*
X103299077Y-48763430D01*
X103289582Y-48760558D01*
X103280087Y-48757698D01*
X103270592Y-48754849D01*
X103261097Y-48752011D01*
X103251602Y-48749185D01*
X103242107Y-48746371D01*
X103232634Y-48743575D01*
X103223205Y-48740807D01*
X103213820Y-48738065D01*
X103199824Y-48734002D01*
X103185927Y-48729999D01*
X103172129Y-48726056D01*
X103158430Y-48722174D01*
X103144829Y-48718351D01*
X103131328Y-48714589D01*
X103117925Y-48710886D01*
X103104620Y-48707244D01*
X103095806Y-48704849D01*
X103082749Y-48701310D01*
X103069960Y-48697834D01*
X103057436Y-48694423D01*
X103045179Y-48691076D01*
X103033187Y-48687794D01*
X103021462Y-48684576D01*
X103010003Y-48681423D01*
X102998811Y-48678334D01*
X102987884Y-48675309D01*
X102977224Y-48672349D01*
X102970265Y-48670411D01*
X102970265Y-48483321D01*
G37*
G36*
X103189914Y-47066584D02*
G01*
X103200307Y-47066930D01*
X103210515Y-47067507D01*
X103220537Y-47068316D01*
X103230375Y-47069355D01*
X103249494Y-47072125D01*
X103267874Y-47075819D01*
X103285513Y-47080437D01*
X103302411Y-47085978D01*
X103318569Y-47092443D01*
X103333987Y-47099831D01*
X103348665Y-47108143D01*
X103362602Y-47117379D01*
X103375798Y-47127538D01*
X103388255Y-47138620D01*
X103399971Y-47150626D01*
X103410947Y-47163556D01*
X103421182Y-47177409D01*
X103426022Y-47184682D01*
X103435190Y-47199855D01*
X103443768Y-47215819D01*
X103451753Y-47232576D01*
X103459147Y-47250124D01*
X103465950Y-47268464D01*
X103469129Y-47277931D01*
X103472161Y-47287596D01*
X103475045Y-47297459D01*
X103477780Y-47307520D01*
X103480368Y-47317779D01*
X103482808Y-47328236D01*
X103485100Y-47338891D01*
X103487245Y-47349743D01*
X103489241Y-47360794D01*
X103491090Y-47372043D01*
X103492790Y-47383490D01*
X103494343Y-47395134D01*
X103495748Y-47406977D01*
X103497005Y-47419018D01*
X103498114Y-47431256D01*
X103499075Y-47443693D01*
X103499889Y-47456327D01*
X103500554Y-47469160D01*
X103501072Y-47482191D01*
X103501441Y-47495419D01*
X103501663Y-47508845D01*
X103501737Y-47522470D01*
X103501737Y-47591346D01*
X103830000Y-47591346D01*
X103830000Y-47810676D01*
X102885757Y-47810676D01*
X102883221Y-47797140D01*
X102880836Y-47783457D01*
X102878602Y-47769628D01*
X102876517Y-47755653D01*
X102874583Y-47741532D01*
X102872799Y-47727266D01*
X102871166Y-47712853D01*
X102869682Y-47698294D01*
X102868777Y-47688507D01*
X102867938Y-47678656D01*
X102867167Y-47668739D01*
X102866461Y-47658757D01*
X102865781Y-47648820D01*
X102865145Y-47639035D01*
X102864273Y-47624643D01*
X102863499Y-47610596D01*
X102862824Y-47596891D01*
X102862248Y-47583531D01*
X102861771Y-47570513D01*
X102861392Y-47557839D01*
X102861113Y-47545509D01*
X102860932Y-47533522D01*
X102860849Y-47521878D01*
X102860844Y-47518073D01*
X102860917Y-47504541D01*
X102860923Y-47504152D01*
X103048422Y-47504152D01*
X103048493Y-47514588D01*
X103048703Y-47524955D01*
X103049054Y-47535252D01*
X103049544Y-47545478D01*
X103049888Y-47551290D01*
X103050422Y-47561138D01*
X103051033Y-47571648D01*
X103051720Y-47582523D01*
X103052330Y-47591346D01*
X103314159Y-47591346D01*
X103314159Y-47522470D01*
X103314046Y-47508433D01*
X103313708Y-47494836D01*
X103313145Y-47481680D01*
X103312357Y-47468965D01*
X103311344Y-47456691D01*
X103310106Y-47444858D01*
X103308642Y-47433465D01*
X103306953Y-47422513D01*
X103305040Y-47412002D01*
X103302901Y-47401932D01*
X103300536Y-47392303D01*
X103296568Y-47378685D01*
X103292093Y-47366059D01*
X103287111Y-47354425D01*
X103285338Y-47350767D01*
X103279498Y-47340466D01*
X103272787Y-47331178D01*
X103265204Y-47322903D01*
X103256750Y-47315642D01*
X103247424Y-47309394D01*
X103237227Y-47304159D01*
X103226158Y-47299937D01*
X103214217Y-47296728D01*
X103201405Y-47294533D01*
X103187722Y-47293351D01*
X103178115Y-47293126D01*
X103166536Y-47293490D01*
X103155614Y-47294581D01*
X103145346Y-47296399D01*
X103135735Y-47298946D01*
X103125068Y-47302961D01*
X103115345Y-47308025D01*
X103106346Y-47313975D01*
X103098034Y-47320836D01*
X103090409Y-47328607D01*
X103083471Y-47337288D01*
X103077220Y-47346879D01*
X103075289Y-47350279D01*
X103070783Y-47359119D01*
X103066731Y-47368544D01*
X103063132Y-47378554D01*
X103059986Y-47389148D01*
X103057293Y-47400326D01*
X103055053Y-47412088D01*
X103054284Y-47416957D01*
X103052910Y-47426921D01*
X103051720Y-47437153D01*
X103050712Y-47447651D01*
X103049888Y-47458417D01*
X103049247Y-47469450D01*
X103048789Y-47480750D01*
X103048514Y-47492317D01*
X103048422Y-47504152D01*
X102860923Y-47504152D01*
X102861135Y-47491206D01*
X102861499Y-47478069D01*
X102862008Y-47465130D01*
X102862663Y-47452389D01*
X102863463Y-47439846D01*
X102864409Y-47427501D01*
X102865500Y-47415354D01*
X102866736Y-47403405D01*
X102868119Y-47391654D01*
X102869646Y-47380101D01*
X102871320Y-47368746D01*
X102873138Y-47357589D01*
X102875103Y-47346629D01*
X102877212Y-47335868D01*
X102879467Y-47325305D01*
X102881868Y-47314940D01*
X102884414Y-47304772D01*
X102887106Y-47294803D01*
X102889943Y-47285031D01*
X102892926Y-47275458D01*
X102896054Y-47266083D01*
X102902747Y-47247926D01*
X102910022Y-47230561D01*
X102917878Y-47213987D01*
X102926317Y-47198206D01*
X102935338Y-47183217D01*
X102945021Y-47169079D01*
X102955446Y-47155854D01*
X102966613Y-47143540D01*
X102978523Y-47132139D01*
X102991175Y-47121650D01*
X103004569Y-47112073D01*
X103018706Y-47103408D01*
X103033585Y-47095655D01*
X103049206Y-47088815D01*
X103065569Y-47082886D01*
X103082675Y-47077870D01*
X103100522Y-47073765D01*
X103119113Y-47070573D01*
X103138445Y-47068293D01*
X103148390Y-47067495D01*
X103158520Y-47066924D01*
X103168835Y-47066582D01*
X103179337Y-47066468D01*
X103189914Y-47066584D01*
G37*
G36*
X102860844Y-46168387D02*
G01*
X103048422Y-46168387D01*
X103048422Y-46462212D01*
X103830000Y-46462212D01*
X103830000Y-46681786D01*
X103048422Y-46681786D01*
X103048422Y-46975854D01*
X102860844Y-46975854D01*
X102860844Y-46168387D01*
G37*
G36*
X103274347Y-45264689D02*
G01*
X103271665Y-45275574D01*
X103269391Y-45285183D01*
X103267081Y-45295280D01*
X103264735Y-45305867D01*
X103262353Y-45316943D01*
X103259936Y-45328507D01*
X103259448Y-45330879D01*
X103257197Y-45342852D01*
X103255670Y-45352637D01*
X103254388Y-45362606D01*
X103253350Y-45372757D01*
X103252556Y-45383091D01*
X103252006Y-45393609D01*
X103251701Y-45404310D01*
X103251632Y-45412456D01*
X103251861Y-45422821D01*
X103252437Y-45432667D01*
X103253364Y-45443237D01*
X103254641Y-45454532D01*
X103255296Y-45459595D01*
X103256604Y-45469389D01*
X103258195Y-45479644D01*
X103260100Y-45489818D01*
X103262609Y-45500218D01*
X103262868Y-45501116D01*
X103830000Y-45501116D01*
X103830000Y-45710676D01*
X103134640Y-45710676D01*
X103130950Y-45699963D01*
X103127299Y-45688889D01*
X103123686Y-45677455D01*
X103120111Y-45665659D01*
X103116576Y-45653504D01*
X103113079Y-45640987D01*
X103109621Y-45628110D01*
X103106201Y-45614872D01*
X103102820Y-45601274D01*
X103099478Y-45587315D01*
X103097271Y-45577808D01*
X103095141Y-45568153D01*
X103093149Y-45558360D01*
X103091295Y-45548430D01*
X103089577Y-45538363D01*
X103087997Y-45528158D01*
X103086555Y-45517816D01*
X103085250Y-45507337D01*
X103084082Y-45496720D01*
X103083051Y-45485965D01*
X103082158Y-45475074D01*
X103081403Y-45464045D01*
X103080785Y-45452878D01*
X103080304Y-45441574D01*
X103079960Y-45430133D01*
X103079754Y-45418554D01*
X103079685Y-45406838D01*
X103079859Y-45396798D01*
X103080306Y-45386933D01*
X103081027Y-45376183D01*
X103081884Y-45366050D01*
X103082820Y-45355578D01*
X103083921Y-45345106D01*
X103085185Y-45334634D01*
X103086612Y-45324162D01*
X103087501Y-45318178D01*
X103089067Y-45307706D01*
X103090774Y-45297234D01*
X103092620Y-45286762D01*
X103094607Y-45276290D01*
X103095806Y-45270307D01*
X103098048Y-45260174D01*
X103100868Y-45249423D01*
X103103963Y-45239558D01*
X103107773Y-45229518D01*
X103274347Y-45264689D01*
G37*
G36*
X103465543Y-44474435D02*
G01*
X103475324Y-44474733D01*
X103485563Y-44475214D01*
X103494898Y-44475785D01*
X103505340Y-44476502D01*
X103515170Y-44477189D01*
X103525500Y-44477925D01*
X103533000Y-44478471D01*
X103533000Y-44954256D01*
X103544902Y-44952520D01*
X103556336Y-44949969D01*
X103567302Y-44946601D01*
X103577800Y-44942418D01*
X103587830Y-44937419D01*
X103597392Y-44931605D01*
X103606486Y-44924974D01*
X103615112Y-44917528D01*
X103623270Y-44909266D01*
X103630960Y-44900189D01*
X103635826Y-44893684D01*
X103642592Y-44883333D01*
X103648692Y-44872338D01*
X103654127Y-44860698D01*
X103658896Y-44848415D01*
X103663000Y-44835488D01*
X103666438Y-44821917D01*
X103669211Y-44807702D01*
X103670689Y-44797867D01*
X103671873Y-44787746D01*
X103672760Y-44777339D01*
X103673351Y-44766646D01*
X103673647Y-44755666D01*
X103673684Y-44750069D01*
X103673592Y-44739281D01*
X103673315Y-44728531D01*
X103672853Y-44717820D01*
X103672207Y-44707147D01*
X103671376Y-44696514D01*
X103670361Y-44685918D01*
X103669161Y-44675362D01*
X103667776Y-44664844D01*
X103666207Y-44654364D01*
X103664453Y-44643924D01*
X103663182Y-44636985D01*
X103661169Y-44626724D01*
X103659071Y-44616823D01*
X103656888Y-44607284D01*
X103653842Y-44595125D01*
X103650644Y-44583607D01*
X103647293Y-44572731D01*
X103643790Y-44562496D01*
X103640134Y-44552901D01*
X103637292Y-44546127D01*
X103799225Y-44518039D01*
X103803499Y-44527182D01*
X103807239Y-44536360D01*
X103810979Y-44546637D01*
X103814185Y-44556320D01*
X103816322Y-44563224D01*
X103819359Y-44573980D01*
X103822241Y-44585182D01*
X103824525Y-44594859D01*
X103826701Y-44604846D01*
X103828770Y-44615143D01*
X103830732Y-44625750D01*
X103832663Y-44636631D01*
X103834487Y-44647751D01*
X103836203Y-44659109D01*
X103837811Y-44670706D01*
X103839313Y-44682541D01*
X103840707Y-44694615D01*
X103841235Y-44699511D01*
X103842265Y-44709346D01*
X103843158Y-44719188D01*
X103843914Y-44729038D01*
X103844532Y-44738895D01*
X103845013Y-44748760D01*
X103845356Y-44758633D01*
X103845562Y-44768513D01*
X103845631Y-44778401D01*
X103845518Y-44790786D01*
X103845177Y-44802967D01*
X103844609Y-44814943D01*
X103843814Y-44826716D01*
X103842793Y-44838284D01*
X103841544Y-44849648D01*
X103840068Y-44860808D01*
X103838365Y-44871763D01*
X103836435Y-44882515D01*
X103834278Y-44893062D01*
X103831893Y-44903405D01*
X103829282Y-44913544D01*
X103826444Y-44923479D01*
X103823378Y-44933209D01*
X103820086Y-44942736D01*
X103816566Y-44952058D01*
X103812850Y-44961180D01*
X103806965Y-44974494D01*
X103800706Y-44987366D01*
X103794073Y-44999796D01*
X103787067Y-45011784D01*
X103779688Y-45023330D01*
X103771935Y-45034433D01*
X103763808Y-45045094D01*
X103755308Y-45055313D01*
X103746434Y-45065089D01*
X103737187Y-45074424D01*
X103727544Y-45083314D01*
X103717575Y-45091757D01*
X103707280Y-45099754D01*
X103696658Y-45107305D01*
X103685710Y-45114409D01*
X103674436Y-45121067D01*
X103662835Y-45127278D01*
X103650908Y-45133042D01*
X103638655Y-45138360D01*
X103626076Y-45143232D01*
X103617508Y-45146231D01*
X103604451Y-45150378D01*
X103591202Y-45154117D01*
X103577758Y-45157448D01*
X103564122Y-45160371D01*
X103550293Y-45162886D01*
X103536270Y-45164993D01*
X103522054Y-45166692D01*
X103507645Y-45167984D01*
X103493042Y-45168868D01*
X103483200Y-45169230D01*
X103473272Y-45169412D01*
X103468276Y-45169434D01*
X103456251Y-45169316D01*
X103444416Y-45168961D01*
X103432773Y-45168370D01*
X103421320Y-45167541D01*
X103410058Y-45166477D01*
X103398987Y-45165175D01*
X103388107Y-45163637D01*
X103377418Y-45161863D01*
X103366919Y-45159852D01*
X103356611Y-45157604D01*
X103346494Y-45155119D01*
X103336568Y-45152398D01*
X103326833Y-45149441D01*
X103317288Y-45146246D01*
X103307934Y-45142816D01*
X103298771Y-45139148D01*
X103285383Y-45133304D01*
X103272419Y-45127130D01*
X103259880Y-45120625D01*
X103247767Y-45113789D01*
X103236078Y-45106623D01*
X103224814Y-45099126D01*
X103213976Y-45091298D01*
X103203562Y-45083140D01*
X103193574Y-45074652D01*
X103184011Y-45065832D01*
X103177871Y-45059769D01*
X103169010Y-45050390D01*
X103160560Y-45040753D01*
X103152523Y-45030858D01*
X103144898Y-45020706D01*
X103137686Y-45010296D01*
X103130885Y-44999628D01*
X103124496Y-44988703D01*
X103118520Y-44977520D01*
X103112956Y-44966080D01*
X103107804Y-44954382D01*
X103104598Y-44946441D01*
X103100146Y-44934410D01*
X103096132Y-44922315D01*
X103092555Y-44910155D01*
X103089417Y-44897932D01*
X103086717Y-44885643D01*
X103084454Y-44873291D01*
X103082629Y-44860874D01*
X103081243Y-44848392D01*
X103080294Y-44835846D01*
X103079783Y-44823236D01*
X103079685Y-44814794D01*
X103079711Y-44812107D01*
X103251632Y-44812107D01*
X103251925Y-44822859D01*
X103252801Y-44833135D01*
X103254262Y-44842933D01*
X103256787Y-44854061D01*
X103260153Y-44864503D01*
X103263600Y-44872679D01*
X103268271Y-44881904D01*
X103273492Y-44890528D01*
X103279262Y-44898551D01*
X103286689Y-44907151D01*
X103294863Y-44914933D01*
X103303716Y-44921944D01*
X103313176Y-44928230D01*
X103321768Y-44933042D01*
X103330807Y-44937321D01*
X103340293Y-44941067D01*
X103349935Y-44944284D01*
X103359630Y-44947158D01*
X103369376Y-44949688D01*
X103379173Y-44951875D01*
X103389022Y-44953718D01*
X103392316Y-44954256D01*
X103392316Y-44677041D01*
X103382467Y-44677813D01*
X103372704Y-44679033D01*
X103363027Y-44680699D01*
X103353436Y-44682811D01*
X103343930Y-44685370D01*
X103340781Y-44686322D01*
X103330055Y-44690055D01*
X103319891Y-44694630D01*
X103310287Y-44700046D01*
X103301244Y-44706304D01*
X103296329Y-44710258D01*
X103288119Y-44717719D01*
X103280588Y-44725999D01*
X103273734Y-44735097D01*
X103268399Y-44743546D01*
X103264333Y-44751046D01*
X103260017Y-44760635D01*
X103256594Y-44771082D01*
X103254063Y-44782388D01*
X103252637Y-44792465D01*
X103251831Y-44803139D01*
X103251632Y-44812107D01*
X103079711Y-44812107D01*
X103079778Y-44805012D01*
X103080523Y-44785837D01*
X103082011Y-44767179D01*
X103084244Y-44749039D01*
X103087220Y-44731415D01*
X103090941Y-44714308D01*
X103095406Y-44697719D01*
X103100615Y-44681647D01*
X103106569Y-44666091D01*
X103113266Y-44651053D01*
X103120708Y-44636532D01*
X103128894Y-44622528D01*
X103137824Y-44609042D01*
X103147499Y-44596072D01*
X103157917Y-44583619D01*
X103169080Y-44571684D01*
X103174940Y-44565910D01*
X103187197Y-44554819D01*
X103200154Y-44544444D01*
X103213812Y-44534784D01*
X103228170Y-44525839D01*
X103243228Y-44517610D01*
X103258986Y-44510097D01*
X103275445Y-44503299D01*
X103292604Y-44497217D01*
X103310463Y-44491850D01*
X103329023Y-44487199D01*
X103348283Y-44483264D01*
X103358176Y-44481564D01*
X103368243Y-44480044D01*
X103378486Y-44478702D01*
X103388904Y-44477539D01*
X103399496Y-44476555D01*
X103410264Y-44475750D01*
X103421207Y-44475124D01*
X103432325Y-44474677D01*
X103443619Y-44474409D01*
X103455087Y-44474319D01*
X103465543Y-44474435D01*
G37*
G36*
X103462658Y-44352686D02*
G01*
X103452833Y-44352585D01*
X103438232Y-44352054D01*
X103423793Y-44351068D01*
X103409518Y-44349627D01*
X103395406Y-44347731D01*
X103381457Y-44345379D01*
X103367671Y-44342573D01*
X103354048Y-44339311D01*
X103340588Y-44335595D01*
X103327292Y-44331423D01*
X103314159Y-44326796D01*
X103301220Y-44321695D01*
X103288599Y-44316189D01*
X103276296Y-44310280D01*
X103264310Y-44303967D01*
X103252642Y-44297251D01*
X103241292Y-44290131D01*
X103230260Y-44282608D01*
X103219545Y-44274681D01*
X103209148Y-44266351D01*
X103199069Y-44257617D01*
X103192526Y-44251570D01*
X103182962Y-44242134D01*
X103173781Y-44232330D01*
X103164982Y-44222156D01*
X103156565Y-44211613D01*
X103148530Y-44200701D01*
X103140877Y-44189419D01*
X103133606Y-44177769D01*
X103126717Y-44165749D01*
X103120211Y-44153360D01*
X103114087Y-44140601D01*
X103110216Y-44131891D01*
X103104760Y-44118528D01*
X103099840Y-44104817D01*
X103096859Y-44095483D01*
X103094116Y-44085995D01*
X103091611Y-44076352D01*
X103089345Y-44066555D01*
X103087318Y-44056603D01*
X103085529Y-44046496D01*
X103083979Y-44036235D01*
X103082667Y-44025820D01*
X103081594Y-44015249D01*
X103080759Y-44004525D01*
X103080163Y-43993645D01*
X103079805Y-43982612D01*
X103079685Y-43971423D01*
X103079778Y-43960429D01*
X103080055Y-43949610D01*
X103080516Y-43938968D01*
X103081162Y-43928501D01*
X103081993Y-43918211D01*
X103083009Y-43908096D01*
X103084208Y-43898158D01*
X103085593Y-43888396D01*
X103087726Y-43875653D01*
X103090188Y-43863224D01*
X103092959Y-43850935D01*
X103096019Y-43838738D01*
X103099370Y-43826633D01*
X103103011Y-43814619D01*
X103106941Y-43802697D01*
X103111162Y-43790867D01*
X103115673Y-43779128D01*
X103120474Y-43767480D01*
X103279720Y-43810956D01*
X103276281Y-43820328D01*
X103272985Y-43829975D01*
X103269831Y-43839896D01*
X103266821Y-43850092D01*
X103263954Y-43860561D01*
X103261230Y-43871305D01*
X103260181Y-43875680D01*
X103257718Y-43886874D01*
X103255673Y-43898473D01*
X103254045Y-43910477D01*
X103253043Y-43920373D01*
X103252309Y-43930528D01*
X103251841Y-43940943D01*
X103251641Y-43951617D01*
X103251632Y-43954326D01*
X103251860Y-43965773D01*
X103252541Y-43976850D01*
X103253676Y-43987556D01*
X103255266Y-43997893D01*
X103257309Y-44007859D01*
X103259807Y-44017455D01*
X103264405Y-44031155D01*
X103270025Y-44044022D01*
X103276667Y-44056057D01*
X103284330Y-44067258D01*
X103293016Y-44077626D01*
X103302723Y-44087162D01*
X103309762Y-44093056D01*
X103320942Y-44101218D01*
X103332774Y-44108578D01*
X103345259Y-44115134D01*
X103358397Y-44120888D01*
X103372187Y-44125839D01*
X103381743Y-44128694D01*
X103391589Y-44131192D01*
X103401725Y-44133332D01*
X103412152Y-44135117D01*
X103422868Y-44136544D01*
X103433874Y-44137614D01*
X103445170Y-44138328D01*
X103456756Y-44138685D01*
X103462658Y-44138729D01*
X103475059Y-44138562D01*
X103487105Y-44138062D01*
X103498797Y-44137227D01*
X103510133Y-44136058D01*
X103521114Y-44134555D01*
X103531741Y-44132719D01*
X103542012Y-44130548D01*
X103551929Y-44128044D01*
X103561491Y-44125205D01*
X103575168Y-44120322D01*
X103588046Y-44114687D01*
X103600126Y-44108300D01*
X103611408Y-44101163D01*
X103618485Y-44095987D01*
X103628350Y-44087364D01*
X103637244Y-44077617D01*
X103645168Y-44066745D01*
X103652122Y-44054748D01*
X103658105Y-44041626D01*
X103661555Y-44032253D01*
X103664574Y-44022381D01*
X103667162Y-44012008D01*
X103669318Y-44001135D01*
X103671043Y-43989763D01*
X103672336Y-43977890D01*
X103673199Y-43965518D01*
X103673630Y-43952645D01*
X103673684Y-43946022D01*
X103673511Y-43934054D01*
X103673124Y-43924283D01*
X103672515Y-43914335D01*
X103671685Y-43904213D01*
X103670634Y-43893914D01*
X103669361Y-43883441D01*
X103667867Y-43872791D01*
X103666601Y-43864689D01*
X103664701Y-43853870D01*
X103662540Y-43843272D01*
X103660121Y-43832895D01*
X103657442Y-43822740D01*
X103654503Y-43812806D01*
X103651305Y-43803094D01*
X103647848Y-43793603D01*
X103644131Y-43784333D01*
X103807529Y-43754780D01*
X103811368Y-43764225D01*
X103815070Y-43774243D01*
X103818635Y-43784833D01*
X103822062Y-43795996D01*
X103825351Y-43807731D01*
X103828504Y-43820038D01*
X103830778Y-43829645D01*
X103832974Y-43839573D01*
X103834396Y-43846371D01*
X103836404Y-43856730D01*
X103838214Y-43867291D01*
X103839827Y-43878053D01*
X103841242Y-43889018D01*
X103842460Y-43900184D01*
X103843481Y-43911552D01*
X103844303Y-43923122D01*
X103844929Y-43934894D01*
X103845357Y-43946867D01*
X103845587Y-43959042D01*
X103845631Y-43967271D01*
X103845516Y-43979802D01*
X103845169Y-43992115D01*
X103844592Y-44004211D01*
X103843784Y-44016089D01*
X103842745Y-44027750D01*
X103841475Y-44039193D01*
X103839974Y-44050418D01*
X103838243Y-44061427D01*
X103836280Y-44072217D01*
X103834087Y-44082790D01*
X103831662Y-44093146D01*
X103829007Y-44103284D01*
X103826121Y-44113204D01*
X103823004Y-44122907D01*
X103819656Y-44132392D01*
X103816078Y-44141660D01*
X103812270Y-44150717D01*
X103806247Y-44163920D01*
X103799851Y-44176663D01*
X103793081Y-44188947D01*
X103785938Y-44200772D01*
X103778421Y-44212137D01*
X103770530Y-44223043D01*
X103762266Y-44233489D01*
X103753629Y-44243476D01*
X103744618Y-44253004D01*
X103735233Y-44262072D01*
X103725453Y-44270646D01*
X103715347Y-44278782D01*
X103704914Y-44286480D01*
X103694155Y-44293740D01*
X103683069Y-44300562D01*
X103671658Y-44306946D01*
X103659920Y-44312892D01*
X103647855Y-44318401D01*
X103635465Y-44323471D01*
X103622748Y-44328104D01*
X103614089Y-44330949D01*
X103600888Y-44334833D01*
X103587482Y-44338336D01*
X103573869Y-44341456D01*
X103560050Y-44344195D01*
X103546025Y-44346551D01*
X103531794Y-44348525D01*
X103517357Y-44350118D01*
X103507618Y-44350967D01*
X103497787Y-44351646D01*
X103487865Y-44352155D01*
X103477851Y-44352495D01*
X103467745Y-44352665D01*
X103462658Y-44352686D01*
G37*
G36*
X103465543Y-42993346D02*
G01*
X103475324Y-42993644D01*
X103485563Y-42994125D01*
X103494898Y-42994696D01*
X103505340Y-42995413D01*
X103515170Y-42996100D01*
X103525500Y-42996837D01*
X103533000Y-42997383D01*
X103533000Y-43473168D01*
X103544902Y-43471432D01*
X103556336Y-43468880D01*
X103567302Y-43465513D01*
X103577800Y-43461330D01*
X103587830Y-43456331D01*
X103597392Y-43450516D01*
X103606486Y-43443886D01*
X103615112Y-43436440D01*
X103623270Y-43428178D01*
X103630960Y-43419100D01*
X103635826Y-43412595D01*
X103642592Y-43402244D01*
X103648692Y-43391249D01*
X103654127Y-43379610D01*
X103658896Y-43367327D01*
X103663000Y-43354399D01*
X103666438Y-43340828D01*
X103669211Y-43326613D01*
X103670689Y-43316778D01*
X103671873Y-43306658D01*
X103672760Y-43296250D01*
X103673351Y-43285557D01*
X103673647Y-43274578D01*
X103673684Y-43268981D01*
X103673592Y-43258192D01*
X103673315Y-43247442D01*
X103672853Y-43236731D01*
X103672207Y-43226059D01*
X103671376Y-43215425D01*
X103670361Y-43204830D01*
X103669161Y-43194273D01*
X103667776Y-43183755D01*
X103666207Y-43173276D01*
X103664453Y-43162835D01*
X103663182Y-43155896D01*
X103661169Y-43145635D01*
X103659071Y-43135735D01*
X103656888Y-43126195D01*
X103653842Y-43114036D01*
X103650644Y-43102519D01*
X103647293Y-43091642D01*
X103643790Y-43081407D01*
X103640134Y-43071813D01*
X103637292Y-43065038D01*
X103799225Y-43036950D01*
X103803499Y-43046094D01*
X103807239Y-43055272D01*
X103810979Y-43065548D01*
X103814185Y-43075231D01*
X103816322Y-43082135D01*
X103819359Y-43092891D01*
X103822241Y-43104094D01*
X103824525Y-43113771D01*
X103826701Y-43123757D01*
X103828770Y-43134054D01*
X103830732Y-43144661D01*
X103832663Y-43155542D01*
X103834487Y-43166662D01*
X103836203Y-43178020D01*
X103837811Y-43189617D01*
X103839313Y-43201452D01*
X103840707Y-43213526D01*
X103841235Y-43218422D01*
X103842265Y-43228257D01*
X103843158Y-43238099D01*
X103843914Y-43247949D01*
X103844532Y-43257807D01*
X103845013Y-43267672D01*
X103845356Y-43277544D01*
X103845562Y-43287425D01*
X103845631Y-43297313D01*
X103845518Y-43309698D01*
X103845177Y-43321878D01*
X103844609Y-43333855D01*
X103843814Y-43345627D01*
X103842793Y-43357195D01*
X103841544Y-43368559D01*
X103840068Y-43379719D01*
X103838365Y-43390675D01*
X103836435Y-43401426D01*
X103834278Y-43411973D01*
X103831893Y-43422317D01*
X103829282Y-43432455D01*
X103826444Y-43442390D01*
X103823378Y-43452121D01*
X103820086Y-43461647D01*
X103816566Y-43470969D01*
X103812850Y-43480091D01*
X103806965Y-43493406D01*
X103800706Y-43506278D01*
X103794073Y-43518708D01*
X103787067Y-43530695D01*
X103779688Y-43542241D01*
X103771935Y-43553344D01*
X103763808Y-43564005D01*
X103755308Y-43574224D01*
X103746434Y-43584001D01*
X103737187Y-43593335D01*
X103727544Y-43602225D01*
X103717575Y-43610669D01*
X103707280Y-43618666D01*
X103696658Y-43626216D01*
X103685710Y-43633320D01*
X103674436Y-43639978D01*
X103662835Y-43646189D01*
X103650908Y-43651953D01*
X103638655Y-43657271D01*
X103626076Y-43662143D01*
X103617508Y-43665143D01*
X103604451Y-43669289D01*
X103591202Y-43673028D01*
X103577758Y-43676359D01*
X103564122Y-43679282D01*
X103550293Y-43681797D01*
X103536270Y-43683904D01*
X103522054Y-43685604D01*
X103507645Y-43686895D01*
X103493042Y-43687779D01*
X103483200Y-43688142D01*
X103473272Y-43688323D01*
X103468276Y-43688346D01*
X103456251Y-43688227D01*
X103444416Y-43687872D01*
X103432773Y-43687281D01*
X103421320Y-43686453D01*
X103410058Y-43685388D01*
X103398987Y-43684087D01*
X103388107Y-43682549D01*
X103377418Y-43680774D01*
X103366919Y-43678763D01*
X103356611Y-43676515D01*
X103346494Y-43674031D01*
X103336568Y-43671310D01*
X103326833Y-43668352D01*
X103317288Y-43665158D01*
X103307934Y-43661727D01*
X103298771Y-43658060D01*
X103285383Y-43652216D01*
X103272419Y-43646041D01*
X103259880Y-43639536D01*
X103247767Y-43632700D01*
X103236078Y-43625534D01*
X103224814Y-43618037D01*
X103213976Y-43610210D01*
X103203562Y-43602052D01*
X103193574Y-43593563D01*
X103184011Y-43584744D01*
X103177871Y-43578681D01*
X103169010Y-43569301D01*
X103160560Y-43559664D01*
X103152523Y-43549769D01*
X103144898Y-43539617D01*
X103137686Y-43529207D01*
X103130885Y-43518540D01*
X103124496Y-43507615D01*
X103118520Y-43496432D01*
X103112956Y-43484992D01*
X103107804Y-43473294D01*
X103104598Y-43465352D01*
X103100146Y-43453321D01*
X103096132Y-43441226D01*
X103092555Y-43429067D01*
X103089417Y-43416843D01*
X103086717Y-43404555D01*
X103084454Y-43392202D01*
X103082629Y-43379785D01*
X103081243Y-43367304D01*
X103080294Y-43354758D01*
X103079783Y-43342148D01*
X103079685Y-43333705D01*
X103079711Y-43331018D01*
X103251632Y-43331018D01*
X103251925Y-43341771D01*
X103252801Y-43352046D01*
X103254262Y-43361844D01*
X103256787Y-43372973D01*
X103260153Y-43383414D01*
X103263600Y-43391591D01*
X103268271Y-43400816D01*
X103273492Y-43409439D01*
X103279262Y-43417462D01*
X103286689Y-43426062D01*
X103294863Y-43433845D01*
X103303716Y-43440855D01*
X103313176Y-43447142D01*
X103321768Y-43451953D01*
X103330807Y-43456232D01*
X103340293Y-43459979D01*
X103349935Y-43463196D01*
X103359630Y-43466069D01*
X103369376Y-43468600D01*
X103379173Y-43470786D01*
X103389022Y-43472630D01*
X103392316Y-43473168D01*
X103392316Y-43195952D01*
X103382467Y-43196725D01*
X103372704Y-43197944D01*
X103363027Y-43199610D01*
X103353436Y-43201722D01*
X103343930Y-43204281D01*
X103340781Y-43205233D01*
X103330055Y-43208967D01*
X103319891Y-43213541D01*
X103310287Y-43218958D01*
X103301244Y-43225215D01*
X103296329Y-43229169D01*
X103288119Y-43236631D01*
X103280588Y-43244910D01*
X103273734Y-43254008D01*
X103268399Y-43262457D01*
X103264333Y-43269958D01*
X103260017Y-43279546D01*
X103256594Y-43289993D01*
X103254063Y-43301299D01*
X103252637Y-43311376D01*
X103251831Y-43322050D01*
X103251632Y-43331018D01*
X103079711Y-43331018D01*
X103079778Y-43323924D01*
X103080523Y-43304749D01*
X103082011Y-43286091D01*
X103084244Y-43267950D01*
X103087220Y-43250326D01*
X103090941Y-43233220D01*
X103095406Y-43216630D01*
X103100615Y-43200558D01*
X103106569Y-43185003D01*
X103113266Y-43169965D01*
X103120708Y-43155444D01*
X103128894Y-43141440D01*
X103137824Y-43127953D01*
X103147499Y-43114983D01*
X103157917Y-43102531D01*
X103169080Y-43090595D01*
X103174940Y-43084822D01*
X103187197Y-43073730D01*
X103200154Y-43063355D01*
X103213812Y-43053695D01*
X103228170Y-43044750D01*
X103243228Y-43036522D01*
X103258986Y-43029008D01*
X103275445Y-43022210D01*
X103292604Y-43016128D01*
X103310463Y-43010762D01*
X103329023Y-43006110D01*
X103348283Y-43002175D01*
X103358176Y-43000475D01*
X103368243Y-42998955D01*
X103378486Y-42997613D01*
X103388904Y-42996450D01*
X103399496Y-42995467D01*
X103410264Y-42994662D01*
X103421207Y-42994035D01*
X103432325Y-42993588D01*
X103443619Y-42993320D01*
X103455087Y-42993230D01*
X103465543Y-42993346D01*
G37*
G36*
X103830000Y-42626866D02*
G01*
X103830000Y-42836427D01*
X103095317Y-42836427D01*
X103095317Y-42626866D01*
X103830000Y-42626866D01*
G37*
G36*
X102860844Y-42607083D02*
G01*
X102871570Y-42607411D01*
X102881858Y-42608396D01*
X102891709Y-42610039D01*
X102904161Y-42613250D01*
X102915835Y-42617629D01*
X102926731Y-42623176D01*
X102936848Y-42629891D01*
X102946186Y-42637773D01*
X102952679Y-42644452D01*
X102960464Y-42653947D01*
X102967212Y-42663869D01*
X102972921Y-42674219D01*
X102977592Y-42684996D01*
X102981225Y-42696201D01*
X102983820Y-42707833D01*
X102985377Y-42719892D01*
X102985896Y-42732379D01*
X102985377Y-42744813D01*
X102983820Y-42756834D01*
X102981225Y-42768443D01*
X102977592Y-42779640D01*
X102972921Y-42790425D01*
X102967212Y-42800798D01*
X102960464Y-42810758D01*
X102952679Y-42820307D01*
X102943925Y-42829008D01*
X102934392Y-42836549D01*
X102924080Y-42842930D01*
X102912990Y-42848150D01*
X102901121Y-42852211D01*
X102888474Y-42855111D01*
X102878478Y-42856525D01*
X102868043Y-42857286D01*
X102860844Y-42857431D01*
X102850120Y-42857105D01*
X102839838Y-42856126D01*
X102829998Y-42854495D01*
X102817567Y-42851304D01*
X102805921Y-42846954D01*
X102795062Y-42841443D01*
X102784989Y-42834772D01*
X102775702Y-42826941D01*
X102769253Y-42820307D01*
X102761410Y-42810758D01*
X102754614Y-42800798D01*
X102748862Y-42790425D01*
X102744157Y-42779640D01*
X102740497Y-42768443D01*
X102737883Y-42756834D01*
X102736314Y-42744813D01*
X102735792Y-42732379D01*
X102736314Y-42719892D01*
X102737883Y-42707833D01*
X102740497Y-42696201D01*
X102744157Y-42684996D01*
X102748862Y-42674219D01*
X102754614Y-42663869D01*
X102761410Y-42653947D01*
X102769253Y-42644452D01*
X102777950Y-42635693D01*
X102787434Y-42628103D01*
X102797703Y-42621680D01*
X102808759Y-42616425D01*
X102820601Y-42612338D01*
X102833229Y-42609418D01*
X102843216Y-42607995D01*
X102853645Y-42607229D01*
X102860844Y-42607083D01*
G37*
G36*
X103830000Y-42253175D02*
G01*
X103821222Y-42257665D01*
X103812351Y-42262158D01*
X103803388Y-42266656D01*
X103794332Y-42271157D01*
X103785184Y-42275662D01*
X103775944Y-42280171D01*
X103766610Y-42284684D01*
X103757185Y-42289200D01*
X103747666Y-42293721D01*
X103738055Y-42298245D01*
X103728352Y-42302773D01*
X103718556Y-42307305D01*
X103708668Y-42311841D01*
X103698687Y-42316380D01*
X103688613Y-42320923D01*
X103678447Y-42325471D01*
X103668188Y-42330021D01*
X103657837Y-42334576D01*
X103647393Y-42339135D01*
X103636857Y-42343697D01*
X103626228Y-42348263D01*
X103615507Y-42352833D01*
X103604693Y-42357407D01*
X103593786Y-42361985D01*
X103582787Y-42366566D01*
X103571696Y-42371152D01*
X103560511Y-42375741D01*
X103549235Y-42380334D01*
X103537865Y-42384930D01*
X103526404Y-42389531D01*
X103514849Y-42394135D01*
X103503203Y-42398743D01*
X103491477Y-42403346D01*
X103479685Y-42407934D01*
X103467827Y-42412507D01*
X103455903Y-42417065D01*
X103443914Y-42421609D01*
X103431859Y-42426138D01*
X103419738Y-42430652D01*
X103407551Y-42435151D01*
X103395298Y-42439635D01*
X103382980Y-42444105D01*
X103370595Y-42448560D01*
X103358145Y-42453000D01*
X103345629Y-42457425D01*
X103333047Y-42461835D01*
X103320400Y-42466231D01*
X103307686Y-42470612D01*
X103294907Y-42474978D01*
X103282062Y-42479329D01*
X103269151Y-42483666D01*
X103256174Y-42487987D01*
X103243131Y-42492294D01*
X103230023Y-42496587D01*
X103216848Y-42500864D01*
X103203608Y-42505126D01*
X103190302Y-42509374D01*
X103176930Y-42513607D01*
X103163493Y-42517825D01*
X103149989Y-42522029D01*
X103136420Y-42526217D01*
X103122785Y-42530391D01*
X103109084Y-42534550D01*
X103095317Y-42538695D01*
X103095317Y-42316434D01*
X103105609Y-42313737D01*
X103116060Y-42310958D01*
X103126669Y-42308098D01*
X103137437Y-42305156D01*
X103148365Y-42302133D01*
X103159451Y-42299028D01*
X103170696Y-42295842D01*
X103182100Y-42292574D01*
X103193662Y-42289225D01*
X103205384Y-42285793D01*
X103213286Y-42283461D01*
X103225206Y-42279878D01*
X103237152Y-42276274D01*
X103249123Y-42272648D01*
X103261120Y-42269001D01*
X103273143Y-42265332D01*
X103285191Y-42261642D01*
X103297265Y-42257930D01*
X103309365Y-42254197D01*
X103321491Y-42250443D01*
X103333643Y-42246667D01*
X103341758Y-42244138D01*
X103353910Y-42240293D01*
X103366001Y-42236453D01*
X103378032Y-42232617D01*
X103390004Y-42228785D01*
X103401915Y-42224957D01*
X103413766Y-42221134D01*
X103425557Y-42217315D01*
X103437288Y-42213500D01*
X103448958Y-42209690D01*
X103460569Y-42205884D01*
X103468276Y-42203349D01*
X103479674Y-42199509D01*
X103490879Y-42195681D01*
X103501890Y-42191867D01*
X103512709Y-42188065D01*
X103523334Y-42184276D01*
X103533766Y-42180500D01*
X103544005Y-42176737D01*
X103554051Y-42172987D01*
X103563903Y-42169249D01*
X103573563Y-42165525D01*
X103579895Y-42163049D01*
X103570364Y-42159591D01*
X103560641Y-42156085D01*
X103550724Y-42152533D01*
X103540614Y-42148933D01*
X103530310Y-42145285D01*
X103519814Y-42141591D01*
X103509124Y-42137849D01*
X103498241Y-42134060D01*
X103487165Y-42130224D01*
X103475896Y-42126341D01*
X103468276Y-42123726D01*
X103456705Y-42119794D01*
X103445075Y-42115875D01*
X103433384Y-42111969D01*
X103421633Y-42108075D01*
X103409822Y-42104195D01*
X103397951Y-42100327D01*
X103386020Y-42096473D01*
X103374029Y-42092631D01*
X103361977Y-42088802D01*
X103349866Y-42084986D01*
X103341758Y-42082449D01*
X103329589Y-42078617D01*
X103317446Y-42074815D01*
X103305329Y-42071044D01*
X103293238Y-42067302D01*
X103281172Y-42063590D01*
X103269132Y-42059909D01*
X103257118Y-42056257D01*
X103245129Y-42052636D01*
X103233167Y-42049045D01*
X103221230Y-42045483D01*
X103213286Y-42043126D01*
X103201459Y-42039597D01*
X103189790Y-42036153D01*
X103178281Y-42032796D01*
X103166930Y-42029525D01*
X103155738Y-42026339D01*
X103144705Y-42023239D01*
X103133830Y-42020225D01*
X103123115Y-42017297D01*
X103112558Y-42014455D01*
X103102161Y-42011699D01*
X103095317Y-42009909D01*
X103095317Y-41793265D01*
X103109084Y-41797410D01*
X103122785Y-41801569D01*
X103136420Y-41805743D01*
X103149989Y-41809931D01*
X103163493Y-41814135D01*
X103176930Y-41818353D01*
X103190302Y-41822586D01*
X103203608Y-41826834D01*
X103216848Y-41831096D01*
X103230023Y-41835373D01*
X103243131Y-41839666D01*
X103256174Y-41843972D01*
X103269151Y-41848294D01*
X103282062Y-41852631D01*
X103294907Y-41856982D01*
X103307686Y-41861348D01*
X103320400Y-41865729D01*
X103333047Y-41870125D01*
X103345629Y-41874535D01*
X103358145Y-41878960D01*
X103370595Y-41883400D01*
X103382980Y-41887855D01*
X103395298Y-41892325D01*
X103407551Y-41896809D01*
X103419738Y-41901308D01*
X103431859Y-41905822D01*
X103443914Y-41910351D01*
X103455903Y-41914894D01*
X103467827Y-41919453D01*
X103479685Y-41924026D01*
X103491477Y-41928614D01*
X103503203Y-41933217D01*
X103514849Y-41937825D01*
X103526404Y-41942429D01*
X103537865Y-41947030D01*
X103549235Y-41951626D01*
X103560511Y-41956219D01*
X103571696Y-41960808D01*
X103582787Y-41965394D01*
X103593786Y-41969975D01*
X103604693Y-41974553D01*
X103615507Y-41979127D01*
X103626228Y-41983697D01*
X103636857Y-41988263D01*
X103647393Y-41992825D01*
X103657837Y-41997384D01*
X103668188Y-42001938D01*
X103678447Y-42006489D01*
X103688613Y-42011036D01*
X103698687Y-42015580D01*
X103708668Y-42020119D01*
X103718556Y-42024655D01*
X103728352Y-42029187D01*
X103738055Y-42033715D01*
X103747666Y-42038239D01*
X103757185Y-42042759D01*
X103766610Y-42047276D01*
X103775944Y-42051789D01*
X103785184Y-42056298D01*
X103794332Y-42060803D01*
X103803388Y-42065304D01*
X103812351Y-42069802D01*
X103821222Y-42074295D01*
X103830000Y-42078785D01*
X103830000Y-42253175D01*
G37*
G36*
X103465543Y-41044288D02*
G01*
X103475324Y-41044586D01*
X103485563Y-41045067D01*
X103494898Y-41045638D01*
X103505340Y-41046355D01*
X103515170Y-41047042D01*
X103525500Y-41047779D01*
X103533000Y-41048325D01*
X103533000Y-41524110D01*
X103544902Y-41522374D01*
X103556336Y-41519822D01*
X103567302Y-41516455D01*
X103577800Y-41512272D01*
X103587830Y-41507273D01*
X103597392Y-41501458D01*
X103606486Y-41494828D01*
X103615112Y-41487382D01*
X103623270Y-41479120D01*
X103630960Y-41470042D01*
X103635826Y-41463538D01*
X103642592Y-41453186D01*
X103648692Y-41442191D01*
X103654127Y-41430552D01*
X103658896Y-41418269D01*
X103663000Y-41405341D01*
X103666438Y-41391770D01*
X103669211Y-41377555D01*
X103670689Y-41367720D01*
X103671873Y-41357600D01*
X103672760Y-41347193D01*
X103673351Y-41336499D01*
X103673647Y-41325520D01*
X103673684Y-41319923D01*
X103673592Y-41309134D01*
X103673315Y-41298385D01*
X103672853Y-41287673D01*
X103672207Y-41277001D01*
X103671376Y-41266367D01*
X103670361Y-41255772D01*
X103669161Y-41245215D01*
X103667776Y-41234697D01*
X103666207Y-41224218D01*
X103664453Y-41213777D01*
X103663182Y-41206838D01*
X103661169Y-41196577D01*
X103659071Y-41186677D01*
X103656888Y-41177137D01*
X103653842Y-41164978D01*
X103650644Y-41153461D01*
X103647293Y-41142584D01*
X103643790Y-41132349D01*
X103640134Y-41122755D01*
X103637292Y-41115980D01*
X103799225Y-41087892D01*
X103803499Y-41097036D01*
X103807239Y-41106214D01*
X103810979Y-41116490D01*
X103814185Y-41126173D01*
X103816322Y-41133077D01*
X103819359Y-41143833D01*
X103822241Y-41155036D01*
X103824525Y-41164713D01*
X103826701Y-41174699D01*
X103828770Y-41184996D01*
X103830732Y-41195603D01*
X103832663Y-41206484D01*
X103834487Y-41217604D01*
X103836203Y-41228962D01*
X103837811Y-41240559D01*
X103839313Y-41252394D01*
X103840707Y-41264468D01*
X103841235Y-41269364D01*
X103842265Y-41279199D01*
X103843158Y-41289041D01*
X103843914Y-41298891D01*
X103844532Y-41308749D01*
X103845013Y-41318614D01*
X103845356Y-41328487D01*
X103845562Y-41338367D01*
X103845631Y-41348255D01*
X103845518Y-41360640D01*
X103845177Y-41372820D01*
X103844609Y-41384797D01*
X103843814Y-41396569D01*
X103842793Y-41408137D01*
X103841544Y-41419501D01*
X103840068Y-41430661D01*
X103838365Y-41441617D01*
X103836435Y-41452368D01*
X103834278Y-41462915D01*
X103831893Y-41473259D01*
X103829282Y-41483398D01*
X103826444Y-41493332D01*
X103823378Y-41503063D01*
X103820086Y-41512589D01*
X103816566Y-41521912D01*
X103812850Y-41531033D01*
X103806965Y-41544348D01*
X103800706Y-41557220D01*
X103794073Y-41569650D01*
X103787067Y-41581638D01*
X103779688Y-41593183D01*
X103771935Y-41604286D01*
X103763808Y-41614947D01*
X103755308Y-41625166D01*
X103746434Y-41634943D01*
X103737187Y-41644277D01*
X103727544Y-41653167D01*
X103717575Y-41661611D01*
X103707280Y-41669608D01*
X103696658Y-41677158D01*
X103685710Y-41684262D01*
X103674436Y-41690920D01*
X103662835Y-41697131D01*
X103650908Y-41702896D01*
X103638655Y-41708214D01*
X103626076Y-41713085D01*
X103617508Y-41716085D01*
X103604451Y-41720231D01*
X103591202Y-41723970D01*
X103577758Y-41727301D01*
X103564122Y-41730224D01*
X103550293Y-41732739D01*
X103536270Y-41734846D01*
X103522054Y-41736546D01*
X103507645Y-41737838D01*
X103493042Y-41738721D01*
X103483200Y-41739084D01*
X103473272Y-41739265D01*
X103468276Y-41739288D01*
X103456251Y-41739169D01*
X103444416Y-41738814D01*
X103432773Y-41738223D01*
X103421320Y-41737395D01*
X103410058Y-41736330D01*
X103398987Y-41735029D01*
X103388107Y-41733491D01*
X103377418Y-41731716D01*
X103366919Y-41729705D01*
X103356611Y-41727457D01*
X103346494Y-41724973D01*
X103336568Y-41722252D01*
X103326833Y-41719294D01*
X103317288Y-41716100D01*
X103307934Y-41712669D01*
X103298771Y-41709002D01*
X103285383Y-41703158D01*
X103272419Y-41696983D01*
X103259880Y-41690478D01*
X103247767Y-41683642D01*
X103236078Y-41676476D01*
X103224814Y-41668979D01*
X103213976Y-41661152D01*
X103203562Y-41652994D01*
X103193574Y-41644505D01*
X103184011Y-41635686D01*
X103177871Y-41629623D01*
X103169010Y-41620243D01*
X103160560Y-41610606D01*
X103152523Y-41600711D01*
X103144898Y-41590559D01*
X103137686Y-41580149D01*
X103130885Y-41569482D01*
X103124496Y-41558557D01*
X103118520Y-41547374D01*
X103112956Y-41535934D01*
X103107804Y-41524236D01*
X103104598Y-41516294D01*
X103100146Y-41504263D01*
X103096132Y-41492168D01*
X103092555Y-41480009D01*
X103089417Y-41467785D01*
X103086717Y-41455497D01*
X103084454Y-41443144D01*
X103082629Y-41430727D01*
X103081243Y-41418246D01*
X103080294Y-41405700D01*
X103079783Y-41393090D01*
X103079685Y-41384647D01*
X103079711Y-41381960D01*
X103251632Y-41381960D01*
X103251925Y-41392713D01*
X103252801Y-41402988D01*
X103254262Y-41412787D01*
X103256787Y-41423915D01*
X103260153Y-41434356D01*
X103263600Y-41442533D01*
X103268271Y-41451758D01*
X103273492Y-41460381D01*
X103279262Y-41468404D01*
X103286689Y-41477005D01*
X103294863Y-41484787D01*
X103303716Y-41491797D01*
X103313176Y-41498084D01*
X103321768Y-41502895D01*
X103330807Y-41507174D01*
X103340293Y-41510921D01*
X103349935Y-41514138D01*
X103359630Y-41517011D01*
X103369376Y-41519542D01*
X103379173Y-41521728D01*
X103389022Y-41523572D01*
X103392316Y-41524110D01*
X103392316Y-41246894D01*
X103382467Y-41247667D01*
X103372704Y-41248886D01*
X103363027Y-41250552D01*
X103353436Y-41252664D01*
X103343930Y-41255223D01*
X103340781Y-41256175D01*
X103330055Y-41259909D01*
X103319891Y-41264483D01*
X103310287Y-41269900D01*
X103301244Y-41276157D01*
X103296329Y-41280111D01*
X103288119Y-41287573D01*
X103280588Y-41295852D01*
X103273734Y-41304950D01*
X103268399Y-41313399D01*
X103264333Y-41320900D01*
X103260017Y-41330488D01*
X103256594Y-41340935D01*
X103254063Y-41352241D01*
X103252637Y-41362318D01*
X103251831Y-41372992D01*
X103251632Y-41381960D01*
X103079711Y-41381960D01*
X103079778Y-41374866D01*
X103080523Y-41355691D01*
X103082011Y-41337033D01*
X103084244Y-41318892D01*
X103087220Y-41301268D01*
X103090941Y-41284162D01*
X103095406Y-41267572D01*
X103100615Y-41251500D01*
X103106569Y-41235945D01*
X103113266Y-41220907D01*
X103120708Y-41206386D01*
X103128894Y-41192382D01*
X103137824Y-41178895D01*
X103147499Y-41165925D01*
X103157917Y-41153473D01*
X103169080Y-41141537D01*
X103174940Y-41135764D01*
X103187197Y-41124673D01*
X103200154Y-41114297D01*
X103213812Y-41104637D01*
X103228170Y-41095693D01*
X103243228Y-41087464D01*
X103258986Y-41079950D01*
X103275445Y-41073153D01*
X103292604Y-41067070D01*
X103310463Y-41061704D01*
X103329023Y-41057053D01*
X103348283Y-41053117D01*
X103358176Y-41051418D01*
X103368243Y-41049897D01*
X103378486Y-41048555D01*
X103388904Y-41047393D01*
X103399496Y-41046409D01*
X103410264Y-41045604D01*
X103421207Y-41044978D01*
X103432325Y-41044530D01*
X103443619Y-41044262D01*
X103455087Y-41044173D01*
X103465543Y-41044288D01*
G37*
G36*
X103274347Y-40441381D02*
G01*
X103271665Y-40452266D01*
X103269391Y-40461875D01*
X103267081Y-40471973D01*
X103264735Y-40482559D01*
X103262353Y-40493635D01*
X103259936Y-40505199D01*
X103259448Y-40507571D01*
X103257197Y-40519545D01*
X103255670Y-40529330D01*
X103254388Y-40539298D01*
X103253350Y-40549449D01*
X103252556Y-40559784D01*
X103252006Y-40570301D01*
X103251701Y-40581002D01*
X103251632Y-40589148D01*
X103251861Y-40599513D01*
X103252437Y-40609359D01*
X103253364Y-40619929D01*
X103254641Y-40631224D01*
X103255296Y-40636287D01*
X103256604Y-40646082D01*
X103258195Y-40656336D01*
X103260100Y-40666511D01*
X103262609Y-40676910D01*
X103262868Y-40677808D01*
X103830000Y-40677808D01*
X103830000Y-40887369D01*
X103134640Y-40887369D01*
X103130950Y-40876655D01*
X103127299Y-40865581D01*
X103123686Y-40854147D01*
X103120111Y-40842352D01*
X103116576Y-40830196D01*
X103113079Y-40817679D01*
X103109621Y-40804802D01*
X103106201Y-40791564D01*
X103102820Y-40777966D01*
X103099478Y-40764007D01*
X103097271Y-40754501D01*
X103095141Y-40744845D01*
X103093149Y-40735053D01*
X103091295Y-40725123D01*
X103089577Y-40715055D01*
X103087997Y-40704851D01*
X103086555Y-40694508D01*
X103085250Y-40684029D01*
X103084082Y-40673412D01*
X103083051Y-40662658D01*
X103082158Y-40651766D01*
X103081403Y-40640737D01*
X103080785Y-40629570D01*
X103080304Y-40618266D01*
X103079960Y-40606825D01*
X103079754Y-40595247D01*
X103079685Y-40583531D01*
X103079859Y-40573491D01*
X103080306Y-40563625D01*
X103081027Y-40552875D01*
X103081884Y-40542742D01*
X103082820Y-40532270D01*
X103083921Y-40521798D01*
X103085185Y-40511326D01*
X103086612Y-40500854D01*
X103087501Y-40494870D01*
X103089067Y-40484398D01*
X103090774Y-40473927D01*
X103092620Y-40463455D01*
X103094607Y-40452983D01*
X103095806Y-40446999D01*
X103098048Y-40436866D01*
X103100868Y-40426115D01*
X103103963Y-40416250D01*
X103107773Y-40406210D01*
X103274347Y-40441381D01*
G37*
G36*
X103830000Y-39759944D02*
G01*
X103821222Y-39764434D01*
X103812351Y-39768927D01*
X103803388Y-39773425D01*
X103794332Y-39777926D01*
X103785184Y-39782431D01*
X103775944Y-39786940D01*
X103766610Y-39791453D01*
X103757185Y-39795969D01*
X103747666Y-39800490D01*
X103738055Y-39805014D01*
X103728352Y-39809542D01*
X103718556Y-39814074D01*
X103708668Y-39818610D01*
X103698687Y-39823149D01*
X103688613Y-39827692D01*
X103678447Y-39832240D01*
X103668188Y-39836790D01*
X103657837Y-39841345D01*
X103647393Y-39845904D01*
X103636857Y-39850466D01*
X103626228Y-39855032D01*
X103615507Y-39859602D01*
X103604693Y-39864176D01*
X103593786Y-39868754D01*
X103582787Y-39873335D01*
X103571696Y-39877921D01*
X103560511Y-39882510D01*
X103549235Y-39887103D01*
X103537865Y-39891699D01*
X103526404Y-39896300D01*
X103514849Y-39900904D01*
X103503203Y-39905512D01*
X103491477Y-39910115D01*
X103479685Y-39914703D01*
X103467827Y-39919276D01*
X103455903Y-39923834D01*
X103443914Y-39928378D01*
X103431859Y-39932907D01*
X103419738Y-39937421D01*
X103407551Y-39941920D01*
X103395298Y-39946404D01*
X103382980Y-39950874D01*
X103370595Y-39955329D01*
X103358145Y-39959769D01*
X103345629Y-39964194D01*
X103333047Y-39968604D01*
X103320400Y-39973000D01*
X103307686Y-39977381D01*
X103294907Y-39981747D01*
X103282062Y-39986098D01*
X103269151Y-39990435D01*
X103256174Y-39994756D01*
X103243131Y-39999063D01*
X103230023Y-40003356D01*
X103216848Y-40007633D01*
X103203608Y-40011895D01*
X103190302Y-40016143D01*
X103176930Y-40020376D01*
X103163493Y-40024594D01*
X103149989Y-40028798D01*
X103136420Y-40032986D01*
X103122785Y-40037160D01*
X103109084Y-40041319D01*
X103095317Y-40045464D01*
X103095317Y-39823203D01*
X103105609Y-39820506D01*
X103116060Y-39817727D01*
X103126669Y-39814867D01*
X103137437Y-39811925D01*
X103148365Y-39808902D01*
X103159451Y-39805797D01*
X103170696Y-39802611D01*
X103182100Y-39799343D01*
X103193662Y-39795994D01*
X103205384Y-39792562D01*
X103213286Y-39790230D01*
X103225206Y-39786647D01*
X103237152Y-39783043D01*
X103249123Y-39779417D01*
X103261120Y-39775770D01*
X103273143Y-39772101D01*
X103285191Y-39768411D01*
X103297265Y-39764699D01*
X103309365Y-39760966D01*
X103321491Y-39757212D01*
X103333643Y-39753436D01*
X103341758Y-39750907D01*
X103353910Y-39747062D01*
X103366001Y-39743222D01*
X103378032Y-39739386D01*
X103390004Y-39735554D01*
X103401915Y-39731726D01*
X103413766Y-39727903D01*
X103425557Y-39724084D01*
X103437288Y-39720269D01*
X103448958Y-39716459D01*
X103460569Y-39712653D01*
X103468276Y-39710118D01*
X103479674Y-39706278D01*
X103490879Y-39702450D01*
X103501890Y-39698636D01*
X103512709Y-39694834D01*
X103523334Y-39691045D01*
X103533766Y-39687269D01*
X103544005Y-39683506D01*
X103554051Y-39679756D01*
X103563903Y-39676018D01*
X103573563Y-39672294D01*
X103579895Y-39669818D01*
X103570364Y-39666360D01*
X103560641Y-39662854D01*
X103550724Y-39659302D01*
X103540614Y-39655702D01*
X103530310Y-39652054D01*
X103519814Y-39648360D01*
X103509124Y-39644618D01*
X103498241Y-39640829D01*
X103487165Y-39636993D01*
X103475896Y-39633110D01*
X103468276Y-39630495D01*
X103456705Y-39626563D01*
X103445075Y-39622644D01*
X103433384Y-39618738D01*
X103421633Y-39614844D01*
X103409822Y-39610964D01*
X103397951Y-39607096D01*
X103386020Y-39603242D01*
X103374029Y-39599400D01*
X103361977Y-39595571D01*
X103349866Y-39591755D01*
X103341758Y-39589218D01*
X103329589Y-39585386D01*
X103317446Y-39581584D01*
X103305329Y-39577813D01*
X103293238Y-39574071D01*
X103281172Y-39570359D01*
X103269132Y-39566678D01*
X103257118Y-39563026D01*
X103245129Y-39559405D01*
X103233167Y-39555814D01*
X103221230Y-39552252D01*
X103213286Y-39549895D01*
X103201459Y-39546366D01*
X103189790Y-39542922D01*
X103178281Y-39539565D01*
X103166930Y-39536294D01*
X103155738Y-39533108D01*
X103144705Y-39530008D01*
X103133830Y-39526994D01*
X103123115Y-39524066D01*
X103112558Y-39521224D01*
X103102161Y-39518468D01*
X103095317Y-39516678D01*
X103095317Y-39300034D01*
X103109084Y-39304179D01*
X103122785Y-39308338D01*
X103136420Y-39312512D01*
X103149989Y-39316700D01*
X103163493Y-39320904D01*
X103176930Y-39325122D01*
X103190302Y-39329355D01*
X103203608Y-39333603D01*
X103216848Y-39337865D01*
X103230023Y-39342142D01*
X103243131Y-39346435D01*
X103256174Y-39350741D01*
X103269151Y-39355063D01*
X103282062Y-39359400D01*
X103294907Y-39363751D01*
X103307686Y-39368117D01*
X103320400Y-39372498D01*
X103333047Y-39376894D01*
X103345629Y-39381304D01*
X103358145Y-39385729D01*
X103370595Y-39390169D01*
X103382980Y-39394624D01*
X103395298Y-39399094D01*
X103407551Y-39403578D01*
X103419738Y-39408077D01*
X103431859Y-39412591D01*
X103443914Y-39417120D01*
X103455903Y-39421664D01*
X103467827Y-39426222D01*
X103479685Y-39430795D01*
X103491477Y-39435383D01*
X103503203Y-39439986D01*
X103514849Y-39444594D01*
X103526404Y-39449198D01*
X103537865Y-39453799D01*
X103549235Y-39458395D01*
X103560511Y-39462988D01*
X103571696Y-39467577D01*
X103582787Y-39472163D01*
X103593786Y-39476744D01*
X103604693Y-39481322D01*
X103615507Y-39485896D01*
X103626228Y-39490466D01*
X103636857Y-39495032D01*
X103647393Y-39499594D01*
X103657837Y-39504153D01*
X103668188Y-39508707D01*
X103678447Y-39513258D01*
X103688613Y-39517806D01*
X103698687Y-39522349D01*
X103708668Y-39526888D01*
X103718556Y-39531424D01*
X103728352Y-39535956D01*
X103738055Y-39540484D01*
X103747666Y-39545008D01*
X103757185Y-39549528D01*
X103766610Y-39554045D01*
X103775944Y-39558558D01*
X103785184Y-39563067D01*
X103794332Y-39567572D01*
X103803388Y-39572073D01*
X103812351Y-39576571D01*
X103821222Y-39581064D01*
X103830000Y-39585554D01*
X103830000Y-39759944D01*
G37*
G36*
X103064054Y-39191346D02*
G01*
X103059764Y-39181096D01*
X103055322Y-39170738D01*
X103050727Y-39160274D01*
X103045980Y-39149703D01*
X103041080Y-39139025D01*
X103036027Y-39128240D01*
X103030822Y-39117348D01*
X103025464Y-39106350D01*
X103019903Y-39095275D01*
X103014213Y-39084276D01*
X103008393Y-39073354D01*
X103002444Y-39062508D01*
X102996364Y-39051739D01*
X102990155Y-39041045D01*
X102983816Y-39030428D01*
X102977348Y-39019888D01*
X102970772Y-39009382D01*
X102964113Y-38998990D01*
X102957369Y-38988713D01*
X102950542Y-38978550D01*
X102943631Y-38968501D01*
X102936635Y-38958568D01*
X102929556Y-38948748D01*
X102922393Y-38939043D01*
X102915073Y-38929457D01*
X102907647Y-38920115D01*
X102900114Y-38911017D01*
X102892473Y-38902163D01*
X102884726Y-38893553D01*
X102876872Y-38885188D01*
X102868912Y-38877067D01*
X102860844Y-38869190D01*
X102860844Y-38722889D01*
X103830000Y-38722889D01*
X103830000Y-38932449D01*
X103126580Y-38932449D01*
X103133709Y-38943165D01*
X103140685Y-38954187D01*
X103145817Y-38962653D01*
X103150863Y-38971291D01*
X103155823Y-38980101D01*
X103160698Y-38989083D01*
X103165486Y-38998236D01*
X103170189Y-39007561D01*
X103174806Y-39017058D01*
X103179337Y-39026727D01*
X103183723Y-39036457D01*
X103187998Y-39046141D01*
X103192161Y-39055777D01*
X103196212Y-39065367D01*
X103200152Y-39074909D01*
X103203980Y-39084403D01*
X103207697Y-39093851D01*
X103211302Y-39103251D01*
X103214795Y-39112604D01*
X103218177Y-39121910D01*
X103220369Y-39128087D01*
X103064054Y-39191346D01*
G37*
G36*
X103712763Y-38190683D02*
G01*
X103724672Y-38191035D01*
X103736036Y-38192092D01*
X103746854Y-38193852D01*
X103757127Y-38196316D01*
X103766855Y-38199485D01*
X103776038Y-38203357D01*
X103784676Y-38207934D01*
X103795344Y-38215132D01*
X103805043Y-38223581D01*
X103811681Y-38230739D01*
X103819638Y-38240917D01*
X103826534Y-38251424D01*
X103832369Y-38262258D01*
X103837144Y-38273421D01*
X103840857Y-38284912D01*
X103843509Y-38296731D01*
X103845101Y-38308878D01*
X103845631Y-38321353D01*
X103845101Y-38333886D01*
X103843509Y-38346083D01*
X103840857Y-38357944D01*
X103837144Y-38369469D01*
X103832369Y-38380659D01*
X103826534Y-38391512D01*
X103819638Y-38402030D01*
X103811681Y-38412212D01*
X103802709Y-38421600D01*
X103792768Y-38429736D01*
X103781857Y-38436621D01*
X103773038Y-38440963D01*
X103763673Y-38444601D01*
X103753764Y-38447534D01*
X103743309Y-38449764D01*
X103732308Y-38451290D01*
X103720763Y-38452111D01*
X103712763Y-38452267D01*
X103700854Y-38451915D01*
X103689490Y-38450859D01*
X103678672Y-38449099D01*
X103668399Y-38446635D01*
X103658671Y-38443466D01*
X103649488Y-38439594D01*
X103640850Y-38435017D01*
X103630182Y-38427819D01*
X103620483Y-38419370D01*
X103613845Y-38412212D01*
X103605888Y-38402030D01*
X103598992Y-38391512D01*
X103593156Y-38380659D01*
X103588382Y-38369469D01*
X103584669Y-38357944D01*
X103582017Y-38346083D01*
X103580425Y-38333886D01*
X103579895Y-38321353D01*
X103580425Y-38308878D01*
X103582017Y-38296731D01*
X103584669Y-38284912D01*
X103588382Y-38273421D01*
X103593156Y-38262258D01*
X103598992Y-38251424D01*
X103605888Y-38240917D01*
X103613845Y-38230739D01*
X103622817Y-38221351D01*
X103632758Y-38213215D01*
X103643669Y-38206330D01*
X103652488Y-38201988D01*
X103661853Y-38198350D01*
X103671762Y-38195417D01*
X103682217Y-38193187D01*
X103693218Y-38191661D01*
X103704763Y-38190840D01*
X103712763Y-38190683D01*
G37*
G36*
X103359722Y-37399428D02*
G01*
X103374534Y-37399702D01*
X103389126Y-37400159D01*
X103403498Y-37400798D01*
X103417649Y-37401620D01*
X103431580Y-37402625D01*
X103445291Y-37403813D01*
X103458781Y-37405183D01*
X103472051Y-37406736D01*
X103485100Y-37408472D01*
X103497929Y-37410390D01*
X103510537Y-37412491D01*
X103522926Y-37414775D01*
X103535093Y-37417242D01*
X103547041Y-37419891D01*
X103558768Y-37422723D01*
X103570274Y-37425737D01*
X103581561Y-37428935D01*
X103592626Y-37432315D01*
X103603472Y-37435878D01*
X103614097Y-37439623D01*
X103624502Y-37443551D01*
X103634686Y-37447662D01*
X103644650Y-37451956D01*
X103654393Y-37456432D01*
X103663916Y-37461091D01*
X103673219Y-37465933D01*
X103682301Y-37470957D01*
X103691163Y-37476164D01*
X103699805Y-37481554D01*
X103708226Y-37487126D01*
X103716427Y-37492882D01*
X103724376Y-37498798D01*
X103732072Y-37504852D01*
X103746709Y-37517378D01*
X103760336Y-37530460D01*
X103772954Y-37544096D01*
X103784562Y-37558288D01*
X103795161Y-37573035D01*
X103804750Y-37588338D01*
X103813330Y-37604195D01*
X103820900Y-37620608D01*
X103827462Y-37637576D01*
X103833013Y-37655100D01*
X103837556Y-37673179D01*
X103841089Y-37691813D01*
X103843612Y-37711002D01*
X103844495Y-37720805D01*
X103845126Y-37730746D01*
X103845505Y-37740827D01*
X103845631Y-37751046D01*
X103845505Y-37761266D01*
X103845126Y-37771346D01*
X103844495Y-37781288D01*
X103843612Y-37791091D01*
X103841089Y-37810280D01*
X103837556Y-37828914D01*
X103833013Y-37846993D01*
X103827462Y-37864516D01*
X103820900Y-37881484D01*
X103813330Y-37897897D01*
X103804750Y-37913755D01*
X103795161Y-37929057D01*
X103784562Y-37943804D01*
X103772954Y-37957996D01*
X103760336Y-37971633D01*
X103746709Y-37984714D01*
X103732072Y-37997240D01*
X103724376Y-38003295D01*
X103716427Y-38009211D01*
X103708226Y-38014966D01*
X103699805Y-38020539D01*
X103691163Y-38025928D01*
X103682301Y-38031136D01*
X103673219Y-38036160D01*
X103663916Y-38041002D01*
X103654393Y-38045661D01*
X103644650Y-38050137D01*
X103634686Y-38054430D01*
X103624502Y-38058541D01*
X103614097Y-38062469D01*
X103603472Y-38066215D01*
X103592626Y-38069778D01*
X103581561Y-38073158D01*
X103570274Y-38076355D01*
X103558768Y-38079370D01*
X103547041Y-38082202D01*
X103535093Y-38084851D01*
X103522926Y-38087317D01*
X103510537Y-38089601D01*
X103497929Y-38091702D01*
X103485100Y-38093621D01*
X103472051Y-38095356D01*
X103458781Y-38096909D01*
X103445291Y-38098280D01*
X103431580Y-38099467D01*
X103417649Y-38100472D01*
X103403498Y-38101294D01*
X103389126Y-38101934D01*
X103374534Y-38102391D01*
X103359722Y-38102665D01*
X103344689Y-38102756D01*
X103329746Y-38102660D01*
X103315021Y-38102371D01*
X103300513Y-38101889D01*
X103286223Y-38101214D01*
X103272151Y-38100347D01*
X103258296Y-38099287D01*
X103244658Y-38098034D01*
X103231238Y-38096589D01*
X103218036Y-38094951D01*
X103205051Y-38093120D01*
X103192283Y-38091096D01*
X103179733Y-38088880D01*
X103167401Y-38086471D01*
X103155286Y-38083869D01*
X103143389Y-38081075D01*
X103131709Y-38078087D01*
X103120222Y-38074919D01*
X103108964Y-38071581D01*
X103097935Y-38068073D01*
X103087135Y-38064395D01*
X103076564Y-38060547D01*
X103066222Y-38056529D01*
X103056108Y-38052342D01*
X103046224Y-38047984D01*
X103036569Y-38043457D01*
X103027143Y-38038761D01*
X103017945Y-38033894D01*
X103008977Y-38028857D01*
X103000238Y-38023651D01*
X102991728Y-38018275D01*
X102983446Y-38012729D01*
X102975394Y-38007013D01*
X102967545Y-38001140D01*
X102956218Y-37992064D01*
X102945428Y-37982665D01*
X102935175Y-37972944D01*
X102925459Y-37962901D01*
X102916279Y-37952536D01*
X102907635Y-37941850D01*
X102899529Y-37930841D01*
X102891959Y-37919510D01*
X102884926Y-37907857D01*
X102878429Y-37895882D01*
X102872493Y-37883611D01*
X102867141Y-37871070D01*
X102862372Y-37858258D01*
X102858188Y-37845175D01*
X102854587Y-37831822D01*
X102851570Y-37818199D01*
X102849137Y-37804305D01*
X102847288Y-37790140D01*
X102846023Y-37775705D01*
X102845504Y-37765932D01*
X102845245Y-37756038D01*
X102845212Y-37751046D01*
X103017159Y-37751046D01*
X103017744Y-37763083D01*
X103019497Y-37774464D01*
X103022419Y-37785189D01*
X103026509Y-37795258D01*
X103031769Y-37804671D01*
X103038197Y-37813428D01*
X103041095Y-37816748D01*
X103049058Y-37824600D01*
X103057987Y-37831975D01*
X103067882Y-37838873D01*
X103076493Y-37844047D01*
X103085723Y-37848917D01*
X103095571Y-37853481D01*
X103106037Y-37857740D01*
X103108750Y-37858757D01*
X103119875Y-37862646D01*
X103131511Y-37866253D01*
X103143658Y-37869577D01*
X103156317Y-37872618D01*
X103166146Y-37874714D01*
X103176263Y-37876651D01*
X103186668Y-37878429D01*
X103197361Y-37880048D01*
X103208341Y-37881509D01*
X103212065Y-37881960D01*
X103223357Y-37883226D01*
X103234886Y-37884368D01*
X103246650Y-37885384D01*
X103258651Y-37886277D01*
X103270887Y-37887044D01*
X103283360Y-37887688D01*
X103296069Y-37888207D01*
X103309014Y-37888601D01*
X103322195Y-37888871D01*
X103335613Y-37889016D01*
X103344689Y-37889043D01*
X103358272Y-37888981D01*
X103371637Y-37888794D01*
X103384782Y-37888483D01*
X103397709Y-37888047D01*
X103410416Y-37887487D01*
X103422905Y-37886802D01*
X103435174Y-37885993D01*
X103447225Y-37885059D01*
X103459057Y-37884001D01*
X103470670Y-37882818D01*
X103478290Y-37881960D01*
X103489455Y-37880553D01*
X103500329Y-37878987D01*
X103510911Y-37877261D01*
X103521200Y-37875377D01*
X103531198Y-37873334D01*
X103540904Y-37871133D01*
X103553391Y-37867950D01*
X103565359Y-37864485D01*
X103576807Y-37860737D01*
X103582337Y-37858757D01*
X103592901Y-37854575D01*
X103602854Y-37850087D01*
X103612196Y-37845293D01*
X103620928Y-37840195D01*
X103630984Y-37833392D01*
X103640085Y-37826113D01*
X103648233Y-37818356D01*
X103649748Y-37816748D01*
X103656644Y-37808253D01*
X103662371Y-37799102D01*
X103666929Y-37789295D01*
X103670318Y-37778833D01*
X103672539Y-37767714D01*
X103673591Y-37755940D01*
X103673684Y-37751046D01*
X103673100Y-37739068D01*
X103671347Y-37727710D01*
X103668425Y-37716972D01*
X103664334Y-37706854D01*
X103659075Y-37697356D01*
X103652647Y-37688478D01*
X103649748Y-37685101D01*
X103641791Y-37676985D01*
X103632880Y-37669430D01*
X103623015Y-37662435D01*
X103614436Y-37657243D01*
X103605246Y-37652410D01*
X103595446Y-37647935D01*
X103585035Y-37643820D01*
X103582337Y-37642847D01*
X103571148Y-37639130D01*
X103559439Y-37635672D01*
X103547212Y-37632474D01*
X103534466Y-37629535D01*
X103524565Y-37627502D01*
X103514373Y-37625614D01*
X103503889Y-37623873D01*
X103493112Y-37622277D01*
X103482044Y-37620827D01*
X103478290Y-37620376D01*
X103466823Y-37619111D01*
X103455137Y-37617969D01*
X103443233Y-37616952D01*
X103431109Y-37616060D01*
X103418766Y-37615292D01*
X103406205Y-37614649D01*
X103393424Y-37614130D01*
X103380425Y-37613736D01*
X103367206Y-37613466D01*
X103353769Y-37613321D01*
X103344689Y-37613293D01*
X103331114Y-37613356D01*
X103317775Y-37613542D01*
X103304673Y-37613854D01*
X103291807Y-37614289D01*
X103279176Y-37614850D01*
X103266782Y-37615534D01*
X103254624Y-37616344D01*
X103242702Y-37617278D01*
X103231017Y-37618336D01*
X103219567Y-37619519D01*
X103212065Y-37620376D01*
X103200989Y-37621777D01*
X103190201Y-37623324D01*
X103179700Y-37625017D01*
X103169487Y-37626856D01*
X103159561Y-37628841D01*
X103149923Y-37630972D01*
X103137520Y-37634041D01*
X103125629Y-37637368D01*
X103114249Y-37640956D01*
X103108750Y-37642847D01*
X103098130Y-37646873D01*
X103088127Y-37651258D01*
X103078743Y-37656001D01*
X103069977Y-37661104D01*
X103061829Y-37666565D01*
X103052514Y-37673896D01*
X103044164Y-37681787D01*
X103041095Y-37685101D01*
X103034200Y-37693730D01*
X103028473Y-37702980D01*
X103023915Y-37712850D01*
X103020525Y-37723340D01*
X103018305Y-37734450D01*
X103017253Y-37746180D01*
X103017159Y-37751046D01*
X102845212Y-37751046D01*
X102845339Y-37740827D01*
X102845718Y-37730746D01*
X102846350Y-37720805D01*
X102847235Y-37711002D01*
X102849763Y-37691813D01*
X102853303Y-37673179D01*
X102857854Y-37655100D01*
X102863416Y-37637576D01*
X102869990Y-37620608D01*
X102877575Y-37604195D01*
X102886171Y-37588338D01*
X102895778Y-37573035D01*
X102906397Y-37558288D01*
X102918027Y-37544096D01*
X102930669Y-37530460D01*
X102944322Y-37517378D01*
X102958986Y-37504852D01*
X102966697Y-37498798D01*
X102974661Y-37492882D01*
X102982845Y-37487126D01*
X102991248Y-37481554D01*
X102999868Y-37476164D01*
X103008706Y-37470957D01*
X103017763Y-37465933D01*
X103027037Y-37461091D01*
X103036529Y-37456432D01*
X103046239Y-37451956D01*
X103056168Y-37447662D01*
X103066314Y-37443551D01*
X103076678Y-37439623D01*
X103087261Y-37435878D01*
X103098061Y-37432315D01*
X103109080Y-37428935D01*
X103120316Y-37425737D01*
X103131770Y-37422723D01*
X103143443Y-37419891D01*
X103155333Y-37417242D01*
X103167441Y-37414775D01*
X103179768Y-37412491D01*
X103192312Y-37410390D01*
X103205075Y-37408472D01*
X103218055Y-37406736D01*
X103231253Y-37405183D01*
X103244670Y-37403813D01*
X103258304Y-37402625D01*
X103272157Y-37401620D01*
X103286227Y-37400798D01*
X103300516Y-37400159D01*
X103315022Y-37399702D01*
X103329747Y-37399428D01*
X103344689Y-37399337D01*
X103359722Y-37399428D01*
G37*
D10*
X83435916Y-26384819D02*
X83435916Y-27099104D01*
X83435916Y-27099104D02*
X83388297Y-27241961D01*
X83388297Y-27241961D02*
X83293059Y-27337200D01*
X83293059Y-27337200D02*
X83150202Y-27384819D01*
X83150202Y-27384819D02*
X83054964Y-27384819D01*
X83816869Y-26384819D02*
X84435916Y-26384819D01*
X84435916Y-26384819D02*
X84102583Y-26765771D01*
X84102583Y-26765771D02*
X84245440Y-26765771D01*
X84245440Y-26765771D02*
X84340678Y-26813390D01*
X84340678Y-26813390D02*
X84388297Y-26861009D01*
X84388297Y-26861009D02*
X84435916Y-26956247D01*
X84435916Y-26956247D02*
X84435916Y-27194342D01*
X84435916Y-27194342D02*
X84388297Y-27289580D01*
X84388297Y-27289580D02*
X84340678Y-27337200D01*
X84340678Y-27337200D02*
X84245440Y-27384819D01*
X84245440Y-27384819D02*
X83959726Y-27384819D01*
X83959726Y-27384819D02*
X83864488Y-27337200D01*
X83864488Y-27337200D02*
X83816869Y-27289580D01*
X70174819Y-39112904D02*
X70984342Y-39112904D01*
X70984342Y-39112904D02*
X71079580Y-39065285D01*
X71079580Y-39065285D02*
X71127200Y-39017666D01*
X71127200Y-39017666D02*
X71174819Y-38922428D01*
X71174819Y-38922428D02*
X71174819Y-38731952D01*
X71174819Y-38731952D02*
X71127200Y-38636714D01*
X71127200Y-38636714D02*
X71079580Y-38589095D01*
X71079580Y-38589095D02*
X70984342Y-38541476D01*
X70984342Y-38541476D02*
X70174819Y-38541476D01*
X70270057Y-38112904D02*
X70222438Y-38065285D01*
X70222438Y-38065285D02*
X70174819Y-37970047D01*
X70174819Y-37970047D02*
X70174819Y-37731952D01*
X70174819Y-37731952D02*
X70222438Y-37636714D01*
X70222438Y-37636714D02*
X70270057Y-37589095D01*
X70270057Y-37589095D02*
X70365295Y-37541476D01*
X70365295Y-37541476D02*
X70460533Y-37541476D01*
X70460533Y-37541476D02*
X70603390Y-37589095D01*
X70603390Y-37589095D02*
X71174819Y-38160523D01*
X71174819Y-38160523D02*
X71174819Y-37541476D01*
D12*
X78047231Y-35861571D02*
X77285231Y-35861571D01*
X77285231Y-35861571D02*
X77285231Y-35680142D01*
X77285231Y-35680142D02*
X77321517Y-35571285D01*
X77321517Y-35571285D02*
X77394088Y-35498714D01*
X77394088Y-35498714D02*
X77466660Y-35462428D01*
X77466660Y-35462428D02*
X77611803Y-35426142D01*
X77611803Y-35426142D02*
X77720660Y-35426142D01*
X77720660Y-35426142D02*
X77865803Y-35462428D01*
X77865803Y-35462428D02*
X77938374Y-35498714D01*
X77938374Y-35498714D02*
X78010946Y-35571285D01*
X78010946Y-35571285D02*
X78047231Y-35680142D01*
X78047231Y-35680142D02*
X78047231Y-35861571D01*
X78047231Y-35099571D02*
X77285231Y-35099571D01*
X77648088Y-35099571D02*
X77648088Y-34664142D01*
X78047231Y-34664142D02*
X77285231Y-34664142D01*
X77357803Y-34337571D02*
X77321517Y-34301285D01*
X77321517Y-34301285D02*
X77285231Y-34228714D01*
X77285231Y-34228714D02*
X77285231Y-34047285D01*
X77285231Y-34047285D02*
X77321517Y-33974714D01*
X77321517Y-33974714D02*
X77357803Y-33938428D01*
X77357803Y-33938428D02*
X77430374Y-33902142D01*
X77430374Y-33902142D02*
X77502946Y-33902142D01*
X77502946Y-33902142D02*
X77611803Y-33938428D01*
X77611803Y-33938428D02*
X78047231Y-34373856D01*
X78047231Y-34373856D02*
X78047231Y-33902142D01*
D13*
X89996907Y-51585519D02*
X89978159Y-51604267D01*
X89978159Y-51604267D02*
X89921916Y-51623014D01*
X89921916Y-51623014D02*
X89884421Y-51623014D01*
X89884421Y-51623014D02*
X89828178Y-51604267D01*
X89828178Y-51604267D02*
X89790683Y-51566771D01*
X89790683Y-51566771D02*
X89771935Y-51529276D01*
X89771935Y-51529276D02*
X89753187Y-51454285D01*
X89753187Y-51454285D02*
X89753187Y-51398042D01*
X89753187Y-51398042D02*
X89771935Y-51323052D01*
X89771935Y-51323052D02*
X89790683Y-51285556D01*
X89790683Y-51285556D02*
X89828178Y-51248061D01*
X89828178Y-51248061D02*
X89884421Y-51229313D01*
X89884421Y-51229313D02*
X89921916Y-51229313D01*
X89921916Y-51229313D02*
X89978159Y-51248061D01*
X89978159Y-51248061D02*
X89996907Y-51266809D01*
X90371860Y-51623014D02*
X90146888Y-51623014D01*
X90259374Y-51623014D02*
X90259374Y-51229313D01*
X90259374Y-51229313D02*
X90221879Y-51285556D01*
X90221879Y-51285556D02*
X90184384Y-51323052D01*
X90184384Y-51323052D02*
X90146888Y-51341799D01*
X90709318Y-51360547D02*
X90709318Y-51623014D01*
X90615580Y-51210566D02*
X90521841Y-51491781D01*
X90521841Y-51491781D02*
X90765561Y-51491781D01*
X81868907Y-51585519D02*
X81850159Y-51604267D01*
X81850159Y-51604267D02*
X81793916Y-51623014D01*
X81793916Y-51623014D02*
X81756421Y-51623014D01*
X81756421Y-51623014D02*
X81700178Y-51604267D01*
X81700178Y-51604267D02*
X81662683Y-51566771D01*
X81662683Y-51566771D02*
X81643935Y-51529276D01*
X81643935Y-51529276D02*
X81625187Y-51454285D01*
X81625187Y-51454285D02*
X81625187Y-51398042D01*
X81625187Y-51398042D02*
X81643935Y-51323052D01*
X81643935Y-51323052D02*
X81662683Y-51285556D01*
X81662683Y-51285556D02*
X81700178Y-51248061D01*
X81700178Y-51248061D02*
X81756421Y-51229313D01*
X81756421Y-51229313D02*
X81793916Y-51229313D01*
X81793916Y-51229313D02*
X81850159Y-51248061D01*
X81850159Y-51248061D02*
X81868907Y-51266809D01*
X82243860Y-51623014D02*
X82018888Y-51623014D01*
X82131374Y-51623014D02*
X82131374Y-51229313D01*
X82131374Y-51229313D02*
X82093879Y-51285556D01*
X82093879Y-51285556D02*
X82056384Y-51323052D01*
X82056384Y-51323052D02*
X82018888Y-51341799D01*
X82393841Y-51266809D02*
X82412589Y-51248061D01*
X82412589Y-51248061D02*
X82450084Y-51229313D01*
X82450084Y-51229313D02*
X82543823Y-51229313D01*
X82543823Y-51229313D02*
X82581318Y-51248061D01*
X82581318Y-51248061D02*
X82600066Y-51266809D01*
X82600066Y-51266809D02*
X82618813Y-51304304D01*
X82618813Y-51304304D02*
X82618813Y-51341799D01*
X82618813Y-51341799D02*
X82600066Y-51398042D01*
X82600066Y-51398042D02*
X82375094Y-51623014D01*
X82375094Y-51623014D02*
X82618813Y-51623014D01*
D12*
X79473000Y-27440660D02*
X79436714Y-27476946D01*
X79436714Y-27476946D02*
X79327857Y-27513231D01*
X79327857Y-27513231D02*
X79255285Y-27513231D01*
X79255285Y-27513231D02*
X79146428Y-27476946D01*
X79146428Y-27476946D02*
X79073857Y-27404374D01*
X79073857Y-27404374D02*
X79037571Y-27331803D01*
X79037571Y-27331803D02*
X79001285Y-27186660D01*
X79001285Y-27186660D02*
X79001285Y-27077803D01*
X79001285Y-27077803D02*
X79037571Y-26932660D01*
X79037571Y-26932660D02*
X79073857Y-26860088D01*
X79073857Y-26860088D02*
X79146428Y-26787517D01*
X79146428Y-26787517D02*
X79255285Y-26751231D01*
X79255285Y-26751231D02*
X79327857Y-26751231D01*
X79327857Y-26751231D02*
X79436714Y-26787517D01*
X79436714Y-26787517D02*
X79473000Y-26823803D01*
X79727000Y-26751231D02*
X80198714Y-26751231D01*
X80198714Y-26751231D02*
X79944714Y-27041517D01*
X79944714Y-27041517D02*
X80053571Y-27041517D01*
X80053571Y-27041517D02*
X80126143Y-27077803D01*
X80126143Y-27077803D02*
X80162428Y-27114088D01*
X80162428Y-27114088D02*
X80198714Y-27186660D01*
X80198714Y-27186660D02*
X80198714Y-27368088D01*
X80198714Y-27368088D02*
X80162428Y-27440660D01*
X80162428Y-27440660D02*
X80126143Y-27476946D01*
X80126143Y-27476946D02*
X80053571Y-27513231D01*
X80053571Y-27513231D02*
X79835857Y-27513231D01*
X79835857Y-27513231D02*
X79763285Y-27476946D01*
X79763285Y-27476946D02*
X79727000Y-27440660D01*
D10*
X59488095Y-52204819D02*
X59488095Y-51204819D01*
X59488095Y-51681009D02*
X60059523Y-51681009D01*
X60059523Y-52204819D02*
X60059523Y-51204819D01*
X60440476Y-51204819D02*
X61059523Y-51204819D01*
X61059523Y-51204819D02*
X60726190Y-51585771D01*
X60726190Y-51585771D02*
X60869047Y-51585771D01*
X60869047Y-51585771D02*
X60964285Y-51633390D01*
X60964285Y-51633390D02*
X61011904Y-51681009D01*
X61011904Y-51681009D02*
X61059523Y-51776247D01*
X61059523Y-51776247D02*
X61059523Y-52014342D01*
X61059523Y-52014342D02*
X61011904Y-52109580D01*
X61011904Y-52109580D02*
X60964285Y-52157200D01*
X60964285Y-52157200D02*
X60869047Y-52204819D01*
X60869047Y-52204819D02*
X60583333Y-52204819D01*
X60583333Y-52204819D02*
X60488095Y-52157200D01*
X60488095Y-52157200D02*
X60440476Y-52109580D01*
D13*
X90184383Y-56411519D02*
X90165635Y-56430267D01*
X90165635Y-56430267D02*
X90109392Y-56449014D01*
X90109392Y-56449014D02*
X90071897Y-56449014D01*
X90071897Y-56449014D02*
X90015654Y-56430267D01*
X90015654Y-56430267D02*
X89978159Y-56392771D01*
X89978159Y-56392771D02*
X89959411Y-56355276D01*
X89959411Y-56355276D02*
X89940663Y-56280285D01*
X89940663Y-56280285D02*
X89940663Y-56224042D01*
X89940663Y-56224042D02*
X89959411Y-56149052D01*
X89959411Y-56149052D02*
X89978159Y-56111556D01*
X89978159Y-56111556D02*
X90015654Y-56074061D01*
X90015654Y-56074061D02*
X90071897Y-56055313D01*
X90071897Y-56055313D02*
X90109392Y-56055313D01*
X90109392Y-56055313D02*
X90165635Y-56074061D01*
X90165635Y-56074061D02*
X90184383Y-56092809D01*
X90371860Y-56449014D02*
X90446850Y-56449014D01*
X90446850Y-56449014D02*
X90484346Y-56430267D01*
X90484346Y-56430267D02*
X90503093Y-56411519D01*
X90503093Y-56411519D02*
X90540589Y-56355276D01*
X90540589Y-56355276D02*
X90559336Y-56280285D01*
X90559336Y-56280285D02*
X90559336Y-56130304D01*
X90559336Y-56130304D02*
X90540589Y-56092809D01*
X90540589Y-56092809D02*
X90521841Y-56074061D01*
X90521841Y-56074061D02*
X90484346Y-56055313D01*
X90484346Y-56055313D02*
X90409355Y-56055313D01*
X90409355Y-56055313D02*
X90371860Y-56074061D01*
X90371860Y-56074061D02*
X90353112Y-56092809D01*
X90353112Y-56092809D02*
X90334364Y-56130304D01*
X90334364Y-56130304D02*
X90334364Y-56224042D01*
X90334364Y-56224042D02*
X90353112Y-56261538D01*
X90353112Y-56261538D02*
X90371860Y-56280285D01*
X90371860Y-56280285D02*
X90409355Y-56299033D01*
X90409355Y-56299033D02*
X90484346Y-56299033D01*
X90484346Y-56299033D02*
X90521841Y-56280285D01*
X90521841Y-56280285D02*
X90540589Y-56261538D01*
X90540589Y-56261538D02*
X90559336Y-56224042D01*
D10*
X70461905Y-26704819D02*
X70461905Y-25704819D01*
X70461905Y-25704819D02*
X70700000Y-25704819D01*
X70700000Y-25704819D02*
X70842857Y-25752438D01*
X70842857Y-25752438D02*
X70938095Y-25847676D01*
X70938095Y-25847676D02*
X70985714Y-25942914D01*
X70985714Y-25942914D02*
X71033333Y-26133390D01*
X71033333Y-26133390D02*
X71033333Y-26276247D01*
X71033333Y-26276247D02*
X70985714Y-26466723D01*
X70985714Y-26466723D02*
X70938095Y-26561961D01*
X70938095Y-26561961D02*
X70842857Y-26657200D01*
X70842857Y-26657200D02*
X70700000Y-26704819D01*
X70700000Y-26704819D02*
X70461905Y-26704819D01*
X71985714Y-26704819D02*
X71414286Y-26704819D01*
X71700000Y-26704819D02*
X71700000Y-25704819D01*
X71700000Y-25704819D02*
X71604762Y-25847676D01*
X71604762Y-25847676D02*
X71509524Y-25942914D01*
X71509524Y-25942914D02*
X71414286Y-25990533D01*
X59718095Y-24818819D02*
X59718095Y-23818819D01*
X59718095Y-24295009D02*
X60289523Y-24295009D01*
X60289523Y-24818819D02*
X60289523Y-23818819D01*
X61289523Y-24818819D02*
X60718095Y-24818819D01*
X61003809Y-24818819D02*
X61003809Y-23818819D01*
X61003809Y-23818819D02*
X60908571Y-23961676D01*
X60908571Y-23961676D02*
X60813333Y-24056914D01*
X60813333Y-24056914D02*
X60718095Y-24104533D01*
D13*
X85932907Y-51585519D02*
X85914159Y-51604267D01*
X85914159Y-51604267D02*
X85857916Y-51623014D01*
X85857916Y-51623014D02*
X85820421Y-51623014D01*
X85820421Y-51623014D02*
X85764178Y-51604267D01*
X85764178Y-51604267D02*
X85726683Y-51566771D01*
X85726683Y-51566771D02*
X85707935Y-51529276D01*
X85707935Y-51529276D02*
X85689187Y-51454285D01*
X85689187Y-51454285D02*
X85689187Y-51398042D01*
X85689187Y-51398042D02*
X85707935Y-51323052D01*
X85707935Y-51323052D02*
X85726683Y-51285556D01*
X85726683Y-51285556D02*
X85764178Y-51248061D01*
X85764178Y-51248061D02*
X85820421Y-51229313D01*
X85820421Y-51229313D02*
X85857916Y-51229313D01*
X85857916Y-51229313D02*
X85914159Y-51248061D01*
X85914159Y-51248061D02*
X85932907Y-51266809D01*
X86307860Y-51623014D02*
X86082888Y-51623014D01*
X86195374Y-51623014D02*
X86195374Y-51229313D01*
X86195374Y-51229313D02*
X86157879Y-51285556D01*
X86157879Y-51285556D02*
X86120384Y-51323052D01*
X86120384Y-51323052D02*
X86082888Y-51341799D01*
X86439094Y-51229313D02*
X86682813Y-51229313D01*
X86682813Y-51229313D02*
X86551580Y-51379295D01*
X86551580Y-51379295D02*
X86607823Y-51379295D01*
X86607823Y-51379295D02*
X86645318Y-51398042D01*
X86645318Y-51398042D02*
X86664066Y-51416790D01*
X86664066Y-51416790D02*
X86682813Y-51454285D01*
X86682813Y-51454285D02*
X86682813Y-51548024D01*
X86682813Y-51548024D02*
X86664066Y-51585519D01*
X86664066Y-51585519D02*
X86645318Y-51604267D01*
X86645318Y-51604267D02*
X86607823Y-51623014D01*
X86607823Y-51623014D02*
X86495337Y-51623014D01*
X86495337Y-51623014D02*
X86457841Y-51604267D01*
X86457841Y-51604267D02*
X86439094Y-51585519D01*
D10*
X65259580Y-30166666D02*
X65307200Y-30214285D01*
X65307200Y-30214285D02*
X65354819Y-30357142D01*
X65354819Y-30357142D02*
X65354819Y-30452380D01*
X65354819Y-30452380D02*
X65307200Y-30595237D01*
X65307200Y-30595237D02*
X65211961Y-30690475D01*
X65211961Y-30690475D02*
X65116723Y-30738094D01*
X65116723Y-30738094D02*
X64926247Y-30785713D01*
X64926247Y-30785713D02*
X64783390Y-30785713D01*
X64783390Y-30785713D02*
X64592914Y-30738094D01*
X64592914Y-30738094D02*
X64497676Y-30690475D01*
X64497676Y-30690475D02*
X64402438Y-30595237D01*
X64402438Y-30595237D02*
X64354819Y-30452380D01*
X64354819Y-30452380D02*
X64354819Y-30357142D01*
X64354819Y-30357142D02*
X64402438Y-30214285D01*
X64402438Y-30214285D02*
X64450057Y-30166666D01*
X64354819Y-29261904D02*
X64354819Y-29738094D01*
X64354819Y-29738094D02*
X64831009Y-29785713D01*
X64831009Y-29785713D02*
X64783390Y-29738094D01*
X64783390Y-29738094D02*
X64735771Y-29642856D01*
X64735771Y-29642856D02*
X64735771Y-29404761D01*
X64735771Y-29404761D02*
X64783390Y-29309523D01*
X64783390Y-29309523D02*
X64831009Y-29261904D01*
X64831009Y-29261904D02*
X64926247Y-29214285D01*
X64926247Y-29214285D02*
X65164342Y-29214285D01*
X65164342Y-29214285D02*
X65259580Y-29261904D01*
X65259580Y-29261904D02*
X65307200Y-29309523D01*
X65307200Y-29309523D02*
X65354819Y-29404761D01*
X65354819Y-29404761D02*
X65354819Y-29642856D01*
X65354819Y-29642856D02*
X65307200Y-29738094D01*
X65307200Y-29738094D02*
X65259580Y-29785713D01*
D13*
X93996907Y-51585519D02*
X93978159Y-51604267D01*
X93978159Y-51604267D02*
X93921916Y-51623014D01*
X93921916Y-51623014D02*
X93884421Y-51623014D01*
X93884421Y-51623014D02*
X93828178Y-51604267D01*
X93828178Y-51604267D02*
X93790683Y-51566771D01*
X93790683Y-51566771D02*
X93771935Y-51529276D01*
X93771935Y-51529276D02*
X93753187Y-51454285D01*
X93753187Y-51454285D02*
X93753187Y-51398042D01*
X93753187Y-51398042D02*
X93771935Y-51323052D01*
X93771935Y-51323052D02*
X93790683Y-51285556D01*
X93790683Y-51285556D02*
X93828178Y-51248061D01*
X93828178Y-51248061D02*
X93884421Y-51229313D01*
X93884421Y-51229313D02*
X93921916Y-51229313D01*
X93921916Y-51229313D02*
X93978159Y-51248061D01*
X93978159Y-51248061D02*
X93996907Y-51266809D01*
X94371860Y-51623014D02*
X94146888Y-51623014D01*
X94259374Y-51623014D02*
X94259374Y-51229313D01*
X94259374Y-51229313D02*
X94221879Y-51285556D01*
X94221879Y-51285556D02*
X94184384Y-51323052D01*
X94184384Y-51323052D02*
X94146888Y-51341799D01*
X94746813Y-51623014D02*
X94521841Y-51623014D01*
X94634327Y-51623014D02*
X94634327Y-51229313D01*
X94634327Y-51229313D02*
X94596832Y-51285556D01*
X94596832Y-51285556D02*
X94559337Y-51323052D01*
X94559337Y-51323052D02*
X94521841Y-51341799D01*
X93996907Y-56411519D02*
X93978159Y-56430267D01*
X93978159Y-56430267D02*
X93921916Y-56449014D01*
X93921916Y-56449014D02*
X93884421Y-56449014D01*
X93884421Y-56449014D02*
X93828178Y-56430267D01*
X93828178Y-56430267D02*
X93790683Y-56392771D01*
X93790683Y-56392771D02*
X93771935Y-56355276D01*
X93771935Y-56355276D02*
X93753187Y-56280285D01*
X93753187Y-56280285D02*
X93753187Y-56224042D01*
X93753187Y-56224042D02*
X93771935Y-56149052D01*
X93771935Y-56149052D02*
X93790683Y-56111556D01*
X93790683Y-56111556D02*
X93828178Y-56074061D01*
X93828178Y-56074061D02*
X93884421Y-56055313D01*
X93884421Y-56055313D02*
X93921916Y-56055313D01*
X93921916Y-56055313D02*
X93978159Y-56074061D01*
X93978159Y-56074061D02*
X93996907Y-56092809D01*
X94371860Y-56449014D02*
X94146888Y-56449014D01*
X94259374Y-56449014D02*
X94259374Y-56055313D01*
X94259374Y-56055313D02*
X94221879Y-56111556D01*
X94221879Y-56111556D02*
X94184384Y-56149052D01*
X94184384Y-56149052D02*
X94146888Y-56167799D01*
X94615580Y-56055313D02*
X94653075Y-56055313D01*
X94653075Y-56055313D02*
X94690570Y-56074061D01*
X94690570Y-56074061D02*
X94709318Y-56092809D01*
X94709318Y-56092809D02*
X94728066Y-56130304D01*
X94728066Y-56130304D02*
X94746813Y-56205295D01*
X94746813Y-56205295D02*
X94746813Y-56299033D01*
X94746813Y-56299033D02*
X94728066Y-56374024D01*
X94728066Y-56374024D02*
X94709318Y-56411519D01*
X94709318Y-56411519D02*
X94690570Y-56430267D01*
X94690570Y-56430267D02*
X94653075Y-56449014D01*
X94653075Y-56449014D02*
X94615580Y-56449014D01*
X94615580Y-56449014D02*
X94578084Y-56430267D01*
X94578084Y-56430267D02*
X94559337Y-56411519D01*
X94559337Y-56411519D02*
X94540589Y-56374024D01*
X94540589Y-56374024D02*
X94521841Y-56299033D01*
X94521841Y-56299033D02*
X94521841Y-56205295D01*
X94521841Y-56205295D02*
X94540589Y-56130304D01*
X94540589Y-56130304D02*
X94559337Y-56092809D01*
X94559337Y-56092809D02*
X94578084Y-56074061D01*
X94578084Y-56074061D02*
X94615580Y-56055313D01*
D10*
X100488095Y-52454819D02*
X100488095Y-51454819D01*
X100488095Y-51931009D02*
X101059523Y-51931009D01*
X101059523Y-52454819D02*
X101059523Y-51454819D01*
X101964285Y-51788152D02*
X101964285Y-52454819D01*
X101726190Y-51407200D02*
X101488095Y-52121485D01*
X101488095Y-52121485D02*
X102107142Y-52121485D01*
X100946095Y-24818819D02*
X100946095Y-23818819D01*
X100946095Y-24295009D02*
X101517523Y-24295009D01*
X101517523Y-24818819D02*
X101517523Y-23818819D01*
X101946095Y-23914057D02*
X101993714Y-23866438D01*
X101993714Y-23866438D02*
X102088952Y-23818819D01*
X102088952Y-23818819D02*
X102327047Y-23818819D01*
X102327047Y-23818819D02*
X102422285Y-23866438D01*
X102422285Y-23866438D02*
X102469904Y-23914057D01*
X102469904Y-23914057D02*
X102517523Y-24009295D01*
X102517523Y-24009295D02*
X102517523Y-24104533D01*
X102517523Y-24104533D02*
X102469904Y-24247390D01*
X102469904Y-24247390D02*
X101898476Y-24818819D01*
X101898476Y-24818819D02*
X102517523Y-24818819D01*
D13*
X86120383Y-56411519D02*
X86101635Y-56430267D01*
X86101635Y-56430267D02*
X86045392Y-56449014D01*
X86045392Y-56449014D02*
X86007897Y-56449014D01*
X86007897Y-56449014D02*
X85951654Y-56430267D01*
X85951654Y-56430267D02*
X85914159Y-56392771D01*
X85914159Y-56392771D02*
X85895411Y-56355276D01*
X85895411Y-56355276D02*
X85876663Y-56280285D01*
X85876663Y-56280285D02*
X85876663Y-56224042D01*
X85876663Y-56224042D02*
X85895411Y-56149052D01*
X85895411Y-56149052D02*
X85914159Y-56111556D01*
X85914159Y-56111556D02*
X85951654Y-56074061D01*
X85951654Y-56074061D02*
X86007897Y-56055313D01*
X86007897Y-56055313D02*
X86045392Y-56055313D01*
X86045392Y-56055313D02*
X86101635Y-56074061D01*
X86101635Y-56074061D02*
X86120383Y-56092809D01*
X86345355Y-56224042D02*
X86307860Y-56205295D01*
X86307860Y-56205295D02*
X86289112Y-56186547D01*
X86289112Y-56186547D02*
X86270364Y-56149052D01*
X86270364Y-56149052D02*
X86270364Y-56130304D01*
X86270364Y-56130304D02*
X86289112Y-56092809D01*
X86289112Y-56092809D02*
X86307860Y-56074061D01*
X86307860Y-56074061D02*
X86345355Y-56055313D01*
X86345355Y-56055313D02*
X86420346Y-56055313D01*
X86420346Y-56055313D02*
X86457841Y-56074061D01*
X86457841Y-56074061D02*
X86476589Y-56092809D01*
X86476589Y-56092809D02*
X86495336Y-56130304D01*
X86495336Y-56130304D02*
X86495336Y-56149052D01*
X86495336Y-56149052D02*
X86476589Y-56186547D01*
X86476589Y-56186547D02*
X86457841Y-56205295D01*
X86457841Y-56205295D02*
X86420346Y-56224042D01*
X86420346Y-56224042D02*
X86345355Y-56224042D01*
X86345355Y-56224042D02*
X86307860Y-56242790D01*
X86307860Y-56242790D02*
X86289112Y-56261538D01*
X86289112Y-56261538D02*
X86270364Y-56299033D01*
X86270364Y-56299033D02*
X86270364Y-56374024D01*
X86270364Y-56374024D02*
X86289112Y-56411519D01*
X86289112Y-56411519D02*
X86307860Y-56430267D01*
X86307860Y-56430267D02*
X86345355Y-56449014D01*
X86345355Y-56449014D02*
X86420346Y-56449014D01*
X86420346Y-56449014D02*
X86457841Y-56430267D01*
X86457841Y-56430267D02*
X86476589Y-56411519D01*
X86476589Y-56411519D02*
X86495336Y-56374024D01*
X86495336Y-56374024D02*
X86495336Y-56299033D01*
X86495336Y-56299033D02*
X86476589Y-56261538D01*
X86476589Y-56261538D02*
X86457841Y-56242790D01*
X86457841Y-56242790D02*
X86420346Y-56224042D01*
D12*
X74173000Y-27374660D02*
X74136714Y-27410946D01*
X74136714Y-27410946D02*
X74027857Y-27447231D01*
X74027857Y-27447231D02*
X73955285Y-27447231D01*
X73955285Y-27447231D02*
X73846428Y-27410946D01*
X73846428Y-27410946D02*
X73773857Y-27338374D01*
X73773857Y-27338374D02*
X73737571Y-27265803D01*
X73737571Y-27265803D02*
X73701285Y-27120660D01*
X73701285Y-27120660D02*
X73701285Y-27011803D01*
X73701285Y-27011803D02*
X73737571Y-26866660D01*
X73737571Y-26866660D02*
X73773857Y-26794088D01*
X73773857Y-26794088D02*
X73846428Y-26721517D01*
X73846428Y-26721517D02*
X73955285Y-26685231D01*
X73955285Y-26685231D02*
X74027857Y-26685231D01*
X74027857Y-26685231D02*
X74136714Y-26721517D01*
X74136714Y-26721517D02*
X74173000Y-26757803D01*
X74898714Y-27447231D02*
X74463285Y-27447231D01*
X74681000Y-27447231D02*
X74681000Y-26685231D01*
X74681000Y-26685231D02*
X74608428Y-26794088D01*
X74608428Y-26794088D02*
X74535857Y-26866660D01*
X74535857Y-26866660D02*
X74463285Y-26902946D01*
X82473000Y-27440660D02*
X82436714Y-27476946D01*
X82436714Y-27476946D02*
X82327857Y-27513231D01*
X82327857Y-27513231D02*
X82255285Y-27513231D01*
X82255285Y-27513231D02*
X82146428Y-27476946D01*
X82146428Y-27476946D02*
X82073857Y-27404374D01*
X82073857Y-27404374D02*
X82037571Y-27331803D01*
X82037571Y-27331803D02*
X82001285Y-27186660D01*
X82001285Y-27186660D02*
X82001285Y-27077803D01*
X82001285Y-27077803D02*
X82037571Y-26932660D01*
X82037571Y-26932660D02*
X82073857Y-26860088D01*
X82073857Y-26860088D02*
X82146428Y-26787517D01*
X82146428Y-26787517D02*
X82255285Y-26751231D01*
X82255285Y-26751231D02*
X82327857Y-26751231D01*
X82327857Y-26751231D02*
X82436714Y-26787517D01*
X82436714Y-26787517D02*
X82473000Y-26823803D01*
X83126143Y-27005231D02*
X83126143Y-27513231D01*
X82944714Y-26714946D02*
X82763285Y-27259231D01*
X82763285Y-27259231D02*
X83235000Y-27259231D01*
X76473000Y-27474660D02*
X76436714Y-27510946D01*
X76436714Y-27510946D02*
X76327857Y-27547231D01*
X76327857Y-27547231D02*
X76255285Y-27547231D01*
X76255285Y-27547231D02*
X76146428Y-27510946D01*
X76146428Y-27510946D02*
X76073857Y-27438374D01*
X76073857Y-27438374D02*
X76037571Y-27365803D01*
X76037571Y-27365803D02*
X76001285Y-27220660D01*
X76001285Y-27220660D02*
X76001285Y-27111803D01*
X76001285Y-27111803D02*
X76037571Y-26966660D01*
X76037571Y-26966660D02*
X76073857Y-26894088D01*
X76073857Y-26894088D02*
X76146428Y-26821517D01*
X76146428Y-26821517D02*
X76255285Y-26785231D01*
X76255285Y-26785231D02*
X76327857Y-26785231D01*
X76327857Y-26785231D02*
X76436714Y-26821517D01*
X76436714Y-26821517D02*
X76473000Y-26857803D01*
X76763285Y-26857803D02*
X76799571Y-26821517D01*
X76799571Y-26821517D02*
X76872143Y-26785231D01*
X76872143Y-26785231D02*
X77053571Y-26785231D01*
X77053571Y-26785231D02*
X77126143Y-26821517D01*
X77126143Y-26821517D02*
X77162428Y-26857803D01*
X77162428Y-26857803D02*
X77198714Y-26930374D01*
X77198714Y-26930374D02*
X77198714Y-27002946D01*
X77198714Y-27002946D02*
X77162428Y-27111803D01*
X77162428Y-27111803D02*
X76727000Y-27547231D01*
X76727000Y-27547231D02*
X77198714Y-27547231D01*
D13*
X82184383Y-56411519D02*
X82165635Y-56430267D01*
X82165635Y-56430267D02*
X82109392Y-56449014D01*
X82109392Y-56449014D02*
X82071897Y-56449014D01*
X82071897Y-56449014D02*
X82015654Y-56430267D01*
X82015654Y-56430267D02*
X81978159Y-56392771D01*
X81978159Y-56392771D02*
X81959411Y-56355276D01*
X81959411Y-56355276D02*
X81940663Y-56280285D01*
X81940663Y-56280285D02*
X81940663Y-56224042D01*
X81940663Y-56224042D02*
X81959411Y-56149052D01*
X81959411Y-56149052D02*
X81978159Y-56111556D01*
X81978159Y-56111556D02*
X82015654Y-56074061D01*
X82015654Y-56074061D02*
X82071897Y-56055313D01*
X82071897Y-56055313D02*
X82109392Y-56055313D01*
X82109392Y-56055313D02*
X82165635Y-56074061D01*
X82165635Y-56074061D02*
X82184383Y-56092809D01*
X82315617Y-56055313D02*
X82578084Y-56055313D01*
X82578084Y-56055313D02*
X82409355Y-56449014D01*
D12*
X92029143Y-38647231D02*
X92029143Y-37885231D01*
X92029143Y-37885231D02*
X92210572Y-37885231D01*
X92210572Y-37885231D02*
X92319429Y-37921517D01*
X92319429Y-37921517D02*
X92392000Y-37994088D01*
X92392000Y-37994088D02*
X92428286Y-38066660D01*
X92428286Y-38066660D02*
X92464572Y-38211803D01*
X92464572Y-38211803D02*
X92464572Y-38320660D01*
X92464572Y-38320660D02*
X92428286Y-38465803D01*
X92428286Y-38465803D02*
X92392000Y-38538374D01*
X92392000Y-38538374D02*
X92319429Y-38610946D01*
X92319429Y-38610946D02*
X92210572Y-38647231D01*
X92210572Y-38647231D02*
X92029143Y-38647231D01*
X93154000Y-38647231D02*
X92791143Y-38647231D01*
X92791143Y-38647231D02*
X92791143Y-37885231D01*
X93371714Y-37957803D02*
X93408000Y-37921517D01*
X93408000Y-37921517D02*
X93480572Y-37885231D01*
X93480572Y-37885231D02*
X93662000Y-37885231D01*
X93662000Y-37885231D02*
X93734572Y-37921517D01*
X93734572Y-37921517D02*
X93770857Y-37957803D01*
X93770857Y-37957803D02*
X93807143Y-38030374D01*
X93807143Y-38030374D02*
X93807143Y-38102946D01*
X93807143Y-38102946D02*
X93770857Y-38211803D01*
X93770857Y-38211803D02*
X93335429Y-38647231D01*
X93335429Y-38647231D02*
X93807143Y-38647231D01*
D10*
X59929580Y-30994666D02*
X59977200Y-31042285D01*
X59977200Y-31042285D02*
X60024819Y-31185142D01*
X60024819Y-31185142D02*
X60024819Y-31280380D01*
X60024819Y-31280380D02*
X59977200Y-31423237D01*
X59977200Y-31423237D02*
X59881961Y-31518475D01*
X59881961Y-31518475D02*
X59786723Y-31566094D01*
X59786723Y-31566094D02*
X59596247Y-31613713D01*
X59596247Y-31613713D02*
X59453390Y-31613713D01*
X59453390Y-31613713D02*
X59262914Y-31566094D01*
X59262914Y-31566094D02*
X59167676Y-31518475D01*
X59167676Y-31518475D02*
X59072438Y-31423237D01*
X59072438Y-31423237D02*
X59024819Y-31280380D01*
X59024819Y-31280380D02*
X59024819Y-31185142D01*
X59024819Y-31185142D02*
X59072438Y-31042285D01*
X59072438Y-31042285D02*
X59120057Y-30994666D01*
X59024819Y-30137523D02*
X59024819Y-30327999D01*
X59024819Y-30327999D02*
X59072438Y-30423237D01*
X59072438Y-30423237D02*
X59120057Y-30470856D01*
X59120057Y-30470856D02*
X59262914Y-30566094D01*
X59262914Y-30566094D02*
X59453390Y-30613713D01*
X59453390Y-30613713D02*
X59834342Y-30613713D01*
X59834342Y-30613713D02*
X59929580Y-30566094D01*
X59929580Y-30566094D02*
X59977200Y-30518475D01*
X59977200Y-30518475D02*
X60024819Y-30423237D01*
X60024819Y-30423237D02*
X60024819Y-30232761D01*
X60024819Y-30232761D02*
X59977200Y-30137523D01*
X59977200Y-30137523D02*
X59929580Y-30089904D01*
X59929580Y-30089904D02*
X59834342Y-30042285D01*
X59834342Y-30042285D02*
X59596247Y-30042285D01*
X59596247Y-30042285D02*
X59501009Y-30089904D01*
X59501009Y-30089904D02*
X59453390Y-30137523D01*
X59453390Y-30137523D02*
X59405771Y-30232761D01*
X59405771Y-30232761D02*
X59405771Y-30423237D01*
X59405771Y-30423237D02*
X59453390Y-30518475D01*
X59453390Y-30518475D02*
X59501009Y-30566094D01*
X59501009Y-30566094D02*
X59596247Y-30613713D01*
D12*
X78047231Y-44161571D02*
X77285231Y-44161571D01*
X77285231Y-44161571D02*
X77285231Y-43980142D01*
X77285231Y-43980142D02*
X77321517Y-43871285D01*
X77321517Y-43871285D02*
X77394088Y-43798714D01*
X77394088Y-43798714D02*
X77466660Y-43762428D01*
X77466660Y-43762428D02*
X77611803Y-43726142D01*
X77611803Y-43726142D02*
X77720660Y-43726142D01*
X77720660Y-43726142D02*
X77865803Y-43762428D01*
X77865803Y-43762428D02*
X77938374Y-43798714D01*
X77938374Y-43798714D02*
X78010946Y-43871285D01*
X78010946Y-43871285D02*
X78047231Y-43980142D01*
X78047231Y-43980142D02*
X78047231Y-44161571D01*
X78047231Y-43399571D02*
X77285231Y-43399571D01*
X77648088Y-43399571D02*
X77648088Y-42964142D01*
X78047231Y-42964142D02*
X77285231Y-42964142D01*
X78047231Y-42202142D02*
X78047231Y-42637571D01*
X78047231Y-42419856D02*
X77285231Y-42419856D01*
X77285231Y-42419856D02*
X77394088Y-42492428D01*
X77394088Y-42492428D02*
X77466660Y-42564999D01*
X77466660Y-42564999D02*
X77502946Y-42637571D01*
X89747231Y-44270856D02*
X88985231Y-44270856D01*
X88985231Y-44270856D02*
X88985231Y-44089427D01*
X88985231Y-44089427D02*
X89021517Y-43980570D01*
X89021517Y-43980570D02*
X89094088Y-43907999D01*
X89094088Y-43907999D02*
X89166660Y-43871713D01*
X89166660Y-43871713D02*
X89311803Y-43835427D01*
X89311803Y-43835427D02*
X89420660Y-43835427D01*
X89420660Y-43835427D02*
X89565803Y-43871713D01*
X89565803Y-43871713D02*
X89638374Y-43907999D01*
X89638374Y-43907999D02*
X89710946Y-43980570D01*
X89710946Y-43980570D02*
X89747231Y-44089427D01*
X89747231Y-44089427D02*
X89747231Y-44270856D01*
X89747231Y-43145999D02*
X89747231Y-43508856D01*
X89747231Y-43508856D02*
X88985231Y-43508856D01*
X89747231Y-42492856D02*
X89747231Y-42928285D01*
X89747231Y-42710570D02*
X88985231Y-42710570D01*
X88985231Y-42710570D02*
X89094088Y-42783142D01*
X89094088Y-42783142D02*
X89166660Y-42855713D01*
X89166660Y-42855713D02*
X89202946Y-42928285D01*
D11*
X85219250Y-24525000D02*
G75*
G03*
X85219250Y-24525000I-100000J0D01*
G01*
D14*
X86389250Y-16415000D02*
X77449250Y-16415000D01*
X86389250Y-16415000D02*
X86389250Y-17305000D01*
X86389250Y-21375000D02*
X86389250Y-19745000D01*
X77449250Y-16415000D02*
X77449250Y-17305000D01*
X77449250Y-21375000D02*
X77449250Y-19745000D01*
X69250000Y-34972000D02*
X57750000Y-34972000D01*
X69250000Y-52472000D02*
X69250000Y-34972000D01*
X69250000Y-52472000D02*
X57750000Y-52472000D01*
X57750000Y-52472000D02*
X57750000Y-34972000D01*
D11*
X66226000Y-31951000D02*
G75*
G03*
X66226000Y-31951000I-100000J0D01*
G01*
D15*
X80182000Y-32882000D02*
X83982000Y-32882000D01*
X80182000Y-37402000D02*
X85582000Y-37402000D01*
D14*
X88660000Y-51902000D02*
X88660000Y-50602000D01*
X91840000Y-51902000D02*
X91840000Y-50602000D01*
X80660000Y-51902000D02*
X80660000Y-50602000D01*
X83840000Y-51902000D02*
X83840000Y-50602000D01*
D15*
X78318000Y-30697252D02*
X78318000Y-29274748D01*
X81038000Y-30697252D02*
X81038000Y-29274748D01*
D14*
X88660000Y-56900000D02*
X88660000Y-55600000D01*
X91840000Y-56900000D02*
X91840000Y-55600000D01*
D15*
X72950000Y-27240000D02*
X69650000Y-27240000D01*
X72950000Y-27240000D02*
X72950000Y-32750000D01*
X69650000Y-27240000D02*
X69650000Y-32750000D01*
D14*
X84660000Y-51902000D02*
X84660000Y-50602000D01*
X87840000Y-51902000D02*
X87840000Y-50602000D01*
D15*
X65840000Y-30711252D02*
X65840000Y-29288748D01*
X68560000Y-30711252D02*
X68560000Y-29288748D01*
D14*
X92660000Y-51902000D02*
X92660000Y-50602000D01*
X95840000Y-51902000D02*
X95840000Y-50602000D01*
X92660000Y-56900000D02*
X92660000Y-55600000D01*
X95840000Y-56900000D02*
X95840000Y-55600000D01*
X84660000Y-56902000D02*
X84660000Y-55602000D01*
X87840000Y-56902000D02*
X87840000Y-55602000D01*
D15*
X73609000Y-30501252D02*
X73609000Y-29978748D01*
X75079000Y-30501252D02*
X75079000Y-29978748D01*
X81991000Y-30501252D02*
X81991000Y-29978748D01*
X83461000Y-30501252D02*
X83461000Y-29978748D01*
X75895000Y-30501252D02*
X75895000Y-29978748D01*
X77365000Y-30501252D02*
X77365000Y-29978748D01*
D14*
X80660000Y-56900000D02*
X80660000Y-55600000D01*
X83840000Y-56900000D02*
X83840000Y-55600000D01*
D15*
X91866000Y-32882000D02*
X95666000Y-32882000D01*
X91866000Y-37402000D02*
X97266000Y-37402000D01*
X60490000Y-30968580D02*
X60490000Y-30687420D01*
X61510000Y-30968580D02*
X61510000Y-30687420D01*
X80182000Y-41010000D02*
X83982000Y-41010000D01*
X80182000Y-45530000D02*
X85582000Y-45530000D01*
X91866000Y-41010000D02*
X95666000Y-41010000D01*
X91866000Y-45530000D02*
X97266000Y-45530000D01*
G36*
X102127937Y-44997718D02*
G01*
X102127937Y-45384303D01*
X101747041Y-45378614D01*
X101366146Y-45372925D01*
X101360457Y-44992030D01*
X101354769Y-44611134D01*
X101741353Y-44611134D01*
X102127937Y-44611134D01*
X102127937Y-44997718D01*
G37*
G36*
X99221651Y-41589634D02*
G01*
X99654724Y-41595276D01*
X99661142Y-41683977D01*
X99667560Y-41772679D01*
X99228069Y-41772679D01*
X98788578Y-41772679D01*
X98788578Y-41678336D01*
X98788578Y-41583993D01*
X99221651Y-41589634D01*
G37*
G36*
X102127937Y-41094372D02*
G01*
X102127937Y-41188291D01*
X101794001Y-41188291D01*
X101460065Y-41188291D01*
X101460065Y-41094372D01*
X101460065Y-41000452D01*
X101794001Y-41000452D01*
X102127937Y-41000452D01*
X102127937Y-41094372D01*
G37*
G36*
X100875677Y-39633826D02*
G01*
X100875677Y-39728168D01*
X100442604Y-39722527D01*
X100009531Y-39716886D01*
X100003113Y-39628184D01*
X99996696Y-39539483D01*
X100436187Y-39539483D01*
X100875677Y-39539483D01*
X100875677Y-39633826D01*
G37*
G36*
X100875677Y-36878854D02*
G01*
X100875677Y-36973197D01*
X100442604Y-36967556D01*
X100009531Y-36961915D01*
X100003113Y-36873213D01*
X99996696Y-36784511D01*
X100436187Y-36784511D01*
X100875677Y-36784511D01*
X100875677Y-36878854D01*
G37*
G36*
X99665160Y-35500945D02*
G01*
X99665160Y-35594865D01*
X99331224Y-35594865D01*
X98997288Y-35594865D01*
X98997288Y-35500945D01*
X98997288Y-35407026D01*
X99331224Y-35407026D01*
X99665160Y-35407026D01*
X99665160Y-35500945D01*
G37*
G36*
X100875677Y-34227815D02*
G01*
X100875677Y-34321734D01*
X100552177Y-34321734D01*
X100228677Y-34321734D01*
X100228677Y-34227815D01*
X100228677Y-34133895D01*
X100552177Y-34133895D01*
X100875677Y-34133895D01*
X100875677Y-34227815D01*
G37*
G36*
X100875677Y-32516393D02*
G01*
X100875677Y-32610312D01*
X100437387Y-32610312D01*
X99999096Y-32610312D01*
X99999096Y-32516393D01*
X99999096Y-32422474D01*
X100437387Y-32422474D01*
X100875677Y-32422474D01*
X100875677Y-32516393D01*
G37*
G36*
X98883995Y-38242185D02*
G01*
X98920415Y-38283508D01*
X98934675Y-38328965D01*
X98920559Y-38374891D01*
X98901878Y-38400523D01*
X98849159Y-38430601D01*
X98797763Y-38425396D01*
X98759719Y-38389857D01*
X98746836Y-38336717D01*
X98761970Y-38283804D01*
X98798438Y-38241119D01*
X98840755Y-38224610D01*
X98883995Y-38242185D01*
G37*
G36*
X101361555Y-41017970D02*
G01*
X101393634Y-41065130D01*
X101397452Y-41094372D01*
X101386150Y-41142267D01*
X101372407Y-41163246D01*
X101322527Y-41188858D01*
X101269528Y-41182202D01*
X101227272Y-41149143D01*
X101209620Y-41095544D01*
X101209613Y-41094372D01*
X101227131Y-41036350D01*
X101274291Y-41004270D01*
X101303533Y-41000452D01*
X101361555Y-41017970D01*
G37*
G36*
X98895883Y-35425584D02*
G01*
X98924493Y-35471620D01*
X98931386Y-35523276D01*
X98909493Y-35568543D01*
X98904517Y-35573040D01*
X98854447Y-35591332D01*
X98798919Y-35581704D01*
X98761547Y-35551135D01*
X98749893Y-35502143D01*
X98760770Y-35447112D01*
X98788959Y-35405864D01*
X98801774Y-35398419D01*
X98852621Y-35397180D01*
X98895883Y-35425584D01*
G37*
G36*
X100098003Y-34130987D02*
G01*
X100130635Y-34175016D01*
X100143624Y-34230319D01*
X100131422Y-34282105D01*
X100120147Y-34296689D01*
X100073305Y-34318970D01*
X100021664Y-34310255D01*
X99978666Y-34277092D01*
X99957755Y-34226030D01*
X99957354Y-34217379D01*
X99973171Y-34169335D01*
X100010362Y-34128869D01*
X100051273Y-34113024D01*
X100098003Y-34130987D01*
G37*
G36*
X99665160Y-38329620D02*
G01*
X99658745Y-38389025D01*
X99641910Y-38422005D01*
X99638111Y-38424138D01*
X99608419Y-38427462D01*
X99545251Y-38429524D01*
X99456855Y-38430211D01*
X99351481Y-38429408D01*
X99309393Y-38428701D01*
X99007723Y-38422884D01*
X99001306Y-38334183D01*
X98994888Y-38245481D01*
X99330024Y-38245481D01*
X99665160Y-38245481D01*
X99665160Y-38329620D01*
G37*
G36*
X101347908Y-38053926D02*
G01*
X101381515Y-38093674D01*
X101397381Y-38138438D01*
X101397452Y-38141126D01*
X101383337Y-38187052D01*
X101364655Y-38212684D01*
X101311882Y-38243756D01*
X101261838Y-38238508D01*
X101224443Y-38201737D01*
X101209614Y-38138241D01*
X101209613Y-38137686D01*
X101228024Y-38081184D01*
X101274308Y-38044128D01*
X101311105Y-38036771D01*
X101347908Y-38053926D01*
G37*
G36*
X102127937Y-38141781D02*
G01*
X102121523Y-38201186D01*
X102104688Y-38234166D01*
X102100889Y-38236300D01*
X102071197Y-38239623D01*
X102008028Y-38241685D01*
X101919632Y-38242372D01*
X101814258Y-38241569D01*
X101772170Y-38240862D01*
X101470501Y-38235045D01*
X101464083Y-38146344D01*
X101457665Y-38057642D01*
X101792801Y-38057642D01*
X102127937Y-38057642D01*
X102127937Y-38141781D01*
G37*
G36*
X100166064Y-37295851D02*
G01*
X100166064Y-37494125D01*
X100259983Y-37494125D01*
X100353903Y-37494125D01*
X100353903Y-37316722D01*
X100353903Y-37139318D01*
X100437387Y-37139318D01*
X100520871Y-37139318D01*
X100520871Y-37316722D01*
X100520871Y-37494125D01*
X100614790Y-37494125D01*
X100708709Y-37494125D01*
X100708709Y-37295851D01*
X100708709Y-37097576D01*
X100792193Y-37097576D01*
X100875677Y-37097576D01*
X100875677Y-37389770D01*
X100875677Y-37681964D01*
X100437387Y-37681964D01*
X99999096Y-37681964D01*
X99999096Y-37389770D01*
X99999096Y-37097576D01*
X100082580Y-37097576D01*
X100166064Y-37097576D01*
X100166064Y-37295851D01*
G37*
G36*
X99134302Y-36348693D02*
G01*
X99158099Y-36362092D01*
X99164124Y-36395389D01*
X99164256Y-36408833D01*
X99171673Y-36468219D01*
X99197610Y-36509752D01*
X99247597Y-36536199D01*
X99327166Y-36550324D01*
X99441845Y-36554893D01*
X99456450Y-36554930D01*
X99665160Y-36554930D01*
X99665160Y-36648850D01*
X99665160Y-36742769D01*
X99331224Y-36742769D01*
X98997288Y-36742769D01*
X98997288Y-36648850D01*
X98999960Y-36590256D01*
X99011209Y-36562536D01*
X99035883Y-36554989D01*
X99039843Y-36554930D01*
X99082398Y-36554930D01*
X99039843Y-36509253D01*
X99008129Y-36455555D01*
X98997288Y-36404898D01*
X99000981Y-36367228D01*
X99019997Y-36350481D01*
X99066240Y-36346289D01*
X99080772Y-36346220D01*
X99134302Y-36348693D01*
G37*
G36*
X100369583Y-34399151D02*
G01*
X100374683Y-34437064D01*
X100374774Y-34454621D01*
X100387181Y-34521138D01*
X100429766Y-34570671D01*
X100462608Y-34591703D01*
X100502859Y-34604711D01*
X100560902Y-34611486D01*
X100647119Y-34613824D01*
X100680218Y-34613928D01*
X100875677Y-34613928D01*
X100875677Y-34707847D01*
X100875677Y-34801767D01*
X100552177Y-34801767D01*
X100228677Y-34801767D01*
X100228677Y-34707847D01*
X100231482Y-34649026D01*
X100242941Y-34621230D01*
X100267624Y-34613943D01*
X100269470Y-34613928D01*
X100293573Y-34611093D01*
X100290903Y-34596995D01*
X100259579Y-34563245D01*
X100257687Y-34561351D01*
X100216707Y-34500434D01*
X100211676Y-34451779D01*
X100221942Y-34413270D01*
X100249543Y-34395106D01*
X100296507Y-34388305D01*
X100347638Y-34386384D01*
X100369583Y-34399151D01*
G37*
G36*
X102039235Y-42799316D02*
G01*
X102117502Y-42805793D01*
X102123282Y-43088728D01*
X102124388Y-43193492D01*
X102123380Y-43282927D01*
X102120495Y-43348926D01*
X102115971Y-43383379D01*
X102114586Y-43386140D01*
X102090219Y-43390521D01*
X102030593Y-43394370D01*
X101942189Y-43397472D01*
X101831488Y-43399614D01*
X101704971Y-43400582D01*
X101675732Y-43400617D01*
X101251355Y-43400617D01*
X101251355Y-43097987D01*
X101251355Y-42795358D01*
X101334839Y-42795358D01*
X101418323Y-42795358D01*
X101418323Y-42993632D01*
X101418323Y-43191907D01*
X101512243Y-43191907D01*
X101606162Y-43191907D01*
X101606162Y-43014503D01*
X101606162Y-42837100D01*
X101689646Y-42837100D01*
X101773130Y-42837100D01*
X101773130Y-43014503D01*
X101773130Y-43191907D01*
X101867050Y-43191907D01*
X101960969Y-43191907D01*
X101960969Y-42992372D01*
X101960969Y-42792838D01*
X102039235Y-42799316D01*
G37*
G36*
X101597044Y-38310442D02*
G01*
X101620878Y-38323993D01*
X101627107Y-38358503D01*
X101627353Y-38375925D01*
X101630308Y-38429199D01*
X101643072Y-38465887D01*
X101672376Y-38489568D01*
X101724954Y-38503821D01*
X101807537Y-38512226D01*
X101892313Y-38516804D01*
X102117502Y-38527239D01*
X102123929Y-38616132D01*
X102122284Y-38683680D01*
X102104508Y-38714779D01*
X102102098Y-38715868D01*
X102071952Y-38719359D01*
X102008372Y-38721561D01*
X101919647Y-38722348D01*
X101814070Y-38721594D01*
X101772170Y-38720895D01*
X101470501Y-38715078D01*
X101464083Y-38626377D01*
X101462397Y-38570532D01*
X101471540Y-38544764D01*
X101496617Y-38537802D01*
X101504245Y-38537675D01*
X101550825Y-38537675D01*
X101505445Y-38489370D01*
X101468535Y-38424625D01*
X101460065Y-38374579D01*
X101463037Y-38331981D01*
X101479951Y-38313047D01*
X101522807Y-38308220D01*
X101543549Y-38308094D01*
X101597044Y-38310442D01*
G37*
G36*
X102123919Y-42164010D02*
G01*
X102130337Y-42252712D01*
X101919055Y-42252712D01*
X101802003Y-42254701D01*
X101720481Y-42262264D01*
X101668400Y-42277796D01*
X101639669Y-42303689D01*
X101628199Y-42342338D01*
X101627033Y-42367502D01*
X101632121Y-42413600D01*
X101651449Y-42445678D01*
X101691116Y-42466143D01*
X101757219Y-42477401D01*
X101855857Y-42481861D01*
X101917855Y-42482293D01*
X102127937Y-42482293D01*
X102127937Y-42576212D01*
X102127937Y-42670132D01*
X101794001Y-42670132D01*
X101460065Y-42670132D01*
X101460065Y-42584694D01*
X101464630Y-42526305D01*
X101481714Y-42497164D01*
X101501476Y-42488427D01*
X101528570Y-42479166D01*
X101529807Y-42463825D01*
X101505184Y-42429670D01*
X101501476Y-42424953D01*
X101464180Y-42346321D01*
X101463023Y-42259167D01*
X101497243Y-42174488D01*
X101520938Y-42143468D01*
X101581810Y-42075308D01*
X101849656Y-42075308D01*
X102117502Y-42075308D01*
X102123919Y-42164010D01*
G37*
G36*
X99665160Y-38650807D02*
G01*
X99665160Y-38746385D01*
X99455078Y-38746385D01*
X99337358Y-38748618D01*
X99255334Y-38756715D01*
X99203129Y-38772767D01*
X99174867Y-38798868D01*
X99164673Y-38837111D01*
X99164256Y-38849983D01*
X99169542Y-38901179D01*
X99189492Y-38936614D01*
X99230242Y-38959020D01*
X99297929Y-38971125D01*
X99398691Y-38975660D01*
X99447505Y-38975966D01*
X99665160Y-38975966D01*
X99665160Y-39069885D01*
X99665160Y-39163805D01*
X99331224Y-39163805D01*
X98997288Y-39163805D01*
X98997288Y-39078367D01*
X99001852Y-39019978D01*
X99018937Y-38990837D01*
X99038698Y-38982100D01*
X99065793Y-38972839D01*
X99067029Y-38957498D01*
X99042407Y-38923343D01*
X99038698Y-38918626D01*
X99001406Y-38839997D01*
X99000246Y-38752839D01*
X99034457Y-38668152D01*
X99058137Y-38637141D01*
X99118986Y-38568981D01*
X99392073Y-38562105D01*
X99665160Y-38555229D01*
X99665160Y-38650807D01*
G37*
G36*
X102127937Y-37398547D02*
G01*
X102127937Y-37494125D01*
X101917855Y-37494125D01*
X101801066Y-37496133D01*
X101719796Y-37503762D01*
X101667949Y-37519419D01*
X101639426Y-37545511D01*
X101628128Y-37584445D01*
X101627033Y-37608916D01*
X101632121Y-37655014D01*
X101651449Y-37687092D01*
X101691116Y-37707556D01*
X101757219Y-37718815D01*
X101855857Y-37723274D01*
X101917855Y-37723706D01*
X102127937Y-37723706D01*
X102127937Y-37817626D01*
X102127937Y-37911545D01*
X101794001Y-37911545D01*
X101460065Y-37911545D01*
X101460065Y-37826107D01*
X101464630Y-37767718D01*
X101481714Y-37738578D01*
X101501476Y-37729840D01*
X101528570Y-37720579D01*
X101529807Y-37705239D01*
X101505184Y-37671084D01*
X101501476Y-37666366D01*
X101464184Y-37587737D01*
X101463023Y-37500579D01*
X101497235Y-37415893D01*
X101520914Y-37384882D01*
X101581764Y-37316722D01*
X101854850Y-37309845D01*
X102127937Y-37302969D01*
X102127937Y-37398547D01*
G37*
G36*
X100875677Y-41384907D02*
G01*
X100875677Y-41480485D01*
X100658023Y-41480485D01*
X100542126Y-41482998D01*
X100461816Y-41492118D01*
X100411152Y-41510216D01*
X100384195Y-41539662D01*
X100375003Y-41582828D01*
X100374774Y-41593532D01*
X100382566Y-41641350D01*
X100409615Y-41674689D01*
X100461429Y-41695771D01*
X100543518Y-41706822D01*
X100661389Y-41710065D01*
X100663393Y-41710066D01*
X100875677Y-41710066D01*
X100875677Y-41803985D01*
X100875677Y-41897905D01*
X100436187Y-41897905D01*
X99996696Y-41897905D01*
X100003113Y-41809203D01*
X100009531Y-41720501D01*
X100149161Y-41714359D01*
X100288790Y-41708216D01*
X100245711Y-41635203D01*
X100214565Y-41544848D01*
X100222209Y-41453312D01*
X100267371Y-41370750D01*
X100280622Y-41356381D01*
X100304667Y-41334467D01*
X100330689Y-41319291D01*
X100366783Y-41309350D01*
X100421041Y-41303141D01*
X100501559Y-41299162D01*
X100604769Y-41296205D01*
X100875677Y-41289329D01*
X100875677Y-41384907D01*
G37*
G36*
X100520871Y-44684183D02*
G01*
X100668726Y-44708877D01*
X100802834Y-44731141D01*
X100917767Y-44750085D01*
X101008095Y-44764819D01*
X101068392Y-44774452D01*
X101093228Y-44778093D01*
X101093443Y-44778102D01*
X101098191Y-44797568D01*
X101102028Y-44850349D01*
X101104521Y-44928020D01*
X101105258Y-45007683D01*
X101104641Y-45099941D01*
X101102967Y-45174498D01*
X101100503Y-45222930D01*
X101097976Y-45237264D01*
X101076249Y-45240119D01*
X101018514Y-45248180D01*
X100930076Y-45260694D01*
X100816241Y-45276908D01*
X100682315Y-45296066D01*
X100533604Y-45317415D01*
X100510435Y-45320748D01*
X100337144Y-45345483D01*
X100195844Y-45364779D01*
X100077235Y-45379312D01*
X99972015Y-45389754D01*
X99870885Y-45396781D01*
X99764544Y-45401068D01*
X99643691Y-45403288D01*
X99499025Y-45404117D01*
X99359377Y-45404232D01*
X98788578Y-45404232D01*
X98788578Y-44997248D01*
X98788578Y-44590263D01*
X99374346Y-44590263D01*
X99960113Y-44590263D01*
X100520871Y-44684183D01*
G37*
G36*
X101960969Y-40252931D02*
G01*
X102117502Y-40259532D01*
X102123919Y-40348234D01*
X102130337Y-40436935D01*
X101936080Y-40437243D01*
X101814698Y-40440879D01*
X101729041Y-40452760D01*
X101673540Y-40475018D01*
X101642628Y-40509784D01*
X101631185Y-40553979D01*
X101635319Y-40607360D01*
X101653262Y-40641431D01*
X101685549Y-40652026D01*
X101749799Y-40661376D01*
X101836233Y-40668309D01*
X101899562Y-40670960D01*
X102117502Y-40676952D01*
X102123919Y-40765654D01*
X102130337Y-40854355D01*
X101795201Y-40854355D01*
X101460065Y-40854355D01*
X101460065Y-40770871D01*
X101462745Y-40717193D01*
X101476230Y-40693196D01*
X101508691Y-40686904D01*
X101517460Y-40686724D01*
X101555014Y-40683776D01*
X101555880Y-40672710D01*
X101541741Y-40660635D01*
X101486025Y-40593989D01*
X101460854Y-40511127D01*
X101467110Y-40424829D01*
X101505674Y-40347875D01*
X101519127Y-40332920D01*
X101575361Y-40293080D01*
X101653787Y-40266788D01*
X101759817Y-40253064D01*
X101898863Y-40250929D01*
X101960969Y-40252931D01*
G37*
G36*
X99056296Y-37521633D02*
G01*
X99117249Y-37539930D01*
X99202327Y-37567464D01*
X99303943Y-37601813D01*
X99360987Y-37621629D01*
X99665160Y-37728262D01*
X99665160Y-37830994D01*
X99659936Y-37899988D01*
X99645501Y-37938342D01*
X99639071Y-37942907D01*
X99517742Y-37985478D01*
X99395946Y-38027990D01*
X99280128Y-38068216D01*
X99176734Y-38103932D01*
X99092208Y-38132912D01*
X99032996Y-38152932D01*
X99005544Y-38161766D01*
X99004465Y-38161997D01*
X98997245Y-38143972D01*
X98996000Y-38100063D01*
X98999597Y-38045518D01*
X99006905Y-37995586D01*
X99016792Y-37965515D01*
X99019232Y-37963060D01*
X99047697Y-37951859D01*
X99106595Y-37932668D01*
X99186119Y-37908594D01*
X99242202Y-37892375D01*
X99324126Y-37867528D01*
X99385964Y-37845724D01*
X99420233Y-37829796D01*
X99423750Y-37823623D01*
X99396434Y-37813328D01*
X99338460Y-37794919D01*
X99259415Y-37771367D01*
X99200780Y-37754566D01*
X98997288Y-37697137D01*
X98997288Y-37606067D01*
X99002077Y-37544005D01*
X99017658Y-37517138D01*
X99027051Y-37514996D01*
X99056296Y-37521633D01*
G37*
G36*
X100641740Y-39843127D02*
G01*
X100737075Y-39878149D01*
X100813231Y-39937895D01*
X100839153Y-39973790D01*
X100867602Y-40055230D01*
X100875630Y-40154400D01*
X100863467Y-40252754D01*
X100834780Y-40326349D01*
X100767334Y-40399668D01*
X100676622Y-40447043D01*
X100572872Y-40467444D01*
X100537098Y-40464891D01*
X100466312Y-40459840D01*
X100367168Y-40423201D01*
X100307425Y-40379506D01*
X100246220Y-40294746D01*
X100216092Y-40192792D01*
X100216740Y-40157489D01*
X100353903Y-40157489D01*
X100373031Y-40208259D01*
X100424584Y-40246794D01*
X100499812Y-40267720D01*
X100537098Y-40269967D01*
X100634061Y-40258260D01*
X100698035Y-40223752D01*
X100727610Y-40167367D01*
X100729580Y-40144094D01*
X100719410Y-40094618D01*
X100681783Y-40059222D01*
X100663571Y-40049065D01*
X100588193Y-40026260D01*
X100509204Y-40027890D01*
X100437058Y-40050295D01*
X100382210Y-40089814D01*
X100355115Y-40142788D01*
X100353903Y-40157489D01*
X100216740Y-40157489D01*
X100218064Y-40085417D01*
X100253155Y-39984390D01*
X100270737Y-39956455D01*
X100341724Y-39889495D01*
X100433958Y-39848492D01*
X100537332Y-39833139D01*
X100641740Y-39843127D01*
G37*
G36*
X100672052Y-38532711D02*
G01*
X100767643Y-38579330D01*
X100834100Y-38655054D01*
X100869727Y-38758244D01*
X100875599Y-38832332D01*
X100861810Y-38947197D01*
X100834780Y-39011477D01*
X100772568Y-39082626D01*
X100687363Y-39125458D01*
X100573777Y-39142427D01*
X100545864Y-39142934D01*
X100524204Y-39139996D01*
X100423806Y-39126377D01*
X100326504Y-39079120D01*
X100257420Y-39004780D01*
X100220015Y-38906975D01*
X100217766Y-38835505D01*
X100356951Y-38835505D01*
X100377501Y-38891911D01*
X100395645Y-38913353D01*
X100449079Y-38942345D01*
X100524204Y-38955108D01*
X100604027Y-38951096D01*
X100671555Y-38929762D01*
X100683195Y-38922605D01*
X100718870Y-38876534D01*
X100729199Y-38817313D01*
X100712724Y-38762854D01*
X100697581Y-38745810D01*
X100658187Y-38727874D01*
X100596137Y-38713605D01*
X100567138Y-38709895D01*
X100481012Y-38714101D01*
X100413846Y-38740503D01*
X100370779Y-38783003D01*
X100356951Y-38835505D01*
X100217766Y-38835505D01*
X100216613Y-38798858D01*
X100246430Y-38685813D01*
X100307121Y-38600101D01*
X100396485Y-38543588D01*
X100512324Y-38518140D01*
X100549023Y-38516836D01*
X100672052Y-38532711D01*
G37*
G36*
X100664936Y-40568879D02*
G01*
X100762905Y-40613911D01*
X100830773Y-40687552D01*
X100867824Y-40789115D01*
X100875044Y-40875226D01*
X100865859Y-40971303D01*
X100841258Y-41043568D01*
X100838598Y-41048068D01*
X100771701Y-41119286D01*
X100681780Y-41164812D01*
X100578821Y-41184507D01*
X100524369Y-41181283D01*
X100472806Y-41178231D01*
X100373721Y-41145844D01*
X100291548Y-41087206D01*
X100265447Y-41056083D01*
X100230937Y-40979137D01*
X100216991Y-40884896D01*
X100220029Y-40842460D01*
X100359692Y-40842460D01*
X100361944Y-40891626D01*
X100390640Y-40936842D01*
X100446806Y-40976583D01*
X100524369Y-40995053D01*
X100607725Y-40990305D01*
X100663571Y-40970902D01*
X100714535Y-40926345D01*
X100731978Y-40870138D01*
X100714675Y-40814042D01*
X100683195Y-40782490D01*
X100620713Y-40757228D01*
X100542155Y-40749409D01*
X100464515Y-40758488D01*
X100404785Y-40783917D01*
X100395645Y-40791742D01*
X100359692Y-40842460D01*
X100220029Y-40842460D01*
X100223798Y-40789808D01*
X100251548Y-40710320D01*
X100261273Y-40695491D01*
X100333015Y-40616097D01*
X100409429Y-40571080D01*
X100503274Y-40553864D01*
X100537588Y-40553143D01*
X100664936Y-40568879D01*
G37*
G36*
X100079698Y-38050878D02*
G01*
X100120589Y-38089394D01*
X100128358Y-38117163D01*
X100146662Y-38163509D01*
X100181717Y-38179102D01*
X100214798Y-38177454D01*
X100227302Y-38151995D01*
X100228677Y-38121707D01*
X100232608Y-38078685D01*
X100252860Y-38061039D01*
X100301725Y-38057642D01*
X100350804Y-38061132D01*
X100370933Y-38078837D01*
X100374774Y-38120255D01*
X100374774Y-38182868D01*
X100625225Y-38182868D01*
X100875677Y-38182868D01*
X100875677Y-38276787D01*
X100875677Y-38370707D01*
X100626677Y-38370707D01*
X100521398Y-38371038D01*
X100450696Y-38372907D01*
X100407408Y-38377631D01*
X100384371Y-38386525D01*
X100374420Y-38400905D01*
X100371007Y-38417667D01*
X100355017Y-38453080D01*
X100312870Y-38469153D01*
X100296507Y-38471166D01*
X100249875Y-38471811D01*
X100231509Y-38455382D01*
X100228677Y-38424207D01*
X100222943Y-38387213D01*
X100197356Y-38372725D01*
X100160272Y-38370707D01*
X100074391Y-38353036D01*
X100012087Y-38302269D01*
X99981980Y-38239000D01*
X99971846Y-38175726D01*
X99972937Y-38112441D01*
X99983668Y-38062109D01*
X100002452Y-38037696D01*
X100006682Y-38037056D01*
X100079698Y-38050878D01*
G37*
G36*
X99430721Y-40425868D02*
G01*
X99525851Y-40457120D01*
X99596298Y-40516546D01*
X99627023Y-40563448D01*
X99651286Y-40635228D01*
X99662977Y-40724682D01*
X99660397Y-40810703D01*
X99650420Y-40854355D01*
X99600104Y-40934338D01*
X99519074Y-40995510D01*
X99416025Y-41032822D01*
X99331224Y-41041679D01*
X99327043Y-41042116D01*
X99211512Y-41024658D01*
X99117902Y-40976995D01*
X99048822Y-40905931D01*
X99006882Y-40818268D01*
X98994691Y-40720808D01*
X98998254Y-40703063D01*
X99149134Y-40703063D01*
X99150053Y-40759100D01*
X99183363Y-40807298D01*
X99244544Y-40841200D01*
X99329074Y-40854348D01*
X99331224Y-40854355D01*
X99411324Y-40841722D01*
X99472814Y-40808663D01*
X99510983Y-40762439D01*
X99521118Y-40710312D01*
X99498506Y-40659543D01*
X99472677Y-40636393D01*
X99410195Y-40611131D01*
X99331637Y-40603312D01*
X99253997Y-40612391D01*
X99194268Y-40637820D01*
X99185127Y-40645645D01*
X99149134Y-40703063D01*
X98998254Y-40703063D01*
X99014861Y-40620354D01*
X99069999Y-40523710D01*
X99111112Y-40479302D01*
X99151245Y-40449335D01*
X99200394Y-40431859D01*
X99272415Y-40422708D01*
X99306151Y-40420672D01*
X99430721Y-40425868D01*
G37*
G36*
X100703924Y-33418154D02*
G01*
X100767622Y-33454938D01*
X100821899Y-33502588D01*
X100840070Y-33526976D01*
X100867688Y-33605821D01*
X100875629Y-33703010D01*
X100864168Y-33800224D01*
X100834780Y-33877212D01*
X100772568Y-33948361D01*
X100687363Y-33991194D01*
X100573777Y-34008162D01*
X100545864Y-34008669D01*
X100424785Y-33992086D01*
X100327499Y-33944985D01*
X100257881Y-33871338D01*
X100219804Y-33775115D01*
X100215919Y-33670451D01*
X100243977Y-33556614D01*
X100300302Y-33473364D01*
X100355965Y-33433650D01*
X100413378Y-33408701D01*
X100444464Y-33412014D01*
X100456762Y-33447440D01*
X100458258Y-33485946D01*
X100446360Y-33561819D01*
X100406080Y-33620658D01*
X100365350Y-33668895D01*
X100358772Y-33707291D01*
X100386255Y-33749879D01*
X100405131Y-33769601D01*
X100469116Y-33807459D01*
X100551014Y-33821753D01*
X100633550Y-33811375D01*
X100684367Y-33787519D01*
X100719785Y-33741588D01*
X100727201Y-33684128D01*
X100707661Y-33631058D01*
X100672185Y-33601953D01*
X100641183Y-33579814D01*
X100627583Y-33540725D01*
X100625225Y-33492381D01*
X100630074Y-33436356D01*
X100642573Y-33405851D01*
X100648160Y-33403410D01*
X100703924Y-33418154D01*
G37*
G36*
X100703924Y-42017004D02*
G01*
X100767622Y-42053787D01*
X100821899Y-42101438D01*
X100840070Y-42125826D01*
X100867688Y-42204670D01*
X100875629Y-42301859D01*
X100864168Y-42399074D01*
X100834780Y-42476062D01*
X100772568Y-42547211D01*
X100687363Y-42590043D01*
X100573777Y-42607012D01*
X100545864Y-42607519D01*
X100424785Y-42590936D01*
X100327499Y-42543835D01*
X100257881Y-42470187D01*
X100219804Y-42373965D01*
X100215919Y-42269301D01*
X100243427Y-42156783D01*
X100298408Y-42075626D01*
X100367934Y-42030719D01*
X100422761Y-42009211D01*
X100449187Y-42009392D01*
X100457574Y-42037467D01*
X100458258Y-42084795D01*
X100446360Y-42160669D01*
X100406080Y-42219508D01*
X100366385Y-42264657D01*
X100357914Y-42299854D01*
X100379649Y-42341659D01*
X100397159Y-42364688D01*
X100448907Y-42404086D01*
X100516671Y-42421638D01*
X100589520Y-42419301D01*
X100656522Y-42399030D01*
X100706745Y-42362782D01*
X100729259Y-42312513D01*
X100729580Y-42305197D01*
X100716452Y-42254941D01*
X100685200Y-42211129D01*
X100648025Y-42190284D01*
X100644606Y-42190099D01*
X100633047Y-42171442D01*
X100626114Y-42124238D01*
X100625225Y-42096179D01*
X100629857Y-42037550D01*
X100641975Y-42005319D01*
X100648160Y-42002260D01*
X100703924Y-42017004D01*
G37*
G36*
X99245255Y-39310279D02*
G01*
X99336770Y-39311991D01*
X99401399Y-39315911D01*
X99446567Y-39322913D01*
X99479703Y-39333867D01*
X99508232Y-39349648D01*
X99519073Y-39356861D01*
X99576445Y-39408552D01*
X99623572Y-39471217D01*
X99626515Y-39476544D01*
X99655623Y-39565347D01*
X99664654Y-39672047D01*
X99653504Y-39777887D01*
X99628603Y-39852131D01*
X99585538Y-39913341D01*
X99528436Y-39967063D01*
X99521194Y-39972140D01*
X99491723Y-39990077D01*
X99460684Y-40002821D01*
X99420608Y-40011252D01*
X99364025Y-40016251D01*
X99283464Y-40018698D01*
X99171455Y-40019475D01*
X99119427Y-40019515D01*
X98788578Y-40019515D01*
X98788578Y-39925596D01*
X98788578Y-39831677D01*
X99092156Y-39831677D01*
X99210830Y-39831385D01*
X99295197Y-39829794D01*
X99352691Y-39825832D01*
X99390746Y-39818423D01*
X99416795Y-39806496D01*
X99438272Y-39788976D01*
X99446963Y-39780448D01*
X99489640Y-39713202D01*
X99498192Y-39664709D01*
X99478681Y-39591457D01*
X99446963Y-39548969D01*
X99425258Y-39528992D01*
X99401864Y-39515024D01*
X99369347Y-39505990D01*
X99320274Y-39500819D01*
X99247210Y-39498436D01*
X99142722Y-39497768D01*
X99092156Y-39497741D01*
X98788578Y-39497741D01*
X98788578Y-39403821D01*
X98788578Y-39309902D01*
X99119427Y-39309902D01*
X99245255Y-39310279D01*
G37*
G36*
X100683021Y-35357155D02*
G01*
X100743184Y-35388761D01*
X100800073Y-35429301D01*
X100830431Y-35459489D01*
X100864061Y-35530826D01*
X100877168Y-35622876D01*
X100869628Y-35719933D01*
X100841316Y-35806290D01*
X100833301Y-35820648D01*
X100766060Y-35893380D01*
X100674276Y-35941337D01*
X100568400Y-35962496D01*
X100458883Y-35954838D01*
X100356176Y-35916341D01*
X100351738Y-35913767D01*
X100296695Y-35863210D01*
X100248259Y-35788237D01*
X100215877Y-35706075D01*
X100207806Y-35651311D01*
X100225013Y-35546621D01*
X100272385Y-35456428D01*
X100343542Y-35389854D01*
X100411298Y-35360233D01*
X100440285Y-35356552D01*
X100453998Y-35371496D01*
X100458068Y-35414743D01*
X100458258Y-35440941D01*
X100451732Y-35509975D01*
X100431315Y-35543367D01*
X100426371Y-35545798D01*
X100379024Y-35581024D01*
X100362757Y-35630808D01*
X100375334Y-35684562D01*
X100414516Y-35731699D01*
X100471645Y-35759984D01*
X100560537Y-35771228D01*
X100638514Y-35756998D01*
X100696952Y-35721129D01*
X100727231Y-35667454D01*
X100729580Y-35645298D01*
X100716300Y-35596253D01*
X100684863Y-35553040D01*
X100647873Y-35532426D01*
X100644606Y-35532252D01*
X100633047Y-35513595D01*
X100626114Y-35466391D01*
X100625225Y-35438332D01*
X100627433Y-35382300D01*
X100633018Y-35348707D01*
X100636331Y-35344413D01*
X100683021Y-35357155D01*
G37*
G36*
X99657322Y-42580279D02*
G01*
X99662534Y-42626019D01*
X99661086Y-42662233D01*
X99654845Y-42721360D01*
X99638773Y-42754874D01*
X99601650Y-42777431D01*
X99560805Y-42793201D01*
X99466885Y-42827711D01*
X99460832Y-42974579D01*
X99454780Y-43121446D01*
X99554752Y-43152388D01*
X99614029Y-43172530D01*
X99644326Y-43193918D01*
X99656618Y-43229881D01*
X99661086Y-43281537D01*
X99662659Y-43341641D01*
X99654962Y-43370490D01*
X99634732Y-43378134D01*
X99629779Y-43378046D01*
X99599194Y-43370834D01*
X99535927Y-43351716D01*
X99446599Y-43322841D01*
X99337834Y-43286357D01*
X99293534Y-43271074D01*
X99216252Y-43244413D01*
X99195562Y-43237167D01*
X98799013Y-43097987D01*
X98799013Y-42976291D01*
X99009058Y-42976291D01*
X99142887Y-43021486D01*
X99212930Y-43044354D01*
X99267159Y-43060608D01*
X99293534Y-43066681D01*
X99303504Y-43048002D01*
X99309534Y-43000673D01*
X99310353Y-42971355D01*
X99308722Y-42913689D01*
X99300219Y-42888461D01*
X99279424Y-42886389D01*
X99263393Y-42890924D01*
X99216236Y-42906328D01*
X99149239Y-42928713D01*
X99112745Y-42941055D01*
X99009058Y-42976291D01*
X98799013Y-42976291D01*
X98799013Y-42974584D01*
X98799013Y-42851182D01*
X99205998Y-42709581D01*
X99329900Y-42666863D01*
X99441271Y-42629205D01*
X99533789Y-42598685D01*
X99601130Y-42577381D01*
X99636970Y-42567371D01*
X99640215Y-42566879D01*
X99657322Y-42580279D01*
G37*
G36*
X99556280Y-35731793D02*
G01*
X99613894Y-35795437D01*
X99651364Y-35884078D01*
X99666744Y-35985149D01*
X99658093Y-36086082D01*
X99624457Y-36172703D01*
X99572699Y-36236463D01*
X99514440Y-36275635D01*
X99478693Y-36283607D01*
X99461164Y-36265953D01*
X99455469Y-36221708D01*
X99460451Y-36163952D01*
X99474951Y-36105762D01*
X99497812Y-36060218D01*
X99498557Y-36059257D01*
X99526203Y-36000142D01*
X99522270Y-35943051D01*
X99490861Y-35903906D01*
X99456827Y-35901361D01*
X99427637Y-35936244D01*
X99406399Y-36004276D01*
X99402843Y-36024980D01*
X99373505Y-36132718D01*
X99323886Y-36209497D01*
X99256668Y-36251855D01*
X99221863Y-36258726D01*
X99137208Y-36253975D01*
X99076692Y-36219305D01*
X99031315Y-36150731D01*
X99004014Y-36061919D01*
X98999414Y-35968143D01*
X99014780Y-35878267D01*
X99047376Y-35801154D01*
X99094466Y-35745667D01*
X99153312Y-35720670D01*
X99164256Y-35720091D01*
X99191898Y-35727343D01*
X99203877Y-35756435D01*
X99205998Y-35801019D01*
X99197934Y-35863320D01*
X99177442Y-35905374D01*
X99174691Y-35907930D01*
X99150543Y-35947623D01*
X99144079Y-35999828D01*
X99155064Y-36046568D01*
X99176798Y-36068158D01*
X99206521Y-36069549D01*
X99230488Y-36044374D01*
X99251820Y-35987348D01*
X99270173Y-35910083D01*
X99304403Y-35809839D01*
X99356091Y-35739706D01*
X99420398Y-35702699D01*
X99492481Y-35701836D01*
X99556280Y-35731793D01*
G37*
G36*
X99119415Y-41108298D02*
G01*
X99139545Y-41126002D01*
X99143385Y-41167420D01*
X99143385Y-41230033D01*
X99318555Y-41230033D01*
X99408218Y-41228497D01*
X99464235Y-41222943D01*
X99494623Y-41211956D01*
X99506462Y-41196843D01*
X99512068Y-41158760D01*
X99508513Y-41146364D01*
X99517522Y-41131183D01*
X99552204Y-41117795D01*
X99596535Y-41109923D01*
X99634493Y-41111293D01*
X99643780Y-41114928D01*
X99658726Y-41144779D01*
X99663879Y-41198839D01*
X99659452Y-41260793D01*
X99645655Y-41314326D01*
X99641059Y-41323953D01*
X99613593Y-41365200D01*
X99579206Y-41392430D01*
X99529210Y-41408429D01*
X99454917Y-41415981D01*
X99348106Y-41417872D01*
X99254191Y-41418466D01*
X99194387Y-41421284D01*
X99161069Y-41427881D01*
X99146611Y-41439812D01*
X99143388Y-41458631D01*
X99143385Y-41459614D01*
X99135214Y-41488384D01*
X99103314Y-41499992D01*
X99070336Y-41501356D01*
X99019990Y-41496687D01*
X98999676Y-41478458D01*
X98997288Y-41459614D01*
X98989117Y-41430845D01*
X98957217Y-41419237D01*
X98924239Y-41417872D01*
X98879355Y-41415867D01*
X98858101Y-41402279D01*
X98851642Y-41365747D01*
X98851191Y-41323953D01*
X98852750Y-41266244D01*
X98863319Y-41238918D01*
X98891733Y-41230612D01*
X98924239Y-41230033D01*
X98973318Y-41226543D01*
X98993448Y-41208838D01*
X98997288Y-41167420D01*
X99001360Y-41125353D01*
X99022015Y-41108099D01*
X99070336Y-41104807D01*
X99119415Y-41108298D01*
G37*
G36*
X100859905Y-34898838D02*
G01*
X100874851Y-34929479D01*
X100877212Y-34984694D01*
X100868637Y-35049816D01*
X100850775Y-35110180D01*
X100832421Y-35143324D01*
X100810361Y-35168544D01*
X100785909Y-35184577D01*
X100749672Y-35193499D01*
X100692259Y-35197383D01*
X100604275Y-35198305D01*
X100583420Y-35198316D01*
X100489293Y-35198816D01*
X100428987Y-35201484D01*
X100394584Y-35208070D01*
X100378164Y-35220325D01*
X100371810Y-35240000D01*
X100371007Y-35245276D01*
X100354555Y-35281114D01*
X100311345Y-35297074D01*
X100298116Y-35298655D01*
X100250758Y-35298134D01*
X100230058Y-35278752D01*
X100225068Y-35256913D01*
X100212272Y-35223637D01*
X100178263Y-35207368D01*
X100138840Y-35202206D01*
X100059438Y-35195661D01*
X100065791Y-35108287D01*
X100072199Y-35052963D01*
X100088263Y-35026682D01*
X100125399Y-35016784D01*
X100150410Y-35014435D01*
X100202446Y-35006203D01*
X100224574Y-34987482D01*
X100228677Y-34957039D01*
X100234365Y-34922560D01*
X100259564Y-34908454D01*
X100301725Y-34906122D01*
X100351085Y-34909978D01*
X100371299Y-34927513D01*
X100374774Y-34959143D01*
X100376184Y-34985064D01*
X100386005Y-35000425D01*
X100412619Y-35007511D01*
X100464407Y-35008609D01*
X100546959Y-35006103D01*
X100631977Y-35002213D01*
X100683881Y-34996259D01*
X100711299Y-34985788D01*
X100722858Y-34968345D01*
X100725525Y-34955293D01*
X100748421Y-34920866D01*
X100793645Y-34897186D01*
X100841867Y-34892374D01*
X100859905Y-34898838D01*
G37*
G36*
X99024888Y-34203137D02*
G01*
X99078960Y-34221611D01*
X99160178Y-34249813D01*
X99262446Y-34285624D01*
X99379668Y-34326927D01*
X99395388Y-34332483D01*
X99550372Y-34388527D01*
X99669918Y-34435602D01*
X99758516Y-34476904D01*
X99820658Y-34515631D01*
X99860834Y-34554979D01*
X99883537Y-34598146D01*
X99893256Y-34648330D01*
X99894741Y-34687961D01*
X99888662Y-34754772D01*
X99871801Y-34790126D01*
X99867289Y-34792740D01*
X99816411Y-34794799D01*
X99768661Y-34771416D01*
X99740717Y-34732223D01*
X99738684Y-34718457D01*
X99734336Y-34681238D01*
X99718963Y-34657726D01*
X99687752Y-34648227D01*
X99635889Y-34653046D01*
X99558563Y-34672489D01*
X99450959Y-34706859D01*
X99345248Y-34743406D01*
X99236041Y-34780984D01*
X99141043Y-34812083D01*
X99066983Y-34834628D01*
X99020595Y-34846543D01*
X99008109Y-34847373D01*
X99001375Y-34821559D01*
X98997590Y-34770027D01*
X98997288Y-34749291D01*
X98997288Y-34662029D01*
X99216433Y-34602015D01*
X99305036Y-34576772D01*
X99376463Y-34554559D01*
X99422511Y-34538049D01*
X99435579Y-34530602D01*
X99416868Y-34520510D01*
X99366737Y-34503011D01*
X99294187Y-34481109D01*
X99252958Y-34469621D01*
X99147689Y-34440520D01*
X99076194Y-34417666D01*
X99031942Y-34396461D01*
X99008396Y-34372305D01*
X98999024Y-34340602D01*
X98997293Y-34296753D01*
X98997288Y-34289693D01*
X98998644Y-34233911D01*
X99002071Y-34200625D01*
X99004057Y-34196508D01*
X99024888Y-34203137D01*
G37*
G36*
X99652198Y-34921364D02*
G01*
X99654025Y-34922815D01*
X99660889Y-34948790D01*
X99664808Y-35000649D01*
X99665160Y-35023227D01*
X99653131Y-35106733D01*
X99614822Y-35171063D01*
X99589553Y-35197791D01*
X99562688Y-35215244D01*
X99524689Y-35225826D01*
X99466018Y-35231940D01*
X99377139Y-35235989D01*
X99353934Y-35236796D01*
X99258121Y-35240753D01*
X99196603Y-35245867D01*
X99161938Y-35253796D01*
X99146681Y-35266201D01*
X99143385Y-35283756D01*
X99134387Y-35311365D01*
X99100330Y-35322419D01*
X99070336Y-35323542D01*
X99019990Y-35318872D01*
X98999676Y-35300644D01*
X98997288Y-35281800D01*
X98989117Y-35253030D01*
X98957217Y-35241422D01*
X98924239Y-35240058D01*
X98879355Y-35238053D01*
X98858101Y-35224465D01*
X98851642Y-35187933D01*
X98851191Y-35146138D01*
X98852750Y-35088430D01*
X98863319Y-35061103D01*
X98891733Y-35052798D01*
X98924239Y-35052219D01*
X98973318Y-35048728D01*
X98993448Y-35031024D01*
X98997288Y-34989606D01*
X99001484Y-34947259D01*
X99022573Y-34930104D01*
X99068950Y-34926993D01*
X99118472Y-34931500D01*
X99140427Y-34951765D01*
X99147216Y-34984388D01*
X99152345Y-35013362D01*
X99165509Y-35030873D01*
X99195756Y-35040354D01*
X99252129Y-35045241D01*
X99314378Y-35047858D01*
X99398148Y-35049625D01*
X99449854Y-35046035D01*
X99479012Y-35035440D01*
X99494941Y-35016551D01*
X99512168Y-34975723D01*
X99515970Y-34958299D01*
X99534484Y-34941097D01*
X99575876Y-34925990D01*
X99621372Y-34917804D01*
X99652198Y-34921364D01*
G37*
G36*
X100875677Y-32839893D02*
G01*
X100872246Y-32894403D01*
X100858199Y-32918520D01*
X100833122Y-32923377D01*
X100790567Y-32923377D01*
X100833122Y-32969055D01*
X100867232Y-33032871D01*
X100877672Y-33114694D01*
X100864756Y-33198365D01*
X100828792Y-33267725D01*
X100827347Y-33269431D01*
X100784237Y-33307720D01*
X100731583Y-33323594D01*
X100691470Y-33325450D01*
X100687838Y-33325618D01*
X100602093Y-33309570D01*
X100540312Y-33260593D01*
X100501304Y-33177437D01*
X100489147Y-33116825D01*
X100476176Y-33031025D01*
X100463497Y-32979183D01*
X100455406Y-32966278D01*
X100591665Y-32966278D01*
X100597380Y-33012079D01*
X100621395Y-33097636D01*
X100653084Y-33144208D01*
X100691470Y-33150910D01*
X100725406Y-33127913D01*
X100748468Y-33077639D01*
X100741013Y-33012640D01*
X100728846Y-32984618D01*
X100688469Y-32951153D01*
X100645884Y-32944248D01*
X100604750Y-32947636D01*
X100591665Y-32966278D01*
X100455406Y-32966278D01*
X100447517Y-32953696D01*
X100424645Y-32946961D01*
X100409505Y-32948249D01*
X100374664Y-32971123D01*
X100357028Y-33016652D01*
X100359169Y-33068399D01*
X100383659Y-33109926D01*
X100384143Y-33110332D01*
X100407106Y-33151066D01*
X100416497Y-33215049D01*
X100416516Y-33218127D01*
X100408312Y-33277266D01*
X100383313Y-33298680D01*
X100340935Y-33282468D01*
X100291219Y-33239583D01*
X100235629Y-33156413D01*
X100211373Y-33056983D01*
X100218663Y-32952849D01*
X100257710Y-32855565D01*
X100283540Y-32819637D01*
X100336742Y-32756409D01*
X100606210Y-32756409D01*
X100875677Y-32756409D01*
X100875677Y-32839893D01*
G37*
G36*
X101996776Y-39557045D02*
G01*
X102049835Y-39602052D01*
X102092269Y-39662980D01*
X102098835Y-39677201D01*
X102123255Y-39776573D01*
X102123116Y-39884970D01*
X102098753Y-39982119D01*
X102093611Y-39993297D01*
X102037705Y-40071533D01*
X101959452Y-40120152D01*
X101854451Y-40141177D01*
X101771808Y-40141122D01*
X101692170Y-40134876D01*
X101682107Y-40132700D01*
X101639550Y-40123498D01*
X101599226Y-40101409D01*
X101556478Y-40063029D01*
X101550759Y-40057336D01*
X101499955Y-39997535D01*
X101474335Y-39937333D01*
X101465418Y-39880039D01*
X101466741Y-39850285D01*
X101608464Y-39850285D01*
X101634168Y-39910917D01*
X101640703Y-39918735D01*
X101682107Y-39954370D01*
X101710140Y-39953178D01*
X101726124Y-39913892D01*
X101731382Y-39835240D01*
X101731388Y-39831677D01*
X101728931Y-39765628D01*
X101722544Y-39720252D01*
X101715161Y-39706451D01*
X101687560Y-39717318D01*
X101652548Y-39738941D01*
X101614927Y-39787846D01*
X101608464Y-39850285D01*
X101466741Y-39850285D01*
X101470668Y-39761970D01*
X101508327Y-39664525D01*
X101574679Y-39592196D01*
X101666009Y-39549473D01*
X101747041Y-39539561D01*
X101835743Y-39539483D01*
X101835743Y-39748193D01*
X101836423Y-39843504D01*
X101839380Y-39904556D01*
X101845994Y-39938823D01*
X101857644Y-39953777D01*
X101874250Y-39956902D01*
X101925900Y-39938886D01*
X101962681Y-39893748D01*
X101979876Y-39834856D01*
X101972768Y-39775578D01*
X101950534Y-39740739D01*
X101931089Y-39703912D01*
X101920790Y-39650905D01*
X101919972Y-39596203D01*
X101928969Y-39554293D01*
X101945890Y-39539483D01*
X101996776Y-39557045D01*
G37*
G36*
X99372966Y-37063433D02*
G01*
X99374179Y-37169569D01*
X99379474Y-37238713D01*
X99391335Y-37275585D01*
X99412246Y-37284905D01*
X99444689Y-37271393D01*
X99472677Y-37252925D01*
X99506686Y-37207869D01*
X99519548Y-37146628D01*
X99509872Y-37087386D01*
X99487756Y-37055834D01*
X99466245Y-37017135D01*
X99456556Y-36956122D01*
X99456450Y-36948924D01*
X99465778Y-36889522D01*
X99493033Y-36867422D01*
X99537119Y-36882767D01*
X99592458Y-36930970D01*
X99628150Y-36975179D01*
X99648302Y-37023759D01*
X99658545Y-37092614D01*
X99660804Y-37124027D01*
X99662819Y-37203637D01*
X99654589Y-37258923D01*
X99632695Y-37306741D01*
X99619612Y-37327157D01*
X99543210Y-37409468D01*
X99447320Y-37456283D01*
X99328758Y-37469050D01*
X99308988Y-37468129D01*
X99247740Y-37455571D01*
X99188737Y-37443474D01*
X99095493Y-37388266D01*
X99031841Y-37305184D01*
X99000368Y-37196906D01*
X98997818Y-37152988D01*
X99143385Y-37152988D01*
X99156970Y-37200160D01*
X99189429Y-37247748D01*
X99228323Y-37279966D01*
X99247740Y-37285415D01*
X99258857Y-37266405D01*
X99266394Y-37216742D01*
X99268611Y-37160189D01*
X99264658Y-37081200D01*
X99253052Y-37040425D01*
X99244166Y-37034963D01*
X99201035Y-37052663D01*
X99162955Y-37094950D01*
X99143776Y-37145607D01*
X99143385Y-37152988D01*
X98997818Y-37152988D01*
X98997366Y-37145206D01*
X99015337Y-37051880D01*
X99062769Y-36963979D01*
X99128091Y-36900566D01*
X99179345Y-36877804D01*
X99249114Y-36859243D01*
X99275184Y-36854853D01*
X99372966Y-36841451D01*
X99372966Y-37063433D01*
G37*
G36*
X101835743Y-39050421D02*
G01*
X101836039Y-39148195D01*
X101837978Y-39211167D01*
X101843137Y-39246276D01*
X101853094Y-39260460D01*
X101869426Y-39260659D01*
X101882703Y-39257023D01*
X101931953Y-39231667D01*
X101955751Y-39209886D01*
X101977970Y-39156681D01*
X101978417Y-39095248D01*
X101957705Y-39045736D01*
X101950534Y-39038579D01*
X101935192Y-39009388D01*
X101923838Y-38959504D01*
X101917852Y-38903441D01*
X101918612Y-38855713D01*
X101927499Y-38830834D01*
X101930699Y-38829869D01*
X101955444Y-38838528D01*
X101999358Y-38859443D01*
X102000933Y-38860256D01*
X102062749Y-38914037D01*
X102105072Y-38994779D01*
X102125557Y-39091386D01*
X102121861Y-39192762D01*
X102091637Y-39287810D01*
X102091380Y-39288321D01*
X102027970Y-39369847D01*
X101936098Y-39422364D01*
X101818768Y-39444290D01*
X101794001Y-39444867D01*
X101687718Y-39430811D01*
X101671423Y-39428656D01*
X101574836Y-39380297D01*
X101505023Y-39300202D01*
X101498950Y-39289356D01*
X101463509Y-39185351D01*
X101463592Y-39135793D01*
X101609201Y-39135793D01*
X101624948Y-39194375D01*
X101648665Y-39227179D01*
X101687718Y-39256240D01*
X101713476Y-39249772D01*
X101727502Y-39205963D01*
X101731388Y-39131266D01*
X101729492Y-39065278D01*
X101721426Y-39031067D01*
X101703618Y-39018747D01*
X101690381Y-39017708D01*
X101644401Y-39034986D01*
X101616514Y-39078505D01*
X101609201Y-39135793D01*
X101463592Y-39135793D01*
X101463682Y-39082554D01*
X101495338Y-38988316D01*
X101554347Y-38909986D01*
X101636579Y-38854916D01*
X101737903Y-38830455D01*
X101757151Y-38829869D01*
X101835743Y-38829869D01*
X101835743Y-39050421D01*
G37*
G36*
X100604354Y-36262736D02*
G01*
X100605876Y-36365915D01*
X100612031Y-36432023D01*
X100625210Y-36465675D01*
X100647801Y-36471480D01*
X100682192Y-36454052D01*
X100697763Y-36443094D01*
X100727919Y-36398159D01*
X100735439Y-36335646D01*
X100719966Y-36273278D01*
X100701752Y-36245709D01*
X100678755Y-36203199D01*
X100667698Y-36148904D01*
X100668861Y-36096965D01*
X100682525Y-36061522D01*
X100697945Y-36054027D01*
X100731843Y-36067124D01*
X100779395Y-36099917D01*
X100796262Y-36114194D01*
X100832677Y-36150443D01*
X100853843Y-36186657D01*
X100864795Y-36236587D01*
X100870564Y-36313983D01*
X100870750Y-36317687D01*
X100872174Y-36404319D01*
X100864374Y-36464434D01*
X100844922Y-36512698D01*
X100835970Y-36527828D01*
X100771651Y-36599768D01*
X100684658Y-36642642D01*
X100569600Y-36658909D01*
X100547996Y-36659207D01*
X100449006Y-36645527D01*
X100426400Y-36642403D01*
X100328537Y-36595642D01*
X100257994Y-36524143D01*
X100218358Y-36433126D01*
X100213887Y-36341577D01*
X100353903Y-36341577D01*
X100366717Y-36390323D01*
X100397343Y-36437743D01*
X100434057Y-36467827D01*
X100449006Y-36471446D01*
X100466684Y-36460681D01*
X100476137Y-36423525D01*
X100479117Y-36352686D01*
X100479129Y-36346220D01*
X100475960Y-36279518D01*
X100467683Y-36234296D01*
X100458258Y-36220995D01*
X100423193Y-36237407D01*
X100385341Y-36275861D01*
X100358703Y-36320177D01*
X100353903Y-36341577D01*
X100213887Y-36341577D01*
X100213215Y-36327813D01*
X100244395Y-36217347D01*
X100303162Y-36130543D01*
X100388104Y-36076153D01*
X100498766Y-36054448D01*
X100518807Y-36054027D01*
X100604354Y-36054027D01*
X100604354Y-36262736D01*
G37*
G36*
X102281354Y-41389142D02*
G01*
X102343370Y-41479495D01*
X102372245Y-41589068D01*
X102366685Y-41710097D01*
X102346950Y-41783114D01*
X102314298Y-41849468D01*
X102272026Y-41902101D01*
X102229086Y-41931661D01*
X102203044Y-41933493D01*
X102183648Y-41907944D01*
X102174295Y-41858175D01*
X102175238Y-41800546D01*
X102186726Y-41751414D01*
X102199952Y-41731795D01*
X102225955Y-41686692D01*
X102230311Y-41625394D01*
X102212299Y-41567821D01*
X102206203Y-41558836D01*
X102169531Y-41533238D01*
X102111867Y-41512960D01*
X102097928Y-41510046D01*
X102015741Y-41495240D01*
X102061404Y-41553290D01*
X102102139Y-41635459D01*
X102107441Y-41724407D01*
X102080225Y-41810426D01*
X102023409Y-41883811D01*
X101947700Y-41931741D01*
X101838875Y-41960888D01*
X101817960Y-41960744D01*
X101733833Y-41960167D01*
X101638297Y-41933721D01*
X101557990Y-41885693D01*
X101498636Y-41820226D01*
X101465957Y-41741463D01*
X101465680Y-41654432D01*
X101614104Y-41654432D01*
X101637853Y-41704564D01*
X101685565Y-41742607D01*
X101748511Y-41765086D01*
X101817960Y-41768528D01*
X101885182Y-41749459D01*
X101929539Y-41717643D01*
X101957527Y-41663784D01*
X101953369Y-41603151D01*
X101924445Y-41559712D01*
X101858985Y-41524754D01*
X101782145Y-41514572D01*
X101707217Y-41527580D01*
X101647494Y-41562189D01*
X101623049Y-41595684D01*
X101614104Y-41654432D01*
X101465680Y-41654432D01*
X101465677Y-41653549D01*
X101484286Y-41596258D01*
X101509314Y-41556909D01*
X101531246Y-41541775D01*
X101532697Y-41534646D01*
X101507025Y-41521577D01*
X101475352Y-41499906D01*
X101461967Y-41460120D01*
X101460065Y-41418545D01*
X101460065Y-41334388D01*
X101843333Y-41334388D01*
X102226600Y-41334388D01*
X102281354Y-41389142D01*
G37*
G36*
X99665160Y-42002915D02*
G01*
X99657054Y-42069394D01*
X99634153Y-42098952D01*
X99614343Y-42112143D01*
X99621370Y-42135887D01*
X99634153Y-42155119D01*
X99653791Y-42203839D01*
X99664496Y-42270633D01*
X99665160Y-42290268D01*
X99657793Y-42360820D01*
X99629568Y-42414171D01*
X99604152Y-42442156D01*
X99530759Y-42492150D01*
X99466127Y-42502726D01*
X99455065Y-42504536D01*
X99384394Y-42482324D01*
X99326071Y-42428524D01*
X99287423Y-42346145D01*
X99279543Y-42308801D01*
X99264552Y-42212622D01*
X99252127Y-42151315D01*
X99244562Y-42132704D01*
X99373082Y-42132704D01*
X99378452Y-42168782D01*
X99391561Y-42224602D01*
X99394934Y-42237059D01*
X99415379Y-42290342D01*
X99442937Y-42312533D01*
X99466127Y-42315325D01*
X99514303Y-42299479D01*
X99537142Y-42258394D01*
X99532181Y-42201744D01*
X99507444Y-42153001D01*
X99472726Y-42123217D01*
X99429119Y-42107974D01*
X99391116Y-42109461D01*
X99373212Y-42129867D01*
X99373082Y-42132704D01*
X99244562Y-42132704D01*
X99238768Y-42118450D01*
X99220977Y-42107601D01*
X99195256Y-42112339D01*
X99176398Y-42119283D01*
X99151349Y-42148318D01*
X99144196Y-42197826D01*
X99155123Y-42250487D01*
X99174691Y-42281037D01*
X99190267Y-42312657D01*
X99201564Y-42363267D01*
X99207136Y-42418187D01*
X99205537Y-42462738D01*
X99195319Y-42482239D01*
X99194526Y-42482293D01*
X99169781Y-42473633D01*
X99125867Y-42452718D01*
X99124292Y-42451906D01*
X99060574Y-42397022D01*
X99018147Y-42315522D01*
X98999670Y-42218140D01*
X99007802Y-42115613D01*
X99026390Y-42056495D01*
X99052847Y-42003382D01*
X99085440Y-41965804D01*
X99131397Y-41941158D01*
X99197947Y-41926841D01*
X99292319Y-41920252D01*
X99408916Y-41918776D01*
X99665160Y-41918776D01*
X99665160Y-42002915D01*
G37*
G36*
X100723759Y-42730024D02*
G01*
X100802001Y-42782844D01*
X100854606Y-42867885D01*
X100855019Y-42868965D01*
X100872321Y-42946991D01*
X100876376Y-43042561D01*
X100868072Y-43139020D01*
X100848293Y-43219712D01*
X100834854Y-43248168D01*
X100765412Y-43329646D01*
X100680147Y-43375945D01*
X100646096Y-43383260D01*
X100612292Y-43383410D01*
X100595895Y-43364732D01*
X100588798Y-43316527D01*
X100588076Y-43306697D01*
X100588312Y-43249447D01*
X100605001Y-43215485D01*
X100643330Y-43188889D01*
X100698554Y-43136179D01*
X100722507Y-43064335D01*
X100711880Y-42985216D01*
X100704828Y-42968542D01*
X100665546Y-42918323D01*
X100617339Y-42902188D01*
X100573879Y-42919894D01*
X100553109Y-42952757D01*
X100531109Y-43010991D01*
X100519871Y-43052061D01*
X100487362Y-43161024D01*
X100447002Y-43251709D01*
X100403257Y-43315253D01*
X100376077Y-43337306D01*
X100328852Y-43351558D01*
X100264890Y-43358687D01*
X100253734Y-43358875D01*
X100160222Y-43340068D01*
X100084802Y-43286718D01*
X100031085Y-43203429D01*
X100002680Y-43094808D01*
X99999096Y-43033981D01*
X100014895Y-42913048D01*
X100061204Y-42818176D01*
X100136394Y-42751748D01*
X100213023Y-42721460D01*
X100247966Y-42715124D01*
X100264738Y-42725214D01*
X100270006Y-42761263D01*
X100270419Y-42803531D01*
X100266654Y-42860325D01*
X100257106Y-42894857D01*
X100251038Y-42899713D01*
X100212798Y-42918092D01*
X100184167Y-42964346D01*
X100168066Y-43025144D01*
X100167413Y-43087159D01*
X100185127Y-43137061D01*
X100196367Y-43149332D01*
X100237202Y-43171454D01*
X100272858Y-43162113D01*
X100306353Y-43118371D01*
X100340702Y-43037288D01*
X100355075Y-42994615D01*
X100399607Y-42875208D01*
X100446805Y-42792403D01*
X100501496Y-42741117D01*
X100568506Y-42716266D01*
X100623490Y-42711874D01*
X100723759Y-42730024D01*
G37*
G36*
X101973461Y-36566232D02*
G01*
X102083971Y-36569802D01*
X102165224Y-36577534D01*
X102223454Y-36590884D01*
X102264893Y-36611311D01*
X102295776Y-36640271D01*
X102322335Y-36679223D01*
X102323612Y-36681376D01*
X102357428Y-36770958D01*
X102370028Y-36878043D01*
X102360025Y-36983399D01*
X102348301Y-37023729D01*
X102315506Y-37087339D01*
X102272492Y-37139497D01*
X102228844Y-37170444D01*
X102200986Y-37173726D01*
X102182682Y-37149089D01*
X102174112Y-37100072D01*
X102175360Y-37042907D01*
X102186509Y-36993823D01*
X102199952Y-36973208D01*
X102226944Y-36926705D01*
X102228926Y-36864800D01*
X102206764Y-36804849D01*
X102190550Y-36784511D01*
X102137362Y-36752891D01*
X102085570Y-36742769D01*
X102022332Y-36742769D01*
X102067574Y-36803961D01*
X102096886Y-36855562D01*
X102105355Y-36912645D01*
X102101973Y-36961341D01*
X102086900Y-37030146D01*
X102062079Y-37087548D01*
X102052139Y-37101304D01*
X101973016Y-37160669D01*
X101871363Y-37193589D01*
X101797180Y-37196850D01*
X101758115Y-37198568D01*
X101644206Y-37174112D01*
X101612764Y-37161371D01*
X101533927Y-37107471D01*
X101481996Y-37035048D01*
X101459485Y-36953453D01*
X101467314Y-36885779D01*
X101613514Y-36885779D01*
X101623816Y-36921447D01*
X101665714Y-36972624D01*
X101727006Y-37001049D01*
X101797180Y-37008009D01*
X101865723Y-36994792D01*
X101922122Y-36962683D01*
X101955866Y-36912971D01*
X101960969Y-36880175D01*
X101945688Y-36828511D01*
X101924445Y-36801354D01*
X101858437Y-36763214D01*
X101786930Y-36750421D01*
X101718304Y-36759629D01*
X101660939Y-36787490D01*
X101623215Y-36830656D01*
X101613514Y-36885779D01*
X101467314Y-36885779D01*
X101468904Y-36872038D01*
X101512766Y-36800154D01*
X101515089Y-36797793D01*
X101570112Y-36742769D01*
X101513889Y-36742769D01*
X101478879Y-36739616D01*
X101463876Y-36722471D01*
X101462407Y-36679810D01*
X101464083Y-36654068D01*
X101470501Y-36565366D01*
X101827460Y-36565366D01*
X101973461Y-36566232D01*
G37*
G36*
X102127937Y-46101800D02*
G01*
X102127937Y-46526414D01*
X101835791Y-46627977D01*
X101543645Y-46729540D01*
X101543740Y-47366105D01*
X101543835Y-48002671D01*
X101835886Y-48103834D01*
X102127937Y-48204997D01*
X102127937Y-48630026D01*
X102127937Y-49055055D01*
X101893138Y-48971623D01*
X101834251Y-48950719D01*
X101739821Y-48917226D01*
X101613651Y-48872492D01*
X101459545Y-48817864D01*
X101281306Y-48754691D01*
X101082738Y-48684321D01*
X100867644Y-48608100D01*
X100849320Y-48601607D01*
X100639827Y-48527379D01*
X100403092Y-48443504D01*
X100228677Y-48381713D01*
X98799013Y-47875236D01*
X98799013Y-47366105D01*
X99728069Y-47366105D01*
X99746806Y-47374547D01*
X99799003Y-47394386D01*
X99878623Y-47423508D01*
X99979633Y-47459799D01*
X100095998Y-47501143D01*
X100221681Y-47545427D01*
X100350648Y-47590535D01*
X100476864Y-47634354D01*
X100594294Y-47674768D01*
X100696902Y-47709663D01*
X100778654Y-47736924D01*
X100833515Y-47754438D01*
X100849320Y-47758967D01*
X100858841Y-47752495D01*
X100865919Y-47724635D01*
X100870845Y-47671046D01*
X100873911Y-47587390D01*
X100875408Y-47469325D01*
X100875677Y-47366105D01*
X100875188Y-47224158D01*
X100873489Y-47119165D01*
X100870237Y-47046349D01*
X100865089Y-47000930D01*
X100857700Y-46978130D01*
X100847727Y-46973172D01*
X100847404Y-46973244D01*
X100811201Y-46983989D01*
X100744568Y-47005754D01*
X100653550Y-47036416D01*
X100544190Y-47073854D01*
X100422533Y-47115948D01*
X100294622Y-47160576D01*
X100166501Y-47205617D01*
X100044214Y-47248949D01*
X99933804Y-47288451D01*
X99841316Y-47322003D01*
X99772793Y-47347483D01*
X99734278Y-47362769D01*
X99728069Y-47366105D01*
X98799013Y-47366105D01*
X98799013Y-47365320D01*
X98799013Y-46855404D01*
X100166064Y-46370975D01*
X100403997Y-46286672D01*
X100637594Y-46203924D01*
X100862712Y-46124200D01*
X101075207Y-46048964D01*
X101270935Y-45979685D01*
X101445753Y-45917827D01*
X101595518Y-45864859D01*
X101716086Y-45822246D01*
X101803314Y-45791454D01*
X101830525Y-45781867D01*
X102127937Y-45677187D01*
X102127937Y-46101800D01*
G37*
%LPC*%
D16*
X79869250Y-23895000D02*
X79169250Y-23895000D01*
X79169250Y-22655000D01*
X79869250Y-22655000D01*
X79869250Y-23895000D01*
G36*
X79869250Y-23895000D02*
G01*
X79169250Y-23895000D01*
X79169250Y-22655000D01*
X79869250Y-22655000D01*
X79869250Y-23895000D01*
G37*
X84669250Y-23895000D02*
X83969250Y-23895000D01*
X83969250Y-22655000D01*
X84669250Y-22655000D01*
X84669250Y-23895000D01*
G36*
X84669250Y-23895000D02*
G01*
X83969250Y-23895000D01*
X83969250Y-22655000D01*
X84669250Y-22655000D01*
X84669250Y-23895000D01*
G37*
X79069250Y-23895000D02*
X78369250Y-23895000D01*
X78369250Y-22655000D01*
X79069250Y-22655000D01*
X79069250Y-23895000D01*
G36*
X79069250Y-23895000D02*
G01*
X78369250Y-23895000D01*
X78369250Y-22655000D01*
X79069250Y-22655000D01*
X79069250Y-23895000D01*
G37*
X85469250Y-23895000D02*
X84769250Y-23895000D01*
X84769250Y-22655000D01*
X85469250Y-22655000D01*
X85469250Y-23895000D01*
G36*
X85469250Y-23895000D02*
G01*
X84769250Y-23895000D01*
X84769250Y-22655000D01*
X85469250Y-22655000D01*
X85469250Y-23895000D01*
G37*
X81869250Y-23895000D02*
X81469250Y-23895000D01*
X81469250Y-22655000D01*
X81869250Y-22655000D01*
X81869250Y-23895000D01*
G36*
X81869250Y-23895000D02*
G01*
X81469250Y-23895000D01*
X81469250Y-22655000D01*
X81869250Y-22655000D01*
X81869250Y-23895000D01*
G37*
X82369250Y-23895000D02*
X81969250Y-23895000D01*
X81969250Y-22655000D01*
X82369250Y-22655000D01*
X82369250Y-23895000D01*
G36*
X82369250Y-23895000D02*
G01*
X81969250Y-23895000D01*
X81969250Y-22655000D01*
X82369250Y-22655000D01*
X82369250Y-23895000D01*
G37*
X81369250Y-23895000D02*
X80969250Y-23895000D01*
X80969250Y-22655000D01*
X81369250Y-22655000D01*
X81369250Y-23895000D01*
G36*
X81369250Y-23895000D02*
G01*
X80969250Y-23895000D01*
X80969250Y-22655000D01*
X81369250Y-22655000D01*
X81369250Y-23895000D01*
G37*
X80869250Y-23895000D02*
X80469250Y-23895000D01*
X80469250Y-22655000D01*
X80869250Y-22655000D01*
X80869250Y-23895000D01*
G36*
X80869250Y-23895000D02*
G01*
X80469250Y-23895000D01*
X80469250Y-22655000D01*
X80869250Y-22655000D01*
X80869250Y-23895000D01*
G37*
X80369250Y-23895000D02*
X79969250Y-23895000D01*
X79969250Y-22655000D01*
X80369250Y-22655000D01*
X80369250Y-23895000D01*
G36*
X80369250Y-23895000D02*
G01*
X79969250Y-23895000D01*
X79969250Y-22655000D01*
X80369250Y-22655000D01*
X80369250Y-23895000D01*
G37*
X82869250Y-23895000D02*
X82469250Y-23895000D01*
X82469250Y-22655000D01*
X82869250Y-22655000D01*
X82869250Y-23895000D01*
G36*
X82869250Y-23895000D02*
G01*
X82469250Y-23895000D01*
X82469250Y-22655000D01*
X82869250Y-22655000D01*
X82869250Y-23895000D01*
G37*
X83369250Y-23895000D02*
X82969250Y-23895000D01*
X82969250Y-22655000D01*
X83369250Y-22655000D01*
X83369250Y-23895000D01*
G36*
X83369250Y-23895000D02*
G01*
X82969250Y-23895000D01*
X82969250Y-22655000D01*
X83369250Y-22655000D01*
X83369250Y-23895000D01*
G37*
X83869250Y-23895000D02*
X83469250Y-23895000D01*
X83469250Y-22655000D01*
X83869250Y-22655000D01*
X83869250Y-23895000D01*
G36*
X83869250Y-23895000D02*
G01*
X83469250Y-23895000D01*
X83469250Y-22655000D01*
X83869250Y-22655000D01*
X83869250Y-23895000D01*
G37*
D17*
X77594250Y-18525000D03*
X86244250Y-18525000D03*
D18*
X77594250Y-22725000D03*
X86244250Y-22725000D03*
D19*
X79029250Y-22205000D03*
X84809250Y-22205000D03*
D20*
X66040000Y-33622000D03*
D21*
X63500000Y-33622000D03*
X60960000Y-33622000D03*
D22*
X84862000Y-36207000D03*
X84862000Y-34077000D03*
D23*
X81062000Y-35142000D03*
D24*
X90250000Y-52754000D03*
X90250000Y-49750000D03*
X82250000Y-52754000D03*
X82250000Y-49750000D03*
D25*
X79678000Y-31461000D03*
X79678000Y-28511000D03*
D26*
X60250000Y-56750000D03*
D24*
X90250000Y-57752000D03*
X90250000Y-54748000D03*
D27*
X71300000Y-28750000D03*
X71300000Y-32750000D03*
D26*
X60250000Y-19750000D03*
D24*
X86250000Y-52754000D03*
X86250000Y-49750000D03*
D25*
X67200000Y-31475000D03*
X67200000Y-28525000D03*
D24*
X94250000Y-52754000D03*
X94250000Y-49750000D03*
X94250000Y-57752000D03*
X94250000Y-54748000D03*
D26*
X101750000Y-56750000D03*
X101750000Y-19750000D03*
D24*
X86250000Y-57754000D03*
X86250000Y-54750000D03*
D28*
X74344000Y-31190000D03*
X74344000Y-29290000D03*
X82726000Y-31190000D03*
X82726000Y-29290000D03*
X76630000Y-31190000D03*
X76630000Y-29290000D03*
D24*
X82250000Y-57752000D03*
X82250000Y-54748000D03*
D22*
X96546000Y-36207000D03*
X96546000Y-34077000D03*
D23*
X92746000Y-35142000D03*
D29*
X61000000Y-31603000D03*
X61000000Y-30053000D03*
D22*
X84862000Y-44335000D03*
X84862000Y-42205000D03*
D23*
X81062000Y-43270000D03*
D22*
X96546000Y-44335000D03*
X96546000Y-42205000D03*
D23*
X92746000Y-43270000D03*
G36*
X97501511Y-51750075D02*
G01*
X97521460Y-51751055D01*
X97527517Y-51751651D01*
X97545756Y-51754356D01*
X97551727Y-51755544D01*
X97569613Y-51760023D01*
X97575443Y-51761792D01*
X97592801Y-51768003D01*
X97598423Y-51770332D01*
X97615093Y-51778216D01*
X97620462Y-51781086D01*
X97636281Y-51790567D01*
X97641342Y-51793949D01*
X97656146Y-51804928D01*
X97660851Y-51808789D01*
X97674516Y-51821173D01*
X97678826Y-51825483D01*
X97691210Y-51839148D01*
X97695071Y-51843853D01*
X97706050Y-51858657D01*
X97709432Y-51863718D01*
X97718913Y-51879537D01*
X97721783Y-51884906D01*
X97729667Y-51901576D01*
X97731996Y-51907198D01*
X97738207Y-51924556D01*
X97739976Y-51930386D01*
X97744455Y-51948272D01*
X97745643Y-51954243D01*
X97748348Y-51972480D01*
X97748944Y-51978533D01*
X97749925Y-51998482D01*
X97750000Y-52001528D01*
X97750000Y-55498471D01*
X97749925Y-55501517D01*
X97748944Y-55521466D01*
X97748348Y-55527519D01*
X97745643Y-55545756D01*
X97744455Y-55551727D01*
X97739976Y-55569613D01*
X97738207Y-55575443D01*
X97731996Y-55592801D01*
X97729667Y-55598423D01*
X97721783Y-55615093D01*
X97718913Y-55620462D01*
X97709432Y-55636281D01*
X97706050Y-55641342D01*
X97695071Y-55656146D01*
X97691210Y-55660851D01*
X97678826Y-55674516D01*
X97674516Y-55678826D01*
X97660851Y-55691210D01*
X97656146Y-55695071D01*
X97641342Y-55706050D01*
X97636281Y-55709432D01*
X97620462Y-55718913D01*
X97615093Y-55721783D01*
X97598423Y-55729667D01*
X97592801Y-55731996D01*
X97575443Y-55738207D01*
X97569613Y-55739976D01*
X97551727Y-55744455D01*
X97545756Y-55745643D01*
X97527519Y-55748348D01*
X97521466Y-55748944D01*
X97501517Y-55749925D01*
X97498471Y-55750000D01*
X96293362Y-55750000D01*
X96226323Y-55730315D01*
X96205681Y-55713681D01*
X95992000Y-55500000D01*
X80809362Y-55500000D01*
X80742323Y-55480315D01*
X80721681Y-55463681D01*
X80286319Y-55028319D01*
X80252834Y-54966996D01*
X80250000Y-54940638D01*
X80250000Y-52559361D01*
X80269685Y-52492322D01*
X80286319Y-52471680D01*
X80721681Y-52036319D01*
X80783004Y-52002834D01*
X80809362Y-52000000D01*
X95992000Y-52000000D01*
X95992000Y-51999999D01*
X96205681Y-51786319D01*
X96267004Y-51752834D01*
X96293362Y-51750000D01*
X97498469Y-51750000D01*
X97501511Y-51750075D01*
G37*
G36*
X97693039Y-50519685D02*
G01*
X97738794Y-50572489D01*
X97750000Y-50624000D01*
X97750000Y-56876000D01*
X97730315Y-56943039D01*
X97677511Y-56988794D01*
X97626000Y-57000000D01*
X96501529Y-57000000D01*
X96498483Y-56999925D01*
X96478534Y-56998944D01*
X96472480Y-56998348D01*
X96454243Y-56995643D01*
X96448272Y-56994455D01*
X96430386Y-56989976D01*
X96424556Y-56988207D01*
X96407198Y-56981996D01*
X96401576Y-56979667D01*
X96384906Y-56971783D01*
X96379537Y-56968913D01*
X96363718Y-56959432D01*
X96358657Y-56956050D01*
X96343853Y-56945071D01*
X96339148Y-56941210D01*
X96325483Y-56928826D01*
X96321173Y-56924516D01*
X96308789Y-56910851D01*
X96304928Y-56906146D01*
X96293949Y-56891342D01*
X96290567Y-56886281D01*
X96281086Y-56870462D01*
X96278216Y-56865093D01*
X96270332Y-56848423D01*
X96268003Y-56842801D01*
X96261792Y-56825443D01*
X96260023Y-56819613D01*
X96255544Y-56801727D01*
X96254356Y-56795756D01*
X96251651Y-56777517D01*
X96251055Y-56771460D01*
X96250075Y-56751511D01*
X96250000Y-56748469D01*
X96250000Y-56543361D01*
X96269685Y-56476322D01*
X96286319Y-56455680D01*
X96500000Y-56241999D01*
X96500000Y-56008000D01*
X96286319Y-55794319D01*
X96252834Y-55732996D01*
X96250000Y-55706638D01*
X96250000Y-51793362D01*
X96269685Y-51726323D01*
X96286319Y-51705681D01*
X96499999Y-51492000D01*
X96500000Y-51491999D01*
X96500000Y-51258000D01*
X96286319Y-51044319D01*
X96252834Y-50982996D01*
X96250000Y-50956638D01*
X96250000Y-50751530D01*
X96250075Y-50748488D01*
X96251055Y-50728539D01*
X96251651Y-50722482D01*
X96254356Y-50704243D01*
X96255544Y-50698272D01*
X96260023Y-50680386D01*
X96261792Y-50674556D01*
X96268003Y-50657198D01*
X96270332Y-50651576D01*
X96278216Y-50634906D01*
X96281086Y-50629537D01*
X96290567Y-50613718D01*
X96293949Y-50608657D01*
X96304928Y-50593853D01*
X96308789Y-50589148D01*
X96321173Y-50575483D01*
X96325483Y-50571173D01*
X96339148Y-50558789D01*
X96343853Y-50554928D01*
X96358657Y-50543949D01*
X96363718Y-50540567D01*
X96379537Y-50531086D01*
X96384906Y-50528216D01*
X96401576Y-50520332D01*
X96407198Y-50518003D01*
X96424556Y-50511792D01*
X96430386Y-50510023D01*
X96448272Y-50505544D01*
X96454243Y-50504356D01*
X96472482Y-50501651D01*
X96478540Y-50501055D01*
X96498489Y-50500075D01*
X96501531Y-50500000D01*
X97626000Y-50500000D01*
X97693039Y-50519685D01*
G37*
G36*
X83249931Y-27720002D02*
G01*
X83270905Y-27736905D01*
X83705095Y-28171095D01*
X83739121Y-28233407D01*
X83742000Y-28260190D01*
X83742000Y-29171809D01*
X83721998Y-29239930D01*
X83705096Y-29260904D01*
X83270906Y-29695095D01*
X83208593Y-29729120D01*
X83181810Y-29732000D01*
X73622190Y-29732000D01*
X73554069Y-29711998D01*
X73533095Y-29695095D01*
X73098905Y-29260905D01*
X73064879Y-29198593D01*
X73062000Y-29171810D01*
X73062000Y-28260190D01*
X73082002Y-28192069D01*
X73098905Y-28171095D01*
X73533095Y-27736905D01*
X73595407Y-27702879D01*
X73622190Y-27700000D01*
X83181810Y-27700000D01*
X83249931Y-27720002D01*
G37*
G36*
X83249931Y-30514002D02*
G01*
X83270905Y-30530905D01*
X83705095Y-30965095D01*
X83739121Y-31027407D01*
X83742000Y-31054190D01*
X83742000Y-31965809D01*
X83721998Y-32033930D01*
X83705096Y-32054904D01*
X83270906Y-32489095D01*
X83208593Y-32523120D01*
X83181810Y-32526000D01*
X73622190Y-32526000D01*
X73554069Y-32505998D01*
X73533095Y-32489095D01*
X73098905Y-32054905D01*
X73064879Y-31992593D01*
X73062000Y-31965810D01*
X73062000Y-31054190D01*
X73082002Y-30986069D01*
X73098905Y-30965095D01*
X73533095Y-30530905D01*
X73595407Y-30496879D01*
X73622190Y-30494000D01*
X83181810Y-30494000D01*
X83249931Y-30514002D01*
G37*
G36*
X97257677Y-48269685D02*
G01*
X97278319Y-48286319D01*
X97713681Y-48721681D01*
X97747166Y-48783004D01*
X97750000Y-48809362D01*
X97750000Y-50876000D01*
X97730315Y-50943039D01*
X97677511Y-50988794D01*
X97626000Y-51000000D01*
X96293362Y-51000000D01*
X96226323Y-50980315D01*
X96205681Y-50963681D01*
X95992000Y-50750000D01*
X80809362Y-50750000D01*
X80742323Y-50730315D01*
X80721681Y-50713681D01*
X80286319Y-50278319D01*
X80252834Y-50216996D01*
X80250000Y-50190638D01*
X80250000Y-48809362D01*
X80269685Y-48742323D01*
X80286319Y-48721681D01*
X80721681Y-48286319D01*
X80783004Y-48252834D01*
X80809362Y-48250000D01*
X97190638Y-48250000D01*
X97257677Y-48269685D01*
G37*
G36*
X78693039Y-51769685D02*
G01*
X78738794Y-51822489D01*
X78750000Y-51874000D01*
X78750000Y-59126000D01*
X78730315Y-59193039D01*
X78677511Y-59238794D01*
X78626000Y-59250000D01*
X75124000Y-59250000D01*
X75056961Y-59230315D01*
X75011206Y-59177511D01*
X75000000Y-59126000D01*
X75000000Y-51874000D01*
X75019685Y-51806961D01*
X75072489Y-51761206D01*
X75124000Y-51750000D01*
X78626000Y-51750000D01*
X78693039Y-51769685D01*
G37*
G36*
X97693039Y-56519685D02*
G01*
X97738794Y-56572489D01*
X97750000Y-56624000D01*
X97750000Y-58440638D01*
X97730315Y-58507677D01*
X97713681Y-58528319D01*
X97278319Y-58963681D01*
X97216996Y-58997166D01*
X97190638Y-59000000D01*
X80809362Y-59000000D01*
X80742323Y-58980315D01*
X80721681Y-58963681D01*
X80286319Y-58528319D01*
X80252834Y-58466996D01*
X80250000Y-58440638D01*
X80250000Y-57309362D01*
X80269685Y-57242323D01*
X80286319Y-57221681D01*
X80721681Y-56786319D01*
X80783004Y-56752834D01*
X80809362Y-56750000D01*
X95992000Y-56750000D01*
X95992000Y-56749999D01*
X96205681Y-56536319D01*
X96267004Y-56502834D01*
X96293362Y-56500000D01*
X97626000Y-56500000D01*
X97693039Y-56519685D01*
G37*
G36*
X74443039Y-51769685D02*
G01*
X74488794Y-51822489D01*
X74500000Y-51874000D01*
X74500000Y-59126000D01*
X74480315Y-59193039D01*
X74427511Y-59238794D01*
X74376000Y-59250000D01*
X70874000Y-59250000D01*
X70806961Y-59230315D01*
X70761206Y-59177511D01*
X70750000Y-59126000D01*
X70750000Y-51874000D01*
X70769685Y-51806961D01*
X70822489Y-51761206D01*
X70874000Y-51750000D01*
X74376000Y-51750000D01*
X74443039Y-51769685D01*
G37*
%LPD*%
M02*
