G04 #@! TF.GenerationSoftware,KiCad,Pcbnew,7.0.5*
G04 #@! TF.CreationDate,2024-02-26T21:12:57+02:00*
G04 #@! TF.ProjectId,WTP_receiver,5754505f-7265-4636-9569-7665722e6b69,rev?*
G04 #@! TF.SameCoordinates,Original*
G04 #@! TF.FileFunction,Copper,L1,Top*
G04 #@! TF.FilePolarity,Positive*
%FSLAX46Y46*%
G04 Gerber Fmt 4.6, Leading zero omitted, Abs format (unit mm)*
G04 Created by KiCad (PCBNEW 7.0.5) date 2024-02-26 21:12:57*
%MOMM*%
%LPD*%
G01*
G04 APERTURE LIST*
G04 Aperture macros list*
%AMRoundRect*
0 Rectangle with rounded corners*
0 $1 Rounding radius*
0 $2 $3 $4 $5 $6 $7 $8 $9 X,Y pos of 4 corners*
0 Add a 4 corners polygon primitive as box body*
4,1,4,$2,$3,$4,$5,$6,$7,$8,$9,$2,$3,0*
0 Add four circle primitives for the rounded corners*
1,1,$1+$1,$2,$3*
1,1,$1+$1,$4,$5*
1,1,$1+$1,$6,$7*
1,1,$1+$1,$8,$9*
0 Add four rect primitives between the rounded corners*
20,1,$1+$1,$2,$3,$4,$5,0*
20,1,$1+$1,$4,$5,$6,$7,0*
20,1,$1+$1,$6,$7,$8,$9,0*
20,1,$1+$1,$8,$9,$2,$3,0*%
G04 Aperture macros list end*
G04 #@! TA.AperFunction,SMDPad,CuDef*
%ADD10RoundRect,0.250000X0.475000X-0.250000X0.475000X0.250000X-0.475000X0.250000X-0.475000X-0.250000X0*%
G04 #@! TD*
G04 #@! TA.AperFunction,SMDPad,CuDef*
%ADD11RoundRect,0.250000X2.450000X-0.650000X2.450000X0.650000X-2.450000X0.650000X-2.450000X-0.650000X0*%
G04 #@! TD*
G04 #@! TA.AperFunction,ComponentPad*
%ADD12O,0.950000X1.750000*%
G04 #@! TD*
G04 #@! TA.AperFunction,ComponentPad*
%ADD13O,0.950000X2.050000*%
G04 #@! TD*
G04 #@! TA.AperFunction,SMDPad,CuDef*
%ADD14R,0.600000X1.140000*%
G04 #@! TD*
G04 #@! TA.AperFunction,SMDPad,CuDef*
%ADD15R,0.300000X1.140000*%
G04 #@! TD*
G04 #@! TA.AperFunction,ComponentPad*
%ADD16R,1.508000X1.508000*%
G04 #@! TD*
G04 #@! TA.AperFunction,ComponentPad*
%ADD17C,1.508000*%
G04 #@! TD*
G04 #@! TA.AperFunction,SMDPad,CuDef*
%ADD18R,1.440000X1.600000*%
G04 #@! TD*
G04 #@! TA.AperFunction,SMDPad,CuDef*
%ADD19R,4.960000X3.800000*%
G04 #@! TD*
G04 #@! TA.AperFunction,SMDPad,CuDef*
%ADD20R,3.180000X1.070000*%
G04 #@! TD*
G04 #@! TA.AperFunction,SMDPad,CuDef*
%ADD21RoundRect,0.250000X1.100000X-0.325000X1.100000X0.325000X-1.100000X0.325000X-1.100000X-0.325000X0*%
G04 #@! TD*
G04 #@! TA.AperFunction,SMDPad,CuDef*
%ADD22RoundRect,0.250000X-0.650000X1.000000X-0.650000X-1.000000X0.650000X-1.000000X0.650000X1.000000X0*%
G04 #@! TD*
G04 #@! TA.AperFunction,ViaPad*
%ADD23C,0.685800*%
G04 #@! TD*
G04 #@! TA.AperFunction,Conductor*
%ADD24C,0.500000*%
G04 #@! TD*
G04 APERTURE END LIST*
D10*
X60800000Y-32950000D03*
X60800000Y-31050000D03*
D11*
X66600000Y-32550000D03*
X66600000Y-27450000D03*
D12*
X77600000Y-18500000D03*
X86250000Y-18500000D03*
D13*
X77600000Y-22700000D03*
X86250000Y-22700000D03*
D14*
X78725000Y-23250000D03*
X79525000Y-23250000D03*
D15*
X80175000Y-23250000D03*
X80675000Y-23250000D03*
X81175000Y-23250000D03*
X81675000Y-23250000D03*
X83675000Y-23250000D03*
X83175000Y-23250000D03*
X82675000Y-23250000D03*
X82175000Y-23250000D03*
D14*
X84325000Y-23250000D03*
X85125000Y-23250000D03*
D16*
X66000000Y-34873000D03*
D17*
X63460000Y-34873000D03*
X60920000Y-34873000D03*
D18*
X84862000Y-36207000D03*
X84862000Y-34077000D03*
D19*
X81062000Y-35142000D03*
D20*
X90250000Y-52754000D03*
X90250000Y-49750000D03*
X82250000Y-52754000D03*
X82250000Y-49750000D03*
D21*
X79678000Y-31461000D03*
X79678000Y-28511000D03*
D20*
X90250000Y-57752000D03*
X90250000Y-54748000D03*
D22*
X71300000Y-27900000D03*
X71300000Y-31900000D03*
D20*
X86250000Y-52754000D03*
X86250000Y-49750000D03*
X94250000Y-52754000D03*
X94250000Y-49750000D03*
X94250000Y-57752000D03*
X94250000Y-54748000D03*
X86250000Y-57754000D03*
X86250000Y-54750000D03*
D10*
X74200000Y-30750000D03*
X74200000Y-28850000D03*
X82600000Y-30850000D03*
X82600000Y-28950000D03*
X76630000Y-30750000D03*
X76630000Y-28850000D03*
D20*
X82250000Y-57752000D03*
X82250000Y-54748000D03*
D18*
X96546000Y-36207000D03*
X96546000Y-34077000D03*
D19*
X92746000Y-35142000D03*
D18*
X84862000Y-44335000D03*
X84862000Y-42205000D03*
D19*
X81062000Y-43270000D03*
D18*
X96546000Y-44335000D03*
X96546000Y-42205000D03*
D19*
X92746000Y-43270000D03*
D23*
X96384000Y-31144000D03*
X97654000Y-27334000D03*
X97654000Y-29874000D03*
X96384000Y-28604000D03*
X100448000Y-31144000D03*
X93590000Y-31144000D03*
X97654000Y-28604000D03*
X96384000Y-23524000D03*
X92320000Y-31144000D03*
X97654000Y-23524000D03*
X96384000Y-29874000D03*
X94860000Y-31144000D03*
X94860000Y-29874000D03*
X100448000Y-29874000D03*
X97654000Y-24794000D03*
X99178000Y-29874000D03*
X97654000Y-26064000D03*
X92320000Y-29874000D03*
X93590000Y-29874000D03*
X96384000Y-27334000D03*
X99178000Y-31144000D03*
X97654000Y-31144000D03*
X96384000Y-26064000D03*
X96384000Y-24794000D03*
X71440000Y-46500000D03*
X87748000Y-36224000D03*
X73980000Y-49040000D03*
X71440000Y-49040000D03*
X87748000Y-33684000D03*
X86478000Y-34954000D03*
X89018000Y-38764000D03*
X87748000Y-34954000D03*
X73980000Y-47770000D03*
X72710000Y-47770000D03*
X71440000Y-50310000D03*
X72710000Y-49040000D03*
X86478000Y-37494000D03*
X89018000Y-36224000D03*
X72710000Y-50310000D03*
X86478000Y-36224000D03*
X89018000Y-33684000D03*
X71440000Y-47770000D03*
X89018000Y-37494000D03*
X86478000Y-38764000D03*
X72710000Y-46500000D03*
X75250000Y-49040000D03*
X89018000Y-34954000D03*
X87748000Y-37494000D03*
X75250000Y-46500000D03*
X73980000Y-46500000D03*
X87748000Y-38764000D03*
X75250000Y-50310000D03*
X75250000Y-47770000D03*
X86478000Y-33684000D03*
X73980000Y-50310000D03*
D24*
X61550000Y-31050000D02*
X61000000Y-31050000D01*
X62700000Y-32200000D02*
X61550000Y-31050000D01*
X62700000Y-33200000D02*
X62700000Y-32200000D01*
X63460000Y-34873000D02*
X63460000Y-33960000D01*
X63460000Y-33960000D02*
X62700000Y-33200000D01*
X78150000Y-23250000D02*
X78725000Y-23250000D01*
X77600000Y-22700000D02*
X78150000Y-23250000D01*
X85950000Y-23250000D02*
X85125000Y-23250000D01*
X86250000Y-22950000D02*
X85950000Y-23250000D01*
X86250000Y-22700000D02*
X86250000Y-22950000D01*
X80500000Y-25000000D02*
X79519250Y-24019250D01*
X83564250Y-25000000D02*
X80500000Y-25000000D01*
X84319250Y-24245000D02*
X83564250Y-25000000D01*
X84319250Y-23275000D02*
X84319250Y-24245000D01*
X79519250Y-24019250D02*
X79519250Y-23275000D01*
G04 #@! TA.AperFunction,Conductor*
G36*
X94757677Y-40019685D02*
G01*
X94778319Y-40036319D01*
X95200181Y-40458181D01*
X95233666Y-40519504D01*
X95236500Y-40545862D01*
X95236500Y-44717330D01*
X95246365Y-44817503D01*
X95246367Y-44817514D01*
X95247617Y-44823797D01*
X95250000Y-44847988D01*
X95250000Y-45750000D01*
X95609209Y-46109209D01*
X95609210Y-46109210D01*
X97373348Y-47873348D01*
X97400228Y-47913576D01*
X97740561Y-48735212D01*
X97750000Y-48782665D01*
X97750000Y-58440638D01*
X97730315Y-58507677D01*
X97713681Y-58528319D01*
X97278319Y-58963681D01*
X97216996Y-58997166D01*
X97190638Y-59000000D01*
X80809362Y-59000000D01*
X80742323Y-58980315D01*
X80721681Y-58963681D01*
X80286319Y-58528319D01*
X80252834Y-58466996D01*
X80250000Y-58440638D01*
X80250000Y-57309362D01*
X80269685Y-57242323D01*
X80286319Y-57221681D01*
X80721681Y-56786319D01*
X80783004Y-56752834D01*
X80809362Y-56750000D01*
X95646445Y-56750000D01*
X95646447Y-56750000D01*
X96000000Y-56750000D01*
X96500000Y-56250000D01*
X96500000Y-51250000D01*
X96000000Y-50750000D01*
X95646448Y-50750000D01*
X80809362Y-50750000D01*
X80742323Y-50730315D01*
X80721681Y-50713681D01*
X80286319Y-50278319D01*
X80252834Y-50216996D01*
X80250000Y-50190638D01*
X80250000Y-48789095D01*
X80264672Y-48730585D01*
X80658011Y-47995624D01*
X80698551Y-47950965D01*
X83577318Y-46031788D01*
X83577318Y-46031787D01*
X84000000Y-45750000D01*
X84000000Y-45397138D01*
X84043989Y-45279201D01*
X84047752Y-45244201D01*
X84050499Y-45218654D01*
X84050500Y-45218637D01*
X84050500Y-44928624D01*
X84061706Y-44877111D01*
X84073014Y-44852351D01*
X84092699Y-44785312D01*
X84092700Y-44785308D01*
X84113500Y-44640638D01*
X84113500Y-40445861D01*
X84133185Y-40378823D01*
X84149819Y-40358181D01*
X84471681Y-40036319D01*
X84533004Y-40002834D01*
X84559362Y-40000000D01*
X94690638Y-40000000D01*
X94757677Y-40019685D01*
G37*
G04 #@! TD.AperFunction*
G04 #@! TA.AperFunction,Conductor*
G36*
X85057677Y-16519685D02*
G01*
X85078319Y-16536319D01*
X85513682Y-16971682D01*
X85547166Y-17033003D01*
X85550000Y-17059361D01*
X85550000Y-17355247D01*
X85530315Y-17422286D01*
X85511434Y-17445119D01*
X85499916Y-17456068D01*
X85499911Y-17456073D01*
X85385644Y-17620244D01*
X85306765Y-17804057D01*
X85266500Y-17999987D01*
X85266500Y-18949878D01*
X85281663Y-19098999D01*
X85341540Y-19289840D01*
X85341547Y-19289855D01*
X85391445Y-19379755D01*
X85438616Y-19464740D01*
X85506600Y-19543932D01*
X85520085Y-19559639D01*
X85548818Y-19623328D01*
X85550000Y-19640410D01*
X85550000Y-21405247D01*
X85530315Y-21472286D01*
X85511434Y-21495119D01*
X85499916Y-21506068D01*
X85499911Y-21506073D01*
X85385645Y-21670244D01*
X85376801Y-21690852D01*
X85332273Y-21744694D01*
X85265704Y-21765916D01*
X85198229Y-21747779D01*
X85187364Y-21740324D01*
X85105234Y-21677302D01*
X85105230Y-21677300D01*
X85014731Y-21639814D01*
X84965236Y-21619313D01*
X84951171Y-21617461D01*
X84852727Y-21604500D01*
X84852720Y-21604500D01*
X84777280Y-21604500D01*
X84777272Y-21604500D01*
X84664764Y-21619313D01*
X84664763Y-21619313D01*
X84524770Y-21677300D01*
X84524767Y-21677301D01*
X84524767Y-21677302D01*
X84404549Y-21769549D01*
X84339704Y-21854057D01*
X84312300Y-21889770D01*
X84254313Y-22029763D01*
X84254313Y-22029764D01*
X84241057Y-22130451D01*
X84212790Y-22194347D01*
X84154466Y-22232818D01*
X84084601Y-22233649D01*
X84074783Y-22230446D01*
X83934203Y-22178011D01*
X83873654Y-22171500D01*
X83873638Y-22171500D01*
X83476362Y-22171500D01*
X83476355Y-22171500D01*
X83438252Y-22175596D01*
X83411748Y-22175596D01*
X83373644Y-22171500D01*
X83373638Y-22171500D01*
X82976362Y-22171500D01*
X82976355Y-22171500D01*
X82938252Y-22175596D01*
X82911748Y-22175596D01*
X82873644Y-22171500D01*
X82873638Y-22171500D01*
X82476362Y-22171500D01*
X82476355Y-22171500D01*
X82438252Y-22175596D01*
X82411748Y-22175596D01*
X82373644Y-22171500D01*
X82373638Y-22171500D01*
X81976362Y-22171500D01*
X81976355Y-22171500D01*
X81938252Y-22175596D01*
X81911748Y-22175596D01*
X81873644Y-22171500D01*
X81873638Y-22171500D01*
X81476362Y-22171500D01*
X81476355Y-22171500D01*
X81438252Y-22175596D01*
X81411748Y-22175596D01*
X81373644Y-22171500D01*
X81373638Y-22171500D01*
X80976362Y-22171500D01*
X80976355Y-22171500D01*
X80938252Y-22175596D01*
X80911748Y-22175596D01*
X80873644Y-22171500D01*
X80873638Y-22171500D01*
X80476362Y-22171500D01*
X80476355Y-22171500D01*
X80438252Y-22175596D01*
X80411748Y-22175596D01*
X80373644Y-22171500D01*
X80373638Y-22171500D01*
X79976362Y-22171500D01*
X79976345Y-22171500D01*
X79915797Y-22178011D01*
X79915792Y-22178012D01*
X79775215Y-22230446D01*
X79705524Y-22235431D01*
X79644200Y-22201947D01*
X79610715Y-22140624D01*
X79608944Y-22130464D01*
X79595687Y-22029764D01*
X79537698Y-21889767D01*
X79445451Y-21769549D01*
X79325233Y-21677302D01*
X79325229Y-21677300D01*
X79261801Y-21651027D01*
X79185236Y-21619313D01*
X79171171Y-21617461D01*
X79072727Y-21604500D01*
X79072720Y-21604500D01*
X78997280Y-21604500D01*
X78997272Y-21604500D01*
X78884764Y-21619313D01*
X78884763Y-21619313D01*
X78744769Y-21677300D01*
X78744766Y-21677302D01*
X78660895Y-21741659D01*
X78595726Y-21766853D01*
X78527281Y-21752815D01*
X78477292Y-21704001D01*
X78476990Y-21703460D01*
X78411385Y-21585262D01*
X78411382Y-21585257D01*
X78281094Y-21433491D01*
X78281093Y-21433489D01*
X78122921Y-21311055D01*
X78122917Y-21311053D01*
X77943336Y-21222964D01*
X77749697Y-21172828D01*
X77749699Y-21172828D01*
X77616519Y-21166073D01*
X77549930Y-21162697D01*
X77549929Y-21162697D01*
X77549927Y-21162697D01*
X77352219Y-21192984D01*
X77352207Y-21192987D01*
X77164643Y-21262454D01*
X77164634Y-21262458D01*
X76994892Y-21368258D01*
X76994886Y-21368262D01*
X76849915Y-21506067D01*
X76849914Y-21506069D01*
X76735644Y-21670244D01*
X76656765Y-21854057D01*
X76616500Y-22049987D01*
X76616500Y-23299878D01*
X76631663Y-23448999D01*
X76691540Y-23639840D01*
X76691547Y-23639855D01*
X76788614Y-23814737D01*
X76788617Y-23814742D01*
X76918905Y-23966508D01*
X76918906Y-23966510D01*
X77077078Y-24088944D01*
X77077081Y-24088946D01*
X77256664Y-24177036D01*
X77450303Y-24227172D01*
X77650070Y-24237303D01*
X77847788Y-24207014D01*
X77948830Y-24169590D01*
X78018532Y-24164767D01*
X78066204Y-24186603D01*
X78178796Y-24270889D01*
X78315799Y-24321989D01*
X78343050Y-24324918D01*
X78376345Y-24328499D01*
X78376362Y-24328500D01*
X79073638Y-24328500D01*
X79073654Y-24328499D01*
X79100692Y-24325591D01*
X79134201Y-24321989D01*
X79271204Y-24270889D01*
X79388261Y-24183261D01*
X79425733Y-24133203D01*
X79481666Y-24091332D01*
X79551358Y-24086348D01*
X79612681Y-24119833D01*
X79624267Y-24133204D01*
X79661737Y-24183259D01*
X79661738Y-24183259D01*
X79661739Y-24183261D01*
X79778796Y-24270889D01*
X79915799Y-24321989D01*
X79943050Y-24324918D01*
X79976345Y-24328499D01*
X79976362Y-24328500D01*
X80373638Y-24328500D01*
X80376120Y-24328233D01*
X80411745Y-24324404D01*
X80438255Y-24324404D01*
X80476343Y-24328498D01*
X80476362Y-24328500D01*
X80873638Y-24328500D01*
X80876120Y-24328233D01*
X80911745Y-24324404D01*
X80938255Y-24324404D01*
X80976343Y-24328498D01*
X80976362Y-24328500D01*
X81373638Y-24328500D01*
X81376120Y-24328233D01*
X81411745Y-24324404D01*
X81438255Y-24324404D01*
X81476343Y-24328498D01*
X81476362Y-24328500D01*
X81873638Y-24328500D01*
X81876120Y-24328233D01*
X81911745Y-24324404D01*
X81938255Y-24324404D01*
X81976343Y-24328498D01*
X81976362Y-24328500D01*
X82373638Y-24328500D01*
X82376120Y-24328233D01*
X82411745Y-24324404D01*
X82438255Y-24324404D01*
X82476343Y-24328498D01*
X82476362Y-24328500D01*
X82873638Y-24328500D01*
X82876120Y-24328233D01*
X82911745Y-24324404D01*
X82938255Y-24324404D01*
X82976343Y-24328498D01*
X82976362Y-24328500D01*
X83373638Y-24328500D01*
X83376120Y-24328233D01*
X83411745Y-24324404D01*
X83438255Y-24324404D01*
X83476343Y-24328498D01*
X83476362Y-24328500D01*
X83873638Y-24328500D01*
X83873654Y-24328499D01*
X83900692Y-24325591D01*
X83934201Y-24321989D01*
X84071204Y-24270889D01*
X84188261Y-24183261D01*
X84225733Y-24133203D01*
X84281666Y-24091332D01*
X84351358Y-24086348D01*
X84412681Y-24119833D01*
X84424267Y-24133204D01*
X84461737Y-24183259D01*
X84461738Y-24183259D01*
X84461739Y-24183261D01*
X84578796Y-24270889D01*
X84715799Y-24321989D01*
X84743050Y-24324918D01*
X84776345Y-24328499D01*
X84776362Y-24328500D01*
X85141805Y-24328500D01*
X85208844Y-24348185D01*
X85254599Y-24400989D01*
X85264543Y-24470147D01*
X85249269Y-24514367D01*
X85127223Y-24726361D01*
X85082024Y-24771728D01*
X84453496Y-25136679D01*
X84423472Y-25149180D01*
X83507839Y-25395735D01*
X83475598Y-25400000D01*
X63250000Y-25400000D01*
X62906734Y-25774472D01*
X62906731Y-25774474D01*
X62520831Y-26195456D01*
X62150000Y-26600000D01*
X62150000Y-27107999D01*
X62150000Y-27108000D01*
X62150000Y-30301330D01*
X62130315Y-30368369D01*
X62077511Y-30414124D01*
X62008353Y-30424068D01*
X61957925Y-30402399D01*
X61957048Y-30403822D01*
X61950908Y-30400034D01*
X61950906Y-30400033D01*
X61940433Y-30395149D01*
X61887996Y-30348979D01*
X61887412Y-30348045D01*
X61874030Y-30326348D01*
X61748652Y-30200970D01*
X61597738Y-30107885D01*
X61597735Y-30107884D01*
X61429427Y-30052113D01*
X61325546Y-30041500D01*
X60274462Y-30041500D01*
X60274446Y-30041501D01*
X60170572Y-30052113D01*
X60002264Y-30107884D01*
X60002259Y-30107886D01*
X59851346Y-30200971D01*
X59725971Y-30326346D01*
X59632886Y-30477259D01*
X59632884Y-30477264D01*
X59577113Y-30645572D01*
X59566500Y-30749447D01*
X59566500Y-31350537D01*
X59566501Y-31350553D01*
X59577113Y-31454427D01*
X59616620Y-31573652D01*
X59632885Y-31622738D01*
X59725970Y-31773652D01*
X59851348Y-31899030D01*
X60002262Y-31992115D01*
X60170574Y-32047887D01*
X60274455Y-32058500D01*
X61325544Y-32058499D01*
X61364024Y-32054568D01*
X61412345Y-32049632D01*
X61481038Y-32062402D01*
X61512628Y-32085309D01*
X61905181Y-32477862D01*
X61938666Y-32539185D01*
X61941500Y-32565543D01*
X61941500Y-33135706D01*
X61940191Y-33153676D01*
X61936658Y-33177791D01*
X61941264Y-33230420D01*
X61941500Y-33235827D01*
X61941500Y-33244182D01*
X61945244Y-33276217D01*
X61945427Y-33278008D01*
X61952112Y-33354427D01*
X61953572Y-33361494D01*
X61953526Y-33361503D01*
X61955209Y-33369094D01*
X61955254Y-33369084D01*
X61956919Y-33376110D01*
X61983163Y-33448214D01*
X61983754Y-33449915D01*
X62000030Y-33499030D01*
X62007886Y-33522738D01*
X62007889Y-33522743D01*
X62010940Y-33529286D01*
X62010896Y-33529306D01*
X62014284Y-33536304D01*
X62014327Y-33536283D01*
X62017568Y-33542737D01*
X62059741Y-33606857D01*
X62060703Y-33608367D01*
X62100970Y-33673651D01*
X62100971Y-33673652D01*
X62100973Y-33673655D01*
X62105451Y-33679318D01*
X62105413Y-33679347D01*
X62110316Y-33685366D01*
X62110352Y-33685337D01*
X62119637Y-33696401D01*
X62117512Y-33698184D01*
X62146339Y-33747473D01*
X62150000Y-33777383D01*
X62150000Y-35740638D01*
X62130315Y-35807677D01*
X62113681Y-35828319D01*
X61678319Y-36263681D01*
X61616996Y-36297166D01*
X61590638Y-36300000D01*
X57559362Y-36300000D01*
X57492323Y-36280315D01*
X57471681Y-36263681D01*
X57036819Y-35828819D01*
X57003334Y-35767496D01*
X57000500Y-35741138D01*
X57000500Y-19817763D01*
X58545787Y-19817763D01*
X58575413Y-20087013D01*
X58575415Y-20087024D01*
X58643926Y-20349082D01*
X58643928Y-20349088D01*
X58749870Y-20598390D01*
X58821998Y-20716575D01*
X58890979Y-20829605D01*
X58890986Y-20829615D01*
X59064253Y-21037819D01*
X59064259Y-21037824D01*
X59265998Y-21218582D01*
X59491910Y-21368044D01*
X59737176Y-21483020D01*
X59737183Y-21483022D01*
X59737185Y-21483023D01*
X59996557Y-21561057D01*
X59996564Y-21561058D01*
X59996569Y-21561060D01*
X60264561Y-21600500D01*
X60264566Y-21600500D01*
X60467629Y-21600500D01*
X60467631Y-21600500D01*
X60467636Y-21600499D01*
X60467648Y-21600499D01*
X60505191Y-21597750D01*
X60670156Y-21585677D01*
X60782758Y-21560593D01*
X60934546Y-21526782D01*
X60934548Y-21526781D01*
X60934553Y-21526780D01*
X61187558Y-21430014D01*
X61423777Y-21297441D01*
X61638177Y-21131888D01*
X61826186Y-20936881D01*
X61983799Y-20716579D01*
X62057787Y-20572669D01*
X62107649Y-20475690D01*
X62107651Y-20475684D01*
X62107656Y-20475675D01*
X62195118Y-20219305D01*
X62244319Y-19952933D01*
X62254212Y-19682235D01*
X62224586Y-19412982D01*
X62156072Y-19150912D01*
X62070642Y-18949878D01*
X76616500Y-18949878D01*
X76631663Y-19098999D01*
X76691540Y-19289840D01*
X76691547Y-19289855D01*
X76788614Y-19464737D01*
X76788617Y-19464742D01*
X76918905Y-19616508D01*
X76918906Y-19616510D01*
X77077078Y-19738944D01*
X77077081Y-19738946D01*
X77256664Y-19827036D01*
X77450303Y-19877172D01*
X77650070Y-19887303D01*
X77847788Y-19857014D01*
X78035361Y-19787544D01*
X78205111Y-19681739D01*
X78333560Y-19559639D01*
X78350084Y-19543932D01*
X78350084Y-19543931D01*
X78350087Y-19543929D01*
X78464355Y-19379756D01*
X78543235Y-19195942D01*
X78583500Y-19000012D01*
X78583500Y-18050123D01*
X78580130Y-18016976D01*
X78568336Y-17901000D01*
X78508459Y-17710159D01*
X78508457Y-17710155D01*
X78508456Y-17710151D01*
X78411384Y-17535260D01*
X78411383Y-17535259D01*
X78411382Y-17535257D01*
X78281094Y-17383491D01*
X78281093Y-17383489D01*
X78122921Y-17261055D01*
X78122917Y-17261053D01*
X77943336Y-17172964D01*
X77749697Y-17122828D01*
X77749699Y-17122828D01*
X77616519Y-17116073D01*
X77549930Y-17112697D01*
X77549929Y-17112697D01*
X77549927Y-17112697D01*
X77352219Y-17142984D01*
X77352207Y-17142987D01*
X77164643Y-17212454D01*
X77164634Y-17212458D01*
X76994892Y-17318258D01*
X76994886Y-17318262D01*
X76849915Y-17456067D01*
X76849914Y-17456069D01*
X76735644Y-17620244D01*
X76656765Y-17804057D01*
X76616500Y-17999987D01*
X76616500Y-18949878D01*
X62070642Y-18949878D01*
X62050130Y-18901610D01*
X61909018Y-18670390D01*
X61819747Y-18563119D01*
X61735746Y-18462180D01*
X61735740Y-18462175D01*
X61534002Y-18281418D01*
X61308092Y-18131957D01*
X61308090Y-18131956D01*
X61062824Y-18016980D01*
X61062819Y-18016978D01*
X61062814Y-18016976D01*
X60803442Y-17938942D01*
X60803428Y-17938939D01*
X60687791Y-17921921D01*
X60535439Y-17899500D01*
X60332369Y-17899500D01*
X60332351Y-17899500D01*
X60129844Y-17914323D01*
X60129831Y-17914325D01*
X59865453Y-17973217D01*
X59865446Y-17973220D01*
X59612439Y-18069987D01*
X59376226Y-18202557D01*
X59161822Y-18368112D01*
X58973822Y-18563109D01*
X58973816Y-18563116D01*
X58816202Y-18783419D01*
X58816199Y-18783424D01*
X58692350Y-19024309D01*
X58692343Y-19024327D01*
X58604884Y-19280685D01*
X58604882Y-19280695D01*
X58556261Y-19543930D01*
X58555681Y-19547068D01*
X58555680Y-19547075D01*
X58545787Y-19817763D01*
X57000500Y-19817763D01*
X57000500Y-17058861D01*
X57020185Y-16991822D01*
X57036814Y-16971185D01*
X57471680Y-16536319D01*
X57533004Y-16502834D01*
X57559362Y-16500000D01*
X84990638Y-16500000D01*
X85057677Y-16519685D01*
G37*
G04 #@! TD.AperFunction*
G04 #@! TA.AperFunction,Conductor*
G36*
X104507677Y-16519685D02*
G01*
X104528319Y-16536319D01*
X104963182Y-16971182D01*
X104996666Y-17032503D01*
X104999500Y-17058861D01*
X104999500Y-45691138D01*
X104979815Y-45758177D01*
X104963181Y-45778819D01*
X104528319Y-46213681D01*
X104466996Y-46247166D01*
X104440638Y-46250000D01*
X97282665Y-46250000D01*
X97235212Y-46240561D01*
X96413576Y-45900228D01*
X96373348Y-45873348D01*
X96126651Y-45626651D01*
X96099771Y-45586423D01*
X95759439Y-44764787D01*
X95750000Y-44717334D01*
X95750000Y-33258001D01*
X95750000Y-33258000D01*
X95750000Y-33257999D01*
X95750000Y-32750000D01*
X95000000Y-32000000D01*
X94492001Y-32000000D01*
X86536418Y-32000000D01*
X86482418Y-31987624D01*
X85710266Y-31614081D01*
X85667044Y-31579424D01*
X84415315Y-29998293D01*
X84100000Y-29600000D01*
X83592000Y-29600000D01*
X83591998Y-29600000D01*
X64258195Y-29600000D01*
X64191156Y-29580315D01*
X64171939Y-29565084D01*
X63719681Y-29127179D01*
X63685213Y-29066405D01*
X63682002Y-29042101D01*
X63618072Y-27060243D01*
X63635585Y-26992607D01*
X63652925Y-26969992D01*
X64071455Y-26537744D01*
X64132230Y-26503274D01*
X64160538Y-26500000D01*
X85391999Y-26500000D01*
X85392000Y-26500000D01*
X85900000Y-26500000D01*
X87800000Y-24700000D01*
X87770230Y-19817763D01*
X99645787Y-19817763D01*
X99675413Y-20087013D01*
X99675415Y-20087024D01*
X99743926Y-20349082D01*
X99743928Y-20349088D01*
X99849870Y-20598390D01*
X99921998Y-20716575D01*
X99990979Y-20829605D01*
X99990986Y-20829615D01*
X100164253Y-21037819D01*
X100164259Y-21037824D01*
X100365998Y-21218582D01*
X100591910Y-21368044D01*
X100837176Y-21483020D01*
X100837183Y-21483022D01*
X100837185Y-21483023D01*
X101096557Y-21561057D01*
X101096564Y-21561058D01*
X101096569Y-21561060D01*
X101364561Y-21600500D01*
X101364566Y-21600500D01*
X101567629Y-21600500D01*
X101567631Y-21600500D01*
X101567636Y-21600499D01*
X101567648Y-21600499D01*
X101605191Y-21597750D01*
X101770156Y-21585677D01*
X101882758Y-21560593D01*
X102034546Y-21526782D01*
X102034548Y-21526781D01*
X102034553Y-21526780D01*
X102287558Y-21430014D01*
X102523777Y-21297441D01*
X102738177Y-21131888D01*
X102926186Y-20936881D01*
X103083799Y-20716579D01*
X103157787Y-20572669D01*
X103207649Y-20475690D01*
X103207651Y-20475684D01*
X103207656Y-20475675D01*
X103295118Y-20219305D01*
X103344319Y-19952933D01*
X103354212Y-19682235D01*
X103324586Y-19412982D01*
X103256072Y-19150912D01*
X103150130Y-18901610D01*
X103009018Y-18670390D01*
X102919747Y-18563119D01*
X102835746Y-18462180D01*
X102835740Y-18462175D01*
X102634002Y-18281418D01*
X102408092Y-18131957D01*
X102408090Y-18131956D01*
X102162824Y-18016980D01*
X102162819Y-18016978D01*
X102162814Y-18016976D01*
X101903442Y-17938942D01*
X101903428Y-17938939D01*
X101787791Y-17921921D01*
X101635439Y-17899500D01*
X101432369Y-17899500D01*
X101432351Y-17899500D01*
X101229844Y-17914323D01*
X101229831Y-17914325D01*
X100965453Y-17973217D01*
X100965446Y-17973220D01*
X100712439Y-18069987D01*
X100476226Y-18202557D01*
X100261822Y-18368112D01*
X100073822Y-18563109D01*
X100073816Y-18563116D01*
X99916202Y-18783419D01*
X99916199Y-18783424D01*
X99792350Y-19024309D01*
X99792343Y-19024327D01*
X99704884Y-19280685D01*
X99704881Y-19280699D01*
X99655681Y-19547068D01*
X99655680Y-19547075D01*
X99645787Y-19817763D01*
X87770230Y-19817763D01*
X87759573Y-18069987D01*
X87753412Y-17059573D01*
X87772688Y-16992415D01*
X87789462Y-16971404D01*
X88221635Y-16536587D01*
X88282856Y-16502915D01*
X88309583Y-16500000D01*
X104440638Y-16500000D01*
X104507677Y-16519685D01*
G37*
G04 #@! TD.AperFunction*
G04 #@! TA.AperFunction,Conductor*
G36*
X95507677Y-51769685D02*
G01*
X95528319Y-51786319D01*
X95950181Y-52208181D01*
X95983666Y-52269504D01*
X95986500Y-52295862D01*
X95986500Y-55204137D01*
X95966815Y-55271176D01*
X95950181Y-55291818D01*
X95528319Y-55713681D01*
X95466996Y-55747166D01*
X95440638Y-55750000D01*
X79500000Y-55750000D01*
X79140790Y-56109209D01*
X79140789Y-56109210D01*
X79109210Y-56140789D01*
X79109209Y-56140790D01*
X78750000Y-56500000D01*
X78750000Y-57007998D01*
X78750000Y-58690638D01*
X78730315Y-58757677D01*
X78713681Y-58778319D01*
X78278319Y-59213681D01*
X78216996Y-59247166D01*
X78190638Y-59250000D01*
X75559362Y-59250000D01*
X75492323Y-59230315D01*
X75471681Y-59213681D01*
X75049213Y-58791213D01*
X75015728Y-58729890D01*
X75013211Y-58694678D01*
X75013500Y-58690638D01*
X75013500Y-52295862D01*
X75033185Y-52228823D01*
X75049819Y-52208181D01*
X75471681Y-51786319D01*
X75533004Y-51752834D01*
X75559362Y-51750000D01*
X95440638Y-51750000D01*
X95507677Y-51769685D01*
G37*
G04 #@! TD.AperFunction*
G04 #@! TA.AperFunction,Conductor*
G36*
X75757677Y-45769685D02*
G01*
X75778319Y-45786319D01*
X76213681Y-46221681D01*
X76247166Y-46283004D01*
X76250000Y-46309362D01*
X76250000Y-50121781D01*
X76240561Y-50169234D01*
X76019655Y-50702547D01*
X75975814Y-50756950D01*
X75952547Y-50769655D01*
X75419235Y-50990561D01*
X75371782Y-51000000D01*
X75000000Y-51000000D01*
X74500000Y-51500000D01*
X74500000Y-51853551D01*
X74500000Y-58690638D01*
X74480315Y-58757677D01*
X74463681Y-58778319D01*
X74028319Y-59213681D01*
X73966996Y-59247166D01*
X73940638Y-59250000D01*
X71309362Y-59250000D01*
X71242323Y-59230315D01*
X71221681Y-59213681D01*
X70786319Y-58778319D01*
X70752834Y-58716996D01*
X70750000Y-58690638D01*
X70750000Y-46309361D01*
X70769685Y-46242322D01*
X70786314Y-46221685D01*
X71221681Y-45786318D01*
X71283004Y-45752834D01*
X71309362Y-45750000D01*
X75690638Y-45750000D01*
X75757677Y-45769685D01*
G37*
G04 #@! TD.AperFunction*
G04 #@! TA.AperFunction,Conductor*
G36*
X94875931Y-32942002D02*
G01*
X94896905Y-32958905D01*
X95199595Y-33261595D01*
X95233621Y-33323907D01*
X95236500Y-33350690D01*
X95236500Y-38843309D01*
X95216498Y-38911430D01*
X95199596Y-38932404D01*
X94896903Y-39235096D01*
X94834593Y-39269120D01*
X94807810Y-39272000D01*
X84498190Y-39272000D01*
X84430069Y-39251998D01*
X84409095Y-39235095D01*
X84150405Y-38976405D01*
X84116379Y-38914093D01*
X84113500Y-38887310D01*
X84113500Y-33306689D01*
X84133502Y-33238568D01*
X84150396Y-33217603D01*
X84409097Y-32958902D01*
X84471407Y-32924879D01*
X84498190Y-32922000D01*
X94807810Y-32922000D01*
X94875931Y-32942002D01*
G37*
G04 #@! TD.AperFunction*
G04 #@! TA.AperFunction,Conductor*
G36*
X83107677Y-30319685D02*
G01*
X83128319Y-30336319D01*
X83563682Y-30771682D01*
X83597166Y-30833003D01*
X83600000Y-30859361D01*
X83600000Y-44640638D01*
X83580315Y-44707677D01*
X83563681Y-44728319D01*
X83128319Y-45163681D01*
X83066996Y-45197166D01*
X83040638Y-45200000D01*
X65559362Y-45200000D01*
X65492323Y-45180315D01*
X65471681Y-45163681D01*
X65036319Y-44728319D01*
X65002834Y-44666996D01*
X65000000Y-44640638D01*
X65000000Y-35007999D01*
X64999999Y-35007998D01*
X65000000Y-34500000D01*
X64612200Y-34171861D01*
X64612199Y-34171860D01*
X64245880Y-33861899D01*
X64207418Y-33803569D01*
X64204765Y-33790916D01*
X64204746Y-33790921D01*
X64203079Y-33783893D01*
X64203079Y-33783887D01*
X64176840Y-33711795D01*
X64176248Y-33710091D01*
X64152115Y-33637265D01*
X64152114Y-33637261D01*
X64152110Y-33637255D01*
X64149060Y-33630712D01*
X64149104Y-33630691D01*
X64145720Y-33623701D01*
X64145676Y-33623724D01*
X64142438Y-33617278D01*
X64142435Y-33617268D01*
X64100247Y-33553124D01*
X64099283Y-33551609D01*
X64059028Y-33486346D01*
X64054552Y-33480686D01*
X64054590Y-33480655D01*
X64049681Y-33474629D01*
X64049645Y-33474660D01*
X64045002Y-33469127D01*
X63989169Y-33416451D01*
X63987909Y-33415228D01*
X63919097Y-33346416D01*
X63894288Y-33310907D01*
X63711510Y-32916815D01*
X63700000Y-32864643D01*
X63700000Y-32059362D01*
X63719685Y-31992323D01*
X63736319Y-31971681D01*
X64171681Y-31536319D01*
X64233004Y-31502834D01*
X64259362Y-31500000D01*
X71691998Y-31500000D01*
X71692000Y-31500000D01*
X72200000Y-31500000D01*
X73023351Y-30676648D01*
X73063573Y-30649772D01*
X73885212Y-30309438D01*
X73932665Y-30300000D01*
X83040638Y-30300000D01*
X83107677Y-30319685D01*
G37*
G04 #@! TD.AperFunction*
M02*
