M48
; DRILL file {KiCad 7.0.5} date Mon Feb 26 21:13:02 2024
; FORMAT={-:-/ absolute / metric / decimal}
; #@! TF.CreationDate,2024-02-26T21:13:02+02:00
; #@! TF.GenerationSoftware,Kicad,Pcbnew,7.0.5
; #@! TF.FileFunction,Plated,1,2,PTH
FMAT,2
METRIC
; #@! TA.AperFunction,Plated,PTH,ViaDrill
T1C0.330
; #@! TA.AperFunction,Plated,PTH,ComponentDrill
T2C0.650
; #@! TA.AperFunction,Plated,PTH,ComponentDrill
T3C1.000
%
G90
G05
T1
X71.44Y-46.5
X71.44Y-47.77
X71.44Y-49.04
X71.44Y-50.31
X72.71Y-46.5
X72.71Y-47.77
X72.71Y-49.04
X72.71Y-50.31
X73.98Y-46.5
X73.98Y-47.77
X73.98Y-49.04
X73.98Y-50.31
X75.25Y-46.5
X75.25Y-47.77
X75.25Y-49.04
X75.25Y-50.31
X86.478Y-33.684
X86.478Y-34.954
X86.478Y-36.224
X86.478Y-37.494
X86.478Y-38.764
X87.748Y-33.684
X87.748Y-34.954
X87.748Y-36.224
X87.748Y-37.494
X87.748Y-38.764
X89.018Y-33.684
X89.018Y-34.954
X89.018Y-36.224
X89.018Y-37.494
X89.018Y-38.764
X92.32Y-29.874
X92.32Y-31.144
X93.59Y-29.874
X93.59Y-31.144
X94.86Y-29.874
X94.86Y-31.144
X96.384Y-23.524
X96.384Y-24.794
X96.384Y-26.064
X96.384Y-27.334
X96.384Y-28.604
X96.384Y-29.874
X96.384Y-31.144
X97.654Y-23.524
X97.654Y-24.794
X97.654Y-26.064
X97.654Y-27.334
X97.654Y-28.604
X97.654Y-29.874
X97.654Y-31.144
X99.178Y-29.874
X99.178Y-31.144
X100.448Y-29.874
X100.448Y-31.144
T3
X60.92Y-34.873
X63.46Y-34.873
X66.0Y-34.873
T2
X77.6Y-18.913G85X77.6Y-18.087
G05
X77.6Y-23.263G85X77.6Y-22.137
G05
X86.25Y-18.913G85X86.25Y-18.087
G05
X86.25Y-23.263G85X86.25Y-22.137
G05
T0
M30
